<?xml version="1.0" encoding="utf-8"?>
<!-- Generator: Adobe Illustrator 27.3.1, SVG Export Plug-In . SVG Version: 6.00 Build 0)  -->
<svg version="1.1" id="Livello_1" xmlns="http://www.w3.org/2000/svg" xmlns:xlink="http://www.w3.org/1999/xlink" x="0px" y="0px"
	 viewBox="0 0 360.8 160" style="enable-background:new 0 0 360.8 160;" xml:space="preserve">
<style type="text/css">
	.st0{fill:none;stroke:#EE7216;stroke-width:4;stroke-miterlimit:10;}
	.st1{fill:none;}
	.st2{fill:none;stroke:#010202;stroke-width:0.1892;stroke-linecap:round;stroke-linejoin:round;stroke-miterlimit:3.955;}
	.st3{fill:none;stroke:#010202;stroke-width:9.070000e-02;stroke-linecap:round;stroke-linejoin:round;}
	.st4{fill:#010202;}
	.st5{fill-rule:evenodd;clip-rule:evenodd;fill:#010202;}
</style>
<g>
	<circle class="st0" cx="73.3" cy="80" r="70.9"/>
	<circle class="st0" cx="73.3" cy="80" r="44.5"/>
	<g id="Croce_Diocesi_00000065066800036499824150000007345207414711738034_" transform="translate(-1.1096578,-1.1079318)">
		<g id="Gruppo_00000047039600738366319550000017319943552194903174_">
			<path class="st1" d="M138.3,79.9v-1.8l-1.5,1.3h-3.2v-3.2l1.3-1.5h-1.8c-0.3-0.4-0.8-1.3-1.2-2c-0.4,0.7-0.9,1.6-1.2,2h-1.8
				l1.3,1.5v3.2H127l-1.5-1.3v1.8c-0.4,0.3-1.4,0.8-2,1.2c0.7,0.4,1.6,0.9,2,1.2v1.8l1.5-1.3h3.2V86l-1.3,1.5h1.8
				c0.3,0.4,0.8,1.3,1.2,2c0.4-0.7,0.9-1.6,1.2-2h1.8l-1.3-1.5v-3.2h3.2l1.5,1.3v-1.8c0.4-0.3,1.4-0.8,2-1.2
				C139.6,80.7,138.7,80.2,138.3,79.9z"/>
			<g>
				<path id="path5243_00000080916921124370223990000015161645927283035574_" class="st2" d="M133.8,81.1c0,1-0.9,1.9-1.9,1.9
					s-1.9-0.8-1.9-1.9c0-1,0.9-1.9,1.9-1.9S133.8,80.1,133.8,81.1z"/>
				<path id="path2167_00000136398900732327010120000001309212565391402923_" class="st3" d="M131.8,81.2h0.3
					c0.5,0.1,0.8,0.3,1.1,0.6c0.1-0.2,0.2-0.3,0.1-0.5c0.2,0,0.4-0.1,0.5-0.2c-0.2-0.2-0.3-0.2-0.5-0.2c0-0.2,0-0.4-0.1-0.5
					c-0.3,0.4-0.6,0.6-1.1,0.6c0,0-0.3,0-0.3,0c-0.5-0.1-0.8-0.3-1.1-0.6c-0.1,0.2-0.2,0.3-0.1,0.5c-0.2,0-0.4,0.1-0.5,0.2
					c0.2,0.2,0.3,0.2,0.5,0.2c0,0.2,0,0.4,0.1,0.5C131,81.5,131.3,81.3,131.8,81.2z M131.8,81v0.3c-0.1,0.5-0.3,0.8-0.6,1.1
					c0.2,0.1,0.4,0.2,0.5,0.1c0,0.2,0.1,0.3,0.2,0.5c0.1-0.2,0.2-0.3,0.2-0.5c0.2,0,0.4,0,0.5-0.1c-0.4-0.3-0.6-0.6-0.6-1.1
					c0,0,0-0.3,0-0.3c0.1-0.5,0.3-0.8,0.6-1.1c-0.2-0.1-0.4-0.2-0.5-0.1c0-0.2-0.1-0.3-0.2-0.5c-0.1,0.2-0.2,0.3-0.2,0.5
					c-0.2,0-0.4,0-0.5,0.1C131.5,80.2,131.7,80.5,131.8,81z"/>
			</g>
			<g>
				<path class="st4" d="M141.1,81.1c-0.8-0.5-2.4-1.3-2.4-1.4v-2.4l-2,1.7H134v-2.6l1.7-2.1h-2.4c-0.1,0-0.9-1.6-1.4-2.4
					c-0.5,0.8-1.3,2.3-1.4,2.4h-2.4l1.7,2V79h-2.6l-2.1-1.7v2.4c0,0.1-1.6,0.9-2.4,1.4c0.8,0.5,2.4,1.3,2.4,1.4v2.4l2-1.7h2.6v2.6
					l-1.7,2.1h2.4c0.1,0,0.9,1.6,1.4,2.4c0.5-0.8,1.3-2.3,1.4-2.4h2.4l-1.7-2v-2.6h2.6l2.1,1.7v-2.4
					C138.7,82.4,140.3,81.6,141.1,81.1z M138.3,82.3v1.8l-1.5-1.3h-3.2V86l1.3,1.5h-1.8c-0.3,0.4-0.8,1.3-1.2,2
					c-0.4-0.7-0.9-1.6-1.2-2h-1.8l1.3-1.5v-3.2H127l-1.5,1.3v-1.8c-0.4-0.3-1.4-0.8-2-1.2c0.7-0.4,1.6-0.9,2-1.2v-1.8l1.5,1.3h3.2
					v-3.2l-1.3-1.5h1.8c0.3-0.4,0.8-1.3,1.2-2c0.4,0.7,0.9,1.6,1.2,2h1.8l-1.3,1.5v3.2h3.2l1.5-1.3v1.8c0.4,0.3,1.4,0.8,2,1.2
					C139.6,81.5,138.7,82,138.3,82.3z"/>
				<path id="path4214_00000114778589762677146230000015503574424103722929_" class="st4" d="M135.2,81.1c0-0.1-0.1-0.2-0.2-0.2
					c-0.1,0-0.1,0-0.1,0.1c0,0,0,0.1-0.1,0.1c-0.1,0-0.1-0.1-0.1-0.1s0-0.1-0.2-0.1s-0.4,0.2-0.4,0.2s0.2,0.2,0.4,0.2
					c0.1,0,0.1-0.1,0.2-0.1c0,0,0.1-0.1,0.1-0.1c0.1,0,0.1,0.1,0.1,0.1c0,0,0,0.1,0.1,0.1C135.2,81.3,135.2,81.2,135.2,81.1z"/>
				<path id="path4136_00000086689340651256536640000013947437591446128300_" class="st4" d="M128.6,81.1c0-0.1,0.1-0.2,0.2-0.2
					c0.1,0,0.1,0,0.1,0.1c0,0,0,0.1,0.1,0.1c0.1,0,0.1-0.1,0.1-0.1s0-0.1,0.2-0.1s0.4,0.2,0.4,0.2s-0.2,0.2-0.4,0.2
					c-0.1,0-0.1-0.1-0.2-0.1c0,0-0.1-0.1-0.1-0.1c-0.1,0-0.1,0.1-0.1,0.1c0,0,0,0.1-0.1,0.1C128.7,81.3,128.6,81.2,128.6,81.1z"/>
				<path id="path4270_00000094579081511470385400000008550934670008570798_" class="st4" d="M131.9,84.4c0.1,0,0.2-0.1,0.1-0.2
					c0-0.1,0-0.1-0.1-0.1c0,0-0.1,0-0.1-0.1c0-0.1,0.1-0.1,0.1-0.1s0.1,0,0.1-0.2s-0.2-0.4-0.2-0.4s-0.2,0.2-0.2,0.4
					c0,0.1,0.1,0.2,0.1,0.2c0,0,0.1,0.1,0.1,0.1c0,0.1-0.1,0.1-0.1,0.1c0,0-0.1,0-0.1,0.1C131.8,84.3,131.8,84.4,131.9,84.4z"/>
				<path id="path4260_00000164488149102774063600000007726621756098710407_" class="st4" d="M131.9,77.8c0.1,0,0.2,0.1,0.1,0.2
					c0,0.1,0,0.1-0.1,0.1c0,0-0.1,0-0.1,0.1c0,0.1,0.1,0.1,0.1,0.1s0.1,0,0.1,0.2s-0.2,0.4-0.2,0.4s-0.2-0.2-0.2-0.4
					c0-0.1,0.1-0.2,0.1-0.2c0,0,0.1-0.1,0.1-0.1c0-0.1-0.1-0.1-0.1-0.1c0,0-0.1,0-0.1-0.1C131.8,77.9,131.8,77.8,131.9,77.8z"/>
				<path id="path4216_00000154395418916703452500000002004237451143000475_" class="st4" d="M139.9,81.1c-0.1,0.1-0.2,0.2-0.4,0.2
					c-0.1,0-0.1-0.1-0.2-0.2c0,0-0.1,0.2-0.4,0.2c-0.3,0-0.5-0.3-0.5-0.3s0.3-0.3,0.5-0.3s0.4,0.2,0.4,0.2c0-0.1,0.1-0.2,0.2-0.2
					C139.7,80.9,139.8,81,139.9,81.1z M139.2,81.1c-0.1-0.2-0.3-0.1-0.4,0C138.9,81.2,139,81.3,139.2,81.1z"/>
				<path id="path4145_00000078730407335495349120000000540800121518989187_" class="st4" d="M123.9,81.1c0.1,0.1,0.2,0.2,0.4,0.2
					c0.1,0,0.1-0.1,0.2-0.2c0,0,0.1,0.2,0.4,0.2c0.3,0,0.5-0.3,0.5-0.3s-0.3-0.3-0.5-0.3s-0.4,0.2-0.4,0.2c0-0.1-0.1-0.2-0.2-0.2
					C124.1,80.9,124,81,123.9,81.1z M124.6,81.1c0.1-0.2,0.3-0.1,0.4,0C124.9,81.2,124.8,81.3,124.6,81.1z"/>
				<path id="path4272_00000092453170315498420160000006927360513484298167_" class="st4" d="M131.9,89.1c-0.1-0.1-0.2-0.2-0.2-0.3
					c0-0.1,0.1-0.1,0.1-0.2c0,0-0.2-0.1-0.2-0.4c0-0.3,0.3-0.5,0.3-0.5s0.3,0.3,0.3,0.5s-0.2,0.4-0.2,0.4c0.1,0,0.2,0.1,0.1,0.2
					C132.1,88.9,132,89,131.9,89.1z M131.9,88.4c0.2-0.2,0.1-0.3,0-0.4C131.8,88.1,131.7,88.2,131.9,88.4z"/>
				<path id="path4262_00000080184805294439956380000004849436038788243866_" class="st4" d="M131.9,73.1c-0.1,0.1-0.2,0.2-0.2,0.3
					c0,0.1,0.1,0.1,0.1,0.2c0,0-0.2,0.1-0.2,0.4c0,0.3,0.3,0.5,0.3,0.5s0.3-0.3,0.3-0.5s-0.2-0.4-0.2-0.4c0.1,0,0.2-0.1,0.1-0.2
					C132.1,73.3,132,73.2,131.9,73.1z M131.9,73.8c0.2,0.2,0.1,0.3,0,0.4C131.8,74.1,131.7,74,131.9,73.8z"/>
				<path id="path4266_00000086653576726294052430000006706107917783915679_" class="st4" d="M132.7,84.6c0.1,0.2,0,0.4-0.1,0.5
					c-0.1,0.1-0.3,0.2-0.3,0.2s0.1-0.2,0.1-0.3c0-0.2-0.2-0.2-0.2-0.2s-0.2,0-0.2,0.2c0,0.3,0.1,0.4,0.3,0.6
					c0.2,0.2,0.5,0.3,0.6,0.4c0.1,0.1,0.1,0.1,0.2,0.1c0.2,0.2,0.3,0.3,0.4,0.5c0.1,0.2,0,0.4,0,0.4s0.2-0.1,0.4-0.1
					c0.2,0,0.3,0.2,0.3,0.3c0,0.1-0.1,0.2-0.3,0.2c-0.1,0-0.3-0.2-0.3-0.2h0.2c0,0,0,0,0.1,0c0,0,0.1,0,0.1-0.1c0,0,0-0.2-0.2-0.1
					c-0.1,0-0.3,0.1-0.4,0.2c-0.2,0.2-0.3,0.2-0.6,0.2c-0.1,0-0.3,0-0.4-0.1c0,0-0.2-0.1-0.2-0.1c-0.1-0.1-0.3-0.4-0.3-0.4v-1
					c0,0,0.2,0.2,0.2,0.4c0,0.2-0.1,0.4-0.1,0.4s0,0.2,0.1,0.3s0.1,0.2,0.4,0.3s0.3,0.2,0.4,0.1c0.3-0.2,0.2-0.6,0.2-0.6l0.3,0.1
					c0,0,0-0.3-0.3-0.5c-0.2-0.1-0.4-0.2-0.7-0.4c-0.3-0.3-0.4-0.4-0.4-0.8c0-0.3,0.1-0.5,0.5-0.7c0.5-0.2,0.3-0.6,0.3-0.6
					c-0.3-0.1-0.6-0.3-0.9-0.6c0,0,0-0.1,0-0.1c0,0,0.1,0,0.1,0c0.2,0.2,0.5,0.5,0.9,0.6c0.1,0,0.2,0,0.2,0.1c0.1,0,0.1,0,0.1-0.1
					c0-0.1,0-0.1,0-0.1c0,0,0,0,0,0c0,0,0,0,0,0c0,0,0,0-0.1,0c0,0,0,0,0,0c0,0,0,0,0,0.1c0,0,0,0-0.1,0s-0.1,0-0.1,0c0,0,0,0-0.1,0
					s0,0-0.1,0s0-0.1,0-0.1c0,0,0-0.1,0.1-0.1c0,0,0.1-0.1,0.1-0.1c0.1,0,0.1,0,0.1,0s0.1,0.1,0.1,0.1c0,0,0.1,0.1,0.1,0.2
					c0,0,0,0.1,0,0.1c0,0,0,0.1-0.1,0.1c-0.1,0.1-0.2,0.1-0.2,0.1c0,0,0,0-0.1,0c0,0,0.1,0.2,0.1,0.3c0,0.2-0.2,0.4-0.2,0.4
					c0.3,0.2,0.5,0.5,0.5,1c0,0.5-0.5,1.1-0.5,1.1c-0.2,0.2-0.4,0.4-0.5,0.9c0,0.1,0.1,0.2,0.2,0.2c0.1,0,0.2-0.1,0.2-0.1
					c0,0,0,0.3-0.2,0.3c-0.1,0-0.4-0.1-0.4-0.4c0.1-0.4,0.2-0.7,0.4-1c0,0,0.5-0.6,0.6-0.9c0-0.1-0.1-0.3-0.2-0.4
					c-0.1,0-0.1,0-0.2-0.2h0.2c0,0.1,0,0.1,0.1,0C133,84.8,132.9,84.7,132.7,84.6z"/>
				<path id="path4268_00000102539911413021332290000010021756167700020868_" class="st4" d="M131.1,84.6c-0.1,0.2,0,0.4,0.1,0.5
					c0.1,0.1,0.3,0.2,0.3,0.2s-0.1-0.2-0.1-0.3c0-0.2,0.2-0.2,0.2-0.2s0.2,0,0.2,0.2c0,0.3-0.1,0.4-0.3,0.6
					c-0.2,0.2-0.5,0.3-0.6,0.4c-0.1,0.1-0.1,0.1-0.2,0.1c-0.2,0.2-0.3,0.3-0.4,0.5s0,0.4,0,0.4s-0.2-0.1-0.4-0.1
					c-0.2,0-0.3,0.2-0.3,0.3c0,0.1,0.1,0.2,0.3,0.2c0.1,0,0.3-0.2,0.3-0.2h-0.2c0,0,0,0-0.1,0c0,0-0.1,0-0.1-0.1c0,0,0-0.2,0.2-0.1
					c0.1,0,0.3,0.1,0.4,0.2c0.2,0.2,0.3,0.2,0.6,0.2c0.1,0,0.3,0,0.4-0.1c0,0,0.2-0.1,0.2-0.1c0.1-0.1,0.3-0.4,0.3-0.4v-1
					c0,0-0.2,0.2-0.2,0.4c0,0.2,0.1,0.4,0.1,0.4s0,0.2-0.1,0.3s-0.1,0.2-0.4,0.3s-0.3,0.2-0.4,0.1c-0.3-0.2-0.2-0.6-0.2-0.6
					l-0.3,0.1c0,0,0-0.3,0.3-0.5c0.2-0.1,0.4-0.2,0.7-0.4c0.3-0.3,0.4-0.4,0.4-0.8c0-0.3-0.1-0.5-0.5-0.7c-0.5-0.2-0.3-0.6-0.3-0.6
					c0.3-0.1,0.6-0.3,0.9-0.6c0,0,0-0.1,0-0.1c0,0-0.1,0-0.1,0c-0.2,0.2-0.5,0.5-0.9,0.6c-0.1,0-0.2,0-0.2,0.1c-0.1,0-0.1,0-0.1-0.1
					c0-0.1,0-0.1,0-0.1c0,0,0,0,0,0c0,0,0,0,0,0c0,0,0,0,0.1,0c0,0,0,0,0,0c0,0,0,0,0,0.1c0,0,0,0,0.1,0s0.1,0,0.1,0c0,0,0,0,0.1,0
					s0,0,0.1,0s0-0.1,0-0.1c0,0,0-0.1-0.1-0.1c0,0-0.1-0.1-0.1-0.1c-0.1,0-0.1,0-0.1,0s-0.1,0.1-0.1,0.1c0,0-0.1,0.1-0.1,0.2
					c0,0,0,0.1,0,0.1c0,0,0,0.1,0.1,0.1c0.1,0.1,0.2,0.1,0.2,0.1c0,0,0,0,0.1,0c0,0-0.1,0.2-0.1,0.3c0,0.2,0.2,0.4,0.2,0.4
					c-0.3,0.2-0.5,0.5-0.5,1c0,0.5,0.5,1.1,0.5,1.1c0.2,0.2,0.4,0.4,0.5,0.9c0,0.1-0.1,0.2-0.2,0.2c-0.1,0-0.2-0.1-0.2-0.1
					c0,0,0,0.3,0.2,0.3c0.1,0,0.4-0.1,0.4-0.4c-0.1-0.4-0.2-0.7-0.4-1c0,0-0.5-0.6-0.6-0.9c0-0.1,0.1-0.3,0.2-0.4
					c0.1,0,0.1,0,0.2-0.2h-0.2c0,0.1,0,0.1-0.1,0C130.8,84.8,130.9,84.7,131.1,84.6z"/>
				<path id="path4212_00000168800443378558078800000015821392082107518094_" class="st4" d="M135.4,81.9c0.2,0.1,0.4,0,0.5-0.1
					c0.1-0.1,0.2-0.3,0.2-0.3s-0.2,0.1-0.3,0.1c-0.2,0-0.2-0.2-0.2-0.2c0,0,0-0.2,0.2-0.2c0.3,0,0.4,0.1,0.6,0.3
					c0.2,0.2,0.3,0.5,0.4,0.6c0.1,0.1,0.1,0.2,0.1,0.2c0.1,0.2,0.3,0.3,0.5,0.3s0.4,0,0.4,0s-0.1,0.2-0.1,0.4c0,0.2,0.2,0.3,0.3,0.3
					c0.1,0,0.2-0.1,0.2-0.3c0-0.1-0.2-0.3-0.2-0.3v0.2c0,0,0,0,0,0.1s0,0.1-0.1,0.1c0,0-0.1,0-0.1-0.2c0-0.2,0.1-0.3,0.2-0.4
					c0.2-0.2,0.2-0.3,0.2-0.6c0-0.1,0-0.3-0.1-0.4c0,0-0.1-0.2-0.1-0.2c-0.1-0.1-0.4-0.3-0.4-0.3h-1c0,0,0.2,0.2,0.4,0.2
					c0.2,0,0.4-0.1,0.4-0.1s0.2,0,0.3,0.1c0.2,0.1,0.2,0.2,0.3,0.3s0.1,0.3,0.1,0.4c-0.1,0.3-0.6,0.2-0.6,0.2l0.1,0.3
					c0,0-0.3,0-0.5-0.3c-0.1-0.2-0.1-0.4-0.4-0.7c-0.3-0.3-0.4-0.4-0.8-0.4c-0.3,0-0.5,0.1-0.7,0.5c-0.1,0.5-0.6,0.3-0.6,0.3
					c-0.1-0.3-0.4-0.6-0.6-0.8c0,0-0.1,0-0.1,0s0,0.1,0,0.1c0.2,0.2,0.5,0.5,0.6,0.9c0,0.1,0,0.2,0.1,0.2s0,0.1-0.1,0.1
					c-0.1,0-0.1,0-0.1,0c0,0,0,0,0,0c0,0,0,0,0,0c0,0,0,0,0-0.1c0,0,0,0,0,0c0,0,0,0,0.1,0c0,0,0,0,0-0.1s0-0.1,0-0.1c0,0,0,0,0-0.1
					s0,0,0-0.1c0,0-0.1,0-0.1,0c0,0-0.1,0-0.1,0.1s-0.1,0.1-0.1,0.1c0,0.1,0,0.1,0,0.2s0.1,0.1,0.1,0.1c0,0,0.1,0.1,0.1,0.1
					c0,0,0.1,0,0.1,0s0.1,0,0.1-0.1c0.1-0.1,0.1-0.2,0.1-0.2c0,0,0,0,0-0.1c0,0,0.2,0.1,0.4,0.1c0.2,0,0.4-0.2,0.4-0.2
					c0.2,0.3,0.5,0.5,1,0.5c0.5,0,1.1-0.5,1.1-0.5c0.2-0.2,0.4-0.4,0.9-0.5c0.1,0,0.2,0.1,0.2,0.2c0,0.1-0.1,0.2-0.1,0.2
					c0,0,0.3,0,0.3-0.2c0-0.2-0.1-0.4-0.4-0.4c-0.4,0.1-0.7,0.2-1,0.4c0,0-0.6,0.5-0.9,0.6c-0.1,0-0.3-0.1-0.4-0.2
					c0-0.1,0-0.1-0.2-0.2v0.2c0.1,0,0.1,0,0,0.1C135.7,82.2,135.5,82.1,135.4,81.9z"/>
				<path id="path4210_00000033357610734654841130000009844800712318774151_" class="st4" d="M135.4,80.3c0.2-0.1,0.4,0,0.5,0.1
					c0.1,0.1,0.2,0.3,0.2,0.3s-0.2-0.1-0.3-0.1c-0.2,0-0.2,0.2-0.2,0.2c0,0,0,0.2,0.2,0.2c0.3,0,0.4-0.1,0.6-0.3
					c0.2-0.2,0.3-0.5,0.4-0.6c0.1-0.1,0.1-0.2,0.1-0.2c0.1-0.2,0.3-0.3,0.5-0.3s0.4,0,0.4,0s-0.1-0.2-0.1-0.4c0-0.2,0.2-0.3,0.3-0.3
					c0.1,0,0.2,0.1,0.2,0.3c0,0.1-0.2,0.3-0.2,0.3v-0.2c0,0,0,0,0-0.1s0-0.1-0.1-0.1c0,0-0.1,0-0.1,0.2c0,0.2,0.1,0.3,0.2,0.4
					c0.2,0.2,0.2,0.3,0.2,0.6c0,0.1,0,0.3-0.1,0.4c0,0-0.1,0.2-0.1,0.2c-0.1,0.1-0.4,0.3-0.4,0.3h-1c0,0,0.2-0.2,0.4-0.2
					c0.2,0,0.4,0.1,0.4,0.1s0.2,0,0.3-0.1c0.2-0.1,0.2-0.2,0.3-0.3s0.1-0.3,0.1-0.4c-0.1-0.3-0.6-0.2-0.6-0.2l0.1-0.3
					c0,0-0.3,0-0.5,0.3c-0.1,0.2-0.1,0.4-0.4,0.7c-0.3,0.3-0.4,0.4-0.8,0.4c-0.3,0-0.5-0.1-0.7-0.5c-0.1-0.5-0.6-0.3-0.6-0.3
					c-0.1,0.3-0.4,0.6-0.6,0.8c0,0-0.1,0-0.1,0s0-0.1,0-0.1c0.2-0.2,0.5-0.5,0.6-0.9c0-0.1,0-0.2,0.1-0.2s0-0.1-0.1-0.1
					c-0.1,0-0.1,0-0.1,0c0,0,0,0,0,0c0,0,0,0,0,0c0,0,0,0,0,0.1c0,0,0,0,0,0s0,0,0.1,0c0,0,0,0,0,0.1s0,0.1,0,0.1c0,0,0,0,0,0.1
					s0,0,0,0.1c0,0-0.1,0-0.1,0c0,0-0.1,0-0.1-0.1s-0.1-0.1-0.1-0.1c0-0.1,0-0.1,0-0.2s0.1-0.1,0.1-0.1c0,0,0.1-0.1,0.1-0.1
					c0,0,0.1,0,0.1,0c0,0,0.1,0,0.1,0.1c0.1,0.1,0.1,0.2,0.1,0.2c0,0,0,0,0,0.1c0,0,0.2-0.1,0.4-0.1c0.2,0,0.4,0.2,0.4,0.2
					c0.2-0.3,0.5-0.5,1-0.5c0.5,0,1.1,0.5,1.1,0.5c0.2,0.2,0.4,0.4,0.9,0.5c0.1,0,0.2-0.1,0.2-0.2c0-0.1-0.1-0.2-0.1-0.2
					c0,0,0.3,0,0.3,0.2c0,0.2-0.1,0.4-0.4,0.4c-0.4-0.1-0.7-0.2-1-0.4c0,0-0.6-0.5-0.9-0.6c-0.1,0-0.3,0.1-0.4,0.2
					c0,0.1,0,0.1-0.2,0.2V80c0.1,0,0.1,0,0-0.1C135.7,80,135.5,80.1,135.4,80.3z"/>
				<path id="path4134_00000002380080468359272320000005894589899458283144_" class="st4" d="M128.5,81.9c-0.2,0.1-0.4,0-0.5-0.1
					c-0.1-0.1-0.2-0.3-0.2-0.3s0.2,0.1,0.3,0.1c0.2,0,0.2-0.2,0.2-0.2c0,0,0-0.2-0.2-0.2c-0.3,0-0.4,0.1-0.6,0.3
					c-0.2,0.2-0.3,0.5-0.4,0.6c-0.1,0.1-0.1,0.2-0.1,0.2c-0.1,0.2-0.3,0.3-0.5,0.3s-0.4,0-0.4,0s0.1,0.2,0.1,0.4
					c0,0.2-0.2,0.3-0.3,0.3c-0.1,0-0.2-0.1-0.2-0.3c0-0.1,0.2-0.3,0.2-0.3v0.2c0,0,0,0,0,0.1s0,0.1,0.1,0.1c0,0,0.1,0,0.1-0.2
					c0-0.2-0.1-0.3-0.2-0.4c-0.2-0.2-0.2-0.3-0.2-0.6c0-0.1,0-0.3,0.1-0.4c0,0,0.1-0.2,0.1-0.2c0.1-0.1,0.4-0.3,0.4-0.3h1
					c0,0-0.2,0.2-0.4,0.2c-0.2,0-0.4-0.1-0.4-0.1s-0.2,0-0.3,0.1s-0.2,0.2-0.3,0.3s-0.1,0.3-0.1,0.4c0.1,0.3,0.6,0.2,0.6,0.2
					l-0.1,0.3c0,0,0.3,0,0.5-0.3c0.1-0.2,0.1-0.4,0.4-0.7c0.3-0.3,0.4-0.4,0.8-0.4c0.3,0,0.5,0.1,0.7,0.5c0.1,0.5,0.6,0.3,0.6,0.3
					c0.1-0.3,0.4-0.6,0.6-0.8c0,0,0.1,0,0.1,0s0,0.1,0,0.1c-0.2,0.2-0.5,0.5-0.6,0.9c0,0.1,0,0.2-0.1,0.2s0,0.1,0.1,0.1
					c0.1,0,0.1,0,0.1,0c0,0,0,0,0,0c0,0,0,0,0,0c0,0,0,0,0-0.1c0,0,0,0,0,0c0,0,0,0-0.1,0c0,0,0,0,0-0.1s0-0.1,0-0.1c0,0,0,0,0-0.1
					s0,0,0-0.1s0.1,0,0.1,0c0,0,0.1,0,0.1,0.1s0.1,0.1,0.1,0.1c0,0.1,0,0.1,0,0.2s-0.1,0.1-0.1,0.1c0,0-0.1,0.1-0.1,0.1
					c0,0-0.1,0-0.1,0c0,0-0.1,0-0.1-0.1c-0.1-0.1-0.1-0.2-0.1-0.2c0,0,0,0,0-0.1c0,0-0.2,0.1-0.4,0.1c-0.2,0-0.4-0.2-0.4-0.2
					c-0.2,0.3-0.5,0.5-1,0.5c-0.5,0-1.1-0.5-1.1-0.5c-0.2-0.2-0.4-0.4-0.9-0.5c-0.1,0-0.2,0.1-0.2,0.2c0,0.1,0.1,0.2,0.1,0.2
					c0,0-0.3,0-0.3-0.2c0-0.2,0.1-0.4,0.4-0.4c0.4,0.1,0.7,0.2,1,0.4c0,0,0.6,0.5,0.9,0.6c0.1,0,0.3-0.1,0.4-0.2
					c0-0.1,0-0.1,0.2-0.2v0.2c0,0,0,0,0,0.1C128.2,82.2,128.4,82.1,128.5,81.9z"/>
				<path id="path4174_00000116953261294391749490000000700239960174196883_" class="st4" d="M128.5,80.3c-0.2-0.1-0.4,0-0.5,0.1
					c-0.1,0.1-0.2,0.3-0.2,0.3s0.2-0.1,0.3-0.1c0.2,0,0.2,0.2,0.2,0.2c0,0,0,0.2-0.2,0.2c-0.3,0-0.4-0.1-0.6-0.3
					c-0.2-0.2-0.3-0.5-0.4-0.6c-0.1-0.1-0.1-0.2-0.1-0.2c-0.1-0.2-0.3-0.3-0.5-0.3s-0.4,0-0.4,0s0.1-0.2,0.1-0.4
					c0-0.2-0.2-0.3-0.3-0.3c-0.1,0-0.2,0.1-0.2,0.3c0,0.1,0.2,0.3,0.2,0.3v-0.2c0,0,0,0,0-0.1s0-0.1,0.1-0.1c0,0,0.1,0,0.1,0.2
					c0,0.2-0.1,0.3-0.2,0.4c-0.2,0.2-0.2,0.3-0.2,0.6c0,0.1,0,0.3,0.1,0.4c0,0,0.1,0.2,0.1,0.2c0.1,0.1,0.4,0.3,0.4,0.3h1
					c0,0-0.2-0.2-0.4-0.2c-0.2,0-0.4,0.1-0.4,0.1s-0.2,0-0.3-0.1s-0.2-0.2-0.3-0.3s-0.1-0.3-0.1-0.4c0.1-0.3,0.6-0.2,0.6-0.2
					l-0.1-0.3c0,0,0.3,0,0.5,0.3c0.1,0.2,0.1,0.4,0.4,0.7c0.3,0.3,0.4,0.4,0.8,0.4c0.3,0,0.5-0.1,0.7-0.5c0.1-0.5,0.6-0.3,0.6-0.3
					c0.1,0.3,0.4,0.6,0.6,0.8c0,0,0.1,0,0.1,0s0-0.1,0-0.1c-0.2-0.2-0.5-0.5-0.6-0.9c0-0.1,0-0.2-0.1-0.2s0-0.1,0.1-0.1
					c0.1,0,0.1,0,0.1,0c0,0,0,0,0,0c0,0,0,0,0,0c0,0,0,0,0,0.1c0,0,0,0,0,0s0,0-0.1,0c0,0,0,0,0,0.1s0,0.1,0,0.1c0,0,0,0,0,0.1
					s0,0,0,0.1s0.1,0,0.1,0c0,0,0.1,0,0.1-0.1s0.1-0.1,0.1-0.1c0-0.1,0-0.1,0-0.2s-0.1-0.1-0.1-0.1c0,0-0.1-0.1-0.1-0.1
					c0,0-0.1,0-0.1,0c0,0-0.1,0-0.1,0.1c-0.1,0.1-0.1,0.2-0.1,0.2c0,0,0,0,0,0.1c0,0-0.2-0.1-0.4-0.1c-0.2,0-0.4,0.2-0.4,0.2
					c-0.2-0.3-0.5-0.5-1-0.5c-0.5,0-1.1,0.5-1.1,0.5c-0.2,0.2-0.4,0.4-0.9,0.5c-0.1,0-0.2-0.1-0.2-0.2c0-0.1,0.1-0.2,0.1-0.2
					c0,0-0.3,0-0.3,0.2c0,0.2,0.1,0.4,0.4,0.4c0.4-0.1,0.7-0.2,1-0.4c0,0,0.6-0.5,0.9-0.6c0.1,0,0.3,0.1,0.4,0.2
					c0,0.1,0,0.1,0.2,0.2V80c0,0,0,0,0-0.1C128.2,80,128.4,80.1,128.5,80.3z"/>
				<path id="path4256_00000071531628878815440310000007479414230988735136_" class="st4" d="M132.7,77.7c0.1-0.2,0-0.4-0.1-0.5
					c-0.1-0.1-0.3-0.2-0.3-0.2s0.1,0.2,0.1,0.3c0,0.2-0.2,0.2-0.2,0.2s-0.2,0-0.2-0.2c0-0.3,0.1-0.4,0.3-0.6
					c0.2-0.2,0.5-0.3,0.6-0.4c0.1-0.1,0.1-0.1,0.2-0.1c0.2-0.2,0.3-0.3,0.4-0.5c0.1-0.2,0-0.4,0-0.4s0.2,0.1,0.4,0.1
					c0.2,0,0.3-0.2,0.3-0.3c0-0.1-0.1-0.2-0.3-0.2c-0.1,0-0.3,0.2-0.3,0.2h0.2c0,0,0,0,0.1,0c0,0,0.1,0,0.1,0.1c0,0,0,0.2-0.2,0.1
					c-0.1,0-0.3-0.1-0.4-0.2c-0.2-0.2-0.3-0.2-0.6-0.2c-0.1,0-0.3,0-0.4,0.1c0,0-0.2,0.1-0.2,0.1c-0.1,0.1-0.3,0.4-0.3,0.4v1
					c0,0,0.2-0.2,0.2-0.4c0-0.2-0.1-0.4-0.1-0.4s0-0.2,0.1-0.3c0.1-0.2,0.1-0.2,0.4-0.3c0.2-0.1,0.3-0.2,0.4-0.1
					c0.3,0.2,0.2,0.6,0.2,0.6l0.3-0.1c0,0,0,0.3-0.3,0.5c-0.2,0.1-0.4,0.2-0.7,0.4c-0.3,0.3-0.4,0.4-0.4,0.8c0,0.3,0.1,0.5,0.5,0.7
					c0.5,0.2,0.3,0.6,0.3,0.6c-0.3,0.1-0.6,0.3-0.9,0.6c0,0,0,0.1,0,0.1c0,0,0.1,0,0.1,0c0.2-0.2,0.5-0.5,0.9-0.6
					c0.1,0,0.2,0,0.2-0.1c0.1,0,0.1,0,0.1,0.1c0,0.1,0,0.1,0,0.1c0,0,0,0,0,0c0,0,0,0,0,0c0,0,0,0-0.1,0c0,0,0,0,0,0c0,0,0,0,0-0.1
					c0,0,0,0-0.1,0s-0.1,0-0.1,0c0,0,0,0-0.1,0s0,0-0.1,0c0,0,0,0.1,0,0.1c0,0,0,0.1,0.1,0.1s0.1,0.1,0.1,0.1c0.1,0,0.1,0,0.1,0
					c0.1,0,0.1-0.1,0.1-0.1c0,0,0.1-0.1,0.1-0.2c0,0,0-0.1,0-0.1c0,0,0-0.1-0.1-0.1c-0.1-0.1-0.2-0.1-0.2-0.1c0,0,0,0-0.1,0
					c0,0,0.1-0.2,0.1-0.3c0-0.2-0.2-0.4-0.2-0.4c0.3-0.2,0.5-0.5,0.5-1c0-0.5-0.5-1.1-0.5-1.1c-0.2-0.2-0.4-0.4-0.5-0.9
					c0-0.1,0.1-0.2,0.2-0.2c0.1,0,0.2,0.1,0.2,0.1c0,0,0-0.3-0.2-0.3c-0.1,0-0.4,0.1-0.4,0.4c0.1,0.4,0.2,0.7,0.4,1
					c0,0,0.5,0.6,0.6,0.9c0,0.1-0.1,0.3-0.2,0.4c-0.1,0-0.1,0-0.2,0.2h0.2c0-0.1,0-0.1,0.1,0C133,77.4,132.9,77.6,132.7,77.7z"/>
				<path id="path4258_00000179629767401202040270000004766469852344728450_" class="st4" d="M131.1,77.7c-0.1-0.2,0-0.4,0.1-0.5
					c0.1-0.1,0.3-0.2,0.3-0.2s-0.1,0.2-0.1,0.3c0,0.2,0.2,0.2,0.2,0.2s0.2,0,0.2-0.2c0-0.3-0.1-0.4-0.3-0.6
					c-0.2-0.2-0.5-0.3-0.6-0.4c-0.1-0.1-0.1-0.1-0.2-0.1c-0.2-0.2-0.3-0.3-0.4-0.5c-0.1-0.2,0-0.4,0-0.4s-0.2,0.1-0.4,0.1
					c-0.2,0-0.3-0.2-0.3-0.3c0-0.1,0.1-0.2,0.3-0.2c0.1,0,0.3,0.2,0.3,0.2h-0.2c0,0,0,0-0.1,0c0,0-0.1,0-0.1,0.1c0,0,0,0.2,0.2,0.1
					c0.1,0,0.3-0.1,0.4-0.2c0.2-0.2,0.3-0.2,0.6-0.2c0.1,0,0.3,0,0.4,0.1c0,0,0.2,0.1,0.2,0.1c0.1,0.1,0.3,0.4,0.3,0.4v1
					c0,0-0.2-0.2-0.2-0.4c0-0.2,0.1-0.4,0.1-0.4s0-0.2-0.1-0.3c-0.1-0.2-0.1-0.2-0.4-0.3c-0.2-0.1-0.3-0.2-0.4-0.1
					c-0.3,0.2-0.2,0.6-0.2,0.6l-0.3-0.1c0,0,0,0.3,0.3,0.5c0.2,0.1,0.4,0.2,0.7,0.4c0.3,0.3,0.4,0.4,0.4,0.8c0,0.3-0.1,0.5-0.5,0.7
					c-0.5,0.2-0.3,0.6-0.3,0.6c0.3,0.1,0.6,0.3,0.9,0.6c0,0,0,0.1,0,0.1c0,0-0.1,0-0.1,0c-0.2-0.2-0.5-0.5-0.9-0.6
					c-0.1,0-0.2,0-0.2-0.1c-0.1,0-0.1,0-0.1,0.1c0,0.1,0,0.1,0,0.1c0,0,0,0,0,0c0,0,0,0,0,0c0,0,0,0,0.1,0c0,0,0,0,0,0
					c0,0,0,0,0-0.1c0,0,0,0,0.1,0s0.1,0,0.1,0c0,0,0,0,0.1,0s0,0,0.1,0c0,0,0,0.1,0,0.1c0,0,0,0.1-0.1,0.1s-0.1,0.1-0.1,0.1
					c-0.1,0-0.1,0-0.1,0c-0.1,0-0.1-0.1-0.1-0.1c0,0-0.1-0.1-0.1-0.2c0,0,0-0.1,0-0.1c0,0,0-0.1,0.1-0.1c0.1-0.1,0.2-0.1,0.2-0.1
					c0,0,0,0,0.1,0c0,0-0.1-0.2-0.1-0.3c0-0.2,0.2-0.4,0.2-0.4c-0.3-0.2-0.5-0.5-0.5-1c0-0.5,0.5-1.1,0.5-1.1
					c0.2-0.2,0.4-0.4,0.5-0.9c0-0.1-0.1-0.2-0.2-0.2c-0.1,0-0.2,0.1-0.2,0.1c0,0,0-0.3,0.2-0.3c0.1,0,0.4,0.1,0.4,0.4
					c-0.1,0.4-0.2,0.7-0.4,1c0,0-0.5,0.6-0.6,0.9c0,0.1,0.1,0.3,0.2,0.4c0.1,0,0.1,0,0.2,0.2h-0.2c0-0.1,0-0.1-0.1,0
					C130.8,77.4,130.9,77.6,131.1,77.7z"/>
				<path id="path4150_00000093859343360760746560000005731483650359415484_" class="st4" d="M130.9,81.9c0.1-0.2,0.3-0.3,0.4-0.4
					c0.1-0.1,0.1,0,0.1,0.2s-0.3,0.3-0.4,0.4C130.8,82.2,130.8,82.1,130.9,81.9"/>
				<path id="path4123_00000172411913922316825590000018331448757155710366_" class="st4" d="M130.5,81.1c0.1,0.1,0.4,0,0.6,0.1
					c-0.2,0.2-0.4,0.3-0.4,0.4c0,0.1,0.1,0,0.2-0.1c0.2-0.1,0.4-0.3,0.7-0.3c-0.3,0-0.5-0.2-0.7-0.3c-0.1-0.1-0.1-0.2-0.2-0.1
					c0,0.1,0.1,0.2,0.4,0.4C130.9,81.1,130.5,81,130.5,81.1z"/>
				<path id="path4130_00000067949668394038341400000001304722218847195062_" class="st4" d="M133.3,81.1c-0.1,0.1-0.4,0-0.6,0.1
					c0.2,0.2,0.4,0.3,0.4,0.4c0,0.1-0.1,0-0.2-0.1c-0.2-0.1-0.4-0.3-0.7-0.3c0.3,0,0.5-0.2,0.7-0.3c0.1-0.1,0.1-0.2,0.2-0.1
					c0,0.1-0.1,0.2-0.4,0.4C132.9,81.1,133.3,81,133.3,81.1z"/>
				<path id="path4138_00000090264983411432869650000011912347529353951888_" class="st4" d="M131.9,79.7c-0.1,0.1,0,0.4-0.1,0.6
					c-0.2-0.2-0.3-0.4-0.4-0.4c-0.1,0,0,0.1,0.1,0.2c0.1,0.2,0.3,0.4,0.3,0.7c0-0.3,0.2-0.5,0.3-0.7c0.1-0.1,0.1-0.1,0.1-0.2
					c-0.1,0-0.2,0.2-0.4,0.4C131.9,80.1,132,79.7,131.9,79.7z"/>
				<path id="path4140_00000128453878058050467800000001433048988333180814_" class="st4" d="M131.9,82.5c-0.1-0.1,0-0.4-0.1-0.6
					c-0.2,0.2-0.3,0.4-0.4,0.4c-0.1,0,0-0.1,0.1-0.2c0.1-0.2,0.3-0.4,0.3-0.7c0,0.3,0.2,0.5,0.3,0.7c0.1,0.1,0.1,0.1,0.1,0.2
					c-0.1,0-0.2-0.2-0.4-0.4C131.9,82.1,132,82.5,131.9,82.5z"/>
				<path id="path4144_00000107578554958396170680000006658898392164537235_" class="st4" d="M131.3,80.6c-0.2-0.1-0.3-0.3-0.4-0.4
					c-0.1-0.1,0-0.2,0.2-0.1c0.2,0.1,0.3,0.3,0.4,0.4S131.4,80.7,131.3,80.6"/>
				<path id="path4146_00000079478249067427656680000017034776062763004056_" class="st4" d="M132.8,82.1c-0.2-0.1-0.3-0.3-0.4-0.4
					c-0.1-0.1,0-0.2,0.2-0.1c0.2,0.1,0.3,0.3,0.4,0.4S132.9,82.2,132.8,82.1"/>
				<path id="path4148_00000078026233148009115150000013325224341323548841_" class="st4" d="M132.4,80.5c0.1-0.2,0.3-0.3,0.4-0.4
					c0.1-0.1,0.1,0,0.1,0.2c-0.1,0.2-0.3,0.3-0.4,0.4C132.3,80.7,132.3,80.6,132.4,80.5"/>
			</g>
			<g id="Lettere_00000152944485733796949210000001047148519897654155_">
				<path id="path24889_00000000216962630435175030000012304386521430684592_" class="st5" d="M126.3,75.7h-0.3v0.1h0.1V77h-0.1v0.1
					h0.5V77h-0.1L126.3,75.7z"/>
				<path id="path3186_00000109740226425665474620000014741053637516858255_" class="st5" d="M126.6,76.3c0-0.1,0.3-0.1,0.3,0.1
					h-0.1v0.2h0.3v-0.3c0-0.1,0.3-0.1,0.3,0.1h-0.1v0.7h-0.2v-0.3h-0.2h-0.1V77c0,0.1-0.3,0.1-0.3-0.1h0.1V76.3z"/>
				<path id="path24887_00000039839830017095525710000014474988761842354342_" class="st5" d="M127.7,76.9c0,0.1,0.1,0.1,0.1,0.1
					c0.1,0,0.1,0,0.1-0.1c0.1,0,0.1,0,0.2,0c-0.1,0.1-0.2,0.2-0.3,0.2c-0.2,0-0.4-0.2-0.4-0.4v0c0-0.2,0.2-0.4,0.4-0.4
					c0.1,0,0.2,0.1,0.3,0.2c0,0.1-0.1,0.1-0.2,0c0-0.1-0.1-0.1-0.1-0.1c-0.1,0-0.1,0-0.1,0.1V76.9z"/>
				
					<rect id="rect5544_00000167376763198208709000000006944295393490285477_" x="126.5" y="75.7" class="st4" width="1.6" height="0.1"/>
				<path id="path6238_00000067214318363199439700000005968582463819427519_" class="st5" d="M135.3,76h0.2v1.1h-0.1v0.1h0.5v-0.1
					h-0.1V76h0.1v-0.1h-0.6h-0.6V76h0.1v1.1h-0.1v0.1h0.5v-0.1h-0.1V76L135.3,76L135.3,76z"/>
				<path id="path5556_00000043418617580532858650000006357944941235769746_" class="st5" d="M137.6,77.1c0,0.1,0.1,0.1,0.1,0.1
					c0.1,0,0.1,0,0.1-0.1c0.1,0,0.1,0,0.2,0c-0.1,0.1-0.2,0.2-0.3,0.2c-0.2,0-0.4-0.2-0.4-0.4v0c0-0.2,0.2-0.4,0.4-0.4
					c0.1,0,0.2,0.1,0.3,0.2c0,0.1-0.1,0.1-0.2,0c0-0.1-0.1-0.1-0.1-0.1c-0.1,0-0.1,0-0.1,0.1V77.1z"/>
				<path id="path6126_00000058591130074011602210000015174585945595442602_" class="st5" d="M136.7,77c0.1,0.1,0.1,0.3,0.3,0.3
					c0.1,0,0.2-0.1,0.2-0.2c0-0.1-0.1-0.1-0.1-0.2c-0.1,0-0.1,0-0.1,0.1c0,0.1-0.1,0-0.1-0.1c-0.1-0.1-0.1-0.1-0.1-0.2
					c0,0,0.2-0.3,0.2-0.3c0.1,0,0.1,0.1,0.1,0.1c0-0.1,0.1-0.1,0.1-0.1c0-0.1-0.1-0.1-0.1-0.1c-0.1,0-0.2,0-0.3,0.1
					c-0.1,0.1-0.1,0.2-0.1,0.2c-0.1-0.1-0.1-0.3-0.3-0.3c-0.1,0-0.2,0.1-0.2,0.2c0,0.1,0.1,0.1,0.1,0.2c0.1,0,0.1,0,0.1-0.1
					c0-0.1,0.1,0,0.1,0.1c0.1,0.1,0.1,0.1,0.1,0.2c0,0-0.2,0.3-0.2,0.3c-0.1,0-0.1-0.1-0.1-0.1c0,0.1-0.1,0.1-0.1,0.2
					c0,0.1,0.1,0.1,0.1,0.1c0.1,0,0.2,0,0.3-0.1C136.6,77.1,136.6,77,136.7,77"/>
				
					<rect id="rect5561_00000183956833300173089540000013486358963637176472_" x="136.2" y="76" class="st4" width="1.8" height="0.1"/>
				<path id="path8133_00000178906451078859553710000009520294607455824057_" class="st5" d="M136.4,85.3h0.3v0.6h0.1V86h-0.1v0.6
					h-0.2V86h-0.1v-0.1h0.1v-0.5L136.4,85.3L136.4,85.3z"/>
				<path id="path9106_00000005227266063164005570000011163271325336071592_" class="st5" d="M136.7,85.5c0.1,0,0.2,0,0.3,0
					c0.7,0.5-0.9,1.5-0.9,0.1c0.1-0.2,0.3-0.1,0.3,0.1c0,0.1-0.1,0.1-0.1,0.1c0,0-0.1-0.1-0.1-0.1s-0.1-0.1-0.1,0.1
					c0,0.5,0.5,0.7,0.8,0.2c0.1-0.2-0.1-0.4-0.2-0.3C136.6,85.7,136.6,85.5,136.7,85.5z"/>
				<path id="path18940_00000080168886576681426010000007324673166517183617_" class="st5" d="M135.2,86.2c0-0.1,0.1-0.2,0.1-0.4
					c0-0.2-0.1-0.2-0.2-0.2s-0.2,0.1-0.2,0.2c0,0.1,0.1,0.2,0.1,0.4H135.2z"/>
				<path id="path18952_00000109732697874178910910000007002447518378508688_" class="st5" d="M135.8,86.2c0-0.1,0.1-0.2,0.1-0.4
					c0-0.2-0.1-0.2-0.2-0.2s-0.2,0.1-0.2,0.2c0,0.1,0.1,0.2,0.1,0.4H135.8z"/>
				<path id="path18956_00000145739731997705670080000005787813463348711604_" class="st5" d="M135.7,86L135.7,86
					c-0.1,0.2-0.2,0.2-0.3,0.2s-0.2,0-0.2-0.2l0,0l0,0.1c-0.1,0.1-0.1,0.1-0.2,0.2c0,0,0,0,0,0c0,0,0,0,0,0c0,0,0,0,0.1,0
					c0.1,0,0.1-0.1,0.2-0.2c0.1,0.1,0.2,0.1,0.3,0.1s0.2-0.1,0.3-0.1c0.1,0.1,0.1,0.1,0.2,0.2c0,0,0.1,0,0.1,0s0-0.1,0-0.1
					C135.8,86.2,135.8,86.1,135.7,86L135.7,86z"/>
				<path id="path848_00000100371695461643239560000001766135665807067048_" class="st4" d="M137.8,85.1c0.1,0,0.1,0,0.2,0
					c0,0.1,0,0.2,0,0.2c0,0.1,0,0.1,0,0.2c0.1,0,0.1,0,0.2,0h0.1c0,0,0,0.1,0,0.1c-0.1,0-0.2,0-0.4,0c0,0.3,0,0.6,0,0.8
					c0,0.1-0.1,0.1-0.2,0.1c-0.1,0-0.1-0.1-0.1-0.1c0,0,0-0.1,0-0.1c0,0,0.1,0,0.1,0.1c0-0.3,0-0.5,0-0.8l-0.2,0l0.1,0.2l-0.3-0.3
					c0.2,0,0.3,0,0.5,0C137.8,85.3,137.8,85.2,137.8,85.1z"/>
				<path id="path5587_00000087377783459209975010000016242106259775905973_" class="st4" d="M135.1,85.2c-0.2,0-0.4,0-0.4-0.2
					C134.8,84.9,135,84.9,135.1,85.2z"/>
				<path id="path5590_00000179629481033220053690000017971077841283481222_" class="st4" d="M136.4,85.2c-0.2,0-0.4,0-0.4-0.2
					C136,84.9,136.2,84.9,136.4,85.2z"/>
				<path id="path5633_00000047761293625425160360000007870310982670495641_" class="st5" d="M125.8,85.4h0.1v0.9h-0.1v0.1h0.4v-0.1
					h-0.1v-0.9h0.1v-0.1L125.8,85.4l-0.4-0.1v0.1h0.1v0.9h-0.1v0.1h0.4v-0.1h-0.1L125.8,85.4L125.8,85.4z"/>
				<path id="path24954_00000020390662888969403240000017472904548196464514_" class="st5" d="M126.8,86.3c0.2,0.3,0.6-0.1,0.4-0.6
					c0-0.1-0.2,0-0.1,0.1C127.2,86.1,127,86.5,126.8,86.3c0.1-0.1,0-0.1,0.1-0.1c0.1-0.2,0.1-0.4-0.1-0.5c-0.2,0.2-0.1,0.3-0.1,0.5
					C126.7,86.3,126.7,86.3,126.8,86.3c-0.2,0.2-0.4-0.2-0.3-0.5c0.1-0.1-0.1-0.2-0.1-0.1C126.1,86.3,126.6,86.6,126.8,86.3z"/>
				<path id="path24961_00000040560529773429237210000008827443062486773657_" class="st5" d="M127.2,86.1c0.1,0.4-0.1,0.9-0.5,0.6
					c-0.1-0.1-0.2,0-0.2,0.1c0.1,0,0.1,0,0.1,0.1c0,0.2-0.3,0.2-0.2-0.1c0.1-0.2,0.2-0.3,0.4-0.2c0.1,0.1,0.2,0.1,0.3,0
					c0-0.1,0.1-0.1,0-0.3L127.2,86.1z"/>
				<path id="path5606_00000029746759504738310060000008838525734968412326_" class="st4" d="M125.9,85.2c-0.2,0-0.4,0-0.4-0.2
					C125.6,84.9,125.8,84.9,125.9,85.2z"/>
				<path id="path5642_00000147210854257074553330000013380095772716287146_" class="st5" d="M127.3,85.8c0-0.1,0.2-0.1,0.2,0.1
					h-0.1v0.2h0.2v-0.3c0-0.1,0.2-0.1,0.2,0.1h-0.1v0.6h-0.1v-0.3h-0.2h-0.1v0.2c0,0.1-0.2,0.1-0.2-0.1h0.1L127.3,85.8L127.3,85.8z"
					/>
				<path id="path24940_00000133527358589015555970000013358262063267306430_" class="st5" d="M128.3,85.6c0,0-0.1,0-0.1,0.1
					c-0.1,0-0.1-0.1-0.2,0l0.1,0.1v0.8H128c0,0.1,0.2,0.2,0.2,0.1v-0.5c0.1,0.1,0.2,0.1,0.3-0.1c0-0.2,0-0.3-0.1-0.5
					C128.4,85.7,128.3,85.6,128.3,85.6z M128.3,85.8c0.1,0,0.1,0.1,0.1,0.2s0,0.2-0.1,0.2s-0.1-0.1-0.1-0.2S128.2,85.8,128.3,85.8z"
					/>
				<path id="path24891_00000052785532606443063750000007043365977705669821_" class="st5" d="M128.6,85.7c0-0.1,0.2-0.1,0.2,0.1
					h-0.1v0.6c0,0.1-0.2,0.1-0.2-0.1h0.1V85.7z"/>
				<path id="path7696_00000033333690873870986100000018328210304245575819_" class="st5" d="M125.8,85.4h0.1v0.9h-0.1v0.1h0.4v-0.1
					h-0.1v-0.9h0.1v-0.1L125.8,85.4l-0.4-0.1v0.1h0.1v0.9h-0.1v0.1h0.4v-0.1h-0.1L125.8,85.4L125.8,85.4z"/>
				<path id="path7700_00000068640923897937020250000006153033947712284051_" class="st5" d="M126.8,86.3c0.2,0.3,0.6-0.1,0.4-0.6
					c0-0.1-0.2,0-0.1,0.1C127.2,86.1,127,86.5,126.8,86.3c0.1-0.1,0-0.1,0.1-0.1c0.1-0.2,0.1-0.4-0.1-0.5c-0.2,0.2-0.1,0.3-0.1,0.5
					C126.7,86.3,126.7,86.3,126.8,86.3c-0.2,0.2-0.4-0.2-0.3-0.5c0.1-0.1-0.1-0.2-0.1-0.1C126.1,86.3,126.6,86.6,126.8,86.3z"/>
				<path id="path7702_00000055703544474034887410000010663122374790300330_" class="st5" d="M127.2,86.1c0.1,0.4-0.1,0.9-0.5,0.6
					c-0.1-0.1-0.2,0-0.2,0.1c0.1,0,0.1,0,0.1,0.1c0,0.2-0.3,0.2-0.2-0.1c0.1-0.2,0.2-0.3,0.4-0.2c0.1,0.1,0.2,0.1,0.3,0
					c0-0.1,0.1-0.1,0-0.3L127.2,86.1z"/>
				<path id="path7704_00000127042647699975288620000007615395790293079471_" class="st4" d="M125.9,85.2c-0.2,0-0.4,0-0.4-0.2
					C125.6,84.9,125.8,84.9,125.9,85.2z"/>
				<path id="path7706_00000091703671660641716770000003769868460495739015_" class="st5" d="M127.3,85.8c0-0.1,0.2-0.1,0.2,0.1
					h-0.1v0.2h0.2v-0.3c0-0.1,0.2-0.1,0.2,0.1h-0.1v0.6h-0.1v-0.3h-0.2h-0.1v0.2c0,0.1-0.2,0.1-0.2-0.1h0.1L127.3,85.8L127.3,85.8z"
					/>
				<path id="path7708_00000070079244997160416150000012659266940619664542_" class="st5" d="M128.3,85.6c0,0-0.1,0-0.1,0.1
					c-0.1,0-0.1-0.1-0.2,0l0.1,0.1v0.8H128c0,0.1,0.2,0.2,0.2,0.1v-0.5c0.1,0.1,0.2,0.1,0.3-0.1c0-0.2,0-0.3-0.1-0.5
					C128.4,85.7,128.3,85.6,128.3,85.6z M128.3,85.8c0.1,0,0.1,0.1,0.1,0.2s0,0.2-0.1,0.2s-0.1-0.1-0.1-0.2S128.2,85.8,128.3,85.8z"
					/>
				<path id="path7710_00000021808831965376067790000004300921938364871065_" class="st5" d="M128.6,85.7c0-0.1,0.2-0.1,0.2,0.1
					h-0.1v0.6c0,0.1-0.2,0.1-0.2-0.1h0.1V85.7z"/>
				<path id="path7716_00000121272577389815843590000017910914339709875351_" class="st5" d="M136.4,85.3h0.3v0.6h0.1V86h-0.1v0.6
					h-0.2V86h-0.1v-0.1h0.1v-0.5L136.4,85.3L136.4,85.3z"/>
				<path id="path7718_00000086693443354562142270000001217002824506215870_" class="st5" d="M136.7,85.5c0.1,0,0.2,0,0.3,0
					c0.7,0.5-0.9,1.5-0.9,0.1c0.1-0.2,0.3-0.1,0.3,0.1c0,0.1-0.1,0.1-0.1,0.1c0,0-0.1-0.1-0.1-0.1s-0.1-0.1-0.1,0.1
					c0,0.5,0.5,0.7,0.8,0.2c0.1-0.2-0.1-0.4-0.2-0.3C136.6,85.7,136.6,85.5,136.7,85.5z"/>
				<path id="path7722_00000001622684065237507240000015382633930602868147_" class="st5" d="M135.2,86.2c0-0.1,0.1-0.2,0.1-0.4
					c0-0.2-0.1-0.2-0.2-0.2s-0.2,0.1-0.2,0.2c0,0.1,0.1,0.2,0.1,0.4H135.2z"/>
				<path id="path7724_00000018929159367200071920000017770102104260629376_" class="st5" d="M135.8,86.2c0-0.1,0.1-0.2,0.1-0.4
					c0-0.2-0.1-0.2-0.2-0.2s-0.2,0.1-0.2,0.2c0,0.1,0.1,0.2,0.1,0.4H135.8z"/>
				<path id="path7726_00000040575320734330380370000006765795428654263473_" class="st5" d="M135.7,86L135.7,86
					c-0.1,0.2-0.2,0.2-0.3,0.2s-0.2,0-0.2-0.2l0,0l0,0.1c-0.1,0.1-0.1,0.1-0.2,0.2c0,0,0,0,0,0c0,0,0,0,0,0c0,0,0,0,0.1,0
					c0.1,0,0.1-0.1,0.2-0.2c0.1,0.1,0.2,0.1,0.3,0.1s0.2-0.1,0.3-0.1c0.1,0.1,0.1,0.1,0.2,0.2c0,0,0.1,0,0.1,0s0-0.1,0-0.1
					C135.8,86.2,135.8,86.1,135.7,86L135.7,86z"/>
				<path id="path7728_00000098918765749822141530000001964770121426233492_" class="st4" d="M137.8,85.1c0.1,0,0.1,0,0.2,0
					c0,0.1,0,0.2,0,0.2c0,0.1,0,0.1,0,0.2c0.1,0,0.1,0,0.2,0h0.1c0,0,0,0.1,0,0.1c-0.1,0-0.2,0-0.4,0c0,0.3,0,0.6,0,0.8
					c0,0.1-0.1,0.1-0.2,0.1c-0.1,0-0.1-0.1-0.1-0.1c0,0,0-0.1,0-0.1c0,0,0.1,0,0.1,0.1c0-0.3,0-0.5,0-0.8l-0.2,0l0.1,0.2l-0.3-0.3
					c0.2,0,0.3,0,0.5,0C137.8,85.3,137.8,85.2,137.8,85.1z"/>
				<path id="path7730_00000095309205596526833770000009501804528471268230_" class="st4" d="M135.1,85.2c-0.2,0-0.4,0-0.4-0.2
					C134.8,84.9,135,84.9,135.1,85.2z"/>
				<path id="path7732_00000003089059050014778940000000740447399081556873_" class="st4" d="M136.4,85.2c-0.2,0-0.4,0-0.4-0.2
					C136,84.9,136.2,84.9,136.4,85.2z"/>
			</g>
		</g>
	</g>
	<g id="Croce_Diocesi" transform="translate(-1.1096578,-1.1079318)">
		<g id="Gruppo">
			<path class="st1" d="M23.3,79.9v-1.8l-1.5,1.3h-3.2v-3.2l1.3-1.5h-1.8c-0.3-0.4-0.8-1.3-1.2-2c-0.4,0.7-0.9,1.6-1.2,2h-1.8
				l1.3,1.5v3.2H12l-1.5-1.3v1.8c-0.4,0.3-1.4,0.8-2,1.2c0.7,0.4,1.6,0.9,2,1.2v1.8l1.5-1.3h3.2V86l-1.3,1.5h1.8
				c0.3,0.4,0.8,1.3,1.2,2c0.4-0.7,0.9-1.6,1.2-2h1.8L18.6,86v-3.2h3.2l1.5,1.3v-1.8c0.4-0.3,1.3-0.8,2-1.2
				C24.6,80.7,23.7,80.2,23.3,79.9z"/>
			<g>
				<path id="path5243_00000051346232912869295460000005997668942468790412_" class="st2" d="M18.8,81.1c0,1-0.9,1.9-1.9,1.9
					S15,82.2,15,81.1c0-1,0.9-1.9,1.9-1.9C18,79.2,18.8,80.1,18.8,81.1z"/>
				<path id="path2167_00000113311313166239083570000006059479143120320160_" class="st3" d="M16.8,81.2h0.3c0.5,0.1,0.8,0.3,1,0.6
					c0.1-0.2,0.2-0.3,0.1-0.5c0.2,0,0.3-0.1,0.5-0.2c-0.2-0.2-0.3-0.2-0.5-0.2c0-0.2,0-0.4-0.1-0.5c-0.3,0.4-0.6,0.6-1,0.6
					c0,0-0.3,0-0.3,0c-0.5-0.1-0.8-0.3-1-0.6c-0.1,0.2-0.2,0.3-0.1,0.5c-0.2,0-0.4,0.1-0.5,0.2c0.2,0.2,0.3,0.2,0.5,0.2
					c0,0.2,0,0.4,0.1,0.5C16,81.5,16.3,81.3,16.8,81.2z M16.8,81v0.3c0,0.5-0.3,0.8-0.6,1.1c0.2,0.1,0.3,0.2,0.5,0.1
					c0,0.2,0.1,0.3,0.2,0.5c0.2-0.2,0.2-0.3,0.2-0.5c0.2,0,0.4,0,0.5-0.1c-0.4-0.3-0.6-0.6-0.6-1.1c0,0,0-0.3,0-0.3
					c0-0.5,0.3-0.8,0.6-1.1c-0.2-0.1-0.3-0.2-0.5-0.1c0-0.2-0.1-0.3-0.2-0.5c-0.2,0.2-0.2,0.3-0.2,0.5c-0.2,0-0.4,0-0.5,0.1
					C16.5,80.2,16.7,80.5,16.8,81z"/>
			</g>
			<g>
				<path class="st4" d="M26.1,81.1c-0.8-0.5-2.3-1.3-2.4-1.4v-2.4l-2,1.7H19v-2.6l1.7-2.1h-2.4c-0.1,0-0.9-1.6-1.4-2.4
					c-0.5,0.8-1.3,2.3-1.4,2.4h-2.4l1.7,2V79h-2.6l-2-1.7v2.4c0,0.1-1.6,0.9-2.4,1.4c0.8,0.5,2.4,1.3,2.4,1.4v2.4l2-1.7h2.6v2.6
					l-1.7,2.1h2.4c0.1,0,0.9,1.6,1.4,2.4c0.5-0.8,1.3-2.3,1.4-2.4h2.4l-1.7-2v-2.6h2.6l2,1.7v-2.4C23.7,82.4,25.3,81.6,26.1,81.1z
					 M23.3,82.3v1.8l-1.5-1.3h-3.2V86l1.3,1.5h-1.8c-0.3,0.4-0.8,1.3-1.2,2c-0.4-0.7-0.9-1.6-1.2-2h-1.8l1.3-1.5v-3.2H12l-1.5,1.3
					v-1.8c-0.4-0.3-1.4-0.8-2-1.2c0.7-0.4,1.6-0.9,2-1.2v-1.8l1.5,1.3h3.2v-3.2l-1.3-1.5h1.8c0.3-0.4,0.8-1.3,1.2-2
					c0.4,0.7,0.9,1.6,1.2,2h1.8l-1.3,1.5v3.2h3.2l1.5-1.3v1.8c0.4,0.3,1.3,0.8,2,1.2C24.6,81.5,23.7,82,23.3,82.3z"/>
				<path id="path4214_00000124841969825724313440000011827507411928309153_" class="st4" d="M20.2,81.1c0-0.1-0.1-0.2-0.2-0.2
					C20,81,20,81,20,81c0,0,0,0.1-0.1,0.1c-0.1,0-0.1-0.1-0.1-0.1s0-0.1-0.2-0.1s-0.4,0.2-0.4,0.2s0.2,0.2,0.4,0.2
					c0.1,0,0.2-0.1,0.2-0.1c0,0,0.1-0.1,0.1-0.1c0.1,0,0.1,0.1,0.1,0.1s0,0.1,0.1,0.1C20.2,81.3,20.2,81.2,20.2,81.1z"/>
				<path id="path4136_00000083795449678230371600000008609943445218646146_" class="st4" d="M13.6,81.1c0-0.1,0.1-0.2,0.2-0.2
					c0.1,0,0.1,0,0.1,0.1c0,0,0,0.1,0.1,0.1c0.1,0,0.1-0.1,0.1-0.1c0,0,0-0.1,0.2-0.1s0.4,0.2,0.4,0.2s-0.2,0.2-0.4,0.2
					c-0.1,0-0.1-0.1-0.2-0.1c0,0-0.1-0.1-0.1-0.1c-0.1,0-0.1,0.1-0.1,0.1s0,0.1-0.1,0.1C13.7,81.3,13.6,81.2,13.6,81.1z"/>
				<path id="path4270_00000003826205051312967980000003533762151927772341_" class="st4" d="M16.9,84.4c0.1,0,0.2-0.1,0.2-0.2
					c0-0.1,0-0.1-0.1-0.1c0,0-0.1,0-0.1-0.1c0-0.1,0-0.1,0.1-0.1s0.1,0,0.1-0.2c0-0.1-0.2-0.4-0.2-0.4s-0.2,0.2-0.2,0.4
					c0,0.1,0.1,0.2,0.1,0.2c0,0,0.1,0.1,0.1,0.1c0,0.1,0,0.1-0.1,0.1c0,0-0.1,0-0.1,0.1C16.8,84.3,16.8,84.4,16.9,84.4z"/>
				<path id="path4260_00000096781292268850484700000001926938168883803805_" class="st4" d="M16.9,77.8c0.1,0,0.2,0.1,0.2,0.2
					c0,0.1,0,0.1-0.1,0.1c0,0-0.1,0-0.1,0.1c0,0.1,0,0.1,0.1,0.1s0.1,0,0.1,0.2c0,0.1-0.2,0.4-0.2,0.4s-0.2-0.2-0.2-0.4
					c0-0.1,0.1-0.2,0.1-0.2c0,0,0.1-0.1,0.1-0.1c0-0.1,0-0.1-0.1-0.1c0,0-0.1,0-0.1-0.1C16.8,77.9,16.8,77.8,16.9,77.8z"/>
				<path id="path4216_00000045595628234914463580000005785050024468033970_" class="st4" d="M24.9,81.1c-0.1,0.1-0.2,0.2-0.3,0.2
					c-0.1,0-0.1-0.1-0.2-0.2c0,0-0.1,0.2-0.4,0.2c-0.3,0-0.5-0.3-0.5-0.3s0.3-0.3,0.5-0.3s0.4,0.2,0.4,0.2c0-0.1,0.1-0.2,0.2-0.2
					C24.7,80.9,24.8,81,24.9,81.1z M24.2,81.1c-0.2-0.2-0.3-0.1-0.4,0C23.9,81.2,24,81.3,24.2,81.1z"/>
				<path id="path4145_00000133491700226319765620000008249576346911178129_" class="st4" d="M8.9,81.1c0.1,0.1,0.2,0.2,0.4,0.2
					c0.1,0,0.1-0.1,0.2-0.2c0,0,0.1,0.2,0.4,0.2c0.3,0,0.5-0.3,0.5-0.3s-0.3-0.3-0.5-0.3S9.5,81,9.5,81c0-0.1-0.1-0.2-0.2-0.2
					C9.1,80.9,9,81,8.9,81.1z M9.6,81.1c0.1-0.2,0.3-0.1,0.4,0C9.9,81.2,9.8,81.3,9.6,81.1z"/>
				<path id="path4272_00000152976497674395658440000015902835043650335166_" class="st4" d="M16.9,89.1c-0.1-0.1-0.2-0.2-0.2-0.3
					c0-0.1,0.1-0.1,0.2-0.2c0,0-0.2-0.1-0.2-0.4c0-0.3,0.3-0.5,0.3-0.5s0.3,0.3,0.3,0.5S17,88.6,17,88.6c0.1,0,0.2,0.1,0.2,0.2
					C17.1,88.9,17,89,16.9,89.1z M16.9,88.4c0.2-0.2,0.1-0.3,0-0.4C16.8,88.1,16.7,88.2,16.9,88.4z"/>
				<path id="path4262_00000118372482038433654210000001200152236950545031_" class="st4" d="M16.9,73.1c-0.1,0.1-0.2,0.2-0.2,0.3
					c0,0.1,0.1,0.1,0.2,0.2c0,0-0.2,0.1-0.2,0.4c0,0.3,0.3,0.5,0.3,0.5s0.3-0.3,0.3-0.5S17,73.6,17,73.6c0.1,0,0.2-0.1,0.2-0.2
					C17.1,73.3,17,73.2,16.9,73.1z M16.9,73.8c0.2,0.2,0.1,0.3,0,0.4C16.8,74.1,16.7,74,16.9,73.8z"/>
				<path id="path4266_00000038375508681581047290000000688612142087414955_" class="st4" d="M17.7,84.6c0.1,0.2,0,0.4-0.1,0.5
					c-0.1,0.1-0.3,0.2-0.3,0.2s0.1-0.2,0.1-0.3c0-0.2-0.2-0.2-0.2-0.2c0,0-0.2,0-0.2,0.2c0,0.3,0.1,0.4,0.3,0.6
					c0.2,0.2,0.5,0.3,0.6,0.4c0.1,0.1,0.2,0.1,0.2,0.1c0.2,0.2,0.3,0.3,0.3,0.5s0,0.4,0,0.4s0.2-0.1,0.4-0.1c0.2,0,0.3,0.2,0.3,0.3
					c0,0.1-0.1,0.2-0.3,0.2c-0.1,0-0.3-0.2-0.3-0.2h0.2c0,0,0,0,0.1,0s0.1,0,0.1-0.1c0,0,0-0.2-0.2-0.1c-0.2,0-0.3,0.1-0.4,0.2
					c-0.2,0.2-0.3,0.2-0.6,0.2c-0.1,0-0.3,0-0.4-0.1c0,0-0.2-0.1-0.2-0.1c-0.1-0.1-0.3-0.4-0.3-0.4v-1c0,0,0.2,0.2,0.2,0.4
					c0,0.2-0.1,0.4-0.1,0.4s0,0.2,0.1,0.3c0.1,0.2,0.2,0.2,0.3,0.3c0.2,0.1,0.3,0.2,0.4,0.1c0.3-0.2,0.2-0.6,0.2-0.6l0.3,0.1
					c0,0,0-0.3-0.3-0.5c-0.2-0.1-0.4-0.2-0.7-0.4c-0.3-0.3-0.4-0.4-0.4-0.8c0-0.3,0.1-0.5,0.5-0.7c0.5-0.2,0.3-0.6,0.3-0.6
					c-0.3-0.1-0.6-0.3-0.8-0.6c0,0,0-0.1,0-0.1c0,0,0.1,0,0.1,0c0.2,0.2,0.5,0.5,0.9,0.6c0.1,0,0.2,0,0.2,0.1c0.1,0,0.1,0,0.1-0.1
					c0-0.1,0-0.1,0-0.1c0,0,0,0,0,0c0,0,0,0,0,0c0,0,0,0-0.1,0c0,0,0,0,0,0c0,0,0,0,0,0.1c0,0,0,0-0.1,0s-0.1,0-0.1,0c0,0,0,0-0.1,0
					s0,0,0,0s0-0.1,0-0.1c0,0,0-0.1,0.1-0.1c0,0,0.1-0.1,0.1-0.1c0,0,0.1,0,0.2,0s0.1,0.1,0.1,0.1c0,0,0.1,0.1,0.1,0.2
					c0,0,0,0.1,0,0.1c0,0,0,0.1,0,0.1c-0.1,0.1-0.2,0.1-0.2,0.1c0,0,0,0-0.1,0c0,0,0.1,0.2,0.1,0.3c0,0.2-0.2,0.4-0.2,0.4
					c0.3,0.2,0.5,0.5,0.5,1c0,0.5-0.5,1.1-0.5,1.1c-0.2,0.2-0.4,0.4-0.5,0.9c0,0.1,0.1,0.2,0.2,0.2c0.1,0,0.2-0.1,0.2-0.1
					c0,0,0,0.3-0.2,0.3c-0.2,0-0.4-0.1-0.4-0.4c0-0.4,0.2-0.7,0.5-1c0,0,0.5-0.6,0.5-0.9c0-0.1-0.1-0.3-0.2-0.4
					c-0.1,0-0.1,0-0.2-0.2H18c0,0.1,0,0.1,0.1,0C18,84.8,17.9,84.7,17.7,84.6z"/>
				<path id="path4268_00000025423830869254133130000003519977972219951024_" class="st4" d="M16.1,84.6c-0.1,0.2,0,0.4,0.1,0.5
					c0.1,0.1,0.3,0.2,0.3,0.2s-0.1-0.2-0.1-0.3c0-0.2,0.2-0.2,0.2-0.2s0.2,0,0.2,0.2c0,0.3-0.1,0.4-0.3,0.6
					c-0.2,0.2-0.5,0.3-0.6,0.4C15.7,86,15.7,86,15.6,86c-0.2,0.2-0.3,0.3-0.3,0.5s0,0.4,0,0.4s-0.2-0.1-0.4-0.1
					c-0.2,0-0.3,0.2-0.3,0.3c0,0.1,0.1,0.2,0.3,0.2c0.1,0,0.3-0.2,0.3-0.2h-0.2c0,0,0,0-0.1,0c0,0-0.1,0-0.1-0.1c0,0,0-0.2,0.2-0.1
					c0.1,0,0.3,0.1,0.4,0.2c0.2,0.2,0.3,0.2,0.6,0.2c0.1,0,0.3,0,0.4-0.1c0,0,0.2-0.1,0.2-0.1c0.1-0.1,0.3-0.4,0.3-0.4v-1
					c0,0-0.2,0.2-0.2,0.4c0,0.2,0.1,0.4,0.1,0.4s0,0.2-0.1,0.3c-0.1,0.2-0.2,0.2-0.3,0.3c-0.2,0.1-0.3,0.2-0.4,0.1
					c-0.3-0.2-0.2-0.6-0.2-0.6l-0.3,0.1c0,0,0-0.3,0.3-0.5c0.2-0.1,0.4-0.2,0.7-0.4c0.3-0.3,0.4-0.4,0.4-0.8c0-0.3-0.1-0.5-0.5-0.7
					c-0.5-0.2-0.3-0.6-0.3-0.6c0.3-0.1,0.6-0.3,0.8-0.6c0,0,0-0.1,0-0.1s-0.1,0-0.1,0c-0.2,0.2-0.5,0.5-0.9,0.6
					c-0.1,0-0.2,0-0.2,0.1s-0.1,0-0.1-0.1c0-0.1,0-0.1,0-0.1c0,0,0,0,0,0c0,0,0,0,0,0c0,0,0,0,0.1,0c0,0,0,0,0,0c0,0,0,0,0,0.1
					c0,0,0,0,0.1,0s0.1,0,0.1,0c0,0,0,0,0.1,0s0,0,0,0c0,0,0-0.1,0-0.1c0,0,0-0.1-0.1-0.1c0,0-0.1-0.1-0.1-0.1c0,0-0.1,0-0.2,0
					s-0.1,0.1-0.1,0.1c0,0-0.1,0.1-0.1,0.2c0,0,0,0.1,0,0.1c0,0,0,0.1,0,0.1c0.1,0.1,0.2,0.1,0.2,0.1c0,0,0,0,0.1,0
					c0,0-0.1,0.2-0.1,0.3c0,0.2,0.2,0.4,0.2,0.4c-0.3,0.2-0.5,0.5-0.5,1c0,0.5,0.5,1.1,0.5,1.1c0.2,0.2,0.4,0.4,0.5,0.9
					c0,0.1-0.1,0.2-0.2,0.2c-0.1,0-0.2-0.1-0.2-0.1c0,0,0,0.3,0.2,0.3c0.2,0,0.4-0.1,0.4-0.4c0-0.4-0.2-0.7-0.5-1
					c0,0-0.5-0.6-0.5-0.9c0-0.1,0.1-0.3,0.2-0.4c0.1,0,0.1,0,0.2-0.2h-0.2c0,0.1,0,0.1-0.1,0C15.8,84.8,15.9,84.7,16.1,84.6z"/>
				<path id="path4212_00000170969908574482362460000004352723583583410592_" class="st4" d="M20.4,81.9c0.2,0.1,0.4,0,0.5-0.1
					c0.1-0.1,0.2-0.3,0.2-0.3s-0.2,0.1-0.3,0.1c-0.2,0-0.2-0.2-0.2-0.2c0,0,0-0.2,0.2-0.2c0.3,0,0.4,0.1,0.6,0.3
					c0.2,0.2,0.3,0.5,0.4,0.6c0.1,0.1,0.1,0.2,0.1,0.2c0.2,0.2,0.3,0.3,0.5,0.3c0.2,0.1,0.4,0,0.4,0s-0.1,0.2-0.1,0.4
					c0,0.2,0.2,0.3,0.3,0.3c0.1,0,0.2-0.1,0.2-0.3c0-0.1-0.2-0.3-0.2-0.3v0.2c0,0,0,0,0,0.1c0,0,0,0.1-0.1,0.1c0,0-0.2,0-0.1-0.2
					c0-0.2,0-0.3,0.2-0.4c0.2-0.2,0.2-0.3,0.2-0.6c0-0.1,0-0.3-0.1-0.4c0,0-0.1-0.2-0.1-0.2c-0.1-0.1-0.4-0.3-0.4-0.3h-1
					c0,0,0.2,0.2,0.4,0.2c0.2,0,0.4-0.1,0.4-0.1s0.2,0,0.3,0.1c0.2,0.1,0.2,0.2,0.3,0.3s0.2,0.3,0.1,0.4c-0.2,0.3-0.6,0.2-0.6,0.2
					l0.1,0.3c0,0-0.3,0-0.5-0.3c-0.1-0.2-0.2-0.4-0.4-0.7c-0.3-0.3-0.5-0.4-0.8-0.4c-0.3,0-0.5,0.1-0.7,0.5
					c-0.2,0.5-0.6,0.3-0.6,0.3c-0.1-0.3-0.3-0.6-0.6-0.8c0,0-0.1,0-0.1,0s0,0.1,0,0.1c0.2,0.2,0.5,0.5,0.6,0.9c0,0.1,0,0.2,0,0.2
					s0,0.1,0,0.1c0,0-0.1,0-0.1,0c0,0,0,0,0,0c0,0,0,0,0,0c0,0,0,0,0-0.1c0,0,0,0,0,0c0,0,0,0,0,0c0,0,0,0,0-0.1c0,0,0-0.1,0-0.1
					c0,0,0,0,0-0.1s0,0,0-0.1s0,0-0.1,0c0,0-0.1,0-0.1,0.1s-0.1,0.1-0.1,0.1c0,0.1,0,0.1,0,0.2s0.1,0.1,0.1,0.1c0,0,0.1,0.1,0.2,0.1
					c0,0,0.1,0,0.1,0c0,0,0.1,0,0.1-0.1c0.1-0.1,0.1-0.2,0.1-0.2c0,0,0,0,0-0.1c0,0,0.2,0.1,0.3,0.1c0.2,0,0.4-0.2,0.4-0.2
					c0.2,0.3,0.5,0.5,1,0.5c0.5,0,1.1-0.5,1.1-0.5c0.2-0.2,0.4-0.4,0.9-0.5c0.1,0,0.2,0.1,0.2,0.2c0,0.1-0.1,0.2-0.1,0.2
					c0,0,0.3,0,0.3-0.2c0-0.2-0.1-0.4-0.4-0.4c-0.4,0.1-0.7,0.2-1,0.4c0,0-0.6,0.5-0.9,0.6c-0.1,0-0.3-0.1-0.4-0.2
					c0-0.1,0-0.1-0.2-0.2v0.2c0,0,0,0,0,0.1C20.7,82.2,20.5,82.1,20.4,81.9z"/>
				<path id="path4210_00000031907986966322499970000002577018923212828555_" class="st4" d="M20.4,80.3c0.2-0.1,0.4,0,0.5,0.1
					c0.1,0.1,0.2,0.3,0.2,0.3s-0.2-0.1-0.3-0.1c-0.2,0-0.2,0.2-0.2,0.2c0,0,0,0.2,0.2,0.2c0.3,0,0.4-0.1,0.6-0.3
					c0.2-0.2,0.3-0.5,0.4-0.6c0.1-0.1,0.1-0.2,0.1-0.2c0.2-0.2,0.3-0.3,0.5-0.3s0.4,0,0.4,0s-0.1-0.2-0.1-0.4c0-0.2,0.2-0.3,0.3-0.3
					c0.1,0,0.2,0.1,0.2,0.3c0,0.1-0.2,0.3-0.2,0.3v-0.2c0,0,0,0,0-0.1c0,0,0-0.1-0.1-0.1c0,0-0.2,0-0.1,0.2c0,0.2,0,0.3,0.2,0.4
					c0.2,0.2,0.2,0.3,0.2,0.6c0,0.1,0,0.3-0.1,0.4c0,0-0.1,0.2-0.1,0.2c-0.1,0.1-0.4,0.3-0.4,0.3h-1c0,0,0.2-0.2,0.4-0.2
					c0.2,0,0.4,0.1,0.4,0.1s0.2,0,0.3-0.1c0.2-0.1,0.2-0.2,0.3-0.3s0.2-0.3,0.1-0.4c-0.2-0.3-0.6-0.2-0.6-0.2l0.1-0.3
					c0,0-0.3,0-0.5,0.3c-0.1,0.2-0.2,0.4-0.4,0.7c-0.3,0.3-0.5,0.4-0.8,0.4c-0.3,0-0.5-0.1-0.7-0.5c-0.2-0.5-0.6-0.3-0.6-0.3
					c-0.1,0.3-0.3,0.6-0.6,0.8c0,0-0.1,0-0.1,0s0-0.1,0-0.1c0.2-0.2,0.5-0.5,0.6-0.9c0-0.1,0-0.2,0-0.2s0-0.1,0-0.1c0,0-0.1,0-0.1,0
					c0,0,0,0,0,0c0,0,0,0,0,0c0,0,0,0,0,0.1c0,0,0,0,0,0s0,0,0,0c0,0,0,0,0,0.1c0,0,0,0.1,0,0.1c0,0,0,0,0,0.1s0,0,0,0.1s0,0-0.1,0
					c0,0-0.1,0-0.1-0.1s-0.1-0.1-0.1-0.1c0-0.1,0-0.1,0-0.2s0.1-0.1,0.1-0.1c0,0,0.1-0.1,0.2-0.1c0,0,0.1,0,0.1,0c0,0,0.1,0,0.1,0.1
					c0.1,0.1,0.1,0.2,0.1,0.2c0,0,0,0,0,0.1c0,0,0.2-0.1,0.3-0.1c0.2,0,0.4,0.2,0.4,0.2c0.2-0.3,0.5-0.5,1-0.5
					c0.5,0,1.1,0.5,1.1,0.5c0.2,0.2,0.4,0.4,0.9,0.5c0.1,0,0.2-0.1,0.2-0.2c0-0.1-0.1-0.2-0.1-0.2c0,0,0.3,0,0.3,0.2
					c0,0.2-0.1,0.4-0.4,0.4c-0.4-0.1-0.7-0.2-1-0.4c0,0-0.6-0.5-0.9-0.6C21.3,79.9,21,80,21,80c0,0.1,0,0.1-0.2,0.2V80
					c0,0,0,0,0-0.1C20.7,80,20.5,80.1,20.4,80.3z"/>
				<path id="path4134_00000169559405445350675470000006304061160939636368_" class="st4" d="M13.5,81.9c-0.2,0.1-0.4,0-0.5-0.1
					c-0.1-0.1-0.2-0.3-0.2-0.3s0.2,0.1,0.3,0.1c0.2,0,0.2-0.2,0.2-0.2c0,0,0-0.2-0.2-0.2c-0.3,0-0.4,0.1-0.6,0.3
					c-0.2,0.2-0.3,0.5-0.4,0.6c-0.1,0.1-0.1,0.2-0.1,0.2c-0.1,0.2-0.3,0.3-0.5,0.3s-0.4,0-0.4,0s0.1,0.2,0.1,0.4
					c0,0.2-0.2,0.3-0.3,0.3c-0.1,0-0.2-0.1-0.2-0.3c0-0.1,0.2-0.3,0.2-0.3v0.2c0,0,0,0,0,0.1s0,0.1,0.1,0.1c0,0,0.1,0,0.1-0.2
					c0-0.2,0-0.3-0.2-0.4c-0.2-0.2-0.2-0.3-0.2-0.6c0-0.1,0-0.3,0.1-0.4c0,0,0.1-0.2,0.1-0.2c0.1-0.1,0.4-0.3,0.4-0.3h1
					c0,0-0.2,0.2-0.4,0.2c-0.2,0-0.4-0.1-0.4-0.1s-0.2,0-0.3,0.1c-0.2,0.1-0.2,0.2-0.3,0.3s-0.1,0.3-0.1,0.4
					c0.1,0.3,0.6,0.2,0.6,0.2l-0.1,0.3c0,0,0.3,0,0.5-0.3c0.1-0.2,0.1-0.4,0.4-0.7c0.3-0.3,0.5-0.4,0.8-0.4c0.3,0,0.5,0.1,0.7,0.5
					c0.1,0.5,0.6,0.3,0.6,0.3c0.1-0.3,0.4-0.6,0.6-0.8c0,0,0.1,0,0.1,0s0,0.1,0,0.1c-0.2,0.2-0.5,0.5-0.6,0.9c0,0.1,0,0.2,0,0.2
					s0,0.1,0,0.1c0,0,0.1,0,0.1,0c0,0,0,0,0,0c0,0,0,0,0,0c0,0,0,0,0-0.1c0,0,0,0,0,0c0,0,0,0,0,0c0,0,0,0,0-0.1s0-0.1,0-0.1
					c0,0,0,0,0-0.1s0,0,0-0.1c0,0,0,0,0.1,0c0,0,0.1,0,0.1,0.1s0.1,0.1,0.1,0.1c0,0.1,0,0.1,0,0.2s-0.1,0.1-0.1,0.1
					c0,0-0.1,0.1-0.1,0.1c0,0-0.1,0-0.1,0s-0.1,0-0.1-0.1c-0.1-0.1-0.1-0.2-0.1-0.2c0,0,0,0,0-0.1c0,0-0.2,0.1-0.4,0.1
					c-0.2,0-0.4-0.2-0.4-0.2c-0.2,0.3-0.5,0.5-1,0.5c-0.5,0-1.1-0.5-1.1-0.5c-0.2-0.2-0.4-0.4-0.9-0.5c-0.1,0-0.2,0.1-0.2,0.2
					c0,0.1,0.1,0.2,0.1,0.2c0,0-0.3,0-0.3-0.2c0-0.2,0.1-0.4,0.4-0.4c0.4,0.1,0.7,0.2,1,0.4c0,0,0.6,0.5,0.9,0.6
					c0.1,0,0.3-0.1,0.4-0.2c0-0.1,0-0.1,0.2-0.2v0.2c0,0,0,0,0,0.1C13.2,82.2,13.4,82.1,13.5,81.9z"/>
				<path id="path4174_00000129928723312393903270000015384880948928124594_" class="st4" d="M13.5,80.3c-0.2-0.1-0.4,0-0.5,0.1
					c-0.1,0.1-0.2,0.3-0.2,0.3s0.2-0.1,0.3-0.1c0.2,0,0.2,0.2,0.2,0.2c0,0,0,0.2-0.2,0.2c-0.3,0-0.4-0.1-0.6-0.3
					c-0.2-0.2-0.3-0.5-0.4-0.6c-0.1-0.1-0.1-0.2-0.1-0.2c-0.1-0.2-0.3-0.3-0.5-0.3s-0.4,0-0.4,0s0.1-0.2,0.1-0.4
					c0-0.2-0.2-0.3-0.3-0.3c-0.1,0-0.2,0.1-0.2,0.3c0,0.1,0.2,0.3,0.2,0.3v-0.2c0,0,0,0,0-0.1s0-0.1,0.1-0.1c0,0,0.1,0,0.1,0.2
					c0,0.2,0,0.3-0.2,0.4c-0.2,0.2-0.2,0.3-0.2,0.6c0,0.1,0,0.3,0.1,0.4c0,0,0.1,0.2,0.1,0.2c0.1,0.1,0.4,0.3,0.4,0.3h1
					c0,0-0.2-0.2-0.4-0.2c-0.2,0-0.4,0.1-0.4,0.1s-0.2,0-0.3-0.1c-0.2-0.1-0.2-0.2-0.3-0.3s-0.1-0.3-0.1-0.4
					c0.1-0.3,0.6-0.2,0.6-0.2l-0.1-0.3c0,0,0.3,0,0.5,0.3c0.1,0.2,0.1,0.4,0.4,0.7c0.3,0.3,0.5,0.4,0.8,0.4c0.3,0,0.5-0.1,0.7-0.5
					c0.1-0.5,0.6-0.3,0.6-0.3c0.1,0.3,0.4,0.6,0.6,0.8c0,0,0.1,0,0.1,0s0-0.1,0-0.1c-0.2-0.2-0.5-0.5-0.6-0.9c0-0.1,0-0.2,0-0.2
					s0-0.1,0-0.1c0,0,0.1,0,0.1,0c0,0,0,0,0,0c0,0,0,0,0,0c0,0,0,0,0,0.1c0,0,0,0,0,0s0,0,0,0c0,0,0,0,0,0.1s0,0.1,0,0.1
					c0,0,0,0,0,0.1s0,0,0,0.1c0,0,0,0,0.1,0c0,0,0.1,0,0.1-0.1s0.1-0.1,0.1-0.1c0-0.1,0-0.1,0-0.2s-0.1-0.1-0.1-0.1
					c0,0-0.1-0.1-0.1-0.1c0,0-0.1,0-0.1,0c0,0-0.1,0-0.1,0.1c-0.1,0.1-0.1,0.2-0.1,0.2c0,0,0,0,0,0.1c0,0-0.2-0.1-0.4-0.1
					c-0.2,0-0.4,0.2-0.4,0.2c-0.2-0.3-0.5-0.5-1-0.5c-0.5,0-1.1,0.5-1.1,0.5c-0.2,0.2-0.4,0.4-0.9,0.5c-0.1,0-0.2-0.1-0.2-0.2
					c0-0.1,0.1-0.2,0.1-0.2c0,0-0.3,0-0.3,0.2c0,0.2,0.1,0.4,0.4,0.4c0.4-0.1,0.7-0.2,1-0.4c0,0,0.6-0.5,0.9-0.6
					c0.1,0,0.3,0.1,0.4,0.2c0,0.1,0,0.1,0.2,0.2V80c0,0,0,0,0-0.1C13.2,80,13.4,80.1,13.5,80.3z"/>
				<path id="path4256_00000176734044771541454690000016028217759597295764_" class="st4" d="M17.7,77.7c0.1-0.2,0-0.4-0.1-0.5
					c-0.1-0.1-0.3-0.2-0.3-0.2s0.1,0.2,0.1,0.3c0,0.2-0.2,0.2-0.2,0.2c0,0-0.2,0-0.2-0.2c0-0.3,0.1-0.4,0.3-0.6
					c0.2-0.2,0.5-0.3,0.6-0.4c0.1-0.1,0.2-0.1,0.2-0.1c0.2-0.2,0.3-0.3,0.3-0.5s0-0.4,0-0.4s0.2,0.1,0.4,0.1c0.2,0,0.3-0.2,0.3-0.3
					c0-0.1-0.1-0.2-0.3-0.2c-0.1,0-0.3,0.2-0.3,0.2h0.2c0,0,0,0,0.1,0s0.1,0,0.1,0.1c0,0,0,0.2-0.2,0.1c-0.2,0-0.3-0.1-0.4-0.2
					c-0.2-0.2-0.3-0.2-0.6-0.2c-0.1,0-0.3,0-0.4,0.1c0,0-0.2,0.1-0.2,0.1c-0.1,0.1-0.3,0.4-0.3,0.4v1c0,0,0.2-0.2,0.2-0.4
					c0-0.2-0.1-0.4-0.1-0.4s0-0.2,0.1-0.3c0.1-0.2,0.2-0.2,0.3-0.3c0.2-0.1,0.3-0.2,0.4-0.1c0.3,0.2,0.2,0.6,0.2,0.6l0.3-0.1
					c0,0,0,0.3-0.3,0.5c-0.2,0.1-0.4,0.2-0.7,0.4c-0.3,0.3-0.4,0.4-0.4,0.8c0,0.3,0.1,0.5,0.5,0.7c0.5,0.2,0.3,0.6,0.3,0.6
					c-0.3,0.1-0.6,0.3-0.8,0.6c0,0,0,0.1,0,0.1c0,0,0.1,0,0.1,0c0.2-0.2,0.5-0.5,0.9-0.6c0.1,0,0.2,0,0.2-0.1c0.1,0,0.1,0,0.1,0.1
					c0,0.1,0,0.1,0,0.1c0,0,0,0,0,0c0,0,0,0,0,0c0,0,0,0-0.1,0c0,0,0,0,0,0c0,0,0,0,0-0.1s0,0-0.1,0s-0.1,0-0.1,0c0,0,0,0-0.1,0
					s0,0,0,0c0,0,0,0.1,0,0.1c0,0,0,0.1,0.1,0.1c0,0,0.1,0.1,0.1,0.1c0,0,0.1,0,0.2,0c0,0,0.1-0.1,0.1-0.1c0,0,0.1-0.1,0.1-0.2
					c0,0,0-0.1,0-0.1c0,0,0-0.1,0-0.1c-0.1-0.1-0.2-0.1-0.2-0.1c0,0,0,0-0.1,0c0,0,0.1-0.2,0.1-0.3c0-0.2-0.2-0.4-0.2-0.4
					c0.3-0.2,0.5-0.5,0.5-1c0-0.5-0.5-1.1-0.5-1.1c-0.2-0.2-0.4-0.4-0.5-0.9c0-0.1,0.1-0.2,0.2-0.2c0.1,0,0.2,0.1,0.2,0.1
					c0,0,0-0.3-0.2-0.3c-0.2,0-0.4,0.1-0.4,0.4c0,0.4,0.2,0.7,0.5,1c0,0,0.5,0.6,0.5,0.9c0,0.1-0.1,0.3-0.2,0.4
					c-0.1,0-0.1,0-0.2,0.2H18c0-0.1,0-0.1,0.1,0C18,77.4,17.9,77.6,17.7,77.7z"/>
				<path id="path4258_00000020357813499017516430000008493629089876849811_" class="st4" d="M16.1,77.7c-0.1-0.2,0-0.4,0.1-0.5
					c0.1-0.1,0.3-0.2,0.3-0.2s-0.1,0.2-0.1,0.3c0,0.2,0.2,0.2,0.2,0.2s0.2,0,0.2-0.2c0-0.3-0.1-0.4-0.3-0.6
					c-0.2-0.2-0.5-0.3-0.6-0.4c-0.1-0.1-0.2-0.1-0.2-0.1c-0.2-0.2-0.3-0.3-0.3-0.5s0-0.4,0-0.4s-0.2,0.1-0.4,0.1
					c-0.2,0-0.3-0.2-0.3-0.3c0-0.1,0.1-0.2,0.3-0.2c0.1,0,0.3,0.2,0.3,0.2h-0.2c0,0,0,0-0.1,0c0,0-0.1,0-0.1,0.1c0,0,0,0.2,0.2,0.1
					c0.1,0,0.3-0.1,0.4-0.2c0.2-0.2,0.3-0.2,0.6-0.2c0.1,0,0.3,0,0.4,0.1c0,0,0.2,0.1,0.2,0.1c0.1,0.1,0.3,0.4,0.3,0.4v1
					c0,0-0.2-0.2-0.2-0.4c0-0.2,0.1-0.4,0.1-0.4s0-0.2-0.1-0.3c-0.1-0.2-0.2-0.2-0.3-0.3c-0.2-0.1-0.3-0.2-0.4-0.1
					c-0.3,0.2-0.2,0.6-0.2,0.6l-0.3-0.1c0,0,0,0.3,0.3,0.5c0.2,0.1,0.4,0.2,0.7,0.4c0.3,0.3,0.4,0.4,0.4,0.8c0,0.3-0.1,0.5-0.5,0.7
					c-0.5,0.2-0.3,0.6-0.3,0.6c0.3,0.1,0.6,0.3,0.8,0.6c0,0,0,0.1,0,0.1s-0.1,0-0.1,0c-0.2-0.2-0.5-0.5-0.9-0.6
					c-0.1,0-0.2,0-0.2-0.1s-0.1,0-0.1,0.1c0,0.1,0,0.1,0,0.1c0,0,0,0,0,0c0,0,0,0,0,0c0,0,0,0,0.1,0c0,0,0,0,0,0c0,0,0,0,0-0.1
					s0,0,0.1,0s0.1,0,0.1,0c0,0,0,0,0.1,0s0,0,0,0c0,0,0,0.1,0,0.1c0,0,0,0.1-0.1,0.1c0,0-0.1,0.1-0.1,0.1c0,0-0.1,0-0.2,0
					c0,0-0.1-0.1-0.1-0.1c0,0-0.1-0.1-0.1-0.2c0,0,0-0.1,0-0.1c0,0,0-0.1,0-0.1c0.1-0.1,0.2-0.1,0.2-0.1c0,0,0,0,0.1,0
					c0,0-0.1-0.2-0.1-0.3c0-0.2,0.2-0.4,0.2-0.4c-0.3-0.2-0.5-0.5-0.5-1c0-0.5,0.5-1.1,0.5-1.1c0.2-0.2,0.4-0.4,0.5-0.9
					c0-0.1-0.1-0.2-0.2-0.2c-0.1,0-0.2,0.1-0.2,0.1c0,0,0-0.3,0.2-0.3c0.2,0,0.4,0.1,0.4,0.4c0,0.4-0.2,0.7-0.5,1
					c0,0-0.5,0.6-0.5,0.9c0,0.1,0.1,0.3,0.2,0.4c0.1,0,0.1,0,0.2,0.2h-0.2c0-0.1,0-0.1-0.1,0C15.8,77.4,15.9,77.6,16.1,77.7z"/>
				<path id="path4150_00000014625808681888115830000015699023962962293381_" class="st4" d="M15.9,81.9c0.1-0.2,0.3-0.3,0.4-0.4
					c0.1-0.1,0.2,0,0,0.2c-0.1,0.2-0.3,0.3-0.4,0.4C15.8,82.2,15.8,82.1,15.9,81.9"/>
				<path id="path4123_00000105416769475668571890000011839041880410462385_" class="st4" d="M15.5,81.1c0,0.1,0.4,0,0.6,0.1
					c-0.2,0.2-0.4,0.3-0.4,0.4c0,0.1,0.1,0,0.2-0.1c0.2-0.1,0.4-0.3,0.7-0.3c-0.3,0-0.5-0.2-0.7-0.3c-0.1-0.1-0.1-0.2-0.2-0.1
					c0,0.1,0.2,0.2,0.4,0.4C15.9,81.1,15.5,81,15.5,81.1z"/>
				<path id="path4130_00000005267512885504233430000009203483526187211907_" class="st4" d="M18.3,81.1c0,0.1-0.4,0-0.6,0.1
					c0.2,0.2,0.4,0.3,0.4,0.4c0,0.1-0.1,0-0.2-0.1c-0.2-0.1-0.4-0.3-0.7-0.3c0.3,0,0.5-0.2,0.7-0.3c0.1-0.1,0.1-0.2,0.2-0.1
					c0,0.1-0.2,0.2-0.4,0.4C17.9,81.1,18.3,81,18.3,81.1z"/>
				<path id="path4138_00000078006623835533503960000017389136154911200128_" class="st4" d="M16.9,79.7c-0.1,0.1,0,0.4,0,0.6
					c-0.2-0.2-0.3-0.4-0.4-0.4c0,0,0,0.1,0.1,0.2c0.1,0.2,0.3,0.4,0.3,0.7c0-0.3,0.2-0.5,0.3-0.7c0.1-0.1,0.2-0.1,0.1-0.2
					c-0.1,0-0.2,0.2-0.4,0.4C16.9,80.1,17,79.7,16.9,79.7z"/>
				<path id="path4140_00000070806716684378218020000002139137725743182988_" class="st4" d="M16.9,82.5c-0.1-0.1,0-0.4,0-0.6
					c-0.2,0.2-0.3,0.4-0.4,0.4c0,0,0-0.1,0.1-0.2c0.1-0.2,0.3-0.4,0.3-0.7c0,0.3,0.2,0.5,0.3,0.7c0.1,0.1,0.2,0.1,0.1,0.2
					c-0.1,0-0.2-0.2-0.4-0.4C16.9,82.1,17,82.5,16.9,82.5z"/>
				<path id="path4144_00000031916349063171645730000016240692566417621674_" class="st4" d="M16.3,80.6c-0.2-0.1-0.3-0.3-0.4-0.4
					c-0.1-0.1,0-0.2,0.2-0.1c0.2,0.1,0.3,0.3,0.4,0.4S16.4,80.7,16.3,80.6"/>
				<path id="path4146_00000177480773720519909640000002999679140471947700_" class="st4" d="M17.8,82.1c-0.2-0.1-0.3-0.3-0.4-0.4
					c-0.1-0.1,0-0.2,0.2-0.1c0.2,0.1,0.3,0.3,0.4,0.4S17.9,82.2,17.8,82.1"/>
				<path id="path4148_00000155139684794086143660000011787613419069413260_" class="st4" d="M17.4,80.5c0.1-0.2,0.3-0.3,0.4-0.4
					c0.1-0.1,0.2,0,0,0.2c-0.1,0.2-0.3,0.3-0.4,0.4C17.3,80.7,17.3,80.6,17.4,80.5"/>
			</g>
			<g id="Lettere">
				<path id="path24889_00000155847738160985049360000002398647086185592482_" class="st5" d="M11.3,75.7h-0.3v0.1H11V77h-0.1v0.1
					h0.5V77h-0.1L11.3,75.7z"/>
				<path id="path3186_00000021079168418846114490000005138232185224279688_" class="st5" d="M11.6,76.3c0-0.1,0.3-0.1,0.3,0.1h-0.1
					v0.2h0.3v-0.3c0-0.1,0.3-0.1,0.3,0.1h-0.1v0.7h-0.2v-0.3h-0.2h-0.1V77c0,0.1-0.3,0.1-0.3-0.1h0.1V76.3z"/>
				<path id="path24887_00000028321330651419231940000005101448417977194125_" class="st5" d="M12.7,76.9c0,0.1,0.1,0.1,0.1,0.1
					s0.1,0,0.1-0.1c0.1,0,0.1,0,0.2,0c-0.1,0.1-0.2,0.2-0.3,0.2c-0.2,0-0.4-0.2-0.4-0.4v0c0-0.2,0.2-0.4,0.4-0.4
					c0.1,0,0.2,0.1,0.3,0.2c0,0.1-0.1,0.1-0.2,0c0-0.1-0.1-0.1-0.1-0.1s-0.1,0-0.1,0.1V76.9z"/>
				
					<rect id="rect5544_00000083051187683055314710000015917158087283566269_" x="11.5" y="75.7" class="st4" width="1.6" height="0.1"/>
				<path id="path6238_00000024715282082208877110000000243114002117306526_" class="st5" d="M20.3,76h0.2v1.1h-0.1v0.1H21v-0.1
					h-0.1V76H21v-0.1h-0.6h-0.6V76h0.1v1.1h-0.1v0.1h0.5v-0.1h-0.1V76L20.3,76L20.3,76z"/>
				<path id="path5556_00000075859293972013035860000004860188786700333976_" class="st5" d="M22.6,77.1c0,0.1,0.1,0.1,0.1,0.1
					s0.1,0,0.1-0.1c0.1,0,0.1,0,0.2,0c-0.1,0.1-0.2,0.2-0.3,0.2c-0.2,0-0.4-0.2-0.4-0.4v0c0-0.2,0.2-0.4,0.4-0.4
					c0.1,0,0.2,0.1,0.3,0.2c0,0.1-0.1,0.1-0.2,0c0-0.1-0.1-0.1-0.1-0.1s-0.1,0-0.1,0.1V77.1z"/>
				<path id="path6126_00000086662725031765473260000010940716657581991840_" class="st5" d="M21.7,77c0.1,0.1,0.1,0.3,0.3,0.3
					c0.1,0,0.2-0.1,0.2-0.2c0-0.1,0-0.1-0.1-0.2c-0.1,0-0.2,0-0.1,0.1c0,0.1,0,0-0.1-0.1c-0.1-0.1-0.1-0.1-0.1-0.2
					c0,0,0.2-0.3,0.2-0.3c0.1,0,0.1,0.1,0.1,0.1c0-0.1,0.1-0.1,0.1-0.1c0-0.1-0.1-0.1-0.1-0.1c-0.1,0-0.2,0-0.3,0.1
					c-0.1,0.1-0.1,0.2-0.1,0.2c-0.1-0.1-0.1-0.3-0.3-0.3c-0.1,0-0.2,0.1-0.2,0.2c0,0.1,0,0.1,0.1,0.2c0.1,0,0.2,0,0.1-0.1
					c0-0.1,0,0,0.1,0.1c0.1,0.1,0.1,0.1,0.1,0.2c0,0-0.2,0.3-0.2,0.3c-0.1,0-0.1-0.1-0.1-0.1c0,0.1-0.2,0.1-0.1,0.2
					c0,0.1,0.1,0.1,0.1,0.1c0.1,0,0.2,0,0.3-0.1C21.6,77.1,21.6,77,21.7,77"/>
				
					<rect id="rect5561_00000072253811150401614580000004544694165623965315_" x="21.2" y="76" class="st4" width="1.8" height="0.1"/>
				<path id="path8133_00000116215424750367190810000014082164192940606636_" class="st5" d="M21.4,85.3h0.3v0.6h0.1V86h-0.1v0.6
					h-0.2V86h-0.1v-0.1h0.1v-0.5L21.4,85.3L21.4,85.3z"/>
				<path id="path9106_00000025426118097274194110000010739419694391724963_" class="st5" d="M21.7,85.5c0.1,0,0.2,0,0.3,0
					c0.7,0.5-0.9,1.5-0.9,0.1c0.1-0.2,0.3-0.1,0.3,0.1c0,0.1-0.1,0.1-0.1,0.1c0,0,0-0.1-0.1-0.1c0,0-0.1-0.1-0.1,0.1
					c0,0.5,0.5,0.7,0.8,0.2c0.1-0.2-0.1-0.4-0.2-0.3C21.6,85.7,21.6,85.5,21.7,85.5z"/>
				<path id="path18940_00000104705204511345143950000017584950211218765699_" class="st5" d="M20.2,86.2c0-0.1,0.1-0.2,0.1-0.4
					c0-0.2-0.1-0.2-0.2-0.2S20,85.6,20,85.8c0,0.1,0.1,0.2,0,0.4H20.2z"/>
				<path id="path18952_00000038410981251065643990000018411661571823137949_" class="st5" d="M20.8,86.2c0-0.1,0.1-0.2,0.1-0.4
					c0-0.2-0.1-0.2-0.2-0.2s-0.2,0.1-0.2,0.2c0,0.1,0.1,0.2,0,0.4H20.8z"/>
				<path id="path18956_00000168105063359639173460000007356113308025054850_" class="st5" d="M20.7,86L20.7,86
					c-0.1,0.2-0.2,0.2-0.3,0.2s-0.2,0-0.2-0.2l0,0l0,0.1c0,0.1-0.1,0.1-0.2,0.2c0,0,0,0,0,0c0,0,0,0,0,0c0,0,0,0,0,0
					c0.1,0,0.1-0.1,0.2-0.2c0.1,0.1,0.2,0.1,0.3,0.1s0.2-0.1,0.3-0.1c0,0.1,0.1,0.1,0.2,0.2c0,0,0,0,0.1,0c0,0,0-0.1,0-0.1
					C20.8,86.2,20.8,86.1,20.7,86L20.7,86z"/>
				<path id="path848_00000099660647119238860590000011233490588977323450_" class="st4" d="M22.8,85.1c0.1,0,0.1,0,0.2,0
					c0,0.1,0,0.2,0,0.2c0,0.1,0,0.1,0,0.2c0.1,0,0.2,0,0.2,0h0.1c0,0,0,0.1,0,0.1c-0.1,0-0.2,0-0.4,0c0,0.3,0,0.6,0,0.8
					c0,0.1-0.1,0.1-0.2,0.1c0,0-0.1-0.1-0.1-0.1c0,0,0-0.1,0-0.1s0.1,0,0.1,0.1c0-0.3,0-0.5,0-0.8l-0.2,0l0,0.2l-0.3-0.3
					c0.2,0,0.3,0,0.5,0C22.8,85.3,22.8,85.2,22.8,85.1z"/>
				<path id="path5587_00000155114531809775605040000015395423265838627477_" class="st4" d="M20.1,85.2c-0.2,0-0.4,0-0.4-0.2
					C19.8,84.9,20,84.9,20.1,85.2z"/>
				<path id="path5590_00000142174437346716294870000006395516265436688520_" class="st4" d="M21.4,85.2c-0.2,0-0.4,0-0.4-0.2
					C21,84.9,21.2,84.9,21.4,85.2z"/>
				<path id="path5633_00000034780188980098432140000004392798337483871678_" class="st5" d="M10.8,85.4h0.1v0.9h-0.1v0.1h0.4v-0.1
					h-0.1v-0.9h0.1v-0.1L10.8,85.4l-0.4-0.1v0.1h0.1v0.9h-0.1v0.1h0.4v-0.1h-0.1L10.8,85.4L10.8,85.4z"/>
				<path id="path24954_00000088109652222507695110000016236751908923654030_" class="st5" d="M11.8,86.3c0.2,0.3,0.6-0.1,0.4-0.6
					c0-0.1-0.2,0-0.1,0.1C12.2,86.1,12,86.5,11.8,86.3c0.1-0.1,0-0.1,0-0.1c0.1-0.2,0.1-0.4,0-0.5c-0.2,0.2-0.1,0.3,0,0.5
					C11.7,86.3,11.7,86.3,11.8,86.3c-0.2,0.2-0.4-0.2-0.3-0.5c0.1-0.1,0-0.2-0.1-0.1C11.1,86.3,11.6,86.6,11.8,86.3z"/>
				<path id="path24961_00000053529085218035938360000005957845317551047816_" class="st5" d="M12.2,86.1c0.1,0.4-0.1,0.9-0.5,0.6
					c-0.1-0.1-0.2,0-0.2,0.1c0.1,0,0.1,0,0.1,0.1c0,0.2-0.3,0.2-0.2-0.1c0-0.2,0.2-0.3,0.4-0.2c0.1,0.1,0.2,0.1,0.3,0
					c0-0.1,0.1-0.1,0-0.3L12.2,86.1z"/>
				<path id="path5606_00000010289781980908028480000003481619721306276743_" class="st4" d="M10.9,85.2c-0.2,0-0.4,0-0.4-0.2
					C10.6,84.9,10.8,84.9,10.9,85.2z"/>
				<path id="path5642_00000052089680955826212930000003932793509863285677_" class="st5" d="M12.3,85.8c0-0.1,0.2-0.1,0.2,0.1h-0.1
					v0.2h0.2v-0.3c0-0.1,0.2-0.1,0.2,0.1h-0.1v0.6h-0.1v-0.3h-0.2h-0.1v0.2c0,0.1-0.2,0.1-0.2-0.1h0.1
					C12.3,86.3,12.3,85.8,12.3,85.8z"/>
				<path id="path24940_00000037683186661822703400000005210251669003912605_" class="st5" d="M13.3,85.6c0,0-0.1,0-0.1,0.1
					c0,0-0.1-0.1-0.2,0l0.1,0.1v0.8H13c0,0.1,0.2,0.2,0.2,0.1v-0.5c0.1,0.1,0.2,0.1,0.3-0.1c0-0.2,0-0.3,0-0.5
					C13.4,85.7,13.3,85.6,13.3,85.6z M13.3,85.8c0.1,0,0.1,0.1,0.1,0.2s0,0.2-0.1,0.2s-0.1-0.1-0.1-0.2S13.2,85.8,13.3,85.8z"/>
				<path id="path24891_00000124125132884861908760000005463749951994199729_" class="st5" d="M13.6,85.7c0-0.1,0.2-0.1,0.2,0.1
					h-0.1v0.6c0,0.1-0.2,0.1-0.2-0.1h0.1V85.7z"/>
				<path id="path7696_00000034081235753232533770000015087432046079160744_" class="st5" d="M10.8,85.4h0.1v0.9h-0.1v0.1h0.4v-0.1
					h-0.1v-0.9h0.1v-0.1L10.8,85.4l-0.4-0.1v0.1h0.1v0.9h-0.1v0.1h0.4v-0.1h-0.1L10.8,85.4L10.8,85.4z"/>
				<path id="path7700_00000008869803658672761530000018193178844822963391_" class="st5" d="M11.8,86.3c0.2,0.3,0.6-0.1,0.4-0.6
					c0-0.1-0.2,0-0.1,0.1C12.2,86.1,12,86.5,11.8,86.3c0.1-0.1,0-0.1,0-0.1c0.1-0.2,0.1-0.4,0-0.5c-0.2,0.2-0.1,0.3,0,0.5
					C11.7,86.3,11.7,86.3,11.8,86.3c-0.2,0.2-0.4-0.2-0.3-0.5c0.1-0.1,0-0.2-0.1-0.1C11.1,86.3,11.6,86.6,11.8,86.3z"/>
				<path id="path7702_00000137811003582485874060000006072575890449909671_" class="st5" d="M12.2,86.1c0.1,0.4-0.1,0.9-0.5,0.6
					c-0.1-0.1-0.2,0-0.2,0.1c0.1,0,0.1,0,0.1,0.1c0,0.2-0.3,0.2-0.2-0.1c0-0.2,0.2-0.3,0.4-0.2c0.1,0.1,0.2,0.1,0.3,0
					c0-0.1,0.1-0.1,0-0.3L12.2,86.1z"/>
				<path id="path7704_00000109746680815976326090000002790379046840700042_" class="st4" d="M10.9,85.2c-0.2,0-0.4,0-0.4-0.2
					C10.6,84.9,10.8,84.9,10.9,85.2z"/>
				<path id="path7706_00000052076802580049393540000011649886361496084665_" class="st5" d="M12.3,85.8c0-0.1,0.2-0.1,0.2,0.1h-0.1
					v0.2h0.2v-0.3c0-0.1,0.2-0.1,0.2,0.1h-0.1v0.6h-0.1v-0.3h-0.2h-0.1v0.2c0,0.1-0.2,0.1-0.2-0.1h0.1
					C12.3,86.3,12.3,85.8,12.3,85.8z"/>
				<path id="path7708_00000175305049631437294240000006458017791650865592_" class="st5" d="M13.3,85.6c0,0-0.1,0-0.1,0.1
					c0,0-0.1-0.1-0.2,0l0.1,0.1v0.8H13c0,0.1,0.2,0.2,0.2,0.1v-0.5c0.1,0.1,0.2,0.1,0.3-0.1c0-0.2,0-0.3,0-0.5
					C13.4,85.7,13.3,85.6,13.3,85.6z M13.3,85.8c0.1,0,0.1,0.1,0.1,0.2s0,0.2-0.1,0.2s-0.1-0.1-0.1-0.2S13.2,85.8,13.3,85.8z"/>
				<path id="path7710_00000021805275995649738980000014504446831315093396_" class="st5" d="M13.6,85.7c0-0.1,0.2-0.1,0.2,0.1h-0.1
					v0.6c0,0.1-0.2,0.1-0.2-0.1h0.1V85.7z"/>
				<path id="path7716_00000127755629610699699340000005244350592492110493_" class="st5" d="M21.4,85.3h0.3v0.6h0.1V86h-0.1v0.6
					h-0.2V86h-0.1v-0.1h0.1v-0.5L21.4,85.3L21.4,85.3z"/>
				<path id="path7718_00000134953157071163189040000004156425193114633354_" class="st5" d="M21.7,85.5c0.1,0,0.2,0,0.3,0
					c0.7,0.5-0.9,1.5-0.9,0.1c0.1-0.2,0.3-0.1,0.3,0.1c0,0.1-0.1,0.1-0.1,0.1c0,0,0-0.1-0.1-0.1c0,0-0.1-0.1-0.1,0.1
					c0,0.5,0.5,0.7,0.8,0.2c0.1-0.2-0.1-0.4-0.2-0.3C21.6,85.7,21.6,85.5,21.7,85.5z"/>
				<path id="path7722_00000128448944085393994590000017172789247022652054_" class="st5" d="M20.2,86.2c0-0.1,0.1-0.2,0.1-0.4
					c0-0.2-0.1-0.2-0.2-0.2S20,85.6,20,85.8c0,0.1,0.1,0.2,0,0.4H20.2z"/>
				<path id="path7724_00000092417425020278883140000017292845640928036283_" class="st5" d="M20.8,86.2c0-0.1,0.1-0.2,0.1-0.4
					c0-0.2-0.1-0.2-0.2-0.2s-0.2,0.1-0.2,0.2c0,0.1,0.1,0.2,0,0.4H20.8z"/>
				<path id="path7726_00000114032192574302724860000008983887781814973867_" class="st5" d="M20.7,86L20.7,86
					c-0.1,0.2-0.2,0.2-0.3,0.2s-0.2,0-0.2-0.2l0,0l0,0.1c0,0.1-0.1,0.1-0.2,0.2c0,0,0,0,0,0c0,0,0,0,0,0c0,0,0,0,0,0
					c0.1,0,0.1-0.1,0.2-0.2c0.1,0.1,0.2,0.1,0.3,0.1s0.2-0.1,0.3-0.1c0,0.1,0.1,0.1,0.2,0.2c0,0,0,0,0.1,0c0,0,0-0.1,0-0.1
					C20.8,86.2,20.8,86.1,20.7,86L20.7,86z"/>
				<path id="path7728_00000031895189279168469760000013789937166322626699_" class="st4" d="M22.8,85.1c0.1,0,0.1,0,0.2,0
					c0,0.1,0,0.2,0,0.2c0,0.1,0,0.1,0,0.2c0.1,0,0.2,0,0.2,0h0.1c0,0,0,0.1,0,0.1c-0.1,0-0.2,0-0.4,0c0,0.3,0,0.6,0,0.8
					c0,0.1-0.1,0.1-0.2,0.1c0,0-0.1-0.1-0.1-0.1c0,0,0-0.1,0-0.1s0.1,0,0.1,0.1c0-0.3,0-0.5,0-0.8l-0.2,0l0,0.2l-0.3-0.3
					c0.2,0,0.3,0,0.5,0C22.8,85.3,22.8,85.2,22.8,85.1z"/>
				<path id="path7730_00000072241236325867039870000015372668233358437775_" class="st4" d="M20.1,85.2c-0.2,0-0.4,0-0.4-0.2
					C19.8,84.9,20,84.9,20.1,85.2z"/>
				<path id="path7732_00000089558622921063849960000007533552857492625322_" class="st4" d="M21.4,85.2c-0.2,0-0.4,0-0.4-0.2
					C21,84.9,21.2,84.9,21.4,85.2z"/>
			</g>
		</g>
	</g>
	<path d="M112.4,80c0,21.5-17.6,39.1-39.2,39c-21.5,0-39.2-18-39-39.5C34.4,59,51.3,41.2,72.8,41C95.7,40.8,112.6,59.5,112.4,80z
		 M61.4,95.2c0.6-0.1,1-0.2,1.4-0.7c3.1-4,6.1-8,9.2-11.9c0.4-0.6,0.6-1.1,0.4-1.7c-1.3-4.3-2.6-8.7-3.8-13
		c-0.1-0.5-0.4-0.8-0.9-0.8c-4.5-0.7-9.1-1.5-13.6-2.2c-0.3-0.1-0.7,0.2-1,0.4c-0.6,0.6-1,1.2-1.5,1.8c-2.1,2.6-4.2,5.3-5.7,8.3
		c-0.2,0.4-0.3,1-0.2,1.4c0.4,2.1,0.7,4.2,1.3,6.3c0.7,2.4,1.6,4.7,2.5,7.1c0.4,1.1,1.2,1.9,2.3,2.2c1.8,0.6,3.7,1.2,5.5,1.7
		C58.6,94.4,60,94.8,61.4,95.2z M82.5,107.3C82.5,107.3,82.5,107.3,82.5,107.3c1.2-0.2,2.5-0.3,3.7-0.3c0.6,0,1-0.2,1.3-0.6
		c1-1.2,2.1-2.3,3.1-3.6c1.4-1.7,2.7-3.5,4.1-5.3c0.4-0.6,0.4-1.1,0.1-1.8c-1.7-3.8-3.4-7.6-5.1-11.4c-0.2-0.6-0.6-0.8-1.2-0.8
		c-1.2,0-2.3,0-3.5,0c-3.2-0.1-6.4-0.3-9.7-0.4c-0.6,0-0.9,0.2-1.2,0.7c-2.6,4.5-5.7,8.6-9.6,12c-0.2,0.2-0.3,0.6-0.2,0.8
		c1.6,3.1,3.3,6.2,4.9,9.3c0.2,0.4,0.6,0.7,1.1,0.7C74.4,106.8,78.4,107.1,82.5,107.3z M69.4,65.2c0.3-0.1,0.7-0.2,0.9-0.4
		c3.2-1.9,6.5-3.9,9.7-5.8c0.6-0.4,0.8-0.8,0.6-1.5c-0.6-2.8-1.2-5.6-1.8-8.5c-0.2-0.8-0.5-1.3-1.3-1.5c-2-0.5-4-1-6-1.3
		c-1.9-0.3-3.8-0.3-5.7,0.5c-4.2,1.7-8.3,3.7-11.7,6.8c-0.7,0.7-1.1,1.2-0.9,2.3c0.3,2,0.5,4.1,0.7,6.2c0.1,0.5,0.3,0.7,0.8,0.7
		c0.4,0,0.9,0,1.3,0.1c4.2,0.1,8.3,0.8,12.3,2.1C68.6,65,69,65.1,69.4,65.2z M108.5,77.8c-0.1-0.4-0.1-0.8-0.2-1.1
		c-0.7-2.8-1.9-5.3-3.2-7.8c-0.2-0.4-0.5-0.6-1-0.5c-2.6,0.4-5.2,0.8-7.8,1.1c-0.7,0.1-1,0.4-1.2,1c-1.1,3.7-2.3,7.4-3.5,11.1
		c-0.2,0.7-0.2,1.2,0.2,1.8c1,1.7,2.2,3.4,2.9,5.3c0.8,1.9,1.3,3.9,1.9,5.9c0.1,0.4,0.2,0.9,0.8,0.8c2.5-0.3,4.9-0.8,7.2-1.6
		c0.7-0.2,1.1-0.6,1.3-1.3C108,87.7,108.7,82.8,108.5,77.8z M85.1,47.3c-1.2,0.2-2.4,0.3-3.6,0.5c-0.8,0.1-0.8,0.3-0.6,1
		c1.1,2.8,1.8,5.7,2,8.7c0.1,0.9,0.4,1.5,1.2,2c3.6,2.2,7,4.5,9.9,7.6c0.2,0.2,0.6,0.3,0.9,0.2c2.6-1,5.4-1.6,8.2-1.4
		c0.4,0,0.7-0.1,0.6-0.6c-0.3-2.3-0.8-4.6-2.3-6.5c-3.2-4.3-7.2-7.6-11.8-10.1C88.2,47.9,86.8,47.2,85.1,47.3z M38.6,73.7
		c0,0,0,0.1-0.1,0.2c-0.2,1.8-0.4,3.6-0.5,5.4c-0.1,5.5,1.2,10.8,3.5,15.8c0.2,0.4,0.4,0.8,0.7,1.1c1.3,1.3,2.7,2.5,4.1,3.8
		c0.1,0.1,0.4,0.2,0.5,0.2c0.1-0.1,0.2-0.3,0.2-0.5c0.4-2.1,0.7-4.2,1.1-6.3c0.1-0.5,0.1-1-0.2-1.5c-2.9-4.3-4.3-9.1-4.4-14.3
		c0-0.9-0.4-1.4-1.2-1.8C41.2,75.2,39.9,74.5,38.6,73.7z M88.7,111.6c-0.7-0.8-1.2-1.3-1.7-2c-0.3-0.3-0.6-0.4-1.1-0.4
		c-1.8,0.3-3.7,0.7-5.5,0.8c-3.7,0.2-7.3-0.2-10.8-1.3c-0.4-0.1-1,0-1.4,0.1c-1.1,0.4-2.2,0.9-3.4,1.3c-0.8,0.3-1.7,0.5-2.6,0.7
		c-0.5,0.1-0.6,0.4-0.3,0.8c0.4,0.5,0.7,1,1.2,1.4c0.4,0.4,0.9,0.7,1.4,0.8c2.7,0.7,5.4,1.1,8.2,1.1c3.9,0.1,7.7-0.5,11.4-1.7
		C85.7,112.8,87.2,112.2,88.7,111.6z M46.4,102.6c3.5,4.1,7.6,7.2,12.4,9.2c-0.1-0.4-0.3-0.7-0.6-0.9c-0.5-0.3-1-0.5-1.5-0.8
		c-3-1.6-5.6-3.8-7.7-6.4C48.4,102.9,47.6,102.5,46.4,102.6z M48.3,55.3c0.8-0.4,1.7-0.8,2.6-1.1c0.2-0.1,0.4-0.2,0.6-0.4
		c0.8-1,1.5-2.1,2.3-3.2C51.6,52,49.8,53.5,48.3,55.3z"/>
	<g>
		<path d="M43.6,124l2.4,1.2l-0.6,8.9l7-5.6l2.4,1.3l-4.8,9.2l-1.9-1l3.4-6.5l-6.2,5.1l-1.8-0.9l0.7-8l-3.4,6.5l-1.9-1L43.6,124z"/>
		<path d="M56,129.9l2.1,0.7l-3.3,9.9l-2.1-0.7L56,129.9z"/>
		<path d="M59.4,131.1l2.2,0.4l-1.6,8.5l6.4,1.2L66,143l-8.6-1.6L59.4,131.1z"/>
		<path d="M67.9,143.4l5.2-10.5l2.3,0l5.6,10.3l-2.5,0l-1.2-2.5l-5.7,0.1l-1.2,2.5L67.9,143.4z M76.4,139l-2.1-4.2l-2,4.3L76.4,139z
			"/>
		<path d="M80.8,132.6l2.2-0.6l8.5,5.6l-1.9-7.3l2.2-0.6l2.6,10.1l-2.2,0.6l-8.5-5.6l1.9,7.3l-2.2,0.6L80.8,132.6z"/>
		<path d="M94.7,134.2c-1.6-2.9-0.4-5.9,2.9-7.7c3.3-1.8,6.5-1,8,1.9c1.6,2.9,0.5,5.9-2.9,7.7C99.4,137.9,96.3,137.2,94.7,134.2z
			 M103.6,129.5c-1-1.9-3.1-2.5-5.2-1.3c-2.1,1.1-2.8,3.1-1.8,5.1s3.1,2.5,5.2,1.3C104,133.4,104.7,131.4,103.6,129.5z"/>
	</g>
	<g>
		<path d="M43.9,26.1c-2.6,1.5-3.2,3.2-2,5.1c1.1,1.9,2.9,2.1,5.5,0.5c1.2-0.7,2.2-1.6,3.2-2.9l1.4,2.8c-0.9,1.1-2.1,2.2-3.8,3.2
			c-4.3,2.6-8,2.1-10.1-1.4s-0.8-7,3.6-9.5c1.6-1,3.1-1.5,4.4-1.8l1.6,2.5C46.6,24.9,45.4,25.3,43.9,26.1z"/>
		<path d="M51.3,25.9c-1-3.8,1.1-6.8,5.8-8.1s8,0.5,9,4.2c1,3.8-1.1,6.9-5.8,8.1C55.6,31.3,52.3,29.6,51.3,25.9z M62.1,23.1
			c-0.5-2-2.1-2.9-4.2-2.4c-2.2,0.5-3.1,2-2.5,4.1c0.5,2,2.1,2.9,4.2,2.4C61.7,26.6,62.6,25.1,62.1,23.1z"/>
		<path d="M68.7,16l11.6,0.2L80.2,19l-7.6-0.1l0,2.1l6.9,0.1l0,2.7l-6.9-0.1l-0.1,4.4L68.5,28L68.7,16z"/>
		<path d="M83.7,16.6L96.4,20l-0.8,3l-4.4-1.2l-2.3,8.6l-3.8-1l2.3-8.6l-4.4-1.2L83.7,16.6z"/>
		<path d="M91.2,30.5l11.1-7.6l4.2,2.3l-0.6,13.4l-4-2.2l0.2-2.7l-5-2.8L95,32.6L91.2,30.5z M102.4,31.3l0.4-4.5l-3.7,2.7
			L102.4,31.3z"/>
	</g>
</g>
<g>
	<g>
		<path d="M186.1,58.9v-5.8h10.1v8.3l-6.6,6.7h-21.7V26.6l7.1-6.6h21.1v18.1h-10.1v-9H178v29.8C178,58.9,186.1,58.9,186.1,58.9z"/>
		<path d="M230.1,20v48h-28V20H230.1z M220.4,59.1V28.9h-8.5v30.2C211.9,59.1,220.4,59.1,220.4,59.1z"/>
		<path d="M246.2,47.4V68h-10.1V26.7l6.7-6.7h16.3v9.1h-12.9v9.2h11.9v9H246.2z"/>
		<path d="M293.3,29.1h-8.9V68h-10V29.1h-9.2V20h28.1L293.3,29.1L293.3,29.1z"/>
		<path d="M299.3,68V27.6L307,20h21v48h-10.1V52.2h-8.5V68H299.3z M317.9,29.1h-8.5v14h8.5V29.1z"/>
		<path d="M192.8,92h11.6v48h-9.3v-29.9l-7.4,29.9h-3l-7.5-29.9V140h-9.2V92h11.6l6.7,23.9L192.8,92z"/>
		<path d="M227.1,130.9v9.1h-16.7v-9.1h3.4v-29.8h-3.4V92h16.7v9.1h-3.4v29.8H227.1z"/>
		<path d="M233.1,140V92h10.1v38.9h14v9.1H233.1z"/>
		<path d="M263.3,140V99.6L271,92h21v48h-10.1v-15.8h-8.5V140H263.3z M281.9,101.1h-8.5v14h8.5V101.1z"/>
		<path d="M317,93.1h9.1V140h-9.6l-9.5-26.9V140H298V93.1h9.6L317,120V93.1z"/>
		<path d="M360.1,92v48h-28V92H360.1z M350.4,131.1v-30.2h-8.5v30.2H350.4z"/>
	</g>
</g>
</svg>
