<?xml version="1.0" encoding="utf-8"?>
<!-- Generator: Adobe Illustrator 28.2.0, SVG Export Plug-In . SVG Version: 6.00 Build 0)  -->
<svg version="1.1" xmlns="http://www.w3.org/2000/svg" xmlns:xlink="http://www.w3.org/1999/xlink" x="0px" y="0px"
	 viewBox="0 0 1080 1080" style="enable-background:new 0 0 1080 1080;" xml:space="preserve">
<style type="text/css">
	.st0{fill:#A4C8F4;}
	.st1{fill:url(#SVGID_1_);}
	.st2{fill:url(#SVGID_00000038408950731669778960000003977182397416700854_);}
	.st3{fill:url(#SVGID_00000027583358545781617130000003866579826495180976_);}
	.st4{fill:none;stroke:#000000;stroke-miterlimit:10;}
	.st5{fill:none;stroke:#000000;stroke-width:1.2006;stroke-linecap:round;stroke-linejoin:round;stroke-miterlimit:3.955;}
	.st6{fill:none;stroke:#000000;stroke-width:0.5755;stroke-linecap:round;stroke-linejoin:round;}
	
		.st7{fill:none;stroke:url(#SVGID_00000006680429981548708550000002422912614056423870_);stroke-width:25.3752;stroke-miterlimit:10;}
	
		.st8{fill:none;stroke:url(#SVGID_00000021827248735905562270000014192355293579024554_);stroke-width:25.3752;stroke-miterlimit:10;}
	.st9{fill-rule:evenodd;clip-rule:evenodd;}
	.st10{fill-rule:evenodd;clip-rule:evenodd;stroke:#000000;stroke-miterlimit:10;}
	.st11{stroke:#000000;stroke-miterlimit:10;}
</style>
<g id="Livello_1">
	<g>
		<circle class="st0" cx="540" cy="540" r="450"/>
		<linearGradient id="SVGID_1_" gradientUnits="userSpaceOnUse" x1="0" y1="1080" x2="1080" y2="7.272934e-08">
			<stop  offset="0" style="stop-color:#36A9E1"/>
			<stop  offset="0.0896" style="stop-color:#36A9E1;stop-opacity:0.9104"/>
			<stop  offset="1" style="stop-color:#36A9E1;stop-opacity:0"/>
		</linearGradient>
		<circle class="st1" cx="540" cy="540" r="450"/>
		
			<linearGradient id="SVGID_00000032627486812332463700000014244729317370516866_" gradientUnits="userSpaceOnUse" x1="0" y1="0" x2="1080" y2="1080">
			<stop  offset="0" style="stop-color:#6294F6;stop-opacity:0"/>
			<stop  offset="0.9104" style="stop-color:#6294F6;stop-opacity:0.6373"/>
			<stop  offset="1" style="stop-color:#6294F6;stop-opacity:0.7"/>
		</linearGradient>
		<circle style="fill:url(#SVGID_00000032627486812332463700000014244729317370516866_);" cx="540" cy="540" r="450"/>
		
			<linearGradient id="SVGID_00000083800440644049919030000008826165157487332273_" gradientUnits="userSpaceOnUse" x1="-3.633431e-08" y1="-3.633431e-08" x2="1080" y2="1080" gradientTransform="matrix(-1 0 0 -1 1080 1080)">
			<stop  offset="0" style="stop-color:#FFFFFF;stop-opacity:0"/>
			<stop  offset="0.1624" style="stop-color:#FCFCFC;stop-opacity:0.0487"/>
			<stop  offset="0.2928" style="stop-color:#F2F2F2;stop-opacity:0.0878"/>
			<stop  offset="0.4122" style="stop-color:#E1E1E1;stop-opacity:0.1237"/>
			<stop  offset="0.525" style="stop-color:#C9C9C9;stop-opacity:0.1575"/>
			<stop  offset="0.6332" style="stop-color:#AAAAAA;stop-opacity:0.19"/>
			<stop  offset="0.7379" style="stop-color:#848484;stop-opacity:0.2214"/>
			<stop  offset="0.8399" style="stop-color:#585858;stop-opacity:0.252"/>
			<stop  offset="0.9371" style="stop-color:#252525;stop-opacity:0.2811"/>
			<stop  offset="1" style="stop-color:#000000;stop-opacity:0.3"/>
		</linearGradient>
		<circle style="fill:url(#SVGID_00000083800440644049919030000008826165157487332273_);" cx="540" cy="540" r="450"/>
	</g>
</g>
<g id="Livello_2">
	<g>
		<path d="M361.71,194.15c-16.24,9.61-20.32,20.05-12.98,32.45c7.08,11.96,18.58,13.06,35.16,3.23c7.6-4.49,13.83-10.31,20.45-18.24
			l9.22,17.77c-5.63,7.22-13.41,14.19-23.98,20.44c-27.59,16.33-50.72,13.52-63.95-8.83c-13.23-22.35-4.91-44.14,22.77-60.53
			c10.22-6.05,19.86-9.28,27.88-11.08l10.35,15.69C378.81,186.38,370.88,188.72,361.71,194.15z"/>
		<path d="M408.7,192.5c-6.16-23.78,6.9-43.41,36.96-51.2c30.06-7.79,51,3.04,57.17,26.81c6.18,23.87-6.87,43.51-36.93,51.3
			C435.83,227.2,414.89,216.38,408.7,192.5z M477.08,174.78c-3.33-12.87-13.08-18.52-26.59-15.23
			c-13.81,3.37-19.48,13.02-16.05,26.28c3.36,12.97,13.01,18.65,26.66,15.11C474.67,197.43,480.44,187.75,477.08,174.78z"/>
		<path d="M519.04,130.02l73.24,1.19L592,148.96l-48.39-0.79l-0.22,13.49l43.52,0.71l-0.28,16.94l-43.51-0.71l-0.46,27.9
			l-24.85-0.41L519.04,130.02z"/>
		<path d="M614.28,133.74l80.13,21.78l-5.11,18.81l-28.01-7.61l-14.86,54.66l-24-6.52l14.86-54.66l-28.11-7.64L614.28,133.74z"/>
		<path d="M661.66,222.24l70.17-48.05l26.42,14.74l-3.85,85.05l-25.09-14l1.6-17.24l-31.66-17.66l-13.83,10.42L661.66,222.24z
			 M732.35,227.03l2.71-28.83l-23.2,17.41L732.35,227.03z"/>
	</g>
	<g>
		<path d="M351.78,818.87l15.12,7.96l-3.99,56.53l44.28-35.31l15.19,8L391.6,914.5l-12.08-6.36l21.83-41.45l-39.37,32.21
			l-11.38-5.99l4.22-50.53l-21.75,41.3L321,877.31L351.78,818.87z"/>
		<path d="M430.19,856.47l13.38,4.41l-20.69,62.73l-13.38-4.41L430.19,856.47z"/>
		<path d="M451.55,864.2l13.85,2.66l-10.32,53.65l40.67,7.82l-2.17,11.25l-54.52-10.49L451.55,864.2z"/>
		<path d="M505.86,941.88l32.66-66.66l14.62-0.25l35.25,65.46l-15.68,0.28l-7.85-15.72l-36.29,0.64l-7.3,15.99L505.86,941.88z
			 M559.38,914.07l-13.33-26.73l-12.39,27.18L559.38,914.07z"/>
		<path d="M587.77,873.71l13.65-3.52l53.95,35.75l-11.99-46.56l13.64-3.52l16.48,63.96l-13.64,3.51l-53.95-35.75l11.99,46.56
			l-13.64,3.52L587.77,873.71z"/>
		<path d="M675.77,884.12c-9.86-18.39-2.88-37.63,18.23-48.95c21.12-11.32,41-6.49,50.86,11.91c9.91,18.47,2.93,37.71-18.19,49.03
			C705.56,907.43,685.67,902.6,675.77,884.12z M732.44,853.74c-6.62-12.35-19.6-15.68-33.03-8.48c-13.42,7.2-17.84,19.86-11.22,32.2
			c6.62,12.35,19.56,15.61,32.99,8.4C734.61,878.66,739.06,866.08,732.44,853.74z"/>
	</g>
	<g>
		<path class="st4" d="M945.05,532.46l0-11.14l-9.57,8.12l-20.16,0l0-20.17l8.12-9.56l-11.14,0c-2.08-2.67-5.02-8.59-7.53-12.89
			c-2.51,4.3-5.45,10.22-7.53,12.89l-11.14,0l8.12,9.57l0,20.17l-20.16,0l-9.57-8.12l0,11.14c-2.67,2.08-8.59,5.02-12.89,7.53
			c4.3,2.51,10.22,5.45,12.89,7.53l0,11.14l9.57-8.12l20.16,0l0,20.17l-8.12,9.56l11.14,0c2.08,2.67,5.02,8.59,7.53,12.89
			c2.51-4.3,5.45-10.22,7.53-12.89l11.14,0l-8.12-9.57l0.01-20.16l20.16,0l9.57,8.12l0-11.14c2.67-2.08,8.59-5.02,12.89-7.53
			C953.64,537.48,947.72,534.54,945.05,532.46z"/>
		<path id="path5243_00000080916921124370223990000015161645927283035574_" class="st5" d="M917.01,539.98
			c0,6.61-5.48,11.96-12.25,11.96c-6.76,0-12.25-5.36-12.25-11.96s5.48-11.96,12.25-11.96
			C911.53,528.02,917.01,533.37,917.01,539.98z"/>
		<path id="path2167_00000136398900732327010120000001309212565391402923_" class="st6" d="M903.86,540.8
			c0.02,0.01,1.82,0.01,1.82,0.02c3.15,0.3,4.76,1.68,6.68,3.97c0.9-1.01,1.04-2.24,0.87-3.3c1.13-0.18,2.21-0.56,3.24-1.51
			c-1.07-0.95-2.15-1.33-3.28-1.51c0.16-1.07,0.03-2.3-0.87-3.3c-1.92,2.29-3.53,3.67-6.68,3.97c-0.02,0.05-1.71-0.01-1.73-0.02
			c-3.15-0.3-4.76-1.68-6.68-3.97c-0.9,1.01-1.04,2.24-0.87,3.3c-1.13,0.18-2.21,0.56-3.28,1.51c1.03,0.95,2.11,1.33,3.24,1.51
			c-0.16,1.07-0.03,2.3,0.87,3.3C899.1,542.49,900.71,541.11,903.86,540.8z M903.94,539.07c-0.01,0.02-0.01,1.82-0.02,1.82
			c-0.3,3.15-1.68,4.76-3.97,6.68c1.01,0.9,2.24,1.04,3.3,0.87c0.18,1.13,0.56,2.21,1.51,3.24c0.95-1.07,1.33-2.15,1.51-3.28
			c1.07,0.16,2.3,0.03,3.3-0.87c-2.29-1.92-3.67-3.53-3.97-6.68c-0.05-0.02,0.01-1.71,0.02-1.73c0.3-3.15,1.68-4.76,3.97-6.68
			c-1.01-0.9-2.24-1.04-3.3-0.87c-0.18-1.13-0.56-2.21-1.51-3.28c-0.95,1.03-1.33,2.11-1.51,3.24c-1.07-0.16-2.3-0.03-3.3,0.87
			C902.25,534.31,903.64,535.92,903.94,539.07z"/>
	</g>
	
		<linearGradient id="SVGID_00000054226354595787831020000005352116793519413387_" gradientUnits="userSpaceOnUse" x1="77.3124" y1="540" x2="1002.6876" y2="540" gradientTransform="matrix(0.7071 0.7071 -0.7071 0.7071 540 -223.6753)">
		<stop  offset="0" style="stop-color:#2F92A8"/>
		<stop  offset="1" style="stop-color:#000000"/>
	</linearGradient>
	
		<circle style="fill:none;stroke:url(#SVGID_00000054226354595787831020000005352116793519413387_);stroke-width:25.3752;stroke-miterlimit:10;" cx="540" cy="540" r="450"/>
	
		<linearGradient id="SVGID_00000133523429280459828620000004531226554093058986_" gradientUnits="userSpaceOnUse" x1="244.9587" y1="540" x2="835.0413" y2="540" gradientTransform="matrix(-0.7071 -0.7071 0.7071 -0.7071 540 1303.6753)">
		<stop  offset="0" style="stop-color:#2F92A8"/>
		<stop  offset="1" style="stop-color:#000000"/>
	</linearGradient>
	
		<circle style="fill:none;stroke:url(#SVGID_00000133523429280459828620000004531226554093058986_);stroke-width:25.3752;stroke-miterlimit:10;" cx="540" cy="540" r="282.35"/>
	<path d="M787.02,538.92c0,136.6-111.64,247.85-248.86,247.63c-136.52-0.23-248.72-114.24-247.17-250.48
		c1.49-130.22,108.46-243.37,245.07-244.6C680.98,290.17,788.18,409.17,787.02,538.92z M463.81,635.14
		c3.72-0.41,6.35-1.54,8.63-4.51c19.35-25.3,38.76-50.56,58.35-75.67c2.75-3.52,3.55-6.64,2.28-10.92
		c-8.17-27.45-16.15-54.95-24.18-82.45c-0.86-2.95-2.33-4.85-5.73-5.39c-28.73-4.55-57.42-9.31-86.16-13.74
		c-1.93-0.3-4.7,1.09-6.19,2.58c-3.5,3.51-6.47,7.55-9.62,11.41c-13.52,16.53-26.49,33.46-35.98,52.72
		c-1.29,2.62-2.04,6.09-1.55,8.9c2.33,13.4,4.29,26.97,8.07,39.99c4.41,15.21,10.35,29.99,16.09,44.78
		c2.58,6.66,7.3,11.84,14.49,14.11c11.62,3.67,23.21,7.46,34.88,10.94C445.99,630.53,454.92,632.74,463.81,635.14z M620.5,710.5
		c3.62-0.08,6.33-1.25,8.59-3.89c6.47-7.57,13.22-14.92,19.43-22.7c8.77-11,17.18-22.29,25.68-33.5c2.64-3.48,2.67-7.09,0.83-11.17
		c-10.87-24.07-21.6-48.22-32.27-72.38c-1.58-3.58-3.84-5.2-7.86-5.1c-7.4,0.19-14.81,0.15-22.2-0.13
		c-20.46-0.79-40.92-1.71-61.38-2.67c-3.52-0.16-5.94,1.07-7.69,4.16c-16.16,28.59-35.87,54.33-60.83,75.88
		c-1.08,0.93-1.76,3.8-1.14,4.99c10.26,19.79,20.77,39.45,31.22,59.14c1.53,2.88,3.91,4.38,7.18,4.57
		C545.73,709.25,594.81,708.93,620.5,710.5 M514.21,444.97c1.97-0.83,4.16-1.47,6.06-2.6c20.53-12.2,40.98-24.55,61.56-36.67
		c3.87-2.28,4.85-5.11,3.95-9.22c-3.93-17.87-7.94-35.73-11.55-53.66c-1.03-5.11-3.35-8.4-8.33-9.53
		c-12.71-2.89-25.35-6.25-38.2-8.27c-12.16-1.91-24.12-1.89-36.29,3.08c-26.76,10.93-52.41,23.34-74.02,43.04
		c-4.52,4.12-7.11,7.87-6.05,14.57c2.05,12.9,2.99,25.97,4.26,38.99c0.31,3.2,1.9,4.5,4.95,4.58c2.84,0.07,5.68,0.32,8.52,0.41
		c26.69,0.91,52.82,5.12,78.29,13.29C509.49,443.67,511.67,444.24,514.21,444.97z M762.44,524.98c-0.37-2.37-0.55-4.79-1.13-7.11
		c-4.36-17.49-12.19-33.55-20.52-49.4c-1.36-2.59-3.19-3.51-6.25-3.04c-16.42,2.49-32.85,4.94-49.32,7.02
		c-4.39,0.55-6.28,2.36-7.53,6.49c-7.11,23.46-14.33,46.9-21.95,70.19c-1.46,4.45-1.06,7.59,1.26,11.47
		c6.56,10.95,13.67,21.73,18.68,33.39c5.17,12.02,8.19,24.97,12.05,37.55c0.87,2.84,1.47,5.75,5.39,5.19
		c15.6-2.24,31.11-4.89,45.99-10.39c4.1-1.52,6.93-4.05,8.55-8.26C759.15,588.08,763.86,557.05,762.44,524.98z M613.91,331.8
		c-7.58,1-15.21,1.76-22.74,3.08c-4.79,0.84-5.27,2.08-3.55,6.43c7,17.68,11.21,36.02,12.86,54.94c0.48,5.49,2.71,9.37,7.63,12.41
		c22.55,13.92,44.66,28.45,62.58,48.42c1.08,1.2,4.05,1.91,5.55,1.33c16.77-6.49,34.03-9.89,52.05-9.07
		c2.73,0.12,4.31-0.84,3.92-3.99c-1.84-14.82-5.28-29.02-14.45-41.31c-20.17-27.04-45.4-48.07-75.08-63.98
		C633.66,335.22,624.72,330.66,613.91,331.8z M318.83,499.14c-0.04,0.15-0.33,0.79-0.4,1.45c-1.07,11.46-2.77,22.91-3.03,34.38
		c-0.78,35.13,7.39,68.42,22.13,100.18c1.18,2.54,2.69,5.14,4.69,7.03c8.59,8.1,17.39,15.97,26.2,23.83
		c0.82,0.73,2.52,1.4,3.27,1.03c0.83-0.42,1.25-2.04,1.46-3.2c2.39-13.25,4.58-26.53,7.13-39.74c0.66-3.41,0.82-6.35-1.19-9.31
		c-18.61-27.36-27.21-57.85-27.96-90.68c-0.13-5.64-2.55-8.76-7.38-11.22C335.43,508.66,327.38,503.9,318.83,499.14z M636.77,739.27
		c-4.19-4.8-7.58-8.57-10.83-12.46c-1.81-2.18-3.67-2.87-6.66-2.36c-11.59,1.98-23.19,4.37-34.89,5.13
		c-23.29,1.5-46.17-1.59-68.62-8.16c-2.67-0.78-6.12-0.22-8.84,0.74c-7.2,2.55-14.1,5.94-21.31,8.48
		c-5.33,1.88-10.93,3.02-16.43,4.37c-3.39,0.83-3.86,2.41-1.69,5.04c2.45,2.96,4.54,6.3,7.35,8.84c2.55,2.3,5.65,4.58,8.88,5.42
		c16.96,4.43,34.27,6.65,51.8,6.95c24.77,0.42,48.99-3.25,72.5-10.99C617.81,747.05,627.29,742.93,636.77,739.27z M368.66,682.22
		c22.22,25.66,47.97,45.37,78.99,58.28c-0.82-2.4-1.97-4.64-3.8-5.89c-3.02-2.07-6.52-3.42-9.75-5.2
		c-18.88-10.41-35.23-23.93-49.07-40.44C380.87,684.01,375.73,681.99,368.66,682.22z M380.43,382.61c5.4-2.39,10.82-4.75,16.19-7.21
		c1.26-0.58,2.72-1.23,3.5-2.29c4.8-6.51,9.42-13.14,14.55-20.35C401.64,361.52,389.82,370.56,380.43,382.61z"/>
	<path d="M962.87,540c-5.06-2.96-14.9-8.3-15.14-8.84l0.01-15.45l-12.96,10.86l-16.58,0l0-16.55l10.88-12.99l-15.45,0.01
		c-0.55-0.24-5.9-10.08-8.86-15.14c-2.96,5.06-8.3,14.9-8.84,15.14l-15.45-0.01l10.83,12.94l0.03,16.6l-16.55,0l-12.99-10.88
		l0,15.45c-0.24,0.55-10.07,5.9-15.14,8.86c5.06,2.96,14.9,8.3,15.14,8.85l-0.01,15.45l12.96-10.86l16.58,0l0,16.55l-10.88,12.99
		l15.45-0.01c0.55,0.24,5.9,10.08,8.86,15.14c2.96-5.06,8.3-14.9,8.84-15.14l15.45,0.01l-10.83-12.94l-0.03-16.6l16.55,0
		l12.99,10.88l0-15.45C947.97,548.31,957.8,542.96,962.87,540z M945.05,547.52l0,11.14l-9.57-8.12l-20.16,0l-0.01,20.16l8.12,9.57
		l-11.14,0c-2.08,2.67-5.02,8.59-7.53,12.89c-2.51-4.3-5.45-10.22-7.53-12.89l-11.14,0l8.12-9.56l0-20.17l-20.16,0l-9.57,8.12
		l0-11.14c-2.67-2.08-8.59-5.02-12.89-7.53c4.3-2.51,10.22-5.45,12.89-7.53l0-11.14l9.57,8.12l20.16,0l0-20.17l-8.12-9.57l11.14,0
		c2.08-2.67,5.02-8.59,7.53-12.89c2.51,4.3,5.45,10.22,7.53,12.89l11.14,0l-8.12,9.56l0,20.17l20.16,0l9.57-8.12l0,11.14
		c2.67,2.08,8.59,5.02,12.89,7.53C953.64,542.51,947.72,545.45,945.05,547.52z"/>
	<path id="path4214_00000114778589762677146230000015503574424103722929_" d="M925.88,540.01c-0.2-0.43-0.48-0.99-1.06-0.95
		c-0.42,0.03-0.41,0.26-0.54,0.39c-0.1,0.1-0.22,0.43-0.74,0.42c-0.43-0.01-0.68-0.32-0.84-0.47c-0.12-0.11-0.21-0.46-1.06-0.5
		c-0.88-0.04-2.33,1.11-2.33,1.11s1.46,1.15,2.33,1.11c0.85-0.04,0.94-0.39,1.06-0.5c0.16-0.15,0.41-0.46,0.84-0.47
		c0.53-0.01,0.64,0.32,0.74,0.42c0.13,0.13,0.12,0.35,0.54,0.39C925.4,541,925.68,540.43,925.88,540.01z"/>
	<path id="path4136_00000086689340651256536640000013947437591446128300_" d="M883.88,540.01c0.2-0.43,0.48-0.99,1.06-0.95
		c0.42,0.03,0.41,0.26,0.54,0.39c0.1,0.1,0.22,0.43,0.74,0.42c0.43-0.01,0.68-0.32,0.84-0.47c0.12-0.11,0.21-0.46,1.06-0.5
		c0.88-0.04,2.33,1.11,2.33,1.11s-1.46,1.15-2.33,1.11c-0.85-0.04-0.94-0.39-1.06-0.5c-0.16-0.15-0.41-0.46-0.84-0.47
		c-0.53-0.01-0.64,0.32-0.74,0.42c-0.13,0.13-0.12,0.35-0.54,0.39C884.35,541,884.08,540.43,883.88,540.01z"/>
	<path id="path4270_00000094579081511470385400000008550934670008570798_" d="M904.85,560.98c0.43-0.2,0.99-0.48,0.95-1.06
		c-0.03-0.42-0.26-0.41-0.39-0.54c-0.1-0.1-0.43-0.22-0.42-0.74c0.01-0.43,0.32-0.68,0.47-0.84c0.11-0.12,0.46-0.21,0.5-1.06
		c0.04-0.88-1.11-2.33-1.11-2.33s-1.15,1.46-1.11,2.33c0.04,0.85,0.39,0.94,0.5,1.06c0.15,0.16,0.46,0.41,0.47,0.84
		c0.01,0.53-0.32,0.64-0.42,0.74c-0.13,0.13-0.35,0.12-0.39,0.54C903.86,560.5,904.42,560.78,904.85,560.98z"/>
	<path id="path4260_00000164488149102774063600000007726621756098710407_" d="M904.85,518.98c0.43,0.2,0.99,0.48,0.95,1.06
		c-0.03,0.42-0.26,0.41-0.39,0.54c-0.1,0.1-0.43,0.22-0.42,0.74c0.01,0.43,0.32,0.68,0.47,0.84c0.11,0.12,0.46,0.21,0.5,1.06
		c0.04,0.88-1.11,2.33-1.11,2.33s-1.15-1.46-1.11-2.33c0.04-0.85,0.39-0.94,0.5-1.06c0.15-0.16,0.46-0.41,0.47-0.84
		c0.01-0.53-0.32-0.64-0.42-0.74c-0.13-0.13-0.35-0.12-0.39-0.54C903.86,519.45,904.42,519.18,904.85,518.98z"/>
	<path id="path4216_00000154395418916703452500000002004237451143000475_" d="M955.56,539.96c-0.45,0.75-1.24,1.32-2.23,1.5
		c-0.6,0.11-0.88-0.47-1.13-0.96c0,0-0.53,1.6-2.26,1.6c-1.72-0.01-3.36-2.15-3.36-2.13c0,0.01,1.64-2.13,3.36-2.13
		c1.73-0.01,2.26,1.6,2.26,1.6c0.25-0.49,0.53-1.07,1.13-0.96C954.32,538.64,955.11,539.21,955.56,539.96z M951.03,540
		c-0.93-1.07-1.78-0.47-2.5,0C949.26,540.47,950.1,541.07,951.03,540z"/>
	<path id="path4145_00000078730407335495349120000000540800121518989187_" d="M854.19,539.96c0.45,0.75,1.24,1.32,2.23,1.5
		c0.6,0.11,0.88-0.47,1.13-0.96c0,0,0.53,1.6,2.26,1.6c1.72-0.01,3.36-2.15,3.36-2.13c0,0.01-1.64-2.13-3.36-2.13
		c-1.73-0.01-2.26,1.6-2.26,1.6c-0.25-0.49-0.53-1.07-1.13-0.96C855.43,538.64,854.64,539.21,854.19,539.96z M858.72,540
		c0.93-1.07,1.78-0.47,2.5,0C860.49,540.47,859.66,541.07,858.72,540z"/>
	<path id="path4272_00000092453170315498420160000006927360513484298167_" d="M904.9,590.66c-0.75-0.45-1.32-1.24-1.5-2.23
		c-0.11-0.6,0.47-0.88,0.96-1.13c0,0-1.6-0.53-1.6-2.26c0.01-1.72,2.15-3.36,2.13-3.36c-0.01,0,2.13,1.64,2.13,3.36
		c0.01,1.73-1.6,2.26-1.6,2.26c0.49,0.25,1.07,0.53,0.96,1.13C906.22,589.42,905.65,590.21,904.9,590.66z M904.86,586.13
		c1.07-0.93,0.47-1.78,0-2.5C904.39,584.36,903.79,585.2,904.86,586.13z"/>
	<path id="path4262_00000080184805294439956380000004849436038788243866_" d="M904.9,489.29c-0.75,0.45-1.32,1.24-1.5,2.23
		c-0.11,0.6,0.47,0.88,0.96,1.13c0,0-1.6,0.53-1.6,2.26c0.01,1.72,2.15,3.36,2.13,3.36c-0.01,0,2.13-1.64,2.13-3.36
		c0.01-1.73-1.6-2.26-1.6-2.26c0.49-0.25,1.07-0.53,0.96-1.13C906.22,490.53,905.65,489.74,904.9,489.29z M904.86,493.82
		c1.07,0.93,0.47,1.78,0,2.5C904.39,495.59,903.79,494.76,904.86,493.82z"/>
	<path id="path4266_00000086653576726294052430000006706107917783915679_" d="M910.03,561.86c0.75,1.12-0.02,2.44-0.53,2.97
		c-0.5,0.52-1.79,1.17-1.79,1.17s0.74-1.04,0.62-1.75c-0.19-1.09-1.03-1.12-1.11-1.12s-1.07,0.1-1.01,1.04
		c0.1,1.78,0.88,2.72,1.9,3.78c1.26,1.3,3.07,2.02,3.74,2.59c0.47,0.41,0.94,0.46,1.08,0.58c1.15,0.94,1.66,1.66,2.2,3
		c0.54,1.34-0.08,2.34-0.08,2.34s1.35-0.52,2.6-0.48c1.22,0.04,1.92,1.24,2,2.16c0.06,0.66-0.85,1.45-1.68,1.44
		c-0.83-0.01-1.64-1.48-1.64-1.48h1.24c0,0,0.18,0.27,0.44,0.22c0.26-0.05,0.54-0.2,0.48-0.62c-0.04-0.26-0.24-0.93-1.08-0.84
		c-0.96,0.1-1.85,0.34-2.72,1.16c-1.2,1.13-2.1,1.15-3.74,1.2c-0.6,0.02-2-0.13-2.82-0.56c-0.12-0.06-1.04-0.65-1.24-0.82
		c-0.88-0.71-2.06-2.63-2.02-2.7v-6.45c0,0,1.11,1.29,1.14,2.52c0.03,1.22-0.68,2.36-0.68,2.36s0.05,0.99,0.8,2s0.95,1.41,2.2,2.04
		c1.25,0.63,1.82,0.94,2.8,0.48c1.99-0.94,1.2-3.56,1.2-3.56l1.72,0.64c0,0,0.2-1.85-2.18-3.32c-1.39-0.85-2.6-0.92-4.42-2.69
		c-1.98-1.91-2.66-2.83-2.66-5.17c0-2.15,0.69-3.39,3.06-4.16c2.94-0.95,2.13-3.99,2.12-4.04c-2.17-0.74-3.96-2.2-5.37-3.73
		c-0.14-0.15-0.13-0.39,0.02-0.53c0.15-0.14,0.39-0.13,0.53,0.02c1.48,1.6,3.33,3.24,5.47,3.76c0.51,0.12,1.03,0.28,1.46,0.31
		c0.43,0.03,0.7-0.03,0.91-0.32c0.25-0.34,0.23-0.5,0.16-0.73c-0.03-0.08-0.1-0.19-0.15-0.28c-0.05-0.04-0.13-0.17-0.17-0.2
		c-0.1-0.07-0.27-0.16-0.44-0.23c-0.04,0.07-0.05,0.09-0.11,0.19c-0.06,0.1-0.13,0.2-0.22,0.29c-0.08,0.09-0.15,0.21-0.37,0.26
		c-0.22,0.05-0.37,0.03-0.5-0.03c-0.13-0.05-0.25-0.13-0.37-0.22c-0.12-0.09-0.2-0.16-0.29-0.28c-0.1-0.12-0.23-0.31-0.22-0.53
		c0.01-0.27,0.17-0.55,0.37-0.76c0.2-0.22,0.51-0.4,0.88-0.41c0.29-0.01,0.62,0,0.94,0.15c0.32,0.15,0.59,0.42,0.81,0.83
		c0.14,0.27,0.41,0.58,0.54,0.98c0.07,0.2,0.09,0.43,0.05,0.67c-0.04,0.24-0.14,0.49-0.32,0.74c-0.39,0.53-1.01,0.66-1.56,0.62
		c-0.14-0.01-0.28-0.03-0.47-0.05c-0.05,0,0.56,1,0.56,2.22c0,1.28-1.29,2.47-1.33,2.53c1.69,1.56,2.99,3.26,3.14,6.09
		c0.18,3.43-3.1,6.8-3.15,6.74c-1.25,1.62-2.72,2.75-3.27,5.76c-0.12,0.67,0.51,1.37,1.19,1.42c0.66,0.05,1.48-0.82,1.48-0.82
		c0.21-0.08,0.03,2.13-1.48,2.18c-0.96,0.03-2.5-0.76-2.28-2.41c0.32-2.41,1.25-4.46,2.86-6.09c0.04,0.01,3.44-3.6,3.48-5.8
		c0.01-0.46-0.62-2.07-1.12-2.42c-0.39-0.27-0.91-0.18-1.22-1.05l1.52-0.02c-0.11,0.29,0.07,0.31,0.47,0.21
		C911.86,563.76,911.2,562.51,910.03,561.86z"/>
	<path id="path4268_00000102539911413021332290000010021756167700020868_" d="M899.73,561.86c-0.75,1.12,0.02,2.44,0.53,2.97
		c0.5,0.52,1.79,1.17,1.79,1.17s-0.74-1.04-0.62-1.75c0.19-1.09,1.03-1.12,1.11-1.12s1.07,0.1,1.01,1.04
		c-0.1,1.78-0.88,2.72-1.9,3.78c-1.26,1.3-3.07,2.02-3.74,2.59c-0.47,0.41-0.94,0.46-1.08,0.58c-1.15,0.94-1.66,1.66-2.2,3
		c-0.54,1.34,0.08,2.34,0.08,2.34s-1.35-0.52-2.6-0.48c-1.22,0.04-1.92,1.24-2,2.16c-0.06,0.66,0.85,1.45,1.68,1.44
		s1.64-1.48,1.64-1.48h-1.24c0,0-0.18,0.27-0.44,0.22c-0.26-0.05-0.54-0.2-0.48-0.62c0.04-0.26,0.24-0.93,1.08-0.84
		c0.96,0.1,1.85,0.34,2.72,1.16c1.2,1.13,2.1,1.15,3.74,1.2c0.6,0.02,2-0.13,2.82-0.56c0.12-0.06,1.04-0.65,1.24-0.82
		c0.88-0.71,2.06-2.63,2.02-2.7v-6.45c0,0-1.11,1.29-1.14,2.52c-0.03,1.22,0.68,2.36,0.68,2.36s-0.05,0.99-0.8,2
		s-0.95,1.41-2.2,2.04c-1.25,0.63-1.82,0.94-2.8,0.48c-1.99-0.94-1.2-3.56-1.2-3.56l-1.72,0.64c0,0-0.2-1.85,2.18-3.32
		c1.39-0.85,2.6-0.92,4.42-2.69c1.98-1.91,2.66-2.83,2.66-5.17c0-2.15-0.69-3.39-3.06-4.16c-2.94-0.95-2.13-3.99-2.12-4.04
		c2.17-0.74,3.96-2.2,5.37-3.73c0.14-0.15,0.13-0.39-0.02-0.53c-0.15-0.14-0.39-0.13-0.53,0.02c-1.48,1.6-3.33,3.24-5.47,3.76
		c-0.51,0.12-1.03,0.28-1.46,0.31c-0.43,0.03-0.69-0.03-0.91-0.32c-0.25-0.34-0.23-0.5-0.16-0.73c0.03-0.08,0.1-0.19,0.15-0.28
		c0.05-0.04,0.13-0.17,0.17-0.2c0.1-0.07,0.27-0.16,0.44-0.23c0.04,0.07,0.05,0.09,0.11,0.19c0.06,0.1,0.13,0.2,0.22,0.29
		c0.08,0.09,0.15,0.21,0.37,0.26c0.22,0.05,0.37,0.03,0.5-0.03c0.13-0.05,0.25-0.13,0.37-0.22c0.12-0.09,0.2-0.16,0.29-0.28
		c0.1-0.12,0.23-0.31,0.22-0.53c-0.01-0.27-0.17-0.55-0.37-0.76c-0.2-0.22-0.51-0.4-0.88-0.41c-0.29-0.01-0.62,0-0.94,0.15
		c-0.32,0.15-0.59,0.42-0.81,0.83c-0.14,0.27-0.41,0.58-0.54,0.98c-0.07,0.2-0.09,0.43-0.05,0.67c0.04,0.24,0.14,0.49,0.32,0.74
		c0.39,0.53,1.01,0.66,1.56,0.62c0.14-0.01,0.28-0.03,0.47-0.05c0.05,0-0.56,1-0.56,2.22c0,1.28,1.29,2.47,1.33,2.53
		c-1.69,1.56-2.99,3.26-3.14,6.09c-0.18,3.43,3.1,6.8,3.15,6.74c1.25,1.62,2.72,2.75,3.27,5.76c0.12,0.67-0.51,1.37-1.19,1.42
		c-0.66,0.05-1.48-0.82-1.48-0.82c-0.21-0.08-0.03,2.13,1.48,2.18c0.96,0.03,2.5-0.76,2.28-2.41c-0.32-2.41-1.25-4.46-2.86-6.09
		c-0.04,0.01-3.44-3.6-3.48-5.8c-0.01-0.46,0.62-2.07,1.12-2.42c0.39-0.27,0.91-0.18,1.22-1.05l-1.52-0.02
		c0.11,0.29-0.07,0.31-0.47,0.21C897.9,563.76,898.55,562.51,899.73,561.86z"/>
	<path id="path4212_00000168800443378558078800000015821392082107518094_" d="M926.76,545.13c1.12,0.75,2.44-0.02,2.97-0.53
		c0.52-0.5,1.17-1.79,1.17-1.79s-1.04,0.74-1.75,0.62c-1.09-0.19-1.12-1.03-1.12-1.11s0.1-1.07,1.04-1.01
		c1.78,0.1,2.72,0.88,3.78,1.9c1.3,1.26,2.02,3.07,2.59,3.74c0.41,0.47,0.46,0.94,0.58,1.08c0.94,1.15,1.66,1.66,3,2.2
		c1.34,0.54,2.34-0.08,2.34-0.08s-0.52,1.35-0.48,2.6c0.04,1.22,1.24,1.92,2.16,2c0.66,0.06,1.45-0.85,1.44-1.68
		s-1.48-1.64-1.48-1.64v1.24c0,0,0.27,0.18,0.22,0.44c-0.05,0.26-0.2,0.54-0.62,0.48c-0.26-0.04-0.93-0.24-0.84-1.08
		c0.1-0.96,0.34-1.85,1.16-2.72c1.13-1.2,1.15-2.1,1.2-3.74c0.02-0.6-0.13-2-0.56-2.82c-0.06-0.12-0.65-1.04-0.82-1.24
		c-0.71-0.88-2.63-2.06-2.7-2.02h-6.45c0,0,1.29,1.11,2.52,1.14c1.22,0.03,2.36-0.68,2.36-0.68s0.99,0.05,2,0.8s1.41,0.95,2.04,2.2
		c0.63,1.25,0.94,1.82,0.48,2.8c-0.94,1.99-3.56,1.2-3.56,1.2l0.64,1.72c0,0-1.85,0.2-3.32-2.18c-0.85-1.39-0.92-2.6-2.69-4.42
		c-1.91-1.98-2.83-2.66-5.17-2.66c-2.15,0-3.39,0.69-4.16,3.06c-0.95,2.94-3.99,2.13-4.04,2.12c-0.74-2.17-2.2-3.96-3.73-5.37
		c-0.15-0.14-0.39-0.13-0.53,0.02s-0.13,0.39,0.02,0.53c1.6,1.48,3.24,3.33,3.76,5.47c0.12,0.51,0.28,1.03,0.31,1.46
		c0.03,0.43-0.03,0.69-0.32,0.91c-0.34,0.25-0.5,0.23-0.73,0.16c-0.08-0.03-0.19-0.1-0.28-0.15c-0.04-0.05-0.17-0.13-0.2-0.17
		c-0.07-0.1-0.16-0.27-0.23-0.44c0.07-0.04,0.09-0.05,0.19-0.11c0.1-0.06,0.2-0.13,0.29-0.22c0.1-0.08,0.21-0.15,0.26-0.37
		c0.05-0.22,0.03-0.37-0.03-0.5c-0.05-0.13-0.13-0.25-0.22-0.37c-0.09-0.12-0.16-0.2-0.28-0.29c-0.12-0.1-0.31-0.23-0.53-0.22
		c-0.27,0.01-0.55,0.17-0.76,0.37c-0.22,0.2-0.4,0.51-0.41,0.88c-0.01,0.29,0,0.62,0.15,0.94c0.15,0.32,0.42,0.59,0.83,0.81
		c0.27,0.14,0.58,0.41,0.98,0.54c0.2,0.07,0.43,0.09,0.67,0.05c0.24-0.04,0.49-0.14,0.74-0.32c0.53-0.39,0.66-1.01,0.62-1.56
		c-0.01-0.14-0.03-0.28-0.05-0.47c0-0.05,1,0.56,2.22,0.56c1.28,0,2.47-1.29,2.53-1.33c1.56,1.69,3.26,2.99,6.09,3.14
		c3.43,0.18,6.8-3.1,6.74-3.15c1.62-1.25,2.75-2.72,5.76-3.27c0.67-0.12,1.37,0.51,1.42,1.19c0.05,0.66-0.82,1.48-0.82,1.48
		c-0.08,0.21,2.13,0.03,2.18-1.48c0.03-0.96-0.76-2.5-2.41-2.28c-2.41,0.32-4.46,1.25-6.09,2.86c0.01,0.04-3.6,3.44-5.8,3.49
		c-0.46,0.01-2.07-0.62-2.42-1.12c-0.27-0.39-0.18-0.91-1.05-1.22l-0.02,1.52c0.29-0.11,0.31,0.07,0.21,0.47
		C928.66,546.96,927.41,546.3,926.76,545.13z"/>
	<path id="path4210_00000033357610734654841130000009844800712318774151_" d="M926.76,534.83c1.12-0.75,2.44,0.02,2.97,0.53
		c0.52,0.5,1.17,1.79,1.17,1.79s-1.04-0.74-1.75-0.62c-1.09,0.19-1.12,1.03-1.12,1.11s0.1,1.07,1.04,1.01
		c1.78-0.1,2.72-0.88,3.78-1.9c1.3-1.26,2.02-3.07,2.59-3.74c0.41-0.47,0.46-0.94,0.58-1.08c0.94-1.15,1.66-1.66,3-2.2
		c1.34-0.54,2.34,0.08,2.34,0.08s-0.52-1.35-0.48-2.6c0.04-1.22,1.24-1.92,2.16-2c0.66-0.06,1.45,0.85,1.44,1.68
		c-0.01,0.83-1.48,1.64-1.48,1.64v-1.24c0,0,0.27-0.18,0.22-0.44c-0.05-0.26-0.2-0.54-0.62-0.48c-0.26,0.04-0.93,0.24-0.84,1.08
		c0.1,0.96,0.34,1.85,1.16,2.72c1.13,1.2,1.15,2.1,1.2,3.74c0.02,0.6-0.13,2-0.56,2.82c-0.06,0.12-0.65,1.04-0.82,1.24
		c-0.71,0.88-2.63,2.06-2.7,2.02h-6.45c0,0,1.29-1.11,2.52-1.14c1.22-0.03,2.36,0.68,2.36,0.68s0.99-0.05,2-0.8s1.41-0.95,2.04-2.2
		c0.63-1.25,0.94-1.82,0.48-2.8c-0.94-1.99-3.56-1.2-3.56-1.2l0.64-1.72c0,0-1.85-0.2-3.32,2.18c-0.85,1.39-0.92,2.6-2.69,4.42
		c-1.91,1.98-2.83,2.66-5.17,2.66c-2.15,0-3.39-0.69-4.16-3.06c-0.95-2.94-3.99-2.13-4.04-2.12c-0.74,2.17-2.2,3.96-3.73,5.37
		c-0.15,0.14-0.39,0.13-0.53-0.02s-0.13-0.39,0.02-0.53c1.6-1.48,3.24-3.33,3.76-5.47c0.12-0.51,0.28-1.03,0.31-1.46
		c0.03-0.43-0.03-0.69-0.32-0.91c-0.34-0.25-0.5-0.23-0.73-0.16c-0.08,0.03-0.19,0.1-0.28,0.15c-0.04,0.05-0.17,0.13-0.2,0.17
		c-0.07,0.1-0.16,0.27-0.23,0.44c0.07,0.04,0.09,0.05,0.19,0.11c0.1,0.06,0.2,0.13,0.29,0.22c0.1,0.08,0.21,0.15,0.26,0.37
		c0.05,0.22,0.03,0.37-0.03,0.5c-0.05,0.13-0.13,0.25-0.22,0.37c-0.09,0.12-0.16,0.2-0.28,0.29c-0.12,0.1-0.31,0.23-0.53,0.22
		c-0.27-0.01-0.55-0.17-0.76-0.37c-0.22-0.2-0.4-0.51-0.41-0.88c-0.01-0.29,0-0.62,0.15-0.94c0.15-0.32,0.42-0.59,0.83-0.81
		c0.27-0.14,0.58-0.41,0.98-0.54c0.2-0.07,0.43-0.09,0.67-0.05c0.24,0.04,0.49,0.14,0.74,0.32c0.53,0.39,0.66,1.01,0.62,1.56
		c-0.01,0.14-0.03,0.28-0.05,0.47c0,0.05,1-0.56,2.22-0.56c1.28,0,2.47,1.29,2.53,1.33c1.56-1.69,3.26-2.99,6.09-3.14
		c3.43-0.18,6.8,3.1,6.74,3.15c1.62,1.25,2.75,2.72,5.76,3.27c0.67,0.12,1.37-0.51,1.42-1.19c0.05-0.66-0.82-1.48-0.82-1.48
		c-0.08-0.21,2.13-0.03,2.18,1.48c0.03,0.96-0.76,2.5-2.41,2.28c-2.41-0.32-4.46-1.25-6.09-2.86c0.01-0.04-3.6-3.44-5.8-3.48
		c-0.46-0.01-2.07,0.62-2.42,1.12c-0.27,0.39-0.18,0.91-1.05,1.22l-0.02-1.52c0.29,0.11,0.31-0.07,0.21-0.47
		C928.66,533,927.41,533.65,926.76,534.83z"/>
	<path id="path4134_00000002380080468359272320000005894589899458283144_" d="M883,545.13c-1.12,0.75-2.44-0.02-2.97-0.53
		c-0.52-0.5-1.17-1.79-1.17-1.79s1.04,0.74,1.75,0.62c1.09-0.19,1.12-1.03,1.12-1.11s-0.1-1.07-1.04-1.01
		c-1.78,0.1-2.72,0.88-3.78,1.9c-1.3,1.26-2.02,3.07-2.59,3.74c-0.41,0.47-0.46,0.94-0.58,1.08c-0.94,1.15-1.66,1.66-3,2.2
		c-1.34,0.54-2.34-0.08-2.34-0.08s0.52,1.35,0.48,2.6c-0.04,1.22-1.24,1.92-2.16,2c-0.66,0.06-1.45-0.85-1.44-1.68
		s1.48-1.64,1.48-1.64v1.24c0,0-0.27,0.18-0.22,0.44c0.05,0.26,0.2,0.54,0.62,0.48c0.26-0.04,0.93-0.24,0.84-1.08
		c-0.1-0.96-0.34-1.85-1.16-2.72c-1.13-1.2-1.15-2.1-1.2-3.74c-0.02-0.6,0.13-2,0.56-2.82c0.06-0.12,0.65-1.04,0.82-1.24
		c0.71-0.88,2.63-2.06,2.7-2.02h6.45c0,0-1.29,1.11-2.52,1.14c-1.22,0.03-2.36-0.68-2.36-0.68s-0.99,0.05-2,0.8s-1.41,0.95-2.04,2.2
		c-0.63,1.25-0.94,1.82-0.48,2.8c0.94,1.99,3.56,1.2,3.56,1.2l-0.64,1.72c0,0,1.85,0.2,3.32-2.18c0.85-1.39,0.92-2.6,2.69-4.42
		c1.91-1.98,2.83-2.66,5.17-2.66c2.15,0,3.39,0.69,4.16,3.06c0.95,2.94,3.99,2.13,4.04,2.12c0.74-2.17,2.2-3.96,3.73-5.37
		c0.15-0.14,0.39-0.13,0.53,0.02c0.14,0.15,0.13,0.39-0.02,0.53c-1.6,1.48-3.24,3.33-3.76,5.47c-0.12,0.51-0.28,1.03-0.31,1.46
		c-0.03,0.43,0.03,0.69,0.32,0.91c0.34,0.25,0.5,0.23,0.73,0.16c0.08-0.03,0.19-0.1,0.28-0.15c0.04-0.05,0.17-0.13,0.2-0.17
		c0.07-0.1,0.16-0.27,0.23-0.44c-0.07-0.04-0.09-0.05-0.19-0.11c-0.1-0.06-0.2-0.13-0.29-0.22c-0.09-0.08-0.21-0.15-0.26-0.37
		c-0.05-0.22-0.03-0.37,0.03-0.5c0.05-0.13,0.13-0.25,0.22-0.37c0.09-0.12,0.16-0.2,0.28-0.29c0.12-0.1,0.31-0.23,0.53-0.22
		c0.27,0.01,0.55,0.17,0.76,0.37c0.22,0.2,0.4,0.51,0.41,0.88c0.01,0.29,0,0.62-0.15,0.94c-0.15,0.32-0.42,0.59-0.83,0.81
		c-0.27,0.14-0.58,0.41-0.98,0.54c-0.2,0.07-0.43,0.09-0.67,0.05c-0.24-0.04-0.49-0.14-0.74-0.32c-0.53-0.39-0.66-1.01-0.62-1.56
		c0.01-0.14,0.03-0.28,0.05-0.47c0-0.05-1,0.56-2.22,0.56c-1.28,0-2.47-1.29-2.53-1.33c-1.56,1.69-3.26,2.99-6.09,3.14
		c-3.43,0.18-6.8-3.1-6.74-3.15c-1.62-1.25-2.75-2.72-5.76-3.27c-0.67-0.12-1.37,0.51-1.42,1.19c-0.05,0.66,0.82,1.48,0.82,1.48
		c0.08,0.21-2.13,0.03-2.18-1.48c-0.03-0.96,0.76-2.5,2.41-2.28c2.41,0.32,4.46,1.25,6.09,2.86c-0.01,0.04,3.6,3.44,5.8,3.49
		c0.46,0.01,2.07-0.62,2.42-1.12c0.27-0.39,0.18-0.91,1.05-1.22l0.02,1.52c-0.29-0.11-0.31,0.07-0.21,0.47
		C881.09,546.96,882.34,546.3,883,545.13z"/>
	<path id="path4174_00000116953261294391749490000000700239960174196883_" d="M883,534.83c-1.12-0.75-2.44,0.02-2.97,0.53
		c-0.52,0.5-1.17,1.79-1.17,1.79s1.04-0.74,1.75-0.62c1.09,0.19,1.12,1.03,1.12,1.11s-0.1,1.07-1.04,1.01
		c-1.78-0.1-2.72-0.88-3.78-1.9c-1.3-1.26-2.02-3.07-2.59-3.74c-0.41-0.47-0.46-0.94-0.58-1.08c-0.94-1.15-1.66-1.66-3-2.2
		c-1.34-0.54-2.34,0.08-2.34,0.08s0.52-1.35,0.48-2.6c-0.04-1.22-1.24-1.92-2.16-2c-0.66-0.06-1.45,0.85-1.44,1.68
		c0.01,0.83,1.48,1.64,1.48,1.64v-1.24c0,0-0.27-0.18-0.22-0.44c0.05-0.26,0.2-0.54,0.62-0.48c0.26,0.04,0.93,0.24,0.84,1.08
		c-0.1,0.96-0.34,1.85-1.16,2.72c-1.13,1.2-1.15,2.1-1.2,3.74c-0.02,0.6,0.13,2,0.56,2.82c0.06,0.12,0.65,1.04,0.82,1.24
		c0.71,0.88,2.63,2.06,2.7,2.02h6.45c0,0-1.29-1.11-2.52-1.14c-1.22-0.03-2.36,0.68-2.36,0.68s-0.99-0.05-2-0.8s-1.41-0.95-2.04-2.2
		c-0.63-1.25-0.94-1.82-0.48-2.8c0.94-1.99,3.56-1.2,3.56-1.2l-0.64-1.72c0,0,1.85-0.2,3.32,2.18c0.85,1.39,0.92,2.6,2.69,4.42
		c1.91,1.98,2.83,2.66,5.17,2.66c2.15,0,3.39-0.69,4.16-3.06c0.95-2.94,3.99-2.13,4.04-2.12c0.74,2.17,2.2,3.96,3.73,5.37
		c0.15,0.14,0.39,0.13,0.53-0.02c0.14-0.15,0.13-0.39-0.02-0.53c-1.6-1.48-3.24-3.33-3.76-5.47c-0.12-0.51-0.28-1.03-0.31-1.46
		c-0.03-0.43,0.03-0.69,0.32-0.91c0.34-0.25,0.5-0.23,0.73-0.16c0.08,0.03,0.19,0.1,0.28,0.15c0.04,0.05,0.17,0.13,0.2,0.17
		c0.07,0.1,0.16,0.27,0.23,0.44c-0.07,0.04-0.09,0.05-0.19,0.11c-0.1,0.06-0.2,0.13-0.29,0.22c-0.09,0.08-0.21,0.15-0.26,0.37
		c-0.05,0.22-0.03,0.37,0.03,0.5c0.05,0.13,0.13,0.25,0.22,0.37c0.09,0.12,0.16,0.2,0.28,0.29c0.12,0.1,0.31,0.23,0.53,0.22
		c0.27-0.01,0.55-0.17,0.76-0.37c0.22-0.2,0.4-0.51,0.41-0.88c0.01-0.29,0-0.62-0.15-0.94c-0.15-0.32-0.42-0.59-0.83-0.81
		c-0.27-0.14-0.58-0.41-0.98-0.54c-0.2-0.07-0.43-0.09-0.67-0.05c-0.24,0.04-0.49,0.14-0.74,0.32c-0.53,0.39-0.66,1.01-0.62,1.56
		c0.01,0.14,0.03,0.28,0.05,0.47c0,0.05-1-0.56-2.22-0.56c-1.28,0-2.47,1.29-2.53,1.33c-1.56-1.69-3.26-2.99-6.09-3.14
		c-3.43-0.18-6.8,3.1-6.74,3.15c-1.62,1.25-2.75,2.72-5.76,3.27c-0.67,0.12-1.37-0.51-1.42-1.19c-0.05-0.66,0.82-1.48,0.82-1.48
		c0.08-0.21-2.13-0.03-2.18,1.48c-0.03,0.96,0.76,2.5,2.41,2.28c2.41-0.32,4.46-1.25,6.09-2.86c-0.01-0.04,3.6-3.44,5.8-3.48
		c0.46-0.01,2.07,0.62,2.42,1.12c0.27,0.39,0.18,0.91,1.05,1.22l0.02-1.52c-0.29,0.11-0.31-0.07-0.21-0.47
		C881.09,533,882.34,533.65,883,534.83z"/>
	<path id="path4256_00000071531628878815440310000007479414230988735136_" d="M910.03,518.1c0.75-1.12-0.02-2.44-0.53-2.97
		c-0.5-0.52-1.79-1.17-1.79-1.17s0.74,1.04,0.62,1.75c-0.19,1.09-1.03,1.12-1.11,1.12s-1.07-0.1-1.01-1.04
		c0.1-1.78,0.88-2.72,1.9-3.78c1.26-1.3,3.07-2.02,3.74-2.59c0.47-0.41,0.94-0.46,1.08-0.58c1.15-0.94,1.66-1.66,2.2-3
		c0.54-1.34-0.08-2.34-0.08-2.34s1.35,0.52,2.6,0.48c1.22-0.04,1.92-1.24,2-2.16c0.06-0.66-0.85-1.45-1.68-1.44
		c-0.83,0.01-1.64,1.48-1.64,1.48h1.24c0,0,0.18-0.27,0.44-0.22c0.26,0.05,0.54,0.2,0.48,0.62c-0.04,0.26-0.24,0.93-1.08,0.84
		c-0.96-0.1-1.85-0.34-2.72-1.16c-1.2-1.13-2.1-1.15-3.74-1.2c-0.6-0.02-2,0.13-2.82,0.56c-0.12,0.06-1.04,0.65-1.24,0.82
		c-0.88,0.71-2.06,2.63-2.02,2.7v6.45c0,0,1.11-1.29,1.14-2.52c0.03-1.22-0.68-2.36-0.68-2.36s0.05-0.99,0.8-2s0.95-1.41,2.2-2.04
		c1.25-0.63,1.82-0.94,2.8-0.48c1.99,0.94,1.2,3.56,1.2,3.56l1.72-0.64c0,0,0.2,1.85-2.18,3.32c-1.39,0.85-2.6,0.92-4.42,2.69
		c-1.98,1.91-2.66,2.83-2.66,5.17c0,2.15,0.69,3.39,3.06,4.16c2.94,0.95,2.13,3.99,2.12,4.04c-2.17,0.74-3.96,2.2-5.37,3.73
		c-0.14,0.15-0.13,0.39,0.02,0.53s0.39,0.13,0.53-0.02c1.48-1.6,3.33-3.24,5.47-3.76c0.51-0.12,1.03-0.28,1.46-0.31
		c0.43-0.03,0.7,0.03,0.91,0.32c0.25,0.34,0.23,0.5,0.16,0.73c-0.03,0.08-0.1,0.19-0.15,0.28c-0.05,0.04-0.13,0.17-0.17,0.2
		c-0.1,0.07-0.27,0.16-0.44,0.23c-0.04-0.07-0.05-0.09-0.11-0.19c-0.06-0.1-0.13-0.2-0.22-0.29c-0.08-0.1-0.15-0.21-0.37-0.26
		c-0.22-0.05-0.37-0.03-0.5,0.03c-0.13,0.05-0.25,0.13-0.37,0.22c-0.12,0.09-0.2,0.16-0.29,0.28c-0.1,0.12-0.23,0.31-0.22,0.53
		c0.01,0.27,0.17,0.55,0.37,0.76c0.2,0.22,0.51,0.4,0.88,0.41c0.29,0.01,0.62,0,0.94-0.15c0.32-0.15,0.59-0.42,0.81-0.83
		c0.14-0.27,0.41-0.58,0.54-0.98c0.07-0.2,0.09-0.43,0.05-0.67c-0.04-0.24-0.14-0.49-0.32-0.74c-0.39-0.53-1.01-0.66-1.56-0.62
		c-0.14,0.01-0.28,0.03-0.47,0.05c-0.05,0,0.56-1,0.56-2.22c0-1.28-1.29-2.47-1.33-2.53c1.69-1.56,2.99-3.26,3.14-6.09
		c0.18-3.43-3.1-6.8-3.15-6.74c-1.25-1.62-2.72-2.75-3.27-5.76c-0.12-0.67,0.51-1.37,1.19-1.42c0.66-0.05,1.48,0.82,1.48,0.82
		c0.21,0.08,0.03-2.13-1.48-2.18c-0.96-0.03-2.5,0.76-2.28,2.41c0.32,2.41,1.25,4.46,2.86,6.09c0.04-0.01,3.44,3.6,3.48,5.8
		c0.01,0.46-0.62,2.07-1.12,2.42c-0.39,0.27-0.91,0.18-1.22,1.05l1.52,0.02c-0.11-0.29,0.07-0.31,0.47-0.21
		C911.86,516.19,911.2,517.44,910.03,518.1z"/>
	<path id="path4258_00000179629767401202040270000004766469852344728450_" d="M899.73,518.1c-0.75-1.12,0.02-2.44,0.53-2.97
		c0.5-0.52,1.79-1.17,1.79-1.17s-0.74,1.04-0.62,1.75c0.19,1.09,1.03,1.12,1.11,1.12s1.07-0.1,1.01-1.04
		c-0.1-1.78-0.88-2.72-1.9-3.78c-1.26-1.3-3.07-2.02-3.74-2.59c-0.47-0.41-0.94-0.46-1.08-0.58c-1.15-0.94-1.66-1.66-2.2-3
		c-0.54-1.34,0.08-2.34,0.08-2.34s-1.35,0.52-2.6,0.48c-1.22-0.04-1.92-1.24-2-2.16c-0.06-0.66,0.85-1.45,1.68-1.44
		s1.64,1.48,1.64,1.48h-1.24c0,0-0.18-0.27-0.44-0.22c-0.26,0.05-0.54,0.2-0.48,0.62c0.04,0.26,0.24,0.93,1.08,0.84
		c0.96-0.1,1.85-0.34,2.72-1.16c1.2-1.13,2.1-1.15,3.74-1.2c0.6-0.02,2,0.13,2.82,0.56c0.12,0.06,1.04,0.65,1.24,0.82
		c0.88,0.71,2.06,2.63,2.02,2.7v6.45c0,0-1.11-1.29-1.14-2.52c-0.03-1.22,0.68-2.36,0.68-2.36s-0.05-0.99-0.8-2s-0.95-1.41-2.2-2.04
		c-1.25-0.63-1.82-0.94-2.8-0.48c-1.99,0.94-1.2,3.56-1.2,3.56l-1.72-0.64c0,0-0.2,1.85,2.18,3.32c1.39,0.85,2.6,0.92,4.42,2.69
		c1.98,1.91,2.66,2.83,2.66,5.17c0,2.15-0.69,3.39-3.06,4.16c-2.94,0.95-2.13,3.99-2.12,4.04c2.17,0.74,3.96,2.2,5.37,3.73
		c0.14,0.15,0.13,0.39-0.02,0.53s-0.39,0.13-0.53-0.02c-1.48-1.6-3.33-3.24-5.47-3.76c-0.51-0.12-1.03-0.28-1.46-0.31
		c-0.43-0.03-0.69,0.03-0.91,0.32c-0.25,0.34-0.23,0.5-0.16,0.73c0.03,0.08,0.1,0.19,0.15,0.28c0.05,0.04,0.13,0.17,0.17,0.2
		c0.1,0.07,0.27,0.16,0.44,0.23c0.04-0.07,0.05-0.09,0.11-0.19s0.13-0.2,0.22-0.29c0.08-0.1,0.15-0.21,0.37-0.26
		c0.22-0.05,0.37-0.03,0.5,0.03c0.13,0.05,0.25,0.13,0.37,0.22c0.12,0.09,0.2,0.16,0.29,0.28c0.1,0.12,0.23,0.31,0.22,0.53
		c-0.01,0.27-0.17,0.55-0.37,0.76c-0.2,0.22-0.51,0.4-0.88,0.41c-0.29,0.01-0.62,0-0.94-0.15c-0.32-0.15-0.59-0.42-0.81-0.83
		c-0.14-0.27-0.41-0.58-0.54-0.98c-0.07-0.2-0.09-0.43-0.05-0.67c0.04-0.24,0.14-0.49,0.32-0.74c0.39-0.53,1.01-0.66,1.56-0.62
		c0.14,0.01,0.28,0.03,0.47,0.05c0.05,0-0.56-1-0.56-2.22c0-1.28,1.29-2.47,1.33-2.53c-1.69-1.56-2.99-3.26-3.14-6.09
		c-0.18-3.43,3.1-6.8,3.15-6.74c1.25-1.62,2.72-2.75,3.27-5.76c0.12-0.67-0.51-1.37-1.19-1.42c-0.66-0.05-1.48,0.82-1.48,0.82
		c-0.21,0.08-0.03-2.13,1.48-2.18c0.96-0.03,2.5,0.76,2.28,2.41c-0.32,2.41-1.25,4.46-2.86,6.09c-0.04-0.01-3.44,3.6-3.48,5.8
		c-0.01,0.46,0.62,2.07,1.12,2.42c0.39,0.27,0.91,0.18,1.22,1.05l-1.52,0.02c0.11-0.29-0.07-0.31-0.47-0.21
		C897.9,516.19,898.55,517.44,899.73,518.1z"/>
	<path id="path4150_00000093859343360760746560000005731483650359415484_" d="M898.55,545.3c0.69-1.02,1.92-2.14,2.76-2.5
		c0.84-0.37,0.98,0.15,0.31,1.16c-0.67,1.01-1.9,2.14-2.75,2.53c-0.85,0.39-1.02-0.11-0.37-1.11"/>
	<path id="path4123_00000172411913922316825590000018331448757155710366_" d="M895.77,539.99c0.31,0.56,2.54,0.21,3.8,0.33
		c-1.53,1.09-2.46,1.82-2.46,2.41c0.27,0.31,0.43-0.19,1.08-0.65c1.04-0.74,2.76-1.82,4.45-2.09c-1.69-0.27-3.41-1.35-4.45-2.09
		c-0.65-0.46-0.81-0.95-1.08-0.65c0,0.59,0.93,1.32,2.46,2.41C898.31,539.79,896.08,539.44,895.77,539.99z"/>
	<path id="path4130_00000067949668394038341400000001304722218847195062_" d="M913.72,539.99c-0.31,0.56-2.54,0.21-3.8,0.33
		c1.53,1.09,2.46,1.82,2.46,2.41c-0.27,0.31-0.43-0.19-1.08-0.65c-1.04-0.74-2.76-1.82-4.45-2.09c1.69-0.27,3.41-1.35,4.45-2.09
		c0.65-0.46,0.81-0.95,1.08-0.65c0,0.59-0.93,1.32-2.46,2.41C911.18,539.79,913.41,539.44,913.72,539.99z"/>
	<path id="path4138_00000090264983411432869650000011912347529353951888_" d="M904.74,531.02c-0.56,0.31-0.21,2.54-0.33,3.8
		c-1.09-1.53-1.82-2.46-2.41-2.46c-0.31,0.27,0.19,0.43,0.65,1.08c0.74,1.04,1.82,2.76,2.09,4.45c0.27-1.69,1.35-3.41,2.09-4.45
		c0.46-0.65,0.95-0.81,0.65-1.08c-0.59,0-1.32,0.93-2.41,2.46C904.95,533.56,905.3,531.33,904.74,531.02z"/>
	<path id="path4140_00000128453878058050467800000001433048988333180814_" d="M904.74,548.97c-0.56-0.31-0.21-2.54-0.33-3.8
		c-1.09,1.53-1.82,2.46-2.41,2.46c-0.31-0.27,0.19-0.43,0.65-1.08c0.74-1.04,1.82-2.76,2.09-4.45c0.27,1.69,1.35,3.41,2.09,4.45
		c0.46,0.65,0.95,0.81,0.65,1.08c-0.59,0-1.32-0.93-2.41-2.46C904.95,546.43,905.3,548.66,904.74,548.97z"/>
	<path id="path4144_00000107578554958396170680000006658898392164537235_" d="M900.73,536.73c-1.02-0.69-2.14-1.92-2.5-2.76
		s0.15-0.98,1.16-0.31c1.01,0.67,2.14,1.9,2.53,2.75s-0.11,1.02-1.11,0.37"/>
	<path id="path4146_00000079478249067427656680000017034776062763004056_" d="M910.14,546.2c-1.02-0.69-2.14-1.92-2.5-2.76
		s0.15-0.98,1.16-0.31c1.01,0.67,2.14,1.9,2.53,2.75c0.39,0.85-0.11,1.02-1.11,0.37"/>
	<path id="path4148_00000078026233148009115150000013325224341323548841_" d="M907.94,535.93c0.69-1.02,1.92-2.14,2.76-2.5
		s0.98,0.15,0.31,1.16c-0.67,1.01-1.9,2.14-2.75,2.53c-0.85,0.39-1.02-0.11-0.37-1.11"/>
	<g id="Lettere_00000152944485733796949210000001047148519897654155_">
		<path id="path24889_00000000216962630435175030000012304386521430684592_" class="st9" d="M868.93,505.84h-2.15v0.63h0.55v7.37
			h-0.8v0.62h3.22v-0.64h-0.81L868.93,505.84z"/>
		<path id="path3186_00000109740226425665474620000014741053637516858255_" class="st9" d="M871.02,509.8
			c0-0.81,1.66-0.54,1.66,0.53h-0.51v1.39h2.05v-1.93c0-0.74,1.72-0.52,1.72,0.55h-0.51v4.12h-1.2v-2.07h-1.54h-0.51v1.6
			c0,0.48-1.77,0.63-1.77-0.57h0.61V509.8z"/>
		<path id="path24887_00000039839830017095525710000014474988761842354342_" class="st9" d="M878.28,513.27
			c0.25,0.45,0.44,0.73,0.89,0.73c0.45,0,0.66-0.28,0.91-0.73c0.39-0.05,0.79-0.11,1.05,0.25c-0.45,0.58-1.14,0.94-1.97,0.94
			c-1.45,0-2.51-1.12-2.51-2.53c0-0.02,0-0.05,0-0.07c0-1.41,1.05-2.53,2.51-2.53c0.82,0,1.52,0.37,1.97,0.94
			c-0.26,0.36-0.66,0.3-1.05,0.25c-0.25-0.45-0.47-0.73-0.91-0.73c-0.45,0-0.64,0.28-0.89,0.73V513.27z"/>
		<rect id="rect5544_00000167376763198208709000000006944295393490285477_" x="870.35" y="505.96" width="10.32" height="0.58"/>
		<path id="path6238_00000067214318363199439700000005968582463819427519_" class="st9" d="M926.46,507.68h1.15v7.22h-0.6v0.62h3.44
			v-0.62h-0.86v-7.22h0.86v-0.73h-4h-4v0.73h0.86v7.22h-0.86v0.62h3.44v-0.62h-0.6v-7.22H926.46z"/>
		<path id="path5556_00000043418617580532858650000006357944941235769746_" class="st9" d="M941,514.43
			c0.25,0.44,0.44,0.71,0.89,0.71c0.45,0,0.66-0.28,0.91-0.71c0.39-0.05,0.79-0.11,1.05,0.24c-0.45,0.56-1.14,0.92-1.97,0.92
			c-1.45,0-2.51-1.09-2.51-2.47c0-0.02,0-0.05,0-0.07c0-1.38,1.05-2.47,2.51-2.47c0.82,0,1.52,0.36,1.97,0.92
			c-0.26,0.35-0.66,0.29-1.05,0.24c-0.25-0.44-0.47-0.71-0.91-0.71c-0.45,0-0.64,0.27-0.89,0.71V514.43z"/>
		<path id="path6126_00000058591130074011602210000015174585945595442602_" class="st9" d="M935.07,514.19
			c0.55,0.36,0.84,2.21,2.07,2.18c0.64-0.12,1.22-0.58,1.33-1.21c0.09-0.49-0.3-0.85-0.72-1.05c-0.53-0.24-0.97,0.23-0.91,0.75
			c0.15,0.36-0.29-0.05-0.72-0.46c-0.47-0.46-0.5-0.71-0.48-1.13c0.01-0.22,1.33-1.92,1.56-2.04c0.46-0.24,0.4,0.7,0.57,0.42
			c0.23-0.38,0.77-0.39,0.47-0.83c-0.19-0.29-0.5-0.35-0.85-0.41c-0.68-0.11-1.42,0.02-1.79,0.7c-0.44,0.8-0.47,1.29-0.71,1.3
			c-0.55-0.36-0.84-2.21-2.07-2.18c-0.64,0.12-1.22,0.58-1.33,1.21c-0.09,0.49,0.3,0.85,0.72,1.05c0.53,0.24,0.97-0.23,0.91-0.75
			c-0.15-0.36,0.29,0.05,0.72,0.46c0.47,0.46,0.5,0.71,0.48,1.13c-0.01,0.22-1.14,1.7-1.38,1.82c-0.46,0.24-0.4-0.7-0.57-0.42
			c-0.23,0.38-0.95,0.62-0.66,1.05c0.19,0.29,0.5,0.35,0.85,0.41c0.68,0.11,1.42-0.02,1.79-0.7
			C934.8,514.69,934.83,514.2,935.07,514.19"/>
		<rect id="rect5561_00000183956833300173089540000013486358963637176472_" x="931.92" y="507.31" width="11.13" height="0.55"/>
		<path id="path8133_00000178906451078859553710000009520294607455824057_" class="st9" d="M933.45,566.43h1.87v3.84h0.76v0.68
			h-0.76v3.49h-1v-3.49h-0.65v-0.68h0.65v-3.3h-0.87V566.43z"/>
		<path id="path9106_00000005227266063164005570000011163271325336071592_" class="st9" d="M935.32,567.92
			c0.52-0.1,1.08-0.23,1.84,0c4.64,2.89-5.8,9.68-5.92,0.92c0.64-1.19,1.92-0.89,2.11,0.32c-0.04,0.35-0.47,0.6-0.71,0.45
			c-0.19-0.13-0.29-0.44-0.39-0.6c-0.09-0.15-0.43-0.38-0.43,0.35c-0.01,2.92,3.25,4.27,5.02,1.29c0.78-1.31-0.58-2.41-1.59-1.99
			C934.8,568.86,934.83,568.01,935.32,567.92z"/>
		<path id="path18940_00000080168886576681426010000007324673166517183617_" class="st9" d="M925.89,572.05
			c-0.25-0.77,0.4-1.53,0.52-2.3c0.16-1.05-0.57-1.61-1.01-1.61c-0.44,0-1.17,0.56-1.01,1.61c0.12,0.78,0.53,1.53,0.33,2.3H925.89z"
			/>
		<path id="path18952_00000109732697874178910910000007002447518378508688_" class="st9" d="M929.41,572.05
			c-0.25-0.77,0.4-1.53,0.52-2.3c0.16-1.05-0.57-1.61-1.01-1.61c-0.44,0-1.17,0.56-1.01,1.61c0.12,0.78,0.53,1.53,0.33,2.3H929.41z"
			/>
		<path id="path18956_00000145739731997705670080000005787813463348711604_" class="st9" d="M928.86,570.99l-0.25,0.31
			c-0.52,0.65-1.03,0.92-1.51,0.92c-0.48,0-1.01-0.28-1.58-0.93l-0.25-0.29l-0.21,0.31c-0.34,0.51-0.76,0.77-1.24,1.02
			c-0.11,0.04-0.18,0.13-0.19,0.24s0.05,0.21,0.15,0.26c0.1,0.05,0.22,0.04,0.31-0.02c0.42-0.22,0.87-0.52,1.24-0.96
			c0.56,0.56,1.15,0.91,1.77,0.92c0.61,0,1.19-0.35,1.71-0.91c0.31,0.39,0.69,0.72,1.15,0.99c0.13,0.08,0.31,0.04,0.4-0.09
			c0.09-0.13,0.04-0.3-0.09-0.38c-0.51-0.3-0.92-0.65-1.19-1.07L928.86,570.99z"/>
		<path id="path848_00000100371695461643239560000001766135665807067048_" d="M942.16,565.11c0.4,0,0.81-0.01,1.22-0.01
			c0,0.49,0,0.99,0,1.48c-0.01,0.38-0.01,0.77-0.02,1.15c0.48-0.01,0.97-0.03,1.46-0.04l0.7,0.01c0.17,0,0.16,0.39,0.13,0.68
			c-0.75-0.03-1.51,0-2.26,0.01c-0.03,1.74,0.01,3.48-0.06,5.21c-0.03,0.63-0.83,0.91-1.19,0.88c-0.32-0.02-0.67-0.59-0.83-0.92
			c-0.05-0.11,0.13-0.49,0.23-0.5c0.13-0.02,0.5,0.26,0.66,0.35c0.05-1.65,0.03-3.3-0.03-4.94l-1.25-0.03l0.32,1.44l-2.11-2.07
			c1.01-0.1,2.03-0.08,3.05-0.08C942.17,566.85,942.17,565.98,942.16,565.11z"/>
		<path id="path5587_00000087377783459209975010000016242106259775905973_" d="M925.33,565.78c-1.33,0.21-2.74-0.19-2.52-0.93
			C923,564.24,924.13,564.19,925.33,565.78z"/>
		<path id="path5590_00000179629481033220053690000017971077841283481222_" d="M932.99,565.82c-1.33,0.21-2.74-0.19-2.52-0.93
			C930.66,564.28,931.79,564.22,932.99,565.82z"/>
		<path id="path5633_00000047761293625425160360000007870310982670495641_" class="st9" d="M866.16,567.4h0.74v5.94h-0.38v0.51h2.19
			v-0.51h-0.55v-5.94h0.55v-0.6h-2.55h-2.55v0.6h0.55v5.94h-0.55v0.51h2.19v-0.51h-0.38v-5.94H866.16z"/>
		<path id="path24954_00000020390662888969403240000017472904548196464514_" class="st9" d="M872.17,573.24
			c1.09,1.7,4.06-0.44,2.21-3.89c-0.23-0.43-0.99-0.05-0.57,0.61c1.09,1.68-0.1,4.32-1.19,2.96c-0.08-0.1-0.2-0.35-0.13-0.52
			c0.47-1.18,0.7-2.32-0.32-3.29c-1.03,0.97-0.8,2.11-0.32,3.29c0.07,0.17-0.05,0.43-0.13,0.52c-1.09,1.36-2.28-1.28-1.19-2.96
			c0.43-0.66-0.34-1.04-0.57-0.61C868.11,572.8,871.08,574.94,872.17,573.24z"/>
		<path id="path24961_00000040560529773429237210000008827443062486773657_" class="st9" d="M874.77,571.46
			c0.84,2.88-0.98,5.77-3.36,4.01c-0.39-0.42-1.06-0.27-1.14,0.3c0.39-0.08,0.66,0.03,0.77,0.32c0.09,1.5-1.79,1.2-1.36-0.42
			c0.32-1.23,1.46-1.88,2.67-1.33c0.72,0.32,1.2,0.63,1.8-0.05c0.28-0.31,0.49-0.83,0.2-1.8L874.77,571.46z"/>
		<path id="path5606_00000029746759504738310060000008838525734968412326_" d="M866.93,565.8c-1.33,0.21-2.74-0.19-2.52-0.93
			C864.61,564.26,865.74,564.21,866.93,565.8z"/>
		<path id="path5642_00000147210854257074553330000013380095772716287146_" class="st9" d="M875.81,569.5c0-0.76,1.22-0.51,1.22,0.5
			h-0.37v1.31h1.5v-1.82c0-0.7,1.25-0.49,1.25,0.52h-0.37v3.87h-0.88v-1.94h-1.12h-0.37v1.51c0,0.45-1.29,0.59-1.29-0.53h0.45V569.5
			z"/>
		<path id="path24940_00000133527358589015555970000013358262063267306430_" class="st9" d="M881.8,568.7
			c-0.27,0.01-0.62,0.08-0.95,0.59c-0.31-0.24-0.62-0.5-1-0.28l0.47,0.9l0.01,5.36h-0.55c0,0.75,1.28,1.54,1.28,0.32v-2.92
			c0.86,0.91,1.39,0.32,1.86-0.6c0.28-1,0.26-2-0.34-3C882.33,568.87,882.08,568.7,881.8,568.7z M881.61,569.49
			c0.39,0,0.54,0.47,0.54,1.41s-0.16,1.5-0.54,1.5c-0.39,0-0.54-0.56-0.54-1.5S881.22,569.49,881.61,569.49z"/>
		<path id="path24891_00000052785532606443063750000007043365977705669821_" class="st9" d="M884.01,569.31
			c0-0.81,1.14-0.54,1.14,0.53h-0.35v3.67c0,0.48-1.21,0.63-1.21-0.57h0.42V569.31z"/>
		<path id="path7696_00000033333690873870986100000018328210304245575819_" class="st9" d="M866.16,567.4h0.74v5.94h-0.38v0.51h2.19
			v-0.51h-0.55v-5.94h0.55v-0.6h-2.55h-2.55v0.6h0.55v5.94h-0.55v0.51h2.19v-0.51h-0.38v-5.94H866.16z"/>
		<path id="path7700_00000068640923897937020250000006153033947712284051_" class="st9" d="M872.17,573.24
			c1.09,1.7,4.06-0.44,2.21-3.89c-0.23-0.43-0.99-0.05-0.57,0.61c1.09,1.68-0.1,4.32-1.19,2.96c-0.08-0.1-0.2-0.35-0.13-0.52
			c0.47-1.18,0.7-2.32-0.32-3.29c-1.03,0.97-0.8,2.11-0.32,3.29c0.07,0.17-0.05,0.43-0.13,0.52c-1.09,1.36-2.28-1.28-1.19-2.96
			c0.43-0.66-0.34-1.04-0.57-0.61C868.11,572.8,871.08,574.94,872.17,573.24z"/>
		<path id="path7702_00000055703544474034887410000010663122374790300330_" class="st9" d="M874.77,571.46
			c0.84,2.88-0.98,5.77-3.36,4.01c-0.39-0.42-1.06-0.27-1.14,0.3c0.39-0.08,0.66,0.03,0.77,0.32c0.09,1.5-1.79,1.2-1.36-0.42
			c0.32-1.23,1.46-1.88,2.67-1.33c0.72,0.32,1.2,0.63,1.8-0.05c0.28-0.31,0.49-0.83,0.2-1.8L874.77,571.46z"/>
		<path id="path7704_00000127042647699975288620000007615395790293079471_" d="M866.93,565.8c-1.33,0.21-2.74-0.19-2.52-0.93
			C864.61,564.26,865.74,564.21,866.93,565.8z"/>
		<path id="path7706_00000091703671660641716770000003769868460495739015_" class="st9" d="M875.81,569.5c0-0.76,1.22-0.51,1.22,0.5
			h-0.37v1.31h1.5v-1.82c0-0.7,1.25-0.49,1.25,0.52h-0.37v3.87h-0.88v-1.94h-1.12h-0.37v1.51c0,0.45-1.29,0.59-1.29-0.53h0.45V569.5
			z"/>
		<path id="path7708_00000070079244997160416150000012659266940619664542_" class="st9" d="M881.8,568.7
			c-0.27,0.01-0.62,0.08-0.95,0.59c-0.31-0.24-0.62-0.5-1-0.28l0.47,0.9l0.01,5.36h-0.55c0,0.75,1.28,1.54,1.28,0.32v-2.92
			c0.86,0.91,1.39,0.32,1.86-0.6c0.28-1,0.26-2-0.34-3C882.33,568.87,882.08,568.7,881.8,568.7z M881.61,569.49
			c0.39,0,0.54,0.47,0.54,1.41s-0.16,1.5-0.54,1.5c-0.39,0-0.54-0.56-0.54-1.5S881.22,569.49,881.61,569.49z"/>
		<path id="path7710_00000021808831965376067790000004300921938364871065_" class="st9" d="M884.01,569.31
			c0-0.81,1.14-0.54,1.14,0.53h-0.35v3.67c0,0.48-1.21,0.63-1.21-0.57h0.42V569.31z"/>
		<path id="path7716_00000121272577389815843590000017910914339709875351_" class="st9" d="M933.45,566.43h1.87v3.84h0.76v0.68
			h-0.76v3.49h-1v-3.49h-0.65v-0.68h0.65v-3.3h-0.87V566.43z"/>
		<path id="path7718_00000086693443354562142270000001217002824506215870_" class="st9" d="M935.32,567.92
			c0.52-0.1,1.08-0.23,1.84,0c4.64,2.89-5.8,9.68-5.92,0.92c0.64-1.19,1.92-0.89,2.11,0.32c-0.04,0.35-0.47,0.6-0.71,0.45
			c-0.19-0.13-0.29-0.44-0.39-0.6c-0.09-0.15-0.43-0.38-0.43,0.35c-0.01,2.92,3.25,4.27,5.02,1.29c0.78-1.31-0.58-2.41-1.59-1.99
			C934.8,568.86,934.83,568.01,935.32,567.92z"/>
		<path id="path7722_00000001622684065237507240000015382633930602868147_" class="st9" d="M925.89,572.05
			c-0.25-0.77,0.4-1.53,0.52-2.3c0.16-1.05-0.57-1.61-1.01-1.61c-0.44,0-1.17,0.56-1.01,1.61c0.12,0.78,0.53,1.53,0.33,2.3H925.89z"
			/>
		<path id="path7724_00000018929159367200071920000017770102104260629376_" class="st9" d="M929.41,572.05
			c-0.25-0.77,0.4-1.53,0.52-2.3c0.16-1.05-0.57-1.61-1.01-1.61c-0.44,0-1.17,0.56-1.01,1.61c0.12,0.78,0.53,1.53,0.33,2.3H929.41z"
			/>
		<path id="path7726_00000040575320734330380370000006765795428654263473_" class="st9" d="M928.86,570.99l-0.25,0.31
			c-0.52,0.65-1.03,0.92-1.51,0.92c-0.48,0-1.01-0.28-1.58-0.93l-0.25-0.29l-0.21,0.31c-0.34,0.51-0.76,0.77-1.24,1.02
			c-0.11,0.04-0.18,0.13-0.19,0.24s0.05,0.21,0.15,0.26c0.1,0.05,0.22,0.04,0.31-0.02c0.42-0.22,0.87-0.52,1.24-0.96
			c0.56,0.56,1.15,0.91,1.77,0.92c0.61,0,1.19-0.35,1.71-0.91c0.31,0.39,0.69,0.72,1.15,0.99c0.13,0.08,0.31,0.04,0.4-0.09
			c0.09-0.13,0.04-0.3-0.09-0.38c-0.51-0.3-0.92-0.65-1.19-1.07L928.86,570.99z"/>
		<path id="path7728_00000098918765749822141530000001964770121426233492_" d="M942.16,565.11c0.4,0,0.81-0.01,1.22-0.01
			c0,0.49,0,0.99,0,1.48c-0.01,0.38-0.01,0.77-0.02,1.15c0.48-0.01,0.97-0.03,1.46-0.04l0.7,0.01c0.17,0,0.16,0.39,0.13,0.68
			c-0.75-0.03-1.51,0-2.26,0.01c-0.03,1.74,0.01,3.48-0.06,5.21c-0.03,0.63-0.83,0.91-1.19,0.88c-0.32-0.02-0.67-0.59-0.83-0.92
			c-0.05-0.11,0.13-0.49,0.23-0.5c0.13-0.02,0.5,0.26,0.66,0.35c0.05-1.65,0.03-3.3-0.03-4.94l-1.25-0.03l0.32,1.44l-2.11-2.07
			c1.01-0.1,2.03-0.08,3.05-0.08C942.17,566.85,942.17,565.98,942.16,565.11z"/>
		<path id="path7730_00000095309205596526833770000009501804528471268230_" d="M925.33,565.78c-1.33,0.21-2.74-0.19-2.52-0.93
			C923,564.24,924.13,564.19,925.33,565.78z"/>
		<path id="path7732_00000003089059050014778940000000740447399081556873_" d="M932.99,565.82c-1.33,0.21-2.74-0.19-2.52-0.93
			C930.66,564.28,931.79,564.22,932.99,565.82z"/>
	</g>
	<g id="Croce_Sinistra">
		<path class="st4" d="M215.51,532.46l0-11.14l-9.57,8.12l-20.16,0l0-20.17l8.12-9.56l-11.14,0c-2.08-2.67-5.02-8.59-7.53-12.89
			c-2.51,4.3-5.45,10.22-7.53,12.89l-11.14,0l8.12,9.57l0,20.17l-20.16,0l-9.57-8.12l0,11.14c-2.67,2.08-8.59,5.02-12.89,7.53
			c4.3,2.51,10.22,5.45,12.89,7.53l0,11.14l9.57-8.12l20.16,0l0,20.17l-8.12,9.56l11.14,0c2.08,2.67,5.02,8.59,7.53,12.89
			c2.51-4.3,5.45-10.22,7.53-12.89l11.14,0l-8.12-9.57l0.01-20.16l20.16,0l9.57,8.12l0-11.14c2.67-2.08,8.59-5.02,12.89-7.53
			C224.1,537.48,218.18,534.54,215.51,532.46z"/>
		<g>
			<path id="path5243_00000051346232912869295460000005997668942468790412_" class="st5" d="M187.48,539.98
				c0,6.61-5.48,11.96-12.25,11.96c-6.76,0-12.25-5.36-12.25-11.96s5.48-11.96,12.25-11.96
				C181.99,528.02,187.48,533.37,187.48,539.98z"/>
			<path id="path2167_00000113311313166239083570000006059479143120320160_" class="st6" d="M174.32,540.8
				c0.02,0.01,1.82,0.01,1.82,0.02c3.15,0.3,4.76,1.68,6.68,3.97c0.9-1.01,1.04-2.24,0.87-3.3c1.13-0.18,2.21-0.56,3.24-1.51
				c-1.07-0.95-2.15-1.33-3.28-1.51c0.16-1.07,0.03-2.3-0.87-3.3c-1.92,2.29-3.53,3.67-6.68,3.97c-0.02,0.05-1.71-0.01-1.73-0.02
				c-3.15-0.3-4.76-1.68-6.68-3.97c-0.9,1.01-1.04,2.24-0.87,3.3c-1.13,0.18-2.21,0.56-3.28,1.51c1.03,0.95,2.11,1.33,3.24,1.51
				c-0.16,1.07-0.03,2.3,0.87,3.3C169.56,542.49,171.17,541.11,174.32,540.8z M174.4,539.07c-0.01,0.02-0.01,1.82-0.02,1.82
				c-0.3,3.15-1.68,4.76-3.97,6.68c1.01,0.9,2.24,1.04,3.3,0.87c0.18,1.13,0.56,2.21,1.51,3.24c0.95-1.07,1.33-2.15,1.51-3.28
				c1.07,0.16,2.3,0.03,3.3-0.87c-2.29-1.92-3.67-3.53-3.97-6.68c-0.05-0.02,0.01-1.71,0.02-1.73c0.3-3.15,1.68-4.76,3.97-6.68
				c-1.01-0.9-2.24-1.04-3.3-0.87c-0.18-1.13-0.56-2.21-1.51-3.28c-0.95,1.03-1.33,2.11-1.51,3.24c-1.07-0.16-2.3-0.03-3.3,0.87
				C172.72,534.31,174.1,535.92,174.4,539.07z"/>
		</g>
		<g>
			<path d="M233.33,540c-5.06-2.96-14.9-8.3-15.14-8.84l0.01-15.45l-12.96,10.86l-16.58,0l0-16.55l10.88-12.99l-15.45,0.01
				c-0.55-0.24-5.9-10.08-8.86-15.14c-2.96,5.06-8.3,14.9-8.85,15.14l-15.45-0.01l10.83,12.94l0.03,16.6l-16.55,0l-12.99-10.88
				l0,15.45c-0.24,0.55-10.07,5.9-15.14,8.86c5.06,2.96,14.9,8.3,15.14,8.85l-0.01,15.45l12.96-10.86l16.58,0l0,16.55l-10.88,12.99
				l15.45-0.01c0.55,0.24,5.9,10.08,8.86,15.14c2.96-5.06,8.3-14.9,8.84-15.14l15.45,0.01l-10.83-12.94l-0.03-16.6l16.55,0
				l12.99,10.88l0-15.45C218.43,548.31,228.26,542.96,233.33,540z M215.51,547.52l0,11.14l-9.57-8.12l-20.16,0l-0.01,20.16
				l8.12,9.57l-11.14,0c-2.08,2.67-5.02,8.59-7.53,12.89c-2.51-4.3-5.45-10.22-7.53-12.89l-11.14,0l8.12-9.56l0-20.17l-20.16,0
				l-9.57,8.12l0-11.14c-2.67-2.08-8.59-5.02-12.89-7.53c4.3-2.51,10.22-5.45,12.89-7.53l0-11.14l9.57,8.12l20.16,0l0-20.17
				l-8.12-9.57l11.14,0c2.08-2.67,5.02-8.59,7.53-12.89c2.51,4.3,5.45,10.22,7.53,12.89l11.14,0l-8.12,9.56l0,20.17l20.16,0
				l9.57-8.12l0,11.14c2.67,2.08,8.59,5.02,12.89,7.53C224.1,542.51,218.18,545.45,215.51,547.52z"/>
			<path id="path4214_00000124841969825724313440000011827507411928309153_" d="M196.34,540.01c-0.2-0.43-0.48-0.99-1.06-0.95
				c-0.42,0.03-0.41,0.26-0.54,0.39c-0.1,0.1-0.22,0.43-0.74,0.42c-0.43-0.01-0.68-0.32-0.84-0.47c-0.12-0.11-0.21-0.46-1.06-0.5
				c-0.88-0.04-2.33,1.11-2.33,1.11s1.46,1.15,2.33,1.11c0.85-0.04,0.94-0.39,1.06-0.5c0.16-0.15,0.41-0.46,0.84-0.47
				c0.53-0.01,0.64,0.32,0.74,0.42c0.13,0.13,0.12,0.35,0.54,0.39C195.86,541,196.14,540.43,196.34,540.01z"/>
			<path id="path4136_00000083795449678230371600000008609943445218646146_" d="M154.34,540.01c0.2-0.43,0.48-0.99,1.06-0.95
				c0.42,0.03,0.41,0.26,0.54,0.39c0.1,0.1,0.22,0.43,0.74,0.42c0.43-0.01,0.68-0.32,0.84-0.47c0.12-0.11,0.21-0.46,1.06-0.5
				c0.88-0.04,2.33,1.11,2.33,1.11s-1.46,1.15-2.33,1.11c-0.85-0.04-0.94-0.39-1.06-0.5c-0.16-0.15-0.41-0.46-0.84-0.47
				c-0.53-0.01-0.64,0.32-0.74,0.42c-0.13,0.13-0.12,0.35-0.54,0.39C154.82,541,154.54,540.43,154.34,540.01z"/>
			<path id="path4270_00000003826205051312967980000003533762151927772341_" d="M175.31,560.98c0.43-0.2,0.99-0.48,0.95-1.06
				c-0.03-0.42-0.26-0.41-0.39-0.54c-0.1-0.1-0.43-0.22-0.42-0.74c0.01-0.43,0.32-0.68,0.47-0.84c0.11-0.12,0.46-0.21,0.5-1.06
				c0.04-0.88-1.11-2.33-1.11-2.33s-1.15,1.46-1.11,2.33c0.04,0.85,0.39,0.94,0.5,1.06c0.15,0.16,0.46,0.41,0.47,0.84
				c0.01,0.53-0.32,0.64-0.42,0.74c-0.13,0.13-0.35,0.12-0.39,0.54C174.32,560.5,174.88,560.78,175.31,560.98z"/>
			<path id="path4260_00000096781292268850484700000001926938168883803805_" d="M175.31,518.98c0.43,0.2,0.99,0.48,0.95,1.06
				c-0.03,0.42-0.26,0.41-0.39,0.54c-0.1,0.1-0.43,0.22-0.42,0.74c0.01,0.43,0.32,0.68,0.47,0.84c0.11,0.12,0.46,0.21,0.5,1.06
				c0.04,0.88-1.11,2.33-1.11,2.33s-1.15-1.46-1.11-2.33c0.04-0.85,0.39-0.94,0.5-1.06c0.15-0.16,0.46-0.41,0.47-0.84
				c0.01-0.53-0.32-0.64-0.42-0.74c-0.13-0.13-0.35-0.12-0.39-0.54C174.32,519.45,174.88,519.18,175.31,518.98z"/>
			<path id="path4216_00000045595628234914463580000005785050024468033970_" d="M226.02,539.96c-0.45,0.75-1.24,1.32-2.23,1.5
				c-0.6,0.11-0.88-0.47-1.13-0.96c0,0-0.53,1.6-2.26,1.6c-1.72-0.01-3.36-2.15-3.36-2.13c0,0.01,1.64-2.13,3.36-2.13
				c1.73-0.01,2.26,1.6,2.26,1.6c0.25-0.49,0.53-1.07,1.13-0.96C224.79,538.64,225.57,539.21,226.02,539.96z M221.49,540
				c-0.93-1.07-1.78-0.47-2.5,0C219.73,540.47,220.56,541.07,221.49,540z"/>
			<path id="path4145_00000133491700226319765620000008249576346911178129_" d="M124.66,539.96c0.45,0.75,1.24,1.32,2.23,1.5
				c0.6,0.11,0.88-0.47,1.13-0.96c0,0,0.53,1.6,2.26,1.6c1.72-0.01,3.36-2.15,3.36-2.13c0,0.01-1.64-2.13-3.36-2.13
				c-1.73-0.01-2.26,1.6-2.26,1.6c-0.25-0.49-0.53-1.07-1.13-0.96C125.89,538.64,125.11,539.21,124.66,539.96z M129.19,540
				c0.93-1.07,1.78-0.47,2.5,0C130.95,540.47,130.12,541.07,129.19,540z"/>
			<path id="path4272_00000152976497674395658440000015902835043650335166_" d="M175.36,590.66c-0.75-0.45-1.32-1.24-1.5-2.23
				c-0.11-0.6,0.47-0.88,0.96-1.13c0,0-1.6-0.53-1.6-2.26c0.01-1.72,2.15-3.36,2.13-3.36c-0.01,0,2.13,1.64,2.13,3.36
				c0.01,1.73-1.6,2.26-1.6,2.26c0.49,0.25,1.07,0.53,0.96,1.13C176.68,589.42,176.11,590.21,175.36,590.66z M175.32,586.13
				c1.07-0.93,0.47-1.78,0-2.5C174.85,584.36,174.25,585.2,175.32,586.13z"/>
			<path id="path4262_00000118372482038433654210000001200152236950545031_" d="M175.36,489.29c-0.75,0.45-1.32,1.24-1.5,2.23
				c-0.11,0.6,0.47,0.88,0.96,1.13c0,0-1.6,0.53-1.6,2.26c0.01,1.72,2.15,3.36,2.13,3.36c-0.01,0,2.13-1.64,2.13-3.36
				c0.01-1.73-1.6-2.26-1.6-2.26c0.49-0.25,1.07-0.53,0.96-1.13C176.68,490.53,176.11,489.74,175.36,489.29z M175.32,493.82
				c1.07,0.93,0.47,1.78,0,2.5C174.85,495.59,174.25,494.76,175.32,493.82z"/>
			<path id="path4266_00000038375508681581047290000000688612142087414955_" d="M180.49,561.86c0.75,1.12-0.02,2.44-0.53,2.97
				c-0.5,0.52-1.79,1.17-1.79,1.17s0.74-1.04,0.62-1.75c-0.19-1.09-1.03-1.12-1.11-1.12c-0.08,0-1.07,0.1-1.01,1.04
				c0.1,1.78,0.88,2.72,1.9,3.78c1.26,1.3,3.07,2.02,3.74,2.59c0.47,0.41,0.94,0.46,1.08,0.58c1.15,0.94,1.66,1.66,2.2,3
				c0.54,1.34-0.08,2.34-0.08,2.34s1.35-0.52,2.6-0.48c1.22,0.04,1.92,1.24,2,2.16c0.06,0.66-0.85,1.45-1.68,1.44
				c-0.83-0.01-1.64-1.48-1.64-1.48h1.24c0,0,0.18,0.27,0.44,0.22c0.26-0.05,0.55-0.2,0.48-0.62c-0.04-0.26-0.24-0.93-1.08-0.84
				c-0.96,0.1-1.85,0.34-2.72,1.16c-1.2,1.13-2.1,1.15-3.74,1.2c-0.6,0.02-2-0.13-2.82-0.56c-0.12-0.06-1.04-0.65-1.24-0.82
				c-0.88-0.71-2.06-2.63-2.02-2.7v-6.45c0,0,1.11,1.29,1.14,2.52c0.03,1.22-0.68,2.36-0.68,2.36s0.05,0.99,0.8,2
				s0.95,1.41,2.2,2.04c1.25,0.63,1.82,0.94,2.8,0.48c1.99-0.94,1.2-3.56,1.2-3.56l1.72,0.64c0,0,0.2-1.85-2.18-3.32
				c-1.39-0.85-2.6-0.92-4.42-2.69c-1.98-1.91-2.66-2.83-2.66-5.17c0-2.15,0.69-3.39,3.06-4.16c2.94-0.95,2.13-3.99,2.12-4.04
				c-2.17-0.74-3.96-2.2-5.37-3.73c-0.14-0.15-0.13-0.39,0.02-0.53c0.15-0.14,0.39-0.13,0.53,0.02c1.48,1.6,3.33,3.24,5.47,3.76
				c0.51,0.12,1.03,0.28,1.46,0.31c0.43,0.03,0.69-0.03,0.91-0.32c0.25-0.34,0.23-0.5,0.16-0.73c-0.03-0.08-0.1-0.19-0.15-0.28
				c-0.05-0.04-0.13-0.17-0.17-0.2c-0.1-0.07-0.27-0.16-0.44-0.23c-0.04,0.07-0.05,0.09-0.11,0.19c-0.06,0.1-0.13,0.2-0.22,0.29
				c-0.08,0.09-0.15,0.21-0.37,0.26c-0.22,0.05-0.37,0.03-0.5-0.03s-0.25-0.13-0.37-0.22c-0.12-0.09-0.2-0.16-0.29-0.28
				c-0.1-0.12-0.23-0.31-0.22-0.53c0.01-0.27,0.17-0.55,0.37-0.76c0.2-0.22,0.51-0.4,0.88-0.41c0.29-0.01,0.62,0,0.94,0.15
				c0.32,0.15,0.59,0.42,0.81,0.83c0.14,0.27,0.41,0.58,0.54,0.98c0.07,0.2,0.09,0.43,0.05,0.67c-0.04,0.24-0.14,0.49-0.32,0.74
				c-0.39,0.53-1.01,0.66-1.56,0.62c-0.14-0.01-0.28-0.03-0.47-0.05c-0.05,0,0.56,1,0.56,2.22c0,1.28-1.29,2.47-1.33,2.53
				c1.69,1.56,2.99,3.26,3.14,6.09c0.18,3.43-3.1,6.8-3.15,6.74c-1.25,1.62-2.72,2.75-3.27,5.76c-0.12,0.67,0.51,1.37,1.19,1.42
				c0.66,0.05,1.48-0.82,1.48-0.82c0.21-0.08,0.03,2.13-1.48,2.18c-0.96,0.03-2.5-0.76-2.28-2.41c0.32-2.41,1.25-4.46,2.86-6.09
				c0.04,0.01,3.44-3.6,3.49-5.8c0.01-0.46-0.62-2.07-1.12-2.42c-0.39-0.27-0.91-0.18-1.22-1.05l1.52-0.02
				c-0.11,0.29,0.07,0.31,0.47,0.21C182.32,563.76,181.66,562.51,180.49,561.86z"/>
			<path id="path4268_00000025423830869254133130000003519977972219951024_" d="M170.19,561.86c-0.75,1.12,0.02,2.44,0.53,2.97
				c0.5,0.52,1.79,1.17,1.79,1.17s-0.74-1.04-0.62-1.75c0.19-1.09,1.03-1.12,1.11-1.12s1.07,0.1,1.01,1.04
				c-0.1,1.78-0.88,2.72-1.9,3.78c-1.26,1.3-3.07,2.02-3.74,2.59c-0.47,0.41-0.94,0.46-1.08,0.58c-1.15,0.94-1.66,1.66-2.2,3
				c-0.54,1.34,0.08,2.34,0.08,2.34s-1.35-0.52-2.6-0.48c-1.22,0.04-1.92,1.24-2,2.16c-0.06,0.66,0.85,1.45,1.68,1.44
				c0.83-0.01,1.64-1.48,1.64-1.48h-1.24c0,0-0.18,0.27-0.44,0.22c-0.26-0.05-0.55-0.2-0.48-0.62c0.04-0.26,0.24-0.93,1.08-0.84
				c0.96,0.1,1.85,0.34,2.72,1.16c1.2,1.13,2.1,1.15,3.74,1.2c0.6,0.02,2-0.13,2.82-0.56c0.12-0.06,1.04-0.65,1.24-0.82
				c0.88-0.71,2.06-2.63,2.02-2.7v-6.45c0,0-1.11,1.29-1.14,2.52c-0.03,1.22,0.68,2.36,0.68,2.36s-0.05,0.99-0.8,2
				c-0.75,1.01-0.95,1.41-2.2,2.04s-1.82,0.94-2.8,0.48c-1.99-0.94-1.2-3.56-1.2-3.56l-1.72,0.64c0,0-0.2-1.85,2.18-3.32
				c1.39-0.85,2.6-0.92,4.42-2.69c1.98-1.91,2.66-2.83,2.66-5.17c0-2.15-0.69-3.39-3.06-4.16c-2.94-0.95-2.13-3.99-2.12-4.04
				c2.17-0.74,3.96-2.2,5.37-3.73c0.14-0.15,0.13-0.39-0.02-0.53c-0.15-0.14-0.39-0.13-0.53,0.02c-1.48,1.6-3.33,3.24-5.47,3.76
				c-0.51,0.12-1.03,0.28-1.46,0.31c-0.43,0.03-0.69-0.03-0.91-0.32c-0.25-0.34-0.23-0.5-0.16-0.73c0.03-0.08,0.1-0.19,0.15-0.28
				c0.05-0.04,0.13-0.17,0.17-0.2c0.1-0.07,0.27-0.16,0.44-0.23c0.04,0.07,0.05,0.09,0.11,0.19c0.06,0.1,0.13,0.2,0.22,0.29
				c0.08,0.09,0.15,0.21,0.37,0.26c0.22,0.05,0.37,0.03,0.5-0.03s0.25-0.13,0.37-0.22c0.12-0.09,0.2-0.16,0.29-0.28
				c0.1-0.12,0.23-0.31,0.22-0.53c-0.01-0.27-0.17-0.55-0.37-0.76s-0.51-0.4-0.88-0.41c-0.29-0.01-0.62,0-0.94,0.15
				c-0.32,0.15-0.59,0.42-0.81,0.83c-0.14,0.27-0.41,0.58-0.54,0.98c-0.07,0.2-0.09,0.43-0.05,0.67c0.04,0.24,0.14,0.49,0.32,0.74
				c0.39,0.53,1.01,0.66,1.56,0.62c0.14-0.01,0.28-0.03,0.47-0.05c0.05,0-0.56,1-0.56,2.22c0,1.28,1.29,2.47,1.33,2.53
				c-1.69,1.56-2.99,3.26-3.14,6.09c-0.18,3.43,3.1,6.8,3.15,6.74c1.25,1.62,2.72,2.75,3.27,5.76c0.12,0.67-0.51,1.37-1.19,1.42
				c-0.66,0.05-1.48-0.82-1.48-0.82c-0.21-0.08-0.03,2.13,1.48,2.18c0.96,0.03,2.5-0.76,2.28-2.41c-0.32-2.41-1.25-4.46-2.86-6.09
				c-0.04,0.01-3.44-3.6-3.49-5.8c-0.01-0.46,0.62-2.07,1.12-2.42c0.39-0.27,0.91-0.18,1.22-1.05l-1.52-0.02
				c0.11,0.29-0.07,0.31-0.47,0.21C168.36,563.76,169.02,562.51,170.19,561.86z"/>
			<path id="path4212_00000170969908574482362460000004352723583583410592_" d="M197.22,545.13c1.12,0.75,2.44-0.02,2.97-0.53
				c0.52-0.5,1.17-1.79,1.17-1.79s-1.04,0.74-1.75,0.62c-1.09-0.19-1.12-1.03-1.12-1.11s0.1-1.07,1.04-1.01
				c1.78,0.1,2.72,0.88,3.78,1.9c1.3,1.26,2.02,3.07,2.59,3.74c0.41,0.47,0.46,0.94,0.58,1.08c0.94,1.15,1.66,1.66,3,2.2
				c1.34,0.54,2.34-0.08,2.34-0.08s-0.52,1.35-0.48,2.6c0.04,1.22,1.24,1.92,2.16,2c0.66,0.06,1.45-0.85,1.44-1.68
				s-1.48-1.64-1.48-1.64v1.24c0,0,0.27,0.18,0.22,0.44c-0.05,0.26-0.2,0.54-0.62,0.48c-0.26-0.04-0.93-0.24-0.84-1.08
				c0.1-0.96,0.34-1.85,1.16-2.72c1.13-1.2,1.15-2.1,1.2-3.74c0.02-0.6-0.13-2-0.56-2.82c-0.06-0.12-0.65-1.04-0.82-1.24
				c-0.71-0.88-2.63-2.06-2.7-2.02h-6.45c0,0,1.29,1.11,2.52,1.14c1.22,0.03,2.36-0.68,2.36-0.68s0.99,0.05,2,0.8
				s1.41,0.95,2.04,2.2c0.63,1.25,0.94,1.82,0.48,2.8c-0.94,1.99-3.56,1.2-3.56,1.2l0.64,1.72c0,0-1.85,0.2-3.32-2.18
				c-0.85-1.39-0.92-2.6-2.69-4.42c-1.91-1.98-2.83-2.66-5.17-2.66c-2.15,0-3.39,0.69-4.16,3.06c-0.95,2.94-3.99,2.13-4.04,2.12
				c-0.74-2.17-2.2-3.96-3.73-5.37c-0.15-0.14-0.39-0.13-0.53,0.02s-0.13,0.39,0.02,0.53c1.6,1.48,3.24,3.33,3.76,5.47
				c0.12,0.51,0.28,1.03,0.31,1.46c0.03,0.43-0.03,0.69-0.32,0.91c-0.34,0.25-0.5,0.23-0.73,0.16c-0.08-0.03-0.19-0.1-0.28-0.15
				c-0.04-0.05-0.17-0.13-0.2-0.17c-0.07-0.1-0.16-0.27-0.23-0.44c0.07-0.04,0.09-0.05,0.19-0.11c0.1-0.06,0.2-0.13,0.29-0.22
				s0.21-0.15,0.26-0.37c0.05-0.22,0.03-0.37-0.03-0.5c-0.05-0.13-0.13-0.25-0.22-0.37c-0.09-0.12-0.16-0.2-0.28-0.29
				c-0.12-0.1-0.31-0.23-0.53-0.22c-0.27,0.01-0.55,0.17-0.76,0.37c-0.22,0.2-0.4,0.51-0.41,0.88c-0.01,0.29,0,0.62,0.15,0.94
				c0.15,0.32,0.42,0.59,0.83,0.81c0.27,0.14,0.58,0.41,0.98,0.54c0.2,0.07,0.43,0.09,0.67,0.05c0.24-0.04,0.49-0.14,0.74-0.32
				c0.53-0.39,0.66-1.01,0.62-1.56c-0.01-0.14-0.03-0.28-0.05-0.47c0-0.05,1,0.56,2.22,0.56c1.28,0,2.47-1.29,2.53-1.33
				c1.56,1.69,3.26,2.99,6.09,3.14c3.43,0.18,6.8-3.1,6.74-3.15c1.62-1.25,2.75-2.72,5.76-3.27c0.67-0.12,1.37,0.51,1.42,1.19
				c0.05,0.66-0.82,1.48-0.82,1.48c-0.08,0.21,2.13,0.03,2.18-1.48c0.03-0.96-0.76-2.5-2.41-2.28c-2.41,0.32-4.46,1.25-6.09,2.86
				c0.01,0.04-3.6,3.44-5.8,3.49c-0.46,0.01-2.07-0.62-2.42-1.12c-0.27-0.39-0.18-0.91-1.05-1.22l-0.02,1.52
				c0.29-0.11,0.31,0.07,0.21,0.47C199.12,546.96,197.88,546.3,197.22,545.13z"/>
			<path id="path4210_00000031907986966322499970000002577018923212828555_" d="M197.22,534.83c1.12-0.75,2.44,0.02,2.97,0.53
				c0.52,0.5,1.17,1.79,1.17,1.79s-1.04-0.74-1.75-0.62c-1.09,0.19-1.12,1.03-1.12,1.11s0.1,1.07,1.04,1.01
				c1.78-0.1,2.72-0.88,3.78-1.9c1.3-1.26,2.02-3.07,2.59-3.74c0.41-0.47,0.46-0.94,0.58-1.08c0.94-1.15,1.66-1.66,3-2.2
				c1.34-0.54,2.34,0.08,2.34,0.08s-0.52-1.35-0.48-2.6c0.04-1.22,1.24-1.92,2.16-2c0.66-0.06,1.45,0.85,1.44,1.68
				c-0.01,0.83-1.48,1.64-1.48,1.64v-1.24c0,0,0.27-0.18,0.22-0.44c-0.05-0.26-0.2-0.54-0.62-0.48c-0.26,0.04-0.93,0.24-0.84,1.08
				c0.1,0.96,0.34,1.85,1.16,2.72c1.13,1.2,1.15,2.1,1.2,3.74c0.02,0.6-0.13,2-0.56,2.82c-0.06,0.12-0.65,1.04-0.82,1.24
				c-0.71,0.88-2.63,2.06-2.7,2.02h-6.45c0,0,1.29-1.11,2.52-1.14c1.22-0.03,2.36,0.68,2.36,0.68s0.99-0.05,2-0.8
				s1.41-0.95,2.04-2.2c0.63-1.25,0.94-1.82,0.48-2.8c-0.94-1.99-3.56-1.2-3.56-1.2l0.64-1.72c0,0-1.85-0.2-3.32,2.18
				c-0.85,1.39-0.92,2.6-2.69,4.42c-1.91,1.98-2.83,2.66-5.17,2.66c-2.15,0-3.39-0.69-4.16-3.06c-0.95-2.94-3.99-2.13-4.04-2.12
				c-0.74,2.17-2.2,3.96-3.73,5.37c-0.15,0.14-0.39,0.13-0.53-0.02s-0.13-0.39,0.02-0.53c1.6-1.48,3.24-3.33,3.76-5.47
				c0.12-0.51,0.28-1.03,0.31-1.46c0.03-0.43-0.03-0.69-0.32-0.91c-0.34-0.25-0.5-0.23-0.73-0.16c-0.08,0.03-0.19,0.1-0.28,0.15
				c-0.04,0.05-0.17,0.13-0.2,0.17c-0.07,0.1-0.16,0.27-0.23,0.44c0.07,0.04,0.09,0.05,0.19,0.11c0.1,0.06,0.2,0.13,0.29,0.22
				s0.21,0.15,0.26,0.37c0.05,0.22,0.03,0.37-0.03,0.5c-0.05,0.13-0.13,0.25-0.22,0.37c-0.09,0.12-0.16,0.2-0.28,0.29
				c-0.12,0.1-0.31,0.23-0.53,0.22c-0.27-0.01-0.55-0.17-0.76-0.37c-0.22-0.2-0.4-0.51-0.41-0.88c-0.01-0.29,0-0.62,0.15-0.94
				c0.15-0.32,0.42-0.59,0.83-0.81c0.27-0.14,0.58-0.41,0.98-0.54c0.2-0.07,0.43-0.09,0.67-0.05c0.24,0.04,0.49,0.14,0.74,0.32
				c0.53,0.39,0.66,1.01,0.62,1.56c-0.01,0.14-0.03,0.28-0.05,0.47c0,0.05,1-0.56,2.22-0.56c1.28,0,2.47,1.29,2.53,1.33
				c1.56-1.69,3.26-2.99,6.09-3.14c3.43-0.18,6.8,3.1,6.74,3.15c1.62,1.25,2.75,2.72,5.76,3.27c0.67,0.12,1.37-0.51,1.42-1.19
				c0.05-0.66-0.82-1.48-0.82-1.48c-0.08-0.21,2.13-0.03,2.18,1.48c0.03,0.96-0.76,2.5-2.41,2.28c-2.41-0.32-4.46-1.25-6.09-2.86
				c0.01-0.04-3.6-3.44-5.8-3.48c-0.46-0.01-2.07,0.62-2.42,1.12c-0.27,0.39-0.18,0.91-1.05,1.22l-0.02-1.52
				c0.29,0.11,0.31-0.07,0.21-0.47C199.12,533,197.88,533.65,197.22,534.83z"/>
			<path id="path4134_00000169559405445350675470000006304061160939636368_" d="M153.46,545.13c-1.12,0.75-2.44-0.02-2.97-0.53
				c-0.52-0.5-1.17-1.79-1.17-1.79s1.04,0.74,1.75,0.62c1.09-0.19,1.12-1.03,1.12-1.11s-0.1-1.07-1.04-1.01
				c-1.78,0.1-2.72,0.88-3.78,1.9c-1.3,1.26-2.02,3.07-2.59,3.74c-0.41,0.47-0.46,0.94-0.58,1.08c-0.94,1.15-1.66,1.66-3,2.2
				c-1.34,0.54-2.34-0.08-2.34-0.08s0.52,1.35,0.48,2.6c-0.04,1.22-1.24,1.92-2.16,2c-0.66,0.06-1.45-0.85-1.44-1.68
				s1.48-1.64,1.48-1.64v1.24c0,0-0.27,0.18-0.22,0.44c0.05,0.26,0.2,0.54,0.62,0.48c0.26-0.04,0.93-0.24,0.84-1.08
				c-0.1-0.96-0.34-1.85-1.16-2.72c-1.13-1.2-1.15-2.1-1.2-3.74c-0.02-0.6,0.13-2,0.56-2.82c0.06-0.12,0.65-1.04,0.82-1.24
				c0.71-0.88,2.63-2.06,2.7-2.02h6.45c0,0-1.29,1.11-2.52,1.14c-1.22,0.03-2.36-0.68-2.36-0.68s-0.99,0.05-2,0.8
				c-1.01,0.75-1.41,0.95-2.04,2.2c-0.63,1.25-0.94,1.82-0.48,2.8c0.94,1.99,3.56,1.2,3.56,1.2l-0.64,1.72c0,0,1.85,0.2,3.32-2.18
				c0.85-1.39,0.92-2.6,2.69-4.42c1.91-1.98,2.83-2.66,5.17-2.66c2.15,0,3.39,0.69,4.16,3.06c0.95,2.94,3.99,2.13,4.04,2.12
				c0.74-2.17,2.2-3.96,3.73-5.37c0.15-0.14,0.39-0.13,0.53,0.02c0.14,0.15,0.13,0.39-0.02,0.53c-1.6,1.48-3.24,3.33-3.76,5.47
				c-0.12,0.51-0.28,1.03-0.31,1.46c-0.03,0.43,0.03,0.69,0.32,0.91c0.34,0.25,0.5,0.23,0.73,0.16c0.08-0.03,0.19-0.1,0.28-0.15
				c0.04-0.05,0.17-0.13,0.2-0.17c0.07-0.1,0.16-0.27,0.23-0.44c-0.07-0.04-0.09-0.05-0.19-0.11c-0.1-0.06-0.2-0.13-0.29-0.22
				s-0.21-0.15-0.26-0.37c-0.05-0.22-0.03-0.37,0.03-0.5c0.05-0.13,0.13-0.25,0.22-0.37s0.16-0.2,0.28-0.29
				c0.12-0.1,0.31-0.23,0.53-0.22c0.27,0.01,0.55,0.17,0.76,0.37c0.22,0.2,0.4,0.51,0.41,0.88c0.01,0.29,0,0.62-0.15,0.94
				c-0.15,0.32-0.42,0.59-0.83,0.81c-0.27,0.14-0.58,0.41-0.98,0.54c-0.2,0.07-0.43,0.09-0.67,0.05s-0.49-0.14-0.74-0.32
				c-0.53-0.39-0.66-1.01-0.62-1.56c0.01-0.14,0.03-0.28,0.05-0.47c0-0.05-1,0.56-2.22,0.56c-1.28,0-2.47-1.29-2.53-1.33
				c-1.56,1.69-3.26,2.99-6.09,3.14c-3.43,0.18-6.8-3.1-6.74-3.15c-1.62-1.25-2.75-2.72-5.76-3.27c-0.67-0.12-1.37,0.51-1.42,1.19
				c-0.05,0.66,0.82,1.48,0.82,1.48c0.08,0.21-2.13,0.03-2.18-1.48c-0.03-0.96,0.76-2.5,2.41-2.28c2.41,0.32,4.46,1.25,6.09,2.86
				c-0.01,0.04,3.6,3.44,5.8,3.49c0.46,0.01,2.07-0.62,2.42-1.12c0.27-0.39,0.18-0.91,1.05-1.22l0.02,1.52
				c-0.29-0.11-0.31,0.07-0.21,0.47C151.56,546.96,152.8,546.3,153.46,545.13z"/>
			<path id="path4174_00000129928723312393903270000015384880948928124594_" d="M153.46,534.83c-1.12-0.75-2.44,0.02-2.97,0.53
				c-0.52,0.5-1.17,1.79-1.17,1.79s1.04-0.74,1.75-0.62c1.09,0.19,1.12,1.03,1.12,1.11s-0.1,1.07-1.04,1.01
				c-1.78-0.1-2.72-0.88-3.78-1.9c-1.3-1.26-2.02-3.07-2.59-3.74c-0.41-0.47-0.46-0.94-0.58-1.08c-0.94-1.15-1.66-1.66-3-2.2
				c-1.34-0.54-2.34,0.08-2.34,0.08s0.52-1.35,0.48-2.6c-0.04-1.22-1.24-1.92-2.16-2c-0.66-0.06-1.45,0.85-1.44,1.68
				c0.01,0.83,1.48,1.64,1.48,1.64v-1.24c0,0-0.27-0.18-0.22-0.44c0.05-0.26,0.2-0.54,0.62-0.48c0.26,0.04,0.93,0.24,0.84,1.08
				c-0.1,0.96-0.34,1.85-1.16,2.72c-1.13,1.2-1.15,2.1-1.2,3.74c-0.02,0.6,0.13,2,0.56,2.82c0.06,0.12,0.65,1.04,0.82,1.24
				c0.71,0.88,2.63,2.06,2.7,2.02h6.45c0,0-1.29-1.11-2.52-1.14c-1.22-0.03-2.36,0.68-2.36,0.68s-0.99-0.05-2-0.8
				c-1.01-0.75-1.41-0.95-2.04-2.2c-0.63-1.25-0.94-1.82-0.48-2.8c0.94-1.99,3.56-1.2,3.56-1.2l-0.64-1.72c0,0,1.85-0.2,3.32,2.18
				c0.85,1.39,0.92,2.6,2.69,4.42c1.91,1.98,2.83,2.66,5.17,2.66c2.15,0,3.39-0.69,4.16-3.06c0.95-2.94,3.99-2.13,4.04-2.12
				c0.74,2.17,2.2,3.96,3.73,5.37c0.15,0.14,0.39,0.13,0.53-0.02c0.14-0.15,0.13-0.39-0.02-0.53c-1.6-1.48-3.24-3.33-3.76-5.47
				c-0.12-0.51-0.28-1.03-0.31-1.46c-0.03-0.43,0.03-0.69,0.32-0.91c0.34-0.25,0.5-0.23,0.73-0.16c0.08,0.03,0.19,0.1,0.28,0.15
				c0.04,0.05,0.17,0.13,0.2,0.17c0.07,0.1,0.16,0.27,0.23,0.44c-0.07,0.04-0.09,0.05-0.19,0.11c-0.1,0.06-0.2,0.13-0.29,0.22
				s-0.21,0.15-0.26,0.37c-0.05,0.22-0.03,0.37,0.03,0.5c0.05,0.13,0.13,0.25,0.22,0.37s0.16,0.2,0.28,0.29
				c0.12,0.1,0.31,0.23,0.53,0.22c0.27-0.01,0.55-0.17,0.76-0.37c0.22-0.2,0.4-0.51,0.41-0.88c0.01-0.29,0-0.62-0.15-0.94
				c-0.15-0.32-0.42-0.59-0.83-0.81c-0.27-0.14-0.58-0.41-0.98-0.54c-0.2-0.07-0.43-0.09-0.67-0.05c-0.24,0.04-0.49,0.14-0.74,0.32
				c-0.53,0.39-0.66,1.01-0.62,1.56c0.01,0.14,0.03,0.28,0.05,0.47c0,0.05-1-0.56-2.22-0.56c-1.28,0-2.47,1.29-2.53,1.33
				c-1.56-1.69-3.26-2.99-6.09-3.14c-3.43-0.18-6.8,3.1-6.74,3.15c-1.62,1.25-2.75,2.72-5.76,3.27c-0.67,0.12-1.37-0.51-1.42-1.19
				c-0.05-0.66,0.82-1.48,0.82-1.48c0.08-0.21-2.13-0.03-2.18,1.48c-0.03,0.96,0.76,2.5,2.41,2.28c2.41-0.32,4.46-1.25,6.09-2.86
				c-0.01-0.04,3.6-3.44,5.8-3.48c0.46-0.01,2.07,0.62,2.42,1.12c0.27,0.39,0.18,0.91,1.05,1.22l0.02-1.52
				c-0.29,0.11-0.31-0.07-0.21-0.47C151.56,533,152.8,533.65,153.46,534.83z"/>
			<path id="path4256_00000176734044771541454690000016028217759597295764_" d="M180.49,518.1c0.75-1.12-0.02-2.44-0.53-2.97
				c-0.5-0.52-1.79-1.17-1.79-1.17s0.74,1.04,0.62,1.75c-0.19,1.09-1.03,1.12-1.11,1.12c-0.08,0-1.07-0.1-1.01-1.04
				c0.1-1.78,0.88-2.72,1.9-3.78c1.26-1.3,3.07-2.02,3.74-2.59c0.47-0.41,0.94-0.46,1.08-0.58c1.15-0.94,1.66-1.66,2.2-3
				s-0.08-2.34-0.08-2.34s1.35,0.52,2.6,0.48c1.22-0.04,1.92-1.24,2-2.16c0.06-0.66-0.85-1.45-1.68-1.44
				c-0.83,0.01-1.64,1.48-1.64,1.48h1.24c0,0,0.18-0.27,0.44-0.22c0.26,0.05,0.55,0.2,0.48,0.62c-0.04,0.26-0.24,0.93-1.08,0.84
				c-0.96-0.1-1.85-0.34-2.72-1.16c-1.2-1.13-2.1-1.15-3.74-1.2c-0.6-0.02-2,0.13-2.82,0.56c-0.12,0.06-1.04,0.65-1.24,0.82
				c-0.88,0.71-2.06,2.63-2.02,2.7v6.45c0,0,1.11-1.29,1.14-2.52c0.03-1.22-0.68-2.36-0.68-2.36s0.05-0.99,0.8-2s0.95-1.41,2.2-2.04
				c1.25-0.63,1.82-0.94,2.8-0.48c1.99,0.94,1.2,3.56,1.2,3.56l1.72-0.64c0,0,0.2,1.85-2.18,3.32c-1.39,0.85-2.6,0.92-4.42,2.69
				c-1.98,1.91-2.66,2.83-2.66,5.17c0,2.15,0.69,3.39,3.06,4.16c2.94,0.95,2.13,3.99,2.12,4.04c-2.17,0.74-3.96,2.2-5.37,3.73
				c-0.14,0.15-0.13,0.39,0.02,0.53s0.39,0.13,0.53-0.02c1.48-1.6,3.33-3.24,5.47-3.76c0.51-0.12,1.03-0.28,1.46-0.31
				c0.43-0.03,0.69,0.03,0.91,0.32c0.25,0.34,0.23,0.5,0.16,0.73c-0.03,0.08-0.1,0.19-0.15,0.28c-0.05,0.04-0.13,0.17-0.17,0.2
				c-0.1,0.07-0.27,0.16-0.44,0.23c-0.04-0.07-0.05-0.09-0.11-0.19c-0.06-0.1-0.13-0.2-0.22-0.29c-0.08-0.1-0.15-0.21-0.37-0.26
				c-0.22-0.05-0.37-0.03-0.5,0.03c-0.13,0.05-0.25,0.13-0.37,0.22c-0.12,0.09-0.2,0.16-0.29,0.28c-0.1,0.12-0.23,0.31-0.22,0.53
				c0.01,0.27,0.17,0.55,0.37,0.76c0.2,0.22,0.51,0.4,0.88,0.41c0.29,0.01,0.62,0,0.94-0.15c0.32-0.15,0.59-0.42,0.81-0.83
				c0.14-0.27,0.41-0.58,0.54-0.98c0.07-0.2,0.09-0.43,0.05-0.67c-0.04-0.24-0.14-0.49-0.32-0.74c-0.39-0.53-1.01-0.66-1.56-0.62
				c-0.14,0.01-0.28,0.03-0.47,0.05c-0.05,0,0.56-1,0.56-2.22c0-1.28-1.29-2.47-1.33-2.53c1.69-1.56,2.99-3.26,3.14-6.09
				c0.18-3.43-3.1-6.8-3.15-6.74c-1.25-1.62-2.72-2.75-3.27-5.76c-0.12-0.67,0.51-1.37,1.19-1.42c0.66-0.05,1.48,0.82,1.48,0.82
				c0.21,0.08,0.03-2.13-1.48-2.18c-0.96-0.03-2.5,0.76-2.28,2.41c0.32,2.41,1.25,4.46,2.86,6.09c0.04-0.01,3.44,3.6,3.49,5.8
				c0.01,0.46-0.62,2.07-1.12,2.42c-0.39,0.27-0.91,0.18-1.22,1.05l1.52,0.02c-0.11-0.29,0.07-0.31,0.47-0.21
				C182.32,516.19,181.66,517.44,180.49,518.1z"/>
			<path id="path4258_00000020357813499017516430000008493629089876849811_" d="M170.19,518.1c-0.75-1.12,0.02-2.44,0.53-2.97
				c0.5-0.52,1.79-1.17,1.79-1.17s-0.74,1.04-0.62,1.75c0.19,1.09,1.03,1.12,1.11,1.12s1.07-0.1,1.01-1.04
				c-0.1-1.78-0.88-2.72-1.9-3.78c-1.26-1.3-3.07-2.02-3.74-2.59c-0.47-0.41-0.94-0.46-1.08-0.58c-1.15-0.94-1.66-1.66-2.2-3
				c-0.54-1.34,0.08-2.34,0.08-2.34s-1.35,0.52-2.6,0.48c-1.22-0.04-1.92-1.24-2-2.16c-0.06-0.66,0.85-1.45,1.68-1.44
				c0.83,0.01,1.64,1.48,1.64,1.48h-1.24c0,0-0.18-0.27-0.44-0.22c-0.26,0.05-0.55,0.2-0.48,0.62c0.04,0.26,0.24,0.93,1.08,0.84
				c0.96-0.1,1.85-0.34,2.72-1.16c1.2-1.13,2.1-1.15,3.74-1.2c0.6-0.02,2,0.13,2.82,0.56c0.12,0.06,1.04,0.65,1.24,0.82
				c0.88,0.71,2.06,2.63,2.02,2.7v6.45c0,0-1.11-1.29-1.14-2.52c-0.03-1.22,0.68-2.36,0.68-2.36s-0.05-0.99-0.8-2
				c-0.75-1.01-0.95-1.41-2.2-2.04c-1.25-0.63-1.82-0.94-2.8-0.48c-1.99,0.94-1.2,3.56-1.2,3.56l-1.72-0.64c0,0-0.2,1.85,2.18,3.32
				c1.39,0.85,2.6,0.92,4.42,2.69c1.98,1.91,2.66,2.83,2.66,5.17c0,2.15-0.69,3.39-3.06,4.16c-2.94,0.95-2.13,3.99-2.12,4.04
				c2.17,0.74,3.96,2.2,5.37,3.73c0.14,0.15,0.13,0.39-0.02,0.53c-0.15,0.14-0.39,0.13-0.53-0.02c-1.48-1.6-3.33-3.24-5.47-3.76
				c-0.51-0.12-1.03-0.28-1.46-0.31c-0.43-0.03-0.69,0.03-0.91,0.32c-0.25,0.34-0.23,0.5-0.16,0.73c0.03,0.08,0.1,0.19,0.15,0.28
				c0.05,0.04,0.13,0.17,0.17,0.2c0.1,0.07,0.27,0.16,0.44,0.23c0.04-0.07,0.05-0.09,0.11-0.19c0.06-0.1,0.13-0.2,0.22-0.29
				c0.08-0.1,0.15-0.21,0.37-0.26c0.22-0.05,0.37-0.03,0.5,0.03c0.13,0.05,0.25,0.13,0.37,0.22c0.12,0.09,0.2,0.16,0.29,0.28
				c0.1,0.12,0.23,0.31,0.22,0.53c-0.01,0.27-0.17,0.55-0.37,0.76c-0.2,0.22-0.51,0.4-0.88,0.41c-0.29,0.01-0.62,0-0.94-0.15
				c-0.32-0.15-0.59-0.42-0.81-0.83c-0.14-0.27-0.41-0.58-0.54-0.98c-0.07-0.2-0.09-0.43-0.05-0.67c0.04-0.24,0.14-0.49,0.32-0.74
				c0.39-0.53,1.01-0.66,1.56-0.62c0.14,0.01,0.28,0.03,0.47,0.05c0.05,0-0.56-1-0.56-2.22c0-1.28,1.29-2.47,1.33-2.53
				c-1.69-1.56-2.99-3.26-3.14-6.09c-0.18-3.43,3.1-6.8,3.15-6.74c1.25-1.62,2.72-2.75,3.27-5.76c0.12-0.67-0.51-1.37-1.19-1.42
				c-0.66-0.05-1.48,0.82-1.48,0.82c-0.21,0.08-0.03-2.13,1.48-2.18c0.96-0.03,2.5,0.76,2.28,2.41c-0.32,2.41-1.25,4.46-2.86,6.09
				c-0.04-0.01-3.44,3.6-3.49,5.8c-0.01,0.46,0.62,2.07,1.12,2.42c0.39,0.27,0.91,0.18,1.22,1.05l-1.52,0.02
				c0.11-0.29-0.07-0.31-0.47-0.21C168.36,516.19,169.02,517.44,170.19,518.1z"/>
			<path id="path4150_00000014625808681888115830000015699023962962293381_" d="M169.01,545.3c0.69-1.02,1.92-2.14,2.76-2.5
				c0.84-0.37,0.98,0.15,0.31,1.16c-0.67,1.01-1.9,2.14-2.75,2.53s-1.02-0.11-0.37-1.11"/>
			<path id="path4123_00000105416769475668571890000011839041880410462385_" d="M166.23,539.99c0.31,0.56,2.54,0.21,3.8,0.33
				c-1.53,1.09-2.46,1.82-2.46,2.41c0.27,0.31,0.43-0.19,1.08-0.65c1.04-0.74,2.76-1.82,4.45-2.09c-1.69-0.27-3.41-1.35-4.45-2.09
				c-0.65-0.46-0.81-0.95-1.08-0.65c0,0.59,0.93,1.32,2.46,2.41C168.77,539.79,166.54,539.44,166.23,539.99z"/>
			<path id="path4130_00000005267512885504233430000009203483526187211907_" d="M184.18,539.99c-0.31,0.56-2.54,0.21-3.8,0.33
				c1.53,1.09,2.46,1.82,2.46,2.41c-0.27,0.31-0.43-0.19-1.08-0.65c-1.04-0.74-2.76-1.82-4.45-2.09c1.69-0.27,3.41-1.35,4.45-2.09
				c0.65-0.46,0.81-0.95,1.08-0.65c0,0.59-0.93,1.32-2.46,2.41C181.64,539.79,183.87,539.44,184.18,539.99z"/>
			<path id="path4138_00000078006623835533503960000017389136154911200128_" d="M175.21,531.02c-0.56,0.31-0.21,2.54-0.33,3.8
				c-1.09-1.53-1.82-2.46-2.41-2.46c-0.31,0.27,0.19,0.43,0.65,1.08c0.74,1.04,1.82,2.76,2.09,4.45c0.27-1.69,1.35-3.41,2.09-4.45
				c0.46-0.65,0.95-0.81,0.65-1.08c-0.59,0-1.32,0.93-2.41,2.46C175.42,533.56,175.77,531.33,175.21,531.02z"/>
			<path id="path4140_00000070806716684378218020000002139137725743182988_" d="M175.21,548.97c-0.56-0.31-0.21-2.54-0.33-3.8
				c-1.09,1.53-1.82,2.46-2.41,2.46c-0.31-0.27,0.19-0.43,0.65-1.08c0.74-1.04,1.82-2.76,2.09-4.45c0.27,1.69,1.35,3.41,2.09,4.45
				c0.46,0.65,0.95,0.81,0.65,1.08c-0.59,0-1.32-0.93-2.41-2.46C175.42,546.43,175.77,548.66,175.21,548.97z"/>
			<path id="path4144_00000031916349063171645730000016240692566417621674_" d="M171.19,536.73c-1.02-0.69-2.14-1.92-2.5-2.76
				s0.15-0.98,1.16-0.31c1.01,0.67,2.14,1.9,2.53,2.75s-0.11,1.02-1.11,0.37"/>
			<path id="path4146_00000177480773720519909640000002999679140471947700_" d="M180.61,546.2c-1.02-0.69-2.14-1.92-2.5-2.76
				c-0.37-0.84,0.15-0.98,1.16-0.31s2.14,1.9,2.53,2.75c0.39,0.85-0.11,1.02-1.11,0.37"/>
			<path id="path4148_00000155139684794086143660000011787613419069413260_" d="M178.41,535.93c0.69-1.02,1.92-2.14,2.76-2.5
				s0.98,0.15,0.31,1.16c-0.67,1.01-1.9,2.14-2.75,2.53s-1.02-0.11-0.37-1.11"/>
		</g>
		<g id="Lettere">
			<path id="path24889_00000155847738160985049360000002398647086185592482_" class="st10" d="M139.39,505.84h-2.15v0.63h0.55v7.37
				h-0.8v0.62h3.22v-0.64h-0.81L139.39,505.84z"/>
			<path id="path3186_00000021079168418846114490000005138232185224279688_" class="st10" d="M141.48,509.8
				c0-0.81,1.67-0.54,1.67,0.53h-0.51v1.39h2.05v-1.93c0-0.74,1.72-0.52,1.72,0.55h-0.51v4.12h-1.2v-2.07h-1.54h-0.51v1.6
				c0,0.48-1.77,0.63-1.77-0.57h0.61V509.8z"/>
			<path id="path24887_00000028321330651419231940000005101448417977194125_" class="st10" d="M148.74,513.27
				c0.25,0.45,0.44,0.73,0.89,0.73c0.45,0,0.66-0.28,0.91-0.73c0.39-0.05,0.79-0.11,1.05,0.25c-0.45,0.58-1.14,0.94-1.97,0.94
				c-1.45,0-2.51-1.12-2.51-2.53c0-0.02,0-0.05,0-0.07c0-1.41,1.05-2.53,2.51-2.53c0.82,0,1.52,0.37,1.97,0.94
				c-0.26,0.36-0.66,0.3-1.05,0.25c-0.25-0.45-0.47-0.73-0.91-0.73c-0.45,0-0.64,0.28-0.89,0.73V513.27z"/>
			
				<rect id="rect5544_00000083051187683055314710000015917158087283566269_" x="140.81" y="505.96" class="st11" width="10.32" height="0.58"/>
			<path id="path6238_00000024715282082208877110000000243114002117306526_" class="st10" d="M196.93,507.68h1.15v7.22h-0.6v0.62
				h3.44v-0.62h-0.86v-7.22h0.86v-0.73h-4h-4v0.73h0.86v7.22h-0.86v0.62h3.44v-0.62h-0.6v-7.22H196.93z"/>
			<path id="path5556_00000075859293972013035860000004860188786700333976_" class="st10" d="M211.47,514.43
				c0.25,0.44,0.44,0.71,0.89,0.71c0.45,0,0.66-0.28,0.91-0.71c0.39-0.05,0.79-0.11,1.05,0.24c-0.45,0.56-1.14,0.92-1.97,0.92
				c-1.45,0-2.51-1.09-2.51-2.47c0-0.02,0-0.05,0-0.07c0-1.38,1.05-2.47,2.51-2.47c0.82,0,1.52,0.36,1.97,0.92
				c-0.26,0.35-0.66,0.29-1.05,0.24c-0.25-0.44-0.47-0.71-0.91-0.71c-0.45,0-0.64,0.27-0.89,0.71V514.43z"/>
			<path id="path6126_00000086662725031765473260000010940716657581991840_" class="st10" d="M205.53,514.19
				c0.55,0.36,0.84,2.21,2.07,2.18c0.64-0.12,1.22-0.58,1.33-1.21c0.09-0.49-0.3-0.85-0.72-1.05c-0.53-0.24-0.97,0.23-0.91,0.75
				c0.15,0.36-0.29-0.05-0.72-0.46c-0.47-0.46-0.5-0.71-0.48-1.13c0.01-0.22,1.33-1.92,1.56-2.04c0.46-0.24,0.4,0.7,0.57,0.42
				c0.23-0.38,0.77-0.39,0.47-0.83c-0.19-0.29-0.5-0.35-0.85-0.41c-0.68-0.11-1.42,0.02-1.79,0.7c-0.44,0.8-0.47,1.29-0.71,1.3
				c-0.55-0.36-0.84-2.21-2.07-2.18c-0.64,0.12-1.22,0.58-1.33,1.21c-0.09,0.49,0.3,0.85,0.72,1.05c0.53,0.24,0.97-0.23,0.91-0.75
				c-0.15-0.36,0.29,0.05,0.72,0.46c0.47,0.46,0.5,0.71,0.48,1.13c-0.01,0.22-1.14,1.7-1.38,1.82c-0.46,0.24-0.4-0.7-0.57-0.42
				c-0.23,0.38-0.95,0.62-0.66,1.05c0.19,0.29,0.5,0.35,0.85,0.41c0.68,0.11,1.42-0.02,1.79-0.7
				C205.27,514.69,205.29,514.2,205.53,514.19"/>
			
				<rect id="rect5561_00000072253811150401614580000004544694165623965315_" x="202.38" y="507.31" class="st11" width="11.13" height="0.55"/>
			<path id="path8133_00000116215424750367190810000014082164192940606636_" class="st10" d="M203.91,566.43h1.87v3.84h0.76v0.68
				h-0.76v3.49h-1v-3.49h-0.65v-0.68h0.65v-3.3h-0.87V566.43z"/>
			<path id="path9106_00000025426118097274194110000010739419694391724963_" class="st10" d="M205.79,567.92
				c0.52-0.1,1.08-0.23,1.84,0c4.64,2.89-5.8,9.68-5.92,0.92c0.64-1.19,1.92-0.89,2.11,0.32c-0.04,0.35-0.47,0.6-0.71,0.45
				c-0.19-0.13-0.29-0.44-0.39-0.6c-0.09-0.15-0.43-0.38-0.43,0.35c-0.01,2.92,3.25,4.27,5.02,1.29c0.78-1.31-0.58-2.41-1.59-1.99
				C205.26,568.86,205.29,568.01,205.79,567.92z"/>
			<path id="path18940_00000104705204511345143950000017584950211218765699_" class="st10" d="M196.36,572.05
				c-0.25-0.77,0.4-1.53,0.52-2.3c0.16-1.05-0.57-1.61-1.01-1.61s-1.17,0.56-1.01,1.61c0.12,0.78,0.53,1.53,0.33,2.3H196.36z"/>
			<path id="path18952_00000038410981251065643990000018411661571823137949_" class="st10" d="M199.87,572.05
				c-0.25-0.77,0.4-1.53,0.52-2.3c0.16-1.05-0.57-1.61-1.01-1.61c-0.44,0-1.17,0.56-1.01,1.61c0.12,0.78,0.53,1.53,0.33,2.3H199.87z
				"/>
			<path id="path18956_00000168105063359639173460000007356113308025054850_" class="st10" d="M199.32,570.99l-0.25,0.31
				c-0.52,0.65-1.03,0.92-1.51,0.92c-0.48,0-1.01-0.28-1.58-0.93l-0.25-0.29l-0.21,0.31c-0.34,0.51-0.76,0.77-1.24,1.02
				c-0.11,0.04-0.18,0.13-0.19,0.24s0.05,0.21,0.15,0.26c0.1,0.05,0.22,0.04,0.31-0.02c0.42-0.22,0.87-0.52,1.24-0.96
				c0.56,0.56,1.15,0.91,1.77,0.92c0.61,0,1.19-0.35,1.71-0.91c0.31,0.39,0.69,0.72,1.15,0.99c0.13,0.08,0.31,0.04,0.4-0.09
				c0.09-0.13,0.05-0.3-0.09-0.38c-0.51-0.3-0.92-0.65-1.19-1.07L199.32,570.99z"/>
			<path id="path848_00000099660647119238860590000011233490588977323450_" class="st11" d="M212.63,565.11
				c0.4,0,0.81-0.01,1.22-0.01c0,0.49,0,0.99,0,1.48c-0.01,0.38-0.02,0.77-0.02,1.15c0.48-0.01,0.97-0.03,1.46-0.04l0.7,0.01
				c0.17,0,0.16,0.39,0.13,0.68c-0.75-0.03-1.51,0-2.26,0.01c-0.03,1.74,0.01,3.48-0.06,5.21c-0.03,0.63-0.83,0.91-1.19,0.88
				c-0.32-0.02-0.67-0.59-0.83-0.92c-0.05-0.11,0.13-0.49,0.23-0.5c0.13-0.02,0.5,0.26,0.66,0.35c0.05-1.65,0.03-3.3-0.03-4.94
				l-1.25-0.03l0.32,1.44l-2.11-2.07c1.01-0.1,2.03-0.08,3.05-0.08C212.63,566.85,212.63,565.98,212.63,565.11z"/>
			<path id="path5587_00000155114531809775605040000015395423265838627477_" class="st11" d="M195.79,565.78
				c-1.33,0.21-2.74-0.19-2.52-0.93C193.46,564.24,194.59,564.19,195.79,565.78z"/>
			<path id="path5590_00000142174437346716294870000006395516265436688520_" class="st11" d="M203.45,565.82
				c-1.33,0.21-2.74-0.19-2.52-0.93C201.12,564.28,202.25,564.22,203.45,565.82z"/>
			<path id="path5633_00000034780188980098432140000004392798337483871678_" class="st10" d="M136.62,567.4h0.74v5.94h-0.38v0.51
				h2.19v-0.51h-0.55v-5.94h0.55v-0.6h-2.55h-2.55v0.6h0.55v5.94h-0.55v0.51h2.19v-0.51h-0.38v-5.94H136.62z"/>
			<path id="path24954_00000088109652222507695110000016236751908923654030_" class="st10" d="M142.63,573.24
				c1.09,1.7,4.06-0.44,2.21-3.89c-0.23-0.43-0.99-0.05-0.57,0.61c1.09,1.68-0.1,4.32-1.19,2.96c-0.08-0.1-0.2-0.35-0.13-0.52
				c0.47-1.18,0.7-2.32-0.32-3.29c-1.03,0.97-0.8,2.11-0.32,3.29c0.07,0.17-0.05,0.43-0.13,0.52c-1.09,1.36-2.28-1.28-1.19-2.96
				c0.43-0.66-0.34-1.04-0.57-0.61C138.58,572.8,141.54,574.94,142.63,573.24z"/>
			<path id="path24961_00000053529085218035938360000005957845317551047816_" class="st10" d="M145.23,571.46
				c0.84,2.88-0.98,5.77-3.36,4.01c-0.39-0.42-1.06-0.27-1.14,0.3c0.39-0.08,0.66,0.03,0.77,0.32c0.09,1.5-1.79,1.2-1.36-0.42
				c0.32-1.23,1.46-1.88,2.67-1.33c0.72,0.32,1.2,0.63,1.8-0.05c0.28-0.31,0.49-0.83,0.2-1.8L145.23,571.46z"/>
			<path id="path5606_00000010289781980908028480000003481619721306276743_" class="st11" d="M137.4,565.8
				c-1.33,0.21-2.74-0.19-2.52-0.93C135.07,564.26,136.2,564.21,137.4,565.8z"/>
			<path id="path5642_00000052089680955826212930000003932793509863285677_" class="st10" d="M146.27,569.5
				c0-0.76,1.22-0.51,1.22,0.5h-0.37v1.31h1.5v-1.82c0-0.7,1.25-0.49,1.25,0.52h-0.37v3.87h-0.88v-1.94h-1.12h-0.37v1.51
				c0,0.45-1.29,0.59-1.29-0.53h0.45V569.5z"/>
			<path id="path24940_00000037683186661822703400000005210251669003912605_" class="st10" d="M152.27,568.7
				c-0.27,0.01-0.62,0.08-0.95,0.59c-0.31-0.24-0.62-0.5-1-0.28l0.47,0.9l0.01,5.36h-0.55c0,0.75,1.28,1.54,1.28,0.32v-2.92
				c0.86,0.91,1.39,0.32,1.86-0.6c0.28-1,0.26-2-0.34-3C152.79,568.87,152.54,568.7,152.27,568.7z M152.07,569.49
				c0.39,0,0.54,0.47,0.54,1.41s-0.16,1.5-0.54,1.5c-0.39,0-0.54-0.56-0.54-1.5S151.68,569.49,152.07,569.49z"/>
			<path id="path24891_00000124125132884861908760000005463749951994199729_" class="st10" d="M154.47,569.31
				c0-0.81,1.14-0.54,1.14,0.53h-0.35v3.67c0,0.48-1.21,0.63-1.21-0.57h0.42V569.31z"/>
			<path id="path7696_00000034081235753232533770000015087432046079160744_" class="st10" d="M136.62,567.4h0.74v5.94h-0.38v0.51
				h2.19v-0.51h-0.55v-5.94h0.55v-0.6h-2.55h-2.55v0.6h0.55v5.94h-0.55v0.51h2.19v-0.51h-0.38v-5.94H136.62z"/>
			<path id="path7700_00000008869803658672761530000018193178844822963391_" class="st10" d="M142.63,573.24
				c1.09,1.7,4.06-0.44,2.21-3.89c-0.23-0.43-0.99-0.05-0.57,0.61c1.09,1.68-0.1,4.32-1.19,2.96c-0.08-0.1-0.2-0.35-0.13-0.52
				c0.47-1.18,0.7-2.32-0.32-3.29c-1.03,0.97-0.8,2.11-0.32,3.29c0.07,0.17-0.05,0.43-0.13,0.52c-1.09,1.36-2.28-1.28-1.19-2.96
				c0.43-0.66-0.34-1.04-0.57-0.61C138.58,572.8,141.54,574.94,142.63,573.24z"/>
			<path id="path7702_00000137811003582485874060000006072575890449909671_" class="st10" d="M145.23,571.46
				c0.84,2.88-0.98,5.77-3.36,4.01c-0.39-0.42-1.06-0.27-1.14,0.3c0.39-0.08,0.66,0.03,0.77,0.32c0.09,1.5-1.79,1.2-1.36-0.42
				c0.32-1.23,1.46-1.88,2.67-1.33c0.72,0.32,1.2,0.63,1.8-0.05c0.28-0.31,0.49-0.83,0.2-1.8L145.23,571.46z"/>
			<path id="path7704_00000109746680815976326090000002790379046840700042_" class="st11" d="M137.4,565.8
				c-1.33,0.21-2.74-0.19-2.52-0.93C135.07,564.26,136.2,564.21,137.4,565.8z"/>
			<path id="path7706_00000052076802580049393540000011649886361496084665_" class="st10" d="M146.27,569.5
				c0-0.76,1.22-0.51,1.22,0.5h-0.37v1.31h1.5v-1.82c0-0.7,1.25-0.49,1.25,0.52h-0.37v3.87h-0.88v-1.94h-1.12h-0.37v1.51
				c0,0.45-1.29,0.59-1.29-0.53h0.45V569.5z"/>
			<path id="path7708_00000175305049631437294240000006458017791650865592_" class="st10" d="M152.27,568.7
				c-0.27,0.01-0.62,0.08-0.95,0.59c-0.31-0.24-0.62-0.5-1-0.28l0.47,0.9l0.01,5.36h-0.55c0,0.75,1.28,1.54,1.28,0.32v-2.92
				c0.86,0.91,1.39,0.32,1.86-0.6c0.28-1,0.26-2-0.34-3C152.79,568.87,152.54,568.7,152.27,568.7z M152.07,569.49
				c0.39,0,0.54,0.47,0.54,1.41s-0.16,1.5-0.54,1.5c-0.39,0-0.54-0.56-0.54-1.5S151.68,569.49,152.07,569.49z"/>
			<path id="path7710_00000021805275995649738980000014504446831315093396_" class="st10" d="M154.47,569.31
				c0-0.81,1.14-0.54,1.14,0.53h-0.35v3.67c0,0.48-1.21,0.63-1.21-0.57h0.42V569.31z"/>
			<path id="path7716_00000127755629610699699340000005244350592492110493_" class="st10" d="M203.91,566.43h1.87v3.84h0.76v0.68
				h-0.76v3.49h-1v-3.49h-0.65v-0.68h0.65v-3.3h-0.87V566.43z"/>
			<path id="path7718_00000134953157071163189040000004156425193114633354_" class="st10" d="M205.79,567.92
				c0.52-0.1,1.08-0.23,1.84,0c4.64,2.89-5.8,9.68-5.92,0.92c0.64-1.19,1.92-0.89,2.11,0.32c-0.04,0.35-0.47,0.6-0.71,0.45
				c-0.19-0.13-0.29-0.44-0.39-0.6c-0.09-0.15-0.43-0.38-0.43,0.35c-0.01,2.92,3.25,4.27,5.02,1.29c0.78-1.31-0.58-2.41-1.59-1.99
				C205.26,568.86,205.29,568.01,205.79,567.92z"/>
			<path id="path7722_00000128448944085393994590000017172789247022652054_" class="st10" d="M196.36,572.05
				c-0.25-0.77,0.4-1.53,0.52-2.3c0.16-1.05-0.57-1.61-1.01-1.61s-1.17,0.56-1.01,1.61c0.12,0.78,0.53,1.53,0.33,2.3H196.36z"/>
			<path id="path7724_00000092417425020278883140000017292845640928036283_" class="st10" d="M199.87,572.05
				c-0.25-0.77,0.4-1.53,0.52-2.3c0.16-1.05-0.57-1.61-1.01-1.61c-0.44,0-1.17,0.56-1.01,1.61c0.12,0.78,0.53,1.53,0.33,2.3H199.87z
				"/>
			<path id="path7726_00000114032192574302724860000008983887781814973867_" class="st10" d="M199.32,570.99l-0.25,0.31
				c-0.52,0.65-1.03,0.92-1.51,0.92c-0.48,0-1.01-0.28-1.58-0.93l-0.25-0.29l-0.21,0.31c-0.34,0.51-0.76,0.77-1.24,1.02
				c-0.11,0.04-0.18,0.13-0.19,0.24s0.05,0.21,0.15,0.26c0.1,0.05,0.22,0.04,0.31-0.02c0.42-0.22,0.87-0.52,1.24-0.96
				c0.56,0.56,1.15,0.91,1.77,0.92c0.61,0,1.19-0.35,1.71-0.91c0.31,0.39,0.69,0.72,1.15,0.99c0.13,0.08,0.31,0.04,0.4-0.09
				c0.09-0.13,0.05-0.3-0.09-0.38c-0.51-0.3-0.92-0.65-1.19-1.07L199.32,570.99z"/>
			<path id="path7728_00000031895189279168469760000013789937166322626699_" class="st11" d="M212.63,565.11
				c0.4,0,0.81-0.01,1.22-0.01c0,0.49,0,0.99,0,1.48c-0.01,0.38-0.02,0.77-0.02,1.15c0.48-0.01,0.97-0.03,1.46-0.04l0.7,0.01
				c0.17,0,0.16,0.39,0.13,0.68c-0.75-0.03-1.51,0-2.26,0.01c-0.03,1.74,0.01,3.48-0.06,5.21c-0.03,0.63-0.83,0.91-1.19,0.88
				c-0.32-0.02-0.67-0.59-0.83-0.92c-0.05-0.11,0.13-0.49,0.23-0.5c0.13-0.02,0.5,0.26,0.66,0.35c0.05-1.65,0.03-3.3-0.03-4.94
				l-1.25-0.03l0.32,1.44l-2.11-2.07c1.01-0.1,2.03-0.08,3.05-0.08C212.63,566.85,212.63,565.98,212.63,565.11z"/>
			<path id="path7730_00000072241236325867039870000015372668233358437775_" class="st11" d="M195.79,565.78
				c-1.33,0.21-2.74-0.19-2.52-0.93C193.46,564.24,194.59,564.19,195.79,565.78z"/>
			<path id="path7732_00000089558622921063849960000007533552857492625322_" class="st11" d="M203.45,565.82
				c-1.33,0.21-2.74-0.19-2.52-0.93C201.12,564.28,202.25,564.22,203.45,565.82z"/>
		</g>
	</g>
</g>
</svg>
