<svg id="Livello_1" data-name="Livello 1" xmlns="http://www.w3.org/2000/svg" viewBox="0 0 368.74 160"><defs><style>.cls-1{fill:#fafafa;}.cls-1,.cls-2{stroke:#ee7216;stroke-miterlimit:10;stroke-width:4px;}.cls-2{fill:none;}.cls-3{font-size:16px;font-family:Mattone-Bold, Mattone;font-weight:700;}.cls-3,.cls-4,.cls-6{fill:#1d1d1b;}.cls-4{font-size:13px;font-family:Mattone-Regular, Mattone;}.cls-5{fill:#fff;}.cls-6{font-size:60px;font-family:UACadet, UA Cadet;}</style></defs><circle class="cls-1" cx="72.94" cy="80" r="70.94"/><circle class="cls-2" cx="72.94" cy="77.52" r="44.51"/><text class="cls-3" transform="matrix(0.86, -0.51, 0.51, 0.86, 40.94, 38.54)">C</text><text class="cls-3" transform="translate(52.47 31.44) rotate(-14.69)">O</text><text class="cls-3" transform="matrix(1, 0.01, -0.01, 1, 67.66, 27.58)">F</text><text class="cls-3" transform="matrix(0.97, 0.26, -0.26, 0.97, 80.15, 27.6)">T</text><text class="cls-3" transform="matrix(0.87, 0.48, -0.48, 0.87, 91.18, 30.04)">A</text><text class="cls-3" transform="matrix(0.76, 0.65, -0.65, 0.76, 105.32, 38.5)"> </text><text class="cls-4" transform="translate(41.49 131.38) rotate(26.16)">M</text><text class="cls-4" transform="matrix(0.96, 0.29, -0.29, 0.96, 54.73, 137.35)">I</text><text class="cls-4" transform="translate(59.12 138.81) rotate(9.33)">L</text><text class="cls-4" transform="translate(69.85 140.6) rotate(-2.88)">A</text><text class="cls-4" transform="translate(83.76 139.72) rotate(-16.43)">N</text><text class="cls-4" transform="translate(96.91 135.7) rotate(-30)">O</text><path d="M128.66,77.51a39.1,39.1,0,1,1-78.19-.45C50.7,56.53,67.57,38.69,89.1,38.5A39.09,39.09,0,0,1,128.66,77.51ZM77.71,92.67A1.76,1.76,0,0,0,79.07,92q4.58-6,9.2-11.93a1.72,1.72,0,0,0,.36-1.72c-1.29-4.32-2.55-8.66-3.81-13a1,1,0,0,0-.91-.85c-4.53-.72-9-1.47-13.58-2.17a1.35,1.35,0,0,0-1,.41,21.78,21.78,0,0,0-1.51,1.8,43.58,43.58,0,0,0-5.67,8.31,2.37,2.37,0,0,0-.25,1.4,60.55,60.55,0,0,0,1.27,6.3c.7,2.4,1.63,4.73,2.54,7.06A3.59,3.59,0,0,0,68,89.81c1.83.58,3.66,1.17,5.5,1.72C74.9,92,76.31,92.3,77.71,92.67Zm21,12.18v-.09c1.23-.07,2.46-.17,3.69-.2a1.65,1.65,0,0,0,1.34-.62c1-1.19,2.09-2.35,3.07-3.58,1.38-1.73,2.71-3.51,4-5.28a1.6,1.6,0,0,0,.13-1.76q-2.58-5.7-5.09-11.41a1.18,1.18,0,0,0-1.24-.81c-1.17,0-2.34,0-3.5,0-3.23-.12-6.45-.27-9.68-.42a1.21,1.21,0,0,0-1.21.66,44.37,44.37,0,0,1-9.59,12,.85.85,0,0,0-.18.79c1.62,3.12,3.27,6.22,4.92,9.32a1.29,1.29,0,0,0,1.13.72ZM85.66,62.7a8.78,8.78,0,0,0,1-.41c3.24-1.93,6.46-3.87,9.7-5.78a1.2,1.2,0,0,0,.63-1.46c-.62-2.81-1.26-5.63-1.82-8.46a1.68,1.68,0,0,0-1.32-1.5c-2-.45-4-1-6-1.3a10.41,10.41,0,0,0-5.72.48C77.84,46,73.8,48,70.39,51.06a2.3,2.3,0,0,0-1,2.29c.32,2,.47,4.1.67,6.15a.7.7,0,0,0,.78.72c.45,0,.9.05,1.34.07a45,45,0,0,1,12.34,2.09C84.91,62.49,85.26,62.58,85.66,62.7Zm39.13,12.61c-.06-.38-.09-.76-.18-1.12a34.94,34.94,0,0,0-3.24-7.79.82.82,0,0,0-1-.48c-2.59.39-5.18.78-7.78,1.11a1.21,1.21,0,0,0-1.18,1c-1.13,3.7-2.26,7.39-3.47,11.06a2,2,0,0,0,.2,1.81,44.77,44.77,0,0,1,3,5.27A56.52,56.52,0,0,1,113,92.1c.14.45.23.91.85.82a34.75,34.75,0,0,0,7.25-1.64,2.11,2.11,0,0,0,1.34-1.3A36,36,0,0,0,124.79,75.31ZM101.37,44.86c-1.19.15-2.4.27-3.58.48-.76.13-.83.33-.56,1a30.77,30.77,0,0,1,2,8.67,2.32,2.32,0,0,0,1.2,1.95,43.76,43.76,0,0,1,9.86,7.63,1,1,0,0,0,.88.21,20,20,0,0,1,8.2-1.43c.43,0,.68-.13.62-.63a13.19,13.19,0,0,0-2.28-6.51,35.46,35.46,0,0,0-11.83-10.08A7.76,7.76,0,0,0,101.37,44.86ZM54.86,71.24a.54.54,0,0,0-.06.22c-.17,1.81-.44,3.61-.48,5.42a35.15,35.15,0,0,0,3.49,15.8,3.33,3.33,0,0,0,.74,1.1c1.35,1.28,2.74,2.52,4.12,3.76a.61.61,0,0,0,.52.16c.13-.06.2-.32.23-.5.38-2.09.72-4.18,1.12-6.27a1.78,1.78,0,0,0-.18-1.46A25.87,25.87,0,0,1,60,75.17a1.83,1.83,0,0,0-1.17-1.77C57.47,72.74,56.2,72,54.86,71.24ZM105,109.09c-.66-.76-1.2-1.35-1.71-2a1,1,0,0,0-1-.37,54.42,54.42,0,0,1-5.5.81,31,31,0,0,1-10.82-1.29,2.47,2.47,0,0,0-1.39.12c-1.13.4-2.22.94-3.36,1.34-.84.29-1.72.47-2.59.69-.53.13-.61.38-.27.79a13.14,13.14,0,0,0,1.16,1.39,3.55,3.55,0,0,0,1.4.86,35.13,35.13,0,0,0,19.6-.64C102,110.31,103.48,109.66,105,109.09Zm-42.27-9a33.19,33.19,0,0,0,12.45,9.18,1.8,1.8,0,0,0-.6-.93c-.47-.32-1-.54-1.53-.82a27,27,0,0,1-7.74-6.37A2.94,2.94,0,0,0,62.71,100.1Zm1.86-47.23,2.55-1.14a1.42,1.42,0,0,0,.55-.36c.76-1,1.49-2.07,2.29-3.21A22.42,22.42,0,0,0,64.57,52.87Z" transform="translate(-16.63)"/><path d="M143.33,69.25h2.28a.22.22,0,0,0,.23-.13c.37-.64.74-1.28,1.1-1.92.07-.1.13-.21.2-.33l.49.85.81,1.41a.22.22,0,0,0,.21.12H151l-.23.29-1.42,1.68a.31.31,0,0,0-.06.16V73.8c0,.09,0,.11.11.11h2.4a.32.32,0,0,0,.19-.07l1.87-1.56.08-.06s0,.08,0,.11c0,.72,0,1.43,0,2.15a.24.24,0,0,0,.14.25l2,1.14.26.15-.72.42-1.54.89a.21.21,0,0,0-.12.21c0,.72,0,1.44,0,2.16v.14l-.33-.27-1.66-1.39a.22.22,0,0,0-.14-.05h-2.41c-.1,0-.12,0-.12.13,0,.8,0,1.6,0,2.4a.32.32,0,0,0,.06.17l1.57,1.88.06.08h-2.3a.2.2,0,0,0-.21.11c-.28.5-.58,1-.86,1.5l-.44.76c-.07-.11-.14-.22-.2-.33-.33-.57-.65-1.15-1-1.73-.18-.31-.19-.31-.55-.31h-2.08l.17-.21L145,80.81a.25.25,0,0,0,.06-.15V78.23c0-.08,0-.1-.1-.1h-2.45a.23.23,0,0,0-.15.07l-1.88,1.57-.08.06V79.7c0-.71,0-1.42,0-2.14a.25.25,0,0,0-.15-.25l-1.52-.88L138,76l.13-.07,2.13-1.23a.22.22,0,0,0,.12-.22V72.21l.12.09,1.86,1.56a.24.24,0,0,0,.13,0h2.46c.07,0,.09,0,.09-.09,0-.82,0-1.64,0-2.46a.25.25,0,0,0-.06-.14l-1.56-1.87ZM155.52,76l-.06,0-.86-.48-1-.58a.23.23,0,0,1-.12-.22V73.09l-.07,0-1.36,1.15a.36.36,0,0,1-.2.08H149c-.15,0-.15,0-.15-.15V71.28a.31.31,0,0,1,.06-.16c.32-.39.66-.77,1-1.16l.24-.29h-1.34a.89.89,0,0,1-.4,0c-.11-.05-.17-.21-.25-.32l0,0-.78-1.4-.15-.24c-.16.29-.3.56-.46.82s-.44.75-.65,1.12a.19.19,0,0,1-.18.09h-1.63l0,.07,1.16,1.38a.25.25,0,0,1,.06.16c0,1,0,2,0,3,0,.09,0,.11-.11.11h-3a.25.25,0,0,1-.12,0l-1.38-1.16s0,0-.09-.07v1.63a.18.18,0,0,1-.1.18l-1.35.79-.58.32.08.07.69.38,1.18.69a.17.17,0,0,1,.08.16V79l.12-.09,1.34-1.13a.19.19,0,0,1,.13,0h3c.08,0,.11,0,.11.1,0,1,0,2,0,3a.2.2,0,0,1,0,.13l-1,1.14-.26.32h1.61a.25.25,0,0,1,.25.13c.24.44.5.87.75,1.31.11.19.22.38.33.59l.05-.07c.14-.24.27-.49.41-.72.22-.39.45-.77.67-1.15a.17.17,0,0,1,.17-.09h1.64l0-.07-1.17-1.37a.31.31,0,0,1-.06-.16v-3c0-.09,0-.12.11-.12h3a.22.22,0,0,1,.13,0l1.1.94.35.29a.76.76,0,0,0,0-.14V77.34a.22.22,0,0,1,.11-.22l1.31-.75Z" transform="translate(-16.63)"/><path d="M151.06,71v1.08h0s.13,0,.1.06-.11,0-.17,0h-.28l-.07,0,0-.05s0,0,0-.08c0-.33,0-.66,0-1,0-.06,0-.08-.07-.08-.3,0-.3,0-.3.28V72s0,.11.07.12a.11.11,0,0,1,0,.05s0,0,0,0H150s0,0,0,0a.08.08,0,0,1,0,0c.1,0,.1-.06.1-.13v-.87c0-.09,0-.17-.13-.15s0-.11.09-.11h1a.56.56,0,0,1,.12,0Z" transform="translate(-16.63)"/><path d="M151.94,81.44h-.13s0,0,0,0,0-.18-.16-.2a.32.32,0,0,1-.24-.22,2.7,2.7,0,0,1-.08-.39.16.16,0,0,1,.3-.06.3.3,0,0,1,0,.13l-.11-.05a.25.25,0,0,1-.05-.07.32.32,0,0,0,0,.3.4.4,0,0,0,.35.26c0-.09.07-.19-.08-.23s0-.09,0-.09.06-.06.06-.1a2.81,2.81,0,0,0,0-.29c0-.07,0-.15-.09-.14s0,0,0,0,0,0,0,0h.2s0,0,0,.06v.16h.15a.31.31,0,0,1,.29.46.56.56,0,0,1-.32.3c-.1,0-.14.09-.12.2S151.94,81.42,151.94,81.44Zm0-.37a.4.4,0,0,0,.25-.24.17.17,0,0,0,0-.25.53.53,0,0,0-.17,0,1.13,1.13,0,0,0,0,.18s.05,0,.08.08a.07.07,0,0,1,0,0s0,.05,0,.05S152,81,152,81.07Z" transform="translate(-16.63)"/><path d="M142.35,81.27c-.12.09-.23.12-.34,0a.28.28,0,0,1-.45-.26,1.3,1.3,0,0,1,.08-.34s.06,0,.09-.05,0,.07,0,.1-.05.16-.06.24a.38.38,0,0,0,0,.21.15.15,0,0,0,.13.07c.08,0,.1-.08.08-.16a1.05,1.05,0,0,1-.05-.19.33.33,0,0,1,.1-.28c.13.09.15.22.1.4s0,.23.06.24.16-.07.16-.2a1.54,1.54,0,0,0,0-.3s0-.09,0-.13.08.05.09.09a1,1,0,0,1,0,.73.29.29,0,0,1-.49.17c-.1-.06-.11-.06-.18,0s.09.06.09.09,0,.12-.08.13-.11,0-.12-.1a.28.28,0,0,1,.3-.34,1.17,1.17,0,0,1,.2.06C142.25,81.52,142.36,81.44,142.35,81.27Z" transform="translate(-16.63)"/><path d="M141.17,80.36h0c-.19,0-.19,0-.19.17v.65a.36.36,0,0,0,0,.1.43.43,0,0,1,0,.07h-.33s0-.06,0-.06.08-.11.08-.18v-.66s0-.11-.06-.12,0,0,0-.06a.09.09,0,0,1,0,0h.71s0,0,0,0l0,0s0,.07,0,.11c0,.24,0,.49,0,.73,0,0,0,.06,0,.1l0,0,0,0a.88.88,0,0,1-.23,0l-.06,0a.13.13,0,0,1,0,0s0,0,0-.07Z" transform="translate(-16.63)"/><path d="M151.48,72c.06.12.11.07.16,0l.07-.08c.14-.19.11-.28-.07-.4,0,0-.1.11-.14.11a.17.17,0,0,1-.13-.1.23.23,0,0,1,.06-.18.17.17,0,0,1,.29,0c.06.08.1.16.17.27l.09-.19a.25.25,0,0,1,.33-.14.23.23,0,0,1,.1.07s0,.07-.07.12c-.06-.11-.11-.08-.15,0a1.27,1.27,0,0,0-.1.12c-.13.17-.11.27.06.38s.11-.1.16-.1.11.07.13.12,0,.14-.11.19a.16.16,0,0,1-.22,0,1,1,0,0,1-.11-.17l-.09-.14-.08.17a.24.24,0,0,1-.28.16.77.77,0,0,1-.16-.07Z" transform="translate(-16.63)"/><path d="M152.84,80.52l0,.19-.28-.3.32,0c.09,0,.12,0,.11-.11v-.2c0-.07,0-.11.1-.11s.1,0,.1.11,0,.16,0,.23,0,.08.08.08a1.34,1.34,0,0,1,.2,0s.05,0,.08,0-.05,0-.08.06-.21,0-.26,0,0,.17,0,.27,0,.34,0,.5a.21.21,0,0,1-.12.14s-.1,0-.14,0,0-.08,0-.12l.12,0v-.73Z" transform="translate(-16.63)"/><path d="M150.1,81.16s.05,0,.08-.06.12-.13.09-.24a.83.83,0,0,1,0-.22.17.17,0,0,1,.15-.18c.07,0,.16.08.16.18a2.27,2.27,0,0,1-.06.25s-.06.1,0,.15a.24.24,0,0,0,.27,0,.13.13,0,0,0,.07-.15,2,2,0,0,1-.05-.26c0-.11.07-.21.16-.2a.18.18,0,0,1,.15.21,1,1,0,0,1-.06.23c0,.08,0,.14.05.18l.06,0a.13.13,0,0,1,0,.06s0,0-.06,0a.88.88,0,0,0-.36,0,.42.42,0,0,1-.25,0,.17.17,0,0,0-.22,0S150.18,81.24,150.1,81.16Z" transform="translate(-16.63)"/><path d="M141.48,70.64v1.12c0,.07,0,.15.1.14s0,0,0,0a.08.08,0,0,1,0,0h-.4s0,0,0,0l0,0c.08,0,.08,0,.08-.1v-1s0-.07-.06-.1l0,0a.07.07,0,0,1,0,0Z" transform="translate(-16.63)"/><path d="M141.77,71.86a.29.29,0,0,0,0-.13c0-.12,0-.25,0-.37s0-.15.07-.16a.15.15,0,0,1,.18.11h0l-.06.26h.29s0,0,0-.06,0-.1,0-.15,0-.14,0-.14a.43.43,0,0,1,.18.06s0,0,0,0a1,1,0,0,0,0,.17V72h-.18v-.31h-.11c-.21,0-.21,0-.23.2,0,0,0,.09-.07.09s-.16,0-.19-.09Z" transform="translate(-16.63)"/><path d="M143.25,80.59c.08,0,.15,0,.24,0s.12,0,.16.06a.5.5,0,0,1,0,.55c-.06.09-.13.08-.23,0,0,.15,0,.27,0,.4a.39.39,0,0,1-.05.14l-.16-.09,0,0a.44.44,0,0,0,.05-.15,4,4,0,0,0,0-.49C143.28,80.85,143.26,80.73,143.25,80.59Zm.33.3a.58.58,0,0,0,0-.14s0,0-.07-.08l-.06.07c0,.11,0,.22,0,.33s0,.05,0,.05a.11.11,0,0,0,.07-.06A1.22,1.22,0,0,0,143.58,80.89Z" transform="translate(-16.63)"/><path d="M143.08,81.35h-.14v-.22c0-.09-.07-.07-.12-.07s-.12,0-.11.07v.07c0,.06,0,.14-.07.14s-.1,0-.15-.07l0,0a.75.75,0,0,0,0-.16c0-.12,0-.24,0-.36a.12.12,0,0,1,.06-.1.11.11,0,0,1,.1,0s0,.07,0,.1,0,.15,0,.17.12,0,.18,0,0,0,0-.07a.61.61,0,0,1,0-.19s.05,0,.08-.08.09.08.09.12a2,2,0,0,1,0,.26Z" transform="translate(-16.63)"/><path d="M143.4,71.35a.14.14,0,0,1-.19,0,.25.25,0,0,0-.14-.06s-.1.07-.1.11a1.55,1.55,0,0,0,0,.43.14.14,0,0,0,.1.11.2.2,0,0,0,.14,0c.08-.06.09-.07.18,0A.35.35,0,0,1,143,72a.4.4,0,0,1,0-.75A.36.36,0,0,1,143.4,71.35Z" transform="translate(-16.63)"/><path d="M153.28,72a.35.35,0,0,1-.42.13.38.38,0,0,1-.26-.36.4.4,0,0,1,.24-.38.37.37,0,0,1,.44.13.12.12,0,0,1-.18,0,.22.22,0,0,0-.14-.06.24.24,0,0,0-.11.15.92.92,0,0,0,0,.33.21.21,0,0,0,.1.15s.11,0,.16-.06A.12.12,0,0,1,153.28,72Z" transform="translate(-16.63)"/><path d="M152.3,71h-.79a.32.32,0,0,1-.09,0s.06,0,.09,0h1.56l.1,0a.26.26,0,0,1-.1,0Z" transform="translate(-16.63)"/><path d="M142.53,70.74c-.25,0-.49,0-.73,0a.19.19,0,0,1-.08,0s.05,0,.08,0h1.46s.05,0,.07,0a.13.13,0,0,1-.07,0h-.73Z" transform="translate(-16.63)"/><path d="M144,80.56s.07.1.07.15a1.66,1.66,0,0,1,0,.22c0,.11,0,.22,0,.33a.15.15,0,0,1-.05.09.2.2,0,0,1-.12-.06s0-.06,0-.09a.29.29,0,0,0,0-.09v-.45s0-.07,0-.1Z" transform="translate(-16.63)"/><path d="M141.15,80.11l-.29,0c-.06,0-.11-.07-.07-.12a.12.12,0,0,1,.14,0,1.58,1.58,0,0,1,.24.15Z" transform="translate(-16.63)"/><path d="M150.34,80.11a1.74,1.74,0,0,1-.29-.07s0-.07-.06-.1.09-.07.12,0a1.4,1.4,0,0,1,.26.16Z" transform="translate(-16.63)"/><path d="M151.55,80.11c-.09,0-.2,0-.29-.06s0-.07-.07-.11.1-.06.13,0,.17.11.26.16Z" transform="translate(-16.63)"/><path class="cls-5" d="M155.52,76l-.61.34-1.31.75a.22.22,0,0,0-.11.22v1.48a.76.76,0,0,1,0,.14l-.35-.29-1.1-.94a.22.22,0,0,0-.13,0h-3c-.09,0-.11,0-.11.12v3a.31.31,0,0,0,.06.16L150,82.3l0,.07h-1.64a.17.17,0,0,0-.17.09c-.22.38-.45.76-.67,1.15-.14.23-.27.48-.41.72l-.05.07c-.11-.21-.22-.4-.33-.59-.25-.44-.51-.87-.75-1.31a.25.25,0,0,0-.25-.13h-1.61l.26-.32,1-1.14a.2.2,0,0,0,0-.13c0-1,0-2,0-3,0-.08,0-.1-.11-.1h-3a.19.19,0,0,0-.13,0l-1.34,1.13-.12.09V77.31a.17.17,0,0,0-.08-.16l-1.18-.69-.69-.38-.08-.07.58-.32,1.35-.79a.18.18,0,0,0,.1-.18V73.09s.07,0,.09.07l1.38,1.16a.25.25,0,0,0,.12,0h3c.08,0,.11,0,.11-.11,0-1,0-2,0-3a.25.25,0,0,0-.06-.16l-1.16-1.38,0-.07h1.63a.19.19,0,0,0,.18-.09c.21-.37.44-.74.65-1.12s.3-.53.46-.82l.15.24.78,1.4,0,0c.08.11.14.27.25.32a.89.89,0,0,0,.4,0h1.34l-.24.29c-.32.39-.66.77-1,1.16a.31.31,0,0,0-.06.16v2.93c0,.15,0,.15.15.15h2.91a.36.36,0,0,0,.2-.08l1.36-1.15.07,0V74.7a.23.23,0,0,0,.12.22l1,.58.86.48ZM149.75,75a.53.53,0,0,1,0-.12.26.26,0,0,0-.22-.24.41.41,0,0,0-.4.33.23.23,0,0,0,0,.12c.05,0,.11.1.17.1s.1-.07.14-.12,0-.12,0-.16a.11.11,0,0,1,0-.09s.09-.07.14-.06.08.07.1.11,0,.09,0,.13a1.53,1.53,0,0,1-.32.68l-.14.16a2,2,0,0,0-1.79-1.75v0a1.57,1.57,0,0,1,.92-.47.12.12,0,0,1,.16.1s0,.1,0,.15l-.11,0a.15.15,0,0,0-.23,0,.16.16,0,0,0,0,.23.26.26,0,0,0,.35,0,.62.62,0,0,0,.11-.17.25.25,0,0,0-.23-.37h-.11a.56.56,0,0,0-.11-.73l.12-.13a3,3,0,0,0,.28-.44,1.09,1.09,0,0,0,0-.95.12.12,0,0,1,0-.1.8.8,0,0,0,.32-.8l.2,0,.2,0a.34.34,0,0,0,.29-.37.26.26,0,0,0-.25-.19A.31.31,0,0,0,149,70l.18,0s.09,0,.11,0a.11.11,0,0,1,0,.11s-.11.09-.16.08a.59.59,0,0,1-.4-.15,1,1,0,0,0-1-.14l-.09,0c0-.12-.09-.23,0-.34s.25,0,.37.05c0-.2-.1-.32-.24-.33a.35.35,0,0,0-.35.35c0,.1,0,.21.06.31s0,.07,0,.09l-.3.38a3.85,3.85,0,0,0-.26-.34.18.18,0,0,1,0-.16,1.12,1.12,0,0,0,.05-.36.33.33,0,0,0-.36-.26.27.27,0,0,0-.21.32c.11-.09.22-.18.35-.05s0,.22,0,.34l-.08,0a1,1,0,0,0-1.05.14.63.63,0,0,1-.39.15.27.27,0,0,1-.15-.09.11.11,0,0,1,0-.11s.07,0,.11,0l.18,0v0l-.11-.13a.19.19,0,0,0-.26,0,.2.2,0,0,0-.12.24.32.32,0,0,0,.33.27,2,2,0,0,0,.35,0,1.13,1.13,0,0,0,0,.26.83.83,0,0,0,.29.49.13.13,0,0,1,0,.18,1.06,1.06,0,0,0,0,1c.1.17.23.31.35.49a.54.54,0,0,0-.11.7,1.44,1.44,0,0,0-.24,0q-.23.12,0,.45a.26.26,0,0,0,.37.1.19.19,0,0,0,.08-.16.22.22,0,0,0-.12-.13s-.1,0-.15,0,0,0,0,0-.15-.1-.12-.19a.13.13,0,0,1,.18-.09,1.57,1.57,0,0,1,.86.43l0,.07a2,2,0,0,0-1.82,1.72,1.55,1.55,0,0,1-.45-.9s0-.05,0-.06.08-.09.12-.09.1,0,.13.07,0,.06-.05.1,0,.12,0,.16a.26.26,0,0,0,.16.1c.1,0,.15-.09.16-.18s-.05-.24-.25-.34a.24.24,0,0,0-.35.15,1,1,0,0,0,0,.18l-.13,0a.44.44,0,0,0-.49.08c-.1.09-.15.06-.22,0a1.17,1.17,0,0,0-1.4-.27c-.06,0-.09,0-.13,0a1.24,1.24,0,0,0-.21-.18.61.61,0,0,0-.56-.11c0-.09,0-.16,0-.23a.43.43,0,0,0,0-.33.28.28,0,0,0-.44,0c-.12.15,0,.33.17.4a1.37,1.37,0,0,1,0-.19s0-.09,0-.11a.13.13,0,0,1,.12,0,.25.25,0,0,1,.08.15.58.58,0,0,1-.18.43.7.7,0,0,0-.18.4,1.28,1.28,0,0,0,.11.69c-.13,0-.25.09-.36,0s0-.25.06-.36c-.2,0-.32.09-.33.24a.34.34,0,0,0,.38.34l.28,0a.11.11,0,0,1,.08,0l.38.3-.33.26a.13.13,0,0,1-.15,0,1.33,1.33,0,0,0-.34,0,.34.34,0,0,0-.3.36.29.29,0,0,0,.32.22c-.13-.21-.13-.27,0-.36a.25.25,0,0,1,.33,0v0a1,1,0,0,0,.15,1.13.57.57,0,0,1,.12.42.14.14,0,0,1-.17.1c-.07,0-.06-.08,0-.14a.88.88,0,0,0,0-.17h0L141,78a.2.2,0,0,0,0,.26.2.2,0,0,0,.23.09.35.35,0,0,0,.27-.45c0-.08,0-.16-.05-.25a.51.51,0,0,0,.47,0l.39-.29a1.15,1.15,0,0,0,.82.12,1.43,1.43,0,0,0,.73-.46.57.57,0,0,0,.74.12c0,.22,0,.31.17.35a.39.39,0,0,0,.45-.29s0-.12,0-.15-.11-.1-.15-.09a.24.24,0,0,0-.15.13.18.18,0,0,0,.06.14c.05.06,0,.1,0,.13s-.11,0-.14,0-.09-.09-.08-.13a1.21,1.21,0,0,1,.07-.33,1.39,1.39,0,0,1,.37-.59,2,2,0,0,0,.61,1.18,2.08,2.08,0,0,0,1.2.55s0,0,0,.05a1.46,1.46,0,0,1-.64.39,1.13,1.13,0,0,1-.32,0s-.1-.07-.1-.11a.31.31,0,0,1,.07-.14s.06,0,.08,0,.16.09.23,0a.16.16,0,0,0,0-.24.24.24,0,0,0-.32,0,.94.94,0,0,0-.16.23.24.24,0,0,0,.22.33h.1a2,2,0,0,0,0,.4,1.31,1.31,0,0,0,.17.36.71.71,0,0,1-.12.13,1.18,1.18,0,0,0-.23,1.34c0,.07,0,.11,0,.17a.75.75,0,0,0-.29.75l-.28,0a.32.32,0,0,0-.39.23.21.21,0,0,0,.17.31c.12,0,.24-.06.29-.22l-.2,0a.13.13,0,0,1-.09,0,.1.1,0,0,1,0-.09s.09-.1.14-.1a.55.55,0,0,1,.42.14.77.77,0,0,0,.61.22c.17,0,.34,0,.53-.08,0,.1.08.22,0,.32s-.24,0-.36,0c0,.17.08.29.21.31a.33.33,0,0,0,.38-.34c0-.1,0-.21-.06-.31a.25.25,0,0,1,0-.09l.3-.37.29.38s0,.06,0,.09a3.43,3.43,0,0,0-.06.34.33.33,0,0,0,.34.31c.16,0,.25-.12.25-.33-.12.09-.23.18-.36.06s0-.22,0-.34h0a1,1,0,0,0,1.12-.15.54.54,0,0,1,.39-.12.14.14,0,0,1,.13.16c0,.09-.08.07-.15.05a.6.6,0,0,0-.2,0c.08.08.12.14.18.19a.17.17,0,0,0,.23,0s.12-.13.11-.19a.33.33,0,0,0-.41-.32l-.25,0a3.48,3.48,0,0,0-.05-.36.78.78,0,0,0-.27-.4c-.06,0-.07-.08,0-.16a1.14,1.14,0,0,0-.12-1.2,3.23,3.23,0,0,0-.23-.27,1.53,1.53,0,0,0,.17-.37,1.84,1.84,0,0,0,0-.39h.11a.24.24,0,0,0,.22-.25.45.45,0,0,0-.25-.36.23.23,0,0,0-.26.07.14.14,0,0,0,0,.21.14.14,0,0,0,.22,0s.07,0,.07,0,.08.09.08.14,0,.09-.09.11a.22.22,0,0,1-.14,0,1.51,1.51,0,0,1-.68-.31l-.18-.16v0a2,2,0,0,0,1.19-.56,2,2,0,0,0,.59-1.2c.06.08.11.12.15.17a1.4,1.4,0,0,1,.32.76.21.21,0,0,1-.08.16s-.12,0-.16,0,0-.07,0-.11a.1.1,0,0,0,0-.16.25.25,0,0,0-.17-.1.17.17,0,0,0-.15.17c0,.15.06.26.27.35a.24.24,0,0,0,.34-.17s0-.1,0-.14a1.26,1.26,0,0,0,.38,0,1.53,1.53,0,0,0,.37-.17l0,0a1.21,1.21,0,0,0,1.48.3.08.08,0,0,1,.08,0,.8.8,0,0,0,.79.32c0,.13,0,.25,0,.38a.35.35,0,0,0,.35.32.23.23,0,0,0,.2-.21c0-.11,0-.21-.22-.28a1.37,1.37,0,0,1,0,.19s0,.09,0,.1-.1,0-.12,0A.25.25,0,0,1,153,78a.56.56,0,0,1,.15-.41.75.75,0,0,0,.22-.56c0-.19-.05-.37-.08-.57a.27.27,0,0,1,.31,0c.13.14,0,.25,0,.37.2,0,.33-.11.31-.27a.32.32,0,0,0-.39-.31l-.26,0s-.06,0-.08,0l-.38-.3c.13-.1.24-.2.37-.29a.12.12,0,0,1,.08,0l.31.06a.29.29,0,0,0,.3-.15.3.3,0,0,0,0-.3.3.3,0,0,0-.3-.13c.09.11.18.23.06.36a.28.28,0,0,1-.34,0,2.83,2.83,0,0,0,.09-.37.91.91,0,0,0-.12-.64,1.58,1.58,0,0,0-.12-.15A.6.6,0,0,1,153,74c0-.07.09-.14.15-.12s.09.07.06.14a.66.66,0,0,0,0,.2l.13-.11a.23.23,0,0,0,0-.29.21.21,0,0,0-.29-.09.33.33,0,0,0-.22.41,1.77,1.77,0,0,0,.06.28.62.62,0,0,0-.59.11.9.9,0,0,0-.18.16c0,.06-.09.06-.17,0a1.57,1.57,0,0,0-.46-.12,1.18,1.18,0,0,0-.93.4c-.06.07-.11.08-.19,0a.49.49,0,0,0-.53-.09Zm-10,1.19c.25.3.57.25.84-.14-.29-.39-.59-.43-.86-.11-.14-.14-.21-.15-.37-.05l-.13.12s0,.06,0,.07a1.49,1.49,0,0,0,.31.2C139.55,76.26,139.63,76.18,139.72,76.15Zm7.55-7.59c.17-.16.13-.37-.11-.52a.41.41,0,0,0-.23.32c0,.07.06.14.1.22-.31.23-.26.55.13.85l.12-.1C147.57,69,147.56,68.79,147.27,68.56ZM147.15,84c.25-.15.29-.36.11-.53.24-.17.3-.34.16-.56a2.51,2.51,0,0,0-.25-.32.82.82,0,0,0-.34.5.38.38,0,0,0,.22.38C146.87,83.63,146.9,83.81,147.15,84Zm7.46-8.08a.37.37,0,0,0-.41-.23.69.69,0,0,0-.43.29.09.09,0,0,0,0,.07,1.89,1.89,0,0,0,.38.27.33.33,0,0,0,.41-.13l.05-.07c.17.18.38.14.52-.11C155,75.77,154.77,75.73,154.61,75.92Z" transform="translate(-16.63)"/><path class="cls-5" d="M152,81.07c0-.08,0-.18.09-.17s0,0,0-.05a.07.07,0,0,0,0,0s-.08,0-.08-.08a1.13,1.13,0,0,1,0-.18.53.53,0,0,1,.17,0,.17.17,0,0,1,0,.25A.4.4,0,0,1,152,81.07Z" transform="translate(-16.63)"/><path class="cls-5" d="M143.58,80.89a1.22,1.22,0,0,1,0,.17.11.11,0,0,1-.07.06s0,0,0-.05,0-.22,0-.33l.06-.07s.06,0,.07.08A.58.58,0,0,1,143.58,80.89Z" transform="translate(-16.63)"/><path d="M149.75,75l.1,0a.49.49,0,0,1,.53.09c.08.07.13.06.19,0a1.18,1.18,0,0,1,.93-.4,1.57,1.57,0,0,1,.46.12c.08,0,.12,0,.17,0a.9.9,0,0,1,.18-.16.62.62,0,0,1,.59-.11,1.77,1.77,0,0,1-.06-.28.33.33,0,0,1,.22-.41.21.21,0,0,1,.29.09.23.23,0,0,1,0,.29l-.13.11a.66.66,0,0,1,0-.2c0-.07,0-.12-.06-.14s-.14,0-.15.12a.6.6,0,0,0,.12.41,1.58,1.58,0,0,1,.12.15.91.91,0,0,1,.12.64,2.83,2.83,0,0,1-.09.37.28.28,0,0,0,.34,0c.12-.13,0-.25-.06-.36a.3.3,0,0,1,.3.13.3.3,0,0,1,0,.3.29.29,0,0,1-.3.15l-.31-.06a.12.12,0,0,0-.08,0c-.13.09-.24.19-.37.29l.38.3s.06,0,.08,0l.26,0a.32.32,0,0,1,.39.31c0,.16-.11.28-.31.27.08-.12.17-.23,0-.37a.27.27,0,0,0-.31,0c0,.2.06.38.08.57a.75.75,0,0,1-.22.56A.56.56,0,0,0,153,78a.25.25,0,0,0,.08.14s.09,0,.12,0,0-.06,0-.1a1.37,1.37,0,0,0,0-.19c.17.07.24.17.22.28a.23.23,0,0,1-.2.21.35.35,0,0,1-.35-.32c0-.13,0-.25,0-.38a.8.8,0,0,1-.79-.32.08.08,0,0,0-.08,0,1.21,1.21,0,0,1-1.48-.3l0,0a1.53,1.53,0,0,1-.37.17,1.26,1.26,0,0,1-.38,0s0,.09,0,.14a.24.24,0,0,1-.34.17c-.21-.09-.29-.2-.27-.35a.17.17,0,0,1,.15-.17.25.25,0,0,1,.17.1.1.1,0,0,1,0,.16s-.09.07,0,.11.13.07.16,0a.21.21,0,0,0,.08-.16,1.4,1.4,0,0,0-.32-.76s-.09-.09-.15-.17a2,2,0,0,1-.59,1.2,2,2,0,0,1-1.19.56v0l.18.16a1.51,1.51,0,0,0,.68.31.22.22,0,0,0,.14,0s.09-.07.09-.11,0-.1-.08-.14-.05,0-.07,0a.14.14,0,0,1-.22,0,.14.14,0,0,1,0-.21.23.23,0,0,1,.26-.07.45.45,0,0,1,.25.36.24.24,0,0,1-.22.25h-.11a1.84,1.84,0,0,1,0,.39,1.53,1.53,0,0,1-.17.37,3.23,3.23,0,0,1,.23.27,1.14,1.14,0,0,1,.12,1.2c0,.08,0,.12,0,.16a.78.78,0,0,1,.27.4,3.48,3.48,0,0,1,.05.36l.25,0a.33.33,0,0,1,.41.32c0,.06-.06.14-.11.19a.17.17,0,0,1-.23,0c-.06,0-.1-.11-.18-.19a.6.6,0,0,1,.2,0c.07,0,.13,0,.15-.05a.14.14,0,0,0-.13-.16.54.54,0,0,0-.39.12,1,1,0,0,1-1.12.15h0c0,.12-.09.23,0,.34s.24,0,.36-.06c0,.21-.09.32-.25.33a.33.33,0,0,1-.34-.31,3.43,3.43,0,0,1,.06-.34s0-.07,0-.09l-.29-.38-.3.37a.25.25,0,0,0,0,.09c0,.1.05.21.06.31a.33.33,0,0,1-.38.34c-.13,0-.21-.14-.21-.31.12.08.23.17.36,0s.06-.22,0-.32c-.19,0-.36.07-.53.08a.77.77,0,0,1-.61-.22.55.55,0,0,0-.42-.14c-.05,0-.1.06-.14.1a.1.1,0,0,0,0,.09.13.13,0,0,0,.09,0l.2,0c0,.16-.17.25-.29.22a.21.21,0,0,1-.17-.31.32.32,0,0,1,.39-.23l.28,0a.75.75,0,0,1,.29-.75c.05-.06.07-.1,0-.17a1.18,1.18,0,0,1,.23-1.34.71.71,0,0,0,.12-.13A1.31,1.31,0,0,1,146,79a2,2,0,0,1,0-.4H146a.24.24,0,0,1-.22-.33.94.94,0,0,1,.16-.23.24.24,0,0,1,.32,0,.16.16,0,0,1,0,.24c-.07.08-.15.07-.23,0s-.08,0-.08,0a.31.31,0,0,0-.07.14s.06.11.1.11a1.13,1.13,0,0,0,.32,0,1.46,1.46,0,0,0,.64-.39s0,0,0-.05a2.08,2.08,0,0,1-1.2-.55,2,2,0,0,1-.61-1.18,1.39,1.39,0,0,0-.37.59,1.21,1.21,0,0,0-.07.33s0,.11.08.13.1,0,.14,0,.06-.07,0-.13a.18.18,0,0,1-.06-.14.24.24,0,0,1,.15-.13s.11,0,.15.09,0,.1,0,.15a.39.39,0,0,1-.45.29c-.13,0-.17-.13-.17-.35a.57.57,0,0,1-.74-.12,1.43,1.43,0,0,1-.73.46,1.15,1.15,0,0,1-.82-.12l-.39.29a.51.51,0,0,1-.47,0c0,.09,0,.17.05.25a.35.35,0,0,1-.27.45.2.2,0,0,1-.23-.09.2.2,0,0,1,0-.26l.16-.14h0a.88.88,0,0,1,0,.17c0,.06,0,.11,0,.14a.14.14,0,0,0,.17-.1.57.57,0,0,0-.12-.42,1,1,0,0,1-.15-1.13v0a.25.25,0,0,0-.33,0c-.09.09-.09.15,0,.36a.29.29,0,0,1-.32-.22.34.34,0,0,1,.3-.36,1.33,1.33,0,0,1,.34,0,.13.13,0,0,0,.15,0l.33-.26-.38-.3a.11.11,0,0,0-.08,0l-.28,0a.34.34,0,0,1-.38-.34c0-.15.13-.24.33-.24-.08.11-.19.23-.06.36s.23,0,.36,0a1.28,1.28,0,0,1-.11-.69.7.7,0,0,1,.18-.4.58.58,0,0,0,.18-.43.25.25,0,0,0-.08-.15.13.13,0,0,0-.12,0s0,.07,0,.11a1.37,1.37,0,0,0,0,.19c-.21-.07-.29-.25-.17-.4a.28.28,0,0,1,.44,0,.43.43,0,0,1,0,.33c0,.07,0,.14,0,.23a.61.61,0,0,1,.56.11,1.24,1.24,0,0,1,.21.18s.07.06.13,0a1.17,1.17,0,0,1,1.4.27c.07.07.12.1.22,0a.44.44,0,0,1,.49-.08l.13,0a1,1,0,0,1,0-.18.24.24,0,0,1,.35-.15c.2.1.27.19.25.34s-.06.18-.16.18a.26.26,0,0,1-.16-.1s0-.11,0-.16.06-.09.05-.1-.09-.08-.13-.07-.08,0-.12.09,0,0,0,.06a1.55,1.55,0,0,0,.45.9A2,2,0,0,1,147,74.05l0-.07a1.57,1.57,0,0,0-.86-.43.13.13,0,0,0-.18.09c0,.09,0,.14.12.19s0,0,0,0,.11-.07.15,0a.22.22,0,0,1,.12.13.19.19,0,0,1-.08.16.26.26,0,0,1-.37-.1q-.2-.33,0-.45a1.44,1.44,0,0,1,.24,0,.54.54,0,0,1,.11-.7c-.12-.18-.25-.32-.35-.49a1.06,1.06,0,0,1,0-1,.13.13,0,0,0,0-.18.83.83,0,0,1-.29-.49,1.13,1.13,0,0,1,0-.26,2,2,0,0,1-.35,0,.32.32,0,0,1-.33-.27.2.2,0,0,1,.12-.24.19.19,0,0,1,.26,0l.11.13v0l-.18,0s-.09,0-.11,0a.11.11,0,0,0,0,.11.27.27,0,0,0,.15.09.63.63,0,0,0,.39-.15,1,1,0,0,1,1.05-.14l.08,0c0-.12.09-.24,0-.34s-.24,0-.35.05a.27.27,0,0,1,.21-.32.33.33,0,0,1,.36.26,1.12,1.12,0,0,1-.05.36.18.18,0,0,0,0,.16,3.85,3.85,0,0,1,.26.34l.3-.38s0-.06,0-.09-.05-.21-.06-.31a.35.35,0,0,1,.35-.35c.14,0,.24.13.24.33-.12-.08-.23-.18-.37-.05s0,.22,0,.34l.09,0a1,1,0,0,1,1,.14.59.59,0,0,0,.4.15c.05,0,.11,0,.16-.08a.11.11,0,0,0,0-.11s-.07,0-.11,0L149,70a.31.31,0,0,1,.23-.23.26.26,0,0,1,.25.19.34.34,0,0,1-.29.37l-.2,0-.2,0a.8.8,0,0,1-.32.8.12.12,0,0,0,0,.1,1.09,1.09,0,0,1,0,.95,3,3,0,0,1-.28.44l-.12.13a.56.56,0,0,1,.11.73h.11a.25.25,0,0,1,.23.37.62.62,0,0,1-.11.17.26.26,0,0,1-.35,0,.16.16,0,0,1,0-.23.15.15,0,0,1,.23,0l.11,0s.06-.11,0-.15a.12.12,0,0,0-.16-.1,1.57,1.57,0,0,0-.92.47v0a2,2,0,0,1,1.79,1.75l.14-.16a1.53,1.53,0,0,0,.32-.68s0-.09,0-.13-.06-.1-.1-.11-.1,0-.14.06a.11.11,0,0,0,0,.09s.09.09,0,.16-.09.12-.14.12-.12-.06-.17-.1a.23.23,0,0,1,0-.12.41.41,0,0,1,.4-.33.26.26,0,0,1,.22.24A.53.53,0,0,0,149.75,75Zm-8.4.71h0l0,0c.19.16.38.34.67.19a.45.45,0,0,1,.55.15.56.56,0,0,1-.64.1.27.27,0,0,0-.15,0,.9.9,0,0,0-.46.27l.84.66a1.72,1.72,0,0,1,.93-1,1.83,1.83,0,0,1-.94-1ZM148.16,71c-.11-.13-.23-.25-.33-.39s-.21-.28-.32-.44c-.07.1-.14.18-.2.28a.35.35,0,0,0,0,.38.54.54,0,0,1-.13.62.58.58,0,0,1-.11-.66.25.25,0,0,0,0-.14,1.06,1.06,0,0,0-.27-.46l-.67.84a1.8,1.8,0,0,1,1,1,1.11,1.11,0,0,1,.4-.57A5.71,5.71,0,0,1,148.16,71Zm4,4a1.76,1.76,0,0,1-.92,1,1.8,1.8,0,0,1,.92,1l.85-.67c-.11-.07-.22-.16-.34-.23a.28.28,0,0,0-.28,0,.33.33,0,1,1,0-.23.28.28,0,0,0,.15,0,.86.86,0,0,0,.46-.27Zm-5,5.56a.55.55,0,0,1,.12.64.28.28,0,0,0,0,.15.82.82,0,0,0,.28.46l.66-.83a1.83,1.83,0,0,1-1-.93,1.79,1.79,0,0,1-1,.93l.67.85a3.07,3.07,0,0,0,.23-.39.3.3,0,0,0,0-.21A.58.58,0,0,1,147.15,80.57Zm0-1a.6.6,0,0,1,.28-.34l.22-.1a.47.47,0,0,0,.33-.47c0-.1,0-.18-.14-.21a.4.4,0,0,1-.17-.09c-.18-.12-.35-.25-.53-.39a2.24,2.24,0,0,1-.75.52.13.13,0,0,0,0,.09.49.49,0,0,0,.36.57A.6.6,0,0,1,147.15,79.58Zm-2-3.58a2,2,0,0,1-.51-.75s-.05,0-.08,0a.48.48,0,0,0-.56.31.67.67,0,0,1-.45.5l0,0a.62.62,0,0,1,.39.43.49.49,0,0,0,.48.38c.11,0,.19,0,.23-.14a.65.65,0,0,1,.11-.22Zm3.93,0a2.21,2.21,0,0,1,.51.76.1.1,0,0,0,.08,0,.49.49,0,0,0,.57-.32l.05-.12a.57.57,0,0,1,.42-.37.64.64,0,0,1-.46-.47.49.49,0,0,0-.5-.36.17.17,0,0,0-.19.13.75.75,0,0,1-.1.2Zm-2-2h0a2.12,2.12,0,0,1,.72-.5.11.11,0,0,0,.06-.09.48.48,0,0,0-.33-.56l-.12,0a.65.65,0,0,1-.37-.43.61.61,0,0,1-.47.47.48.48,0,0,0-.35.5c0,.1,0,.16.13.18a.56.56,0,0,1,.17.09C146.81,73.78,147,73.91,147.17,74.05Zm.09,3.75a1.77,1.77,0,0,0,1.7-1.68c-.13,0-.27.1-.39.16s0,.07,0,.1-.07.25-.12.37-.08.07-.14,0a4.61,4.61,0,0,0-.4-.37,1,1,0,0,0-.54-.19.9.9,0,0,0,.18.52,2.93,2.93,0,0,0,.38.41c.06.06.06.11,0,.14s-.25.08-.37.12-.09,0-.1,0S147.31,77.68,147.26,77.8ZM147,74.24a1.75,1.75,0,0,0-1.69,1.68l.4-.17s0,0,0-.08a2.64,2.64,0,0,1,.07-.3c.07-.18.12-.18.24,0a1.36,1.36,0,0,0,.75.49H147a.89.89,0,0,0-.2-.55,3,3,0,0,0-.35-.37c-.06-.06-.07-.12,0-.15a2.38,2.38,0,0,1,.38-.11s.07,0,.08,0S147,74.36,147,74.24Zm2,1.68c.09-.76-1-1.85-1.7-1.67,0,.1.09.2.12.3s.06.09.13.1a2,2,0,0,1,.35.1c.08,0,.09.09,0,.16a1.72,1.72,0,0,0-.27.27,1.1,1.1,0,0,0-.28.66.94.94,0,0,0,.5-.17,3.79,3.79,0,0,0,.42-.38c.08-.08.11-.09.16,0a2.15,2.15,0,0,1,.11.36s0,.09.05.1Zm-3.65.2A1.77,1.77,0,0,0,147,77.8c0-.11-.09-.21-.12-.31s0-.08-.12-.09a1.4,1.4,0,0,1-.35-.1c-.1,0-.09-.09,0-.17a4,4,0,0,0,.42-.5.63.63,0,0,0,.11-.43,1.16,1.16,0,0,0-.66.28,2.44,2.44,0,0,0-.27.29c-.06,0-.11,0-.13,0s-.09-.26-.13-.38,0-.09-.05-.1A3.52,3.52,0,0,0,145.31,76.12Zm5.73.8,0,0a.57.57,0,0,0,.92.23c-.15-.2-.27-.4-.42-.58a.8.8,0,0,0-.59-.3.15.15,0,0,0-.18.13.14.14,0,0,0,.12.18.74.74,0,0,0,.21,0l.1,0a.52.52,0,0,1-.61.36.9.9,0,0,0,.46.34Zm-3.37,3.15a1.6,1.6,0,0,0,0-.31.14.14,0,0,0-.18-.09.15.15,0,0,0-.13.16.82.82,0,0,0,.15.42,2.29,2.29,0,0,0,.75.59l.08-.15a.51.51,0,0,0-.21-.67l-.09-.08,0,0,.28,0a1,1,0,0,0-.35-.46A.49.49,0,0,1,147.67,80.07Zm-4-4.89a.9.9,0,0,0-.46-.34l0,.28,0,0c-.11-.14-.2-.29-.38-.34a.68.68,0,0,0-.53.12c.14.2.27.4.41.58a.83.83,0,0,0,.6.31.16.16,0,0,0,.17-.12.14.14,0,0,0-.09-.19.67.67,0,0,0-.2,0,.56.56,0,0,0-.12,0A.5.5,0,0,1,143.69,75.18Zm2.37,5.67c.2-.14.4-.27.58-.42a.72.72,0,0,0,.3-.61.17.17,0,0,0-.09-.14.19.19,0,0,0-.16,0,.21.21,0,0,0-.07.24s0,.09,0,.15a.51.51,0,0,1-.35-.61,1,1,0,0,0-.35.46l.28,0,0,0A.57.57,0,0,0,146.06,80.85ZM146,72.1a.65.65,0,0,0,.32.43.47.47,0,0,1,.36-.56c0,.1-.1.2,0,.31a.15.15,0,0,0,.2.08.12.12,0,0,0,.1-.16,1.34,1.34,0,0,0-.13-.4,1.87,1.87,0,0,0-.71-.57.11.11,0,0,0-.08,0,.52.52,0,0,0,.14.76.52.52,0,0,1,.11.1v0Zm5.22,3.41a1.37,1.37,0,0,0-.28,0,.15.15,0,0,0-.13.18.15.15,0,0,0,.18.14.73.73,0,0,0,.41-.15,2.14,2.14,0,0,0,.58-.75l-.2-.1a.48.48,0,0,0-.6.23.76.76,0,0,1-.09.09h0l0-.27a.68.68,0,0,0-.43.33A.48.48,0,0,1,151.21,75.51Zm-8.11,1a1,1,0,0,0,.24,0,.18.18,0,0,0,.17-.18.15.15,0,0,0-.2-.15,1,1,0,0,0-.36.13,1.86,1.86,0,0,0-.61.77,1.28,1.28,0,0,0,.24.11.51.51,0,0,0,.56-.24l.09-.1,0,0,0,.28a1,1,0,0,0,.46-.34A.5.5,0,0,1,143.1,76.52Zm5.16-5.32a2.4,2.4,0,0,0-.75.58.83.83,0,0,0-.15.43.16.16,0,0,0,.3.08.63.63,0,0,0,0-.24,1,1,0,0,1,0-.1.51.51,0,0,1,.36.58.67.67,0,0,0,.32-.43l-.27,0,0,0C148.4,71.87,148.51,71.59,148.26,71.2Zm-.43,3.63a.43.43,0,0,0-.35-.1c-.12,0-.15,0-.17-.13a.6.6,0,0,0-.2-.37,3.73,3.73,0,0,0-.15.38c0,.1-.06.12-.15.11a.48.48,0,0,0-.35.1s0,0,0,0a1.46,1.46,0,0,1,.56.94c0,.07.07,0,.11.06s.09,0,.1-.08a1.39,1.39,0,0,1,.5-.87Zm-1.88.5a.43.43,0,0,0-.1.35c0,.11,0,.14-.13.16a.78.78,0,0,0-.38.2,2.61,2.61,0,0,0,.37.15c.1,0,.14,0,.13.16a.45.45,0,0,0,.1.35l0,0a1.39,1.39,0,0,1,.92-.55c.08,0,.06-.07.06-.12s0-.09-.08-.09a1.27,1.27,0,0,1-.71-.36Zm2.38,0,0,0a1.38,1.38,0,0,1-.91.55c-.08,0-.07.07-.08.13a.08.08,0,0,0,.08.09,1.22,1.22,0,0,1,.8.43l.14.15h.05a1.59,1.59,0,0,0,.06-.3c0-.17,0-.16.17-.21s.21-.1.33-.15a.73.73,0,0,0-.39-.2c-.09,0-.12-.06-.11-.15A.46.46,0,0,0,148.33,75.34Zm-.49,1.86-.11-.08a1.39,1.39,0,0,1-.48-.83c0-.08-.05-.1-.12-.1s-.1,0-.11.1a1.27,1.27,0,0,1-.39.75l-.18.18a.5.5,0,0,0,.39.09c.07,0,.1,0,.11.09a.7.7,0,0,0,.06.19,2,2,0,0,0,.11.2h0a2.15,2.15,0,0,0,.13-.32c0-.13.07-.18.2-.16A.43.43,0,0,0,147.84,77.2Zm.48,3.89-.23.27c-.13.16-.25.32-.37.49a.14.14,0,0,0,0,.11c.14.07.27.15.43.07a.4.4,0,0,0,.22-.39s0-.1,0-.16l.24.08A.52.52,0,0,0,148.32,81.09ZM146,70.94l.27-.3c.11-.15.23-.3.34-.46a.12.12,0,0,0,0-.1c-.13-.07-.26-.16-.42-.08a.39.39,0,0,0-.23.38c0,.05,0,.11,0,.17l-.24-.07A.49.49,0,0,0,146,70.94Zm6.24,3.91c.1.09.19.18.28.25s.27.23.41.32.16.1.23-.07a.35.35,0,0,0-.31-.53h-.22l.08-.23A.49.49,0,0,0,152.23,74.85Zm-3.89-4.29c0-.24,0-.45-.22-.56s-.3,0-.45.1a5.56,5.56,0,0,0,.64.85.48.48,0,0,0,.27-.47Zm-2.62,11,.24-.08v.08a.42.42,0,0,0,.19.46.41.41,0,0,0,.4,0c.07,0,.11-.07,0-.14l-.58-.73s-.05,0-.06,0A.52.52,0,0,0,145.72,81.56Zm-3.63-4.37-.27-.24-.5-.38h-.1a.45.45,0,0,0-.08.42.37.37,0,0,0,.35.23h.2l-.08.26A.61.61,0,0,0,142.09,77.19Zm10.53,0h.13a.38.38,0,0,0,.41-.21.4.4,0,0,0,0-.38c0-.09-.09-.1-.16,0l-.75.58a.51.51,0,0,0,.48.28Zm-10.54-2.35a.47.47,0,0,0-.47-.27l.08.24c-.23,0-.44,0-.55.22s0,.31.1.45A4.78,4.78,0,0,0,142.08,74.86Zm5,1.07c-.08,0-.09,0-.09.1s0,.08.09.09.1-.05.1-.11S147.19,75.92,147.13,75.93Z" transform="translate(-16.63)"/><path d="M139.72,76.15c-.09,0-.17.11-.22.09a1.49,1.49,0,0,1-.31-.2s0-.05,0-.07l.13-.12c.16-.1.23-.09.37.05.27-.32.57-.28.86.11C140.29,76.4,140,76.45,139.72,76.15Zm.54-.12c-.11-.12-.23-.14-.33-.06s-.05.07,0,.11S140.11,76.14,140.26,76Z" transform="translate(-16.63)"/><path d="M147.27,68.56c.29.23.3.46,0,.77l-.12.1c-.39-.3-.44-.62-.13-.85,0-.08-.1-.15-.1-.22a.41.41,0,0,1,.23-.32C147.4,68.19,147.44,68.4,147.27,68.56Zm-.12.19c-.13.11-.13.22,0,.37C147.28,69,147.28,68.86,147.15,68.75Z" transform="translate(-16.63)"/><path d="M147.15,84c-.25-.19-.28-.37-.1-.53a.38.38,0,0,1-.22-.38.82.82,0,0,1,.34-.5,2.51,2.51,0,0,1,.25.32c.14.22.08.39-.16.56C147.44,83.64,147.4,83.85,147.15,84Zm0-1.09c-.13.16-.13.28,0,.37C147.28,83.17,147.28,83.07,147.15,82.91Z" transform="translate(-16.63)"/><path d="M154.61,75.92c.16-.19.37-.15.52.09-.14.25-.35.29-.52.11l-.05.07a.33.33,0,0,1-.41.13,1.89,1.89,0,0,1-.38-.27.09.09,0,0,1,0-.07.69.69,0,0,1,.43-.29A.37.37,0,0,1,154.61,75.92Zm-.55.1q.19.21.36,0C154.31,75.89,154.2,75.89,154.06,76Z" transform="translate(-16.63)"/><path class="cls-5" d="M141.35,75.67l.83-.66a1.83,1.83,0,0,0,.94,1,1.72,1.72,0,0,0-.93,1l-.84-.66a.9.9,0,0,1,.46-.27.27.27,0,0,1,.15,0,.56.56,0,0,0,.64-.1.45.45,0,0,0-.55-.15c-.29.15-.48,0-.67-.19l0,0Z" transform="translate(-16.63)"/><path class="cls-5" d="M148.16,71a5.71,5.71,0,0,0-.6.41,1.11,1.11,0,0,0-.4.57,1.8,1.8,0,0,0-1-1l.67-.84a1.06,1.06,0,0,1,.27.46.25.25,0,0,1,0,.14.58.58,0,0,0,.11.66.54.54,0,0,0,.13-.62.35.35,0,0,1,0-.38c.06-.1.13-.18.2-.28.11.16.21.3.32.44S148.05,70.89,148.16,71Z" transform="translate(-16.63)"/><path class="cls-5" d="M152.12,75l.84.66a.86.86,0,0,1-.46.27.28.28,0,0,1-.15,0,.33.33,0,1,0,0,.23.28.28,0,0,1,.28,0c.12.07.23.16.34.23l-.85.67a1.8,1.8,0,0,0-.92-1A1.76,1.76,0,0,0,152.12,75Z" transform="translate(-16.63)"/><path class="cls-5" d="M147.15,80.57a.58.58,0,0,0-.1.67.3.3,0,0,1,0,.21,3.07,3.07,0,0,1-.23.39l-.67-.85a1.79,1.79,0,0,0,1-.93,1.83,1.83,0,0,0,1,.93l-.66.83a.82.82,0,0,1-.28-.46.28.28,0,0,1,0-.15A.55.55,0,0,0,147.15,80.57Z" transform="translate(-16.63)"/><path class="cls-5" d="M147.15,79.58a.6.6,0,0,0-.45-.42.49.49,0,0,1-.36-.57.13.13,0,0,1,0-.09,2.24,2.24,0,0,0,.75-.52c.18.14.35.27.53.39a.4.4,0,0,0,.17.09c.12,0,.14.11.14.21a.47.47,0,0,1-.33.47l-.22.1A.6.6,0,0,0,147.15,79.58Zm0-1.3a2,2,0,0,0-.13.24.23.23,0,0,0,0,.31c.1.09.09.17,0,.26a.1.1,0,0,0,0,.17.13.13,0,0,0,.2,0,.11.11,0,0,0,0-.17c-.11-.1-.11-.15,0-.27a.23.23,0,0,0,0-.28A2.36,2.36,0,0,0,147.15,78.28Z" transform="translate(-16.63)"/><path class="cls-5" d="M145.19,76l-.36.48a.65.65,0,0,0-.11.22c0,.13-.12.15-.23.14a.49.49,0,0,1-.48-.38.62.62,0,0,0-.39-.43l0,0a.67.67,0,0,0,.45-.5.48.48,0,0,1,.56-.31s.07,0,.08,0A2,2,0,0,0,145.19,76Zm-.3,0a1.38,1.38,0,0,0-.22-.13c-.15-.08-.21-.07-.34,0a.14.14,0,0,1-.24,0c-.06-.06-.12-.07-.18,0a.13.13,0,0,0,0,.2.11.11,0,0,0,.18,0c.1-.1.15-.11.25,0a.25.25,0,0,0,.29.06Z" transform="translate(-16.63)"/><path class="cls-5" d="M149.12,76l.38-.51a.75.75,0,0,0,.1-.2.17.17,0,0,1,.19-.13.49.49,0,0,1,.5.36.64.64,0,0,0,.46.47.57.57,0,0,0-.42.37l-.05.12a.49.49,0,0,1-.57.32.1.1,0,0,1-.08,0A2.21,2.21,0,0,0,149.12,76Zm.29,0,.26.14a.25.25,0,0,0,.3,0c.09-.1.16-.09.26,0a.1.1,0,0,0,.17,0,.13.13,0,0,0,0-.2c-.06,0-.12-.06-.17,0s-.16.1-.27,0-.14-.09-.2-.07A2.05,2.05,0,0,0,149.41,76Z" transform="translate(-16.63)"/><path class="cls-5" d="M147.17,74.05c-.19-.14-.36-.27-.54-.39a.56.56,0,0,0-.17-.09c-.1,0-.13-.08-.13-.18a.48.48,0,0,1,.35-.5.61.61,0,0,0,.47-.47.65.65,0,0,0,.37.43l.12,0a.48.48,0,0,1,.33.56.11.11,0,0,1-.06.09,2.12,2.12,0,0,0-.72.5Zm0-.29a2.74,2.74,0,0,0,.15-.29.2.2,0,0,0-.05-.25c-.11-.11-.11-.17,0-.28a.1.1,0,0,0,0-.16.13.13,0,0,0-.2,0,.12.12,0,0,0,0,.18c.1.1.11.16,0,.26a.21.21,0,0,0-.06.26C147,73.56,147.09,73.65,147.15,73.76Z" transform="translate(-16.63)"/><path class="cls-5" d="M147.26,77.8c.05-.12.09-.25.14-.36s.06,0,.1,0,.25-.07.37-.12.07-.08,0-.14a2.93,2.93,0,0,1-.38-.41.9.9,0,0,1-.18-.52,1,1,0,0,1,.54.19,4.61,4.61,0,0,1,.4.37c.06.06.11.07.14,0s.08-.24.12-.37,0-.08,0-.1.26-.11.39-.16A1.77,1.77,0,0,1,147.26,77.8Zm.33-1.34s0,.05,0,.06a1.05,1.05,0,0,0,.51.53.08.08,0,0,0,.07,0,.11.11,0,0,0,0-.08,1,1,0,0,0-.47-.48S147.63,76.47,147.59,76.46Z" transform="translate(-16.63)"/><path class="cls-5" d="M147,74.24c0,.12-.09.24-.14.35s-.05,0-.08,0a2.38,2.38,0,0,0-.38.11c-.08,0-.07.09,0,.15a3,3,0,0,1,.35.37.89.89,0,0,1,.2.55h-.13a1.36,1.36,0,0,1-.75-.49c-.12-.14-.17-.14-.24,0a2.64,2.64,0,0,0-.07.3s0,.07,0,.08l-.4.17A1.75,1.75,0,0,1,147,74.24Zm-.91.72V75a1.05,1.05,0,0,0,.5.52s.06,0,.08,0a.17.17,0,0,0,0-.1,1.08,1.08,0,0,0-.45-.45Z" transform="translate(-16.63)"/><path class="cls-5" d="M149,75.92l-.4-.16s0-.07-.05-.1a2.15,2.15,0,0,0-.11-.36c-.05-.1-.08-.09-.16,0a3.79,3.79,0,0,1-.42.38.94.94,0,0,1-.5.17,1.1,1.1,0,0,1,.28-.66,1.72,1.72,0,0,1,.27-.27c.08-.07.07-.12,0-.16a2,2,0,0,0-.35-.1c-.07,0-.11,0-.13-.1s-.08-.2-.12-.3C147.94,74.07,149.05,75.16,149,75.92Zm-1.37-.35a.8.8,0,0,0,.57-.58C148,75,147.59,75.36,147.59,75.57Z" transform="translate(-16.63)"/><path class="cls-5" d="M145.31,76.12a3.52,3.52,0,0,1,.39.16s0,.06.05.1.08.25.13.38.07.06.13,0a2.44,2.44,0,0,1,.27-.29,1.16,1.16,0,0,1,.66-.28.63.63,0,0,1-.11.43,4,4,0,0,1-.42.5c-.08.08-.09.12,0,.17a1.4,1.4,0,0,0,.35.1c.07,0,.1,0,.12.09s.08.2.12.31A1.77,1.77,0,0,1,145.31,76.12Zm1.37.35c-.2,0-.6.39-.56.57A.79.79,0,0,0,146.68,76.47Z" transform="translate(-16.63)"/><path class="cls-5" d="M151,76.92l0,.28a.9.9,0,0,1-.46-.34.52.52,0,0,0,.61-.36l-.1,0a.74.74,0,0,1-.21,0,.14.14,0,0,1-.12-.18.15.15,0,0,1,.18-.13.8.8,0,0,1,.59.3c.15.18.27.38.42.58a.57.57,0,0,1-.92-.23Z" transform="translate(-16.63)"/><path class="cls-5" d="M147.67,80.07a.49.49,0,0,0,.32-.59,1,1,0,0,1,.35.46l-.28,0,0,0,.09.08a.51.51,0,0,1,.21.67l-.08.15a2.29,2.29,0,0,1-.75-.59.82.82,0,0,1-.15-.42.15.15,0,0,1,.13-.16.14.14,0,0,1,.18.09A1.6,1.6,0,0,1,147.67,80.07Z" transform="translate(-16.63)"/><path class="cls-5" d="M143.69,75.18a.5.5,0,0,0-.6.35.56.56,0,0,1,.12,0,.67.67,0,0,1,.2,0,.14.14,0,0,1,.09.19.16.16,0,0,1-.17.12.83.83,0,0,1-.6-.31c-.14-.18-.27-.38-.41-.58a.68.68,0,0,1,.53-.12c.18,0,.27.2.38.34l0,0,0-.28A.9.9,0,0,1,143.69,75.18Z" transform="translate(-16.63)"/><path class="cls-5" d="M146.06,80.85a.57.57,0,0,1,.23-.91l0,0-.28,0a1,1,0,0,1,.35-.46.51.51,0,0,0,.35.61c0-.06,0-.11,0-.15a.21.21,0,0,1,.07-.24.19.19,0,0,1,.16,0,.17.17,0,0,1,.09.14.72.72,0,0,1-.3.61C146.46,80.58,146.26,80.71,146.06,80.85Z" transform="translate(-16.63)"/><path class="cls-5" d="M146,72.1l.27,0v0a.52.52,0,0,0-.11-.1.52.52,0,0,1-.14-.76.11.11,0,0,1,.08,0,1.87,1.87,0,0,1,.71.57,1.34,1.34,0,0,1,.13.4.12.12,0,0,1-.1.16.15.15,0,0,1-.2-.08c-.07-.11,0-.21,0-.31a.47.47,0,0,0-.36.56A.65.65,0,0,1,146,72.1Z" transform="translate(-16.63)"/><path class="cls-5" d="M151.21,75.51a.48.48,0,0,0-.57-.33.68.68,0,0,1,.43-.33l0,.27h0a.76.76,0,0,0,.09-.09.48.48,0,0,1,.6-.23l.2.1a2.14,2.14,0,0,1-.58.75.73.73,0,0,1-.41.15.15.15,0,0,1-.18-.14.15.15,0,0,1,.13-.18A1.37,1.37,0,0,1,151.21,75.51Z" transform="translate(-16.63)"/><path class="cls-5" d="M143.1,76.52a.5.5,0,0,0,.59.34,1,1,0,0,1-.46.34l0-.28,0,0-.09.1a.51.51,0,0,1-.56.24,1.28,1.28,0,0,1-.24-.11,1.86,1.86,0,0,1,.61-.77,1,1,0,0,1,.36-.13.15.15,0,0,1,.2.15.18.18,0,0,1-.17.18A1,1,0,0,1,143.1,76.52Z" transform="translate(-16.63)"/><path class="cls-5" d="M148.26,71.2c.25.39.14.67-.24.9l0,0,.27,0a.67.67,0,0,1-.32.43.51.51,0,0,0-.36-.58,1,1,0,0,0,0,.1.63.63,0,0,1,0,.24.16.16,0,0,1-.3-.08.83.83,0,0,1,.15-.43A2.4,2.4,0,0,1,148.26,71.2Z" transform="translate(-16.63)"/><path class="cls-5" d="M147.83,74.83l-.08.07a1.39,1.39,0,0,0-.5.87c0,.06,0,.09-.1.08s-.11,0-.11-.06a1.46,1.46,0,0,0-.56-.94s0,0,0,0a.48.48,0,0,1,.35-.1c.09,0,.13,0,.15-.11a3.73,3.73,0,0,1,.15-.38.6.6,0,0,1,.2.37c0,.1.05.14.17.13A.43.43,0,0,1,147.83,74.83Zm-.72.34h-.05c-.11-.11-.18-.28-.34-.35l.41.72.41-.71c-.16.06-.22.23-.34.34h0v-.53h0Z" transform="translate(-16.63)"/><path class="cls-5" d="M146,75.33l.22.22a1.27,1.27,0,0,0,.71.36c.06,0,.09,0,.08.09s0,.11-.06.12a1.39,1.39,0,0,0-.92.55l0,0a.45.45,0,0,1-.1-.35c0-.11,0-.14-.13-.16a2.61,2.61,0,0,1-.37-.15.78.78,0,0,1,.38-.2c.1,0,.14,0,.13-.16A.43.43,0,0,1,146,75.33Zm0,1.08h0l.72-.4-.72-.41,0,0,.36.33v0h-.53v.06h.54v0Z" transform="translate(-16.63)"/><path class="cls-5" d="M148.33,75.34a.46.46,0,0,1,.1.35c0,.09,0,.14.11.15a.73.73,0,0,1,.39.2c-.12,0-.22.11-.33.15s-.15,0-.17.21a1.59,1.59,0,0,1-.06.3h-.05l-.14-.15a1.22,1.22,0,0,0-.8-.43.08.08,0,0,1-.08-.09c0-.06,0-.12.08-.13a1.38,1.38,0,0,0,.91-.55Zm0,.27-.76.43a2.37,2.37,0,0,1,.75.4c-.07-.17-.24-.24-.36-.37a5,5,0,0,0,.56,0V76H148v0C148.09,75.84,148.25,75.77,148.33,75.61Z" transform="translate(-16.63)"/><path class="cls-5" d="M147.84,77.2a.43.43,0,0,1-.34.11c-.13,0-.17,0-.2.16a2.15,2.15,0,0,1-.13.32h0a2,2,0,0,1-.11-.2.7.7,0,0,1-.06-.19c0-.07,0-.09-.11-.09a.5.5,0,0,1-.39-.09l.18-.18a1.27,1.27,0,0,0,.39-.75c0-.06,0-.11.11-.1s.11,0,.12.1a1.39,1.39,0,0,0,.48.83Zm-1.13,0c.18-.06.24-.23.38-.36v.3c0,.09,0,.18,0,.27h.06v-.54h0c.12.11.18.29.34.35l-.42-.75A2.1,2.1,0,0,1,146.71,77.2Z" transform="translate(-16.63)"/><path class="cls-5" d="M148.32,81.09a.52.52,0,0,1,.27.47l-.24-.08c0,.06,0,.11,0,.16a.4.4,0,0,1-.22.39c-.16.08-.29,0-.43-.07a.14.14,0,0,1,0-.11c.12-.17.24-.33.37-.49Z" transform="translate(-16.63)"/><path class="cls-5" d="M146,70.94a.49.49,0,0,1-.27-.46l.24.07c0-.06,0-.12,0-.17a.39.39,0,0,1,.23-.38c.16-.08.29,0,.42.08a.12.12,0,0,1,0,.1c-.11.16-.23.31-.34.46Z" transform="translate(-16.63)"/><path class="cls-5" d="M152.23,74.85a.49.49,0,0,1,.47-.26l-.08.23h.22a.35.35,0,0,1,.31.53c-.07.17-.08.17-.23.07s-.27-.21-.41-.32S152.33,74.94,152.23,74.85Z" transform="translate(-16.63)"/><path class="cls-5" d="M148.34,70.56l.24-.08a.48.48,0,0,1-.27.47,5.56,5.56,0,0,1-.64-.85c.15-.07.27-.18.45-.1S148.38,70.32,148.34,70.56Z" transform="translate(-16.63)"/><path class="cls-5" d="M145.72,81.56a.52.52,0,0,1,.24-.45s0,0,.06,0l.58.73c.06.07,0,.11,0,.14a.41.41,0,0,1-.4,0,.42.42,0,0,1-.19-.46v-.08Z" transform="translate(-16.63)"/><path class="cls-5" d="M142.09,77.19a.61.61,0,0,1-.48.28l.08-.26h-.2a.37.37,0,0,1-.35-.23.45.45,0,0,1,.08-.42h.1l.5.38Z" transform="translate(-16.63)"/><path class="cls-5" d="M152.62,77.21l.08.24a.51.51,0,0,1-.48-.28l.75-.58c.07-.06.11,0,.16,0a.4.4,0,0,1,0,.38.38.38,0,0,1-.41.21Z" transform="translate(-16.63)"/><path class="cls-5" d="M142.08,74.86a4.78,4.78,0,0,1-.84.64c-.08-.14-.18-.28-.1-.45s.32-.25.55-.22l-.08-.24A.47.47,0,0,1,142.08,74.86Z" transform="translate(-16.63)"/><path class="cls-5" d="M147.13,75.93c.06,0,.1,0,.1.08s0,.11-.1.11-.09,0-.09-.09S147.05,75.92,147.13,75.93Z" transform="translate(-16.63)"/><path class="cls-5" d="M147.15,82.91c.13.16.13.26,0,.37C147,83.19,147,83.07,147.15,82.91Z" transform="translate(-16.63)"/><path class="cls-5" d="M154.06,76c.14-.13.25-.13.36,0Q154.26,76.23,154.06,76Z" transform="translate(-16.63)"/><path d="M147.15,78.28a2.36,2.36,0,0,1,.14.26.23.23,0,0,1,0,.28c-.11.12-.11.17,0,.27a.11.11,0,0,1,0,.17.13.13,0,0,1-.2,0,.1.1,0,0,1,0-.17c.09-.09.1-.17,0-.26a.23.23,0,0,1,0-.31A2,2,0,0,1,147.15,78.28Z" transform="translate(-16.63)"/><path d="M144.89,76l-.26.14a.25.25,0,0,1-.29-.06c-.1-.1-.15-.09-.25,0a.11.11,0,0,1-.18,0,.13.13,0,0,1,0-.2c.06-.06.12,0,.18,0a.14.14,0,0,0,.24,0c.13-.12.19-.13.34,0A1.38,1.38,0,0,1,144.89,76Z" transform="translate(-16.63)"/><path d="M149.41,76a2.05,2.05,0,0,1,.35-.16c.06,0,.14,0,.2.07s.17.1.27,0,.11,0,.17,0a.13.13,0,0,1,0,.2.1.1,0,0,1-.17,0c-.1-.1-.17-.11-.26,0a.25.25,0,0,1-.3,0Z" transform="translate(-16.63)"/><path d="M147.15,73.76c-.06-.11-.11-.2-.15-.29a.21.21,0,0,1,.06-.26c.1-.1.09-.16,0-.26a.12.12,0,0,1,0-.18.13.13,0,0,1,.2,0,.1.1,0,0,1,0,.16c-.11.11-.11.17,0,.28a.2.2,0,0,1,.05.25A2.74,2.74,0,0,1,147.15,73.76Z" transform="translate(-16.63)"/><path d="M147.59,76.46s.08,0,.1,0a1,1,0,0,1,.47.48.11.11,0,0,1,0,.08.08.08,0,0,1-.07,0,1.05,1.05,0,0,1-.51-.53S147.59,76.49,147.59,76.46Z" transform="translate(-16.63)"/><path d="M146.1,75l.12,0a1.08,1.08,0,0,1,.45.45.17.17,0,0,1,0,.1s-.06,0-.08,0a1.05,1.05,0,0,1-.5-.52Z" transform="translate(-16.63)"/><path d="M147.59,75.57c0-.21.38-.59.57-.58A.8.8,0,0,1,147.59,75.57Z" transform="translate(-16.63)"/><path d="M146.68,76.47a.79.79,0,0,1-.56.57C146.08,76.86,146.48,76.46,146.68,76.47Z" transform="translate(-16.63)"/><path d="M147.11,75.17v-.54h0v.53h0c.12-.11.18-.28.34-.34l-.41.71-.41-.72c.16.07.23.24.34.35Z" transform="translate(-16.63)"/><path d="M145.93,76.41l.36-.32v0h-.54V76h.53v0l-.36-.33,0,0,.72.41-.72.4Z" transform="translate(-16.63)"/><path d="M148.33,75.61c-.08.16-.24.23-.36.34v0h.54V76a5,5,0,0,1-.56,0c.12.13.29.2.36.37a2.37,2.37,0,0,0-.75-.4Z" transform="translate(-16.63)"/><path d="M146.71,77.2a2.1,2.1,0,0,0,.41-.74l.42.75c-.16-.06-.22-.24-.34-.35h0v.54h-.06c0-.09,0-.18,0-.27v-.3C147,77,146.89,77.14,146.71,77.2Z" transform="translate(-16.63)"/><path d="M27.87,69.25h2.28a.22.22,0,0,0,.23-.13c.37-.64.74-1.28,1.1-1.92.07-.1.13-.21.2-.33l.49.85L33,69.14a.22.22,0,0,0,.21.12H35.5l-.23.29-1.42,1.68a.31.31,0,0,0-.06.16V73.8c0,.09,0,.11.11.11h2.4a.32.32,0,0,0,.19-.07l1.87-1.56a.28.28,0,0,1,.08-.06s0,.08,0,.11c0,.72,0,1.43,0,2.15a.26.26,0,0,0,.14.25l2,1.14.26.15-.72.42-1.54.89a.21.21,0,0,0-.12.21c0,.72,0,1.44,0,2.16v.14l-.33-.27-1.66-1.39a.22.22,0,0,0-.14-.05H33.91c-.1,0-.12,0-.12.13,0,.8,0,1.6,0,2.4a.32.32,0,0,0,.06.17l1.57,1.88.06.08h-2.3a.2.2,0,0,0-.21.11c-.28.5-.58,1-.86,1.5l-.44.76-.2-.33c-.33-.57-.65-1.15-1-1.73-.18-.31-.19-.31-.55-.31H27.87l.17-.21,1.47-1.76a.25.25,0,0,0,.06-.15V78.23c0-.08,0-.1-.1-.1H27a.19.19,0,0,0-.14.07L25,79.77l-.08.06V79.7c0-.71,0-1.42,0-2.14a.25.25,0,0,0-.15-.25l-1.52-.88L22.53,76l.13-.07,2.13-1.23a.22.22,0,0,0,.12-.22V72.21l.12.09,1.86,1.56a.24.24,0,0,0,.13,0h2.46c.07,0,.09,0,.09-.09,0-.82,0-1.64,0-2.46a.25.25,0,0,0-.06-.14l-1.56-1.87ZM40.06,76,40,76l-.86-.48-1-.58A.23.23,0,0,1,38,74.7V73.09l-.07,0L36.6,74.28a.36.36,0,0,1-.2.08H33.49c-.15,0-.15,0-.15-.15V71.28a.31.31,0,0,1,.06-.16c.32-.39.66-.77,1-1.16l.24-.29H33.28a.89.89,0,0,1-.4,0c-.11-.05-.17-.21-.25-.32l0,0-.78-1.4-.15-.24c-.16.29-.3.56-.46.82s-.44.75-.65,1.12a.19.19,0,0,1-.18.09H28.75l0,.07L30,71.12a.25.25,0,0,1,.06.16c0,1,0,2,0,3,0,.09,0,.11-.11.11h-3a.25.25,0,0,1-.12,0l-1.37-1.16-.1-.07v1.63a.17.17,0,0,1-.1.18l-1.35.79L23.3,76l.09.07.68.38,1.18.69a.17.17,0,0,1,.08.16V79l.12-.09,1.34-1.13a.19.19,0,0,1,.13,0h3c.08,0,.11,0,.11.1,0,1,0,2,0,3a.2.2,0,0,1,0,.13l-1,1.14-.26.32h1.61a.25.25,0,0,1,.25.13c.24.44.5.87.75,1.31.11.19.22.38.33.59l0-.07c.14-.24.27-.49.41-.72.22-.39.45-.77.67-1.15a.17.17,0,0,1,.17-.09h1.64l0-.07L33.4,80.93a.31.31,0,0,1-.06-.16v-3c0-.09,0-.12.11-.12h3a.22.22,0,0,1,.13,0l1.1.94L38,79a.76.76,0,0,0,0-.14V77.34a.22.22,0,0,1,.11-.22l1.31-.75Z" transform="translate(-16.63)"/><path d="M35.6,71v1.08h0s.13,0,.1.06-.11,0-.17,0h-.28l-.07,0,.05-.05s0,0,0-.08c0-.33,0-.66,0-1,0-.06,0-.08-.08-.08-.3,0-.3,0-.3.28V72s0,.11.07.12a.11.11,0,0,1,0,.05l0,0h-.45a0,0,0,0,1,0,0s0,0,0,0,.1-.06.1-.13v-.87c0-.09,0-.17-.13-.15s0-.11.09-.11h1a.56.56,0,0,1,.12,0Z" transform="translate(-16.63)"/><path d="M36.48,81.44h-.13s0,0,0,0,0-.18-.16-.2a.33.33,0,0,1-.24-.22,2.7,2.7,0,0,1-.08-.39.16.16,0,0,1,.3-.06.3.3,0,0,1,0,.13L36,80.63a.25.25,0,0,1-.05-.07.32.32,0,0,0,0,.3.4.4,0,0,0,.35.26c0-.09.07-.19-.08-.23s0-.09,0-.09.07-.06.07-.1a2.81,2.81,0,0,1,0-.29c0-.07,0-.15-.1-.14a.08.08,0,0,1,0,0s0,0,0,0h.2s0,0,.05.06v.16h.15a.31.31,0,0,1,.29.46.57.57,0,0,1-.31.3c-.11,0-.15.09-.13.2S36.48,81.42,36.48,81.44Zm0-.37a.4.4,0,0,0,.25-.24.17.17,0,0,0-.05-.25.53.53,0,0,0-.17,0,1.13,1.13,0,0,0,0,.18s0,0,.08.08a.07.07,0,0,1,0,0s0,.05,0,.05S36.5,81,36.49,81.07Z" transform="translate(-16.63)"/><path d="M26.89,81.27c-.12.09-.23.12-.34,0A.28.28,0,0,1,26.1,81a1.3,1.3,0,0,1,.08-.34s.06,0,.09-.05,0,.07,0,.1a2.17,2.17,0,0,0-.07.24.38.38,0,0,0,.05.21.15.15,0,0,0,.13.07c.08,0,.1-.08.08-.16a1.05,1.05,0,0,1-.05-.19.33.33,0,0,1,.1-.28c.13.09.15.22.1.4s0,.23.06.24.16-.07.16-.2a1.54,1.54,0,0,0,0-.3s0-.09,0-.13.08.05.09.09a1,1,0,0,1,0,.73.29.29,0,0,1-.49.17c-.1-.06-.11-.06-.18,0s.09.06.09.09,0,.12-.08.13-.11,0-.12-.1a.28.28,0,0,1,.3-.34,1.17,1.17,0,0,1,.2.06C26.79,81.52,26.9,81.44,26.89,81.27Z" transform="translate(-16.63)"/><path d="M25.71,80.36h-.05c-.19,0-.19,0-.19.17v.65a.36.36,0,0,0,0,.1.43.43,0,0,1,0,.07H25.2s0-.06,0-.06.08-.11.08-.18v-.66s0-.11-.06-.12,0,0,0-.06a.09.09,0,0,1,0,0H26s0,0,0,0l0,0s-.05.07-.05.11c0,.24,0,.49,0,.73,0,0,0,.06.05.1l0,0,0,0a.88.88,0,0,1-.23,0l-.06,0a.13.13,0,0,1,0,0s0,0,0-.07Z" transform="translate(-16.63)"/><path d="M36,72c.06.12.11.07.16,0l.07-.08c.14-.19.12-.28-.07-.4,0,0-.09.11-.14.11a.17.17,0,0,1-.13-.1A.23.23,0,0,1,36,71.4a.17.17,0,0,1,.29,0c.06.08.1.16.17.27l.09-.19a.25.25,0,0,1,.33-.14.18.18,0,0,1,.1.07s0,.07-.07.12c-.06-.11-.11-.08-.15,0a1.27,1.27,0,0,0-.1.12c-.13.17-.11.27.06.38s.11-.1.16-.1.11.07.13.12,0,.14-.11.19a.14.14,0,0,1-.21,0,.66.66,0,0,1-.12-.17l-.09-.14-.08.17a.24.24,0,0,1-.28.16.77.77,0,0,1-.16-.07Z" transform="translate(-16.63)"/><path d="M37.38,80.52l0,.19-.28-.3.32,0c.09,0,.12,0,.11-.11a1.34,1.34,0,0,0,0-.2c0-.07,0-.11.1-.11s.1,0,.1.11,0,.16,0,.23,0,.08.08.08a1.34,1.34,0,0,1,.2,0s.05,0,.08,0,0,0-.08.06-.21,0-.26,0,0,.17,0,.27,0,.34,0,.5a.21.21,0,0,1-.12.14s-.1,0-.14,0,0-.08,0-.12l.12,0v-.73Z" transform="translate(-16.63)"/><path d="M34.64,81.16s0,0,.08-.06.12-.13.09-.24a.83.83,0,0,1,0-.22.17.17,0,0,1,.15-.18c.07,0,.16.08.16.18a2.27,2.27,0,0,1-.06.25S35,81,35,81a.24.24,0,0,0,.27,0,.13.13,0,0,0,.07-.15,2,2,0,0,1-.05-.26c0-.11.07-.21.16-.2a.18.18,0,0,1,.15.21,1,1,0,0,1-.06.23c0,.08,0,.14.05.18l.06,0a.13.13,0,0,1,0,.06s0,0-.06,0a.88.88,0,0,0-.36,0,.42.42,0,0,1-.25,0,.17.17,0,0,0-.22,0S34.72,81.24,34.64,81.16Z" transform="translate(-16.63)"/><path d="M26,70.64v1.12c0,.07,0,.15.1.14s0,0,0,0a.08.08,0,0,1,0,0h-.4s0,0-.05,0l0,0c.08,0,.08,0,.08-.1v-1s0-.07-.06-.1,0,0,0,0,0,0,0,0Z" transform="translate(-16.63)"/><path d="M26.31,71.86a.29.29,0,0,0,.05-.13c0-.12,0-.25,0-.37s0-.15.07-.16a.14.14,0,0,1,.17.11h0l-.06.26h.29s.05,0,.05-.06,0-.1,0-.15,0-.14.05-.14a.43.43,0,0,1,.18.06s0,0,0,0a1,1,0,0,0,0,.17V72h-.18v-.31h-.11c-.21,0-.21,0-.23.2,0,0,0,.09-.07.09s-.16,0-.19-.09Z" transform="translate(-16.63)"/><path d="M27.79,80.59c.08,0,.16,0,.24,0s.12,0,.16.06a.5.5,0,0,1,0,.55c-.06.09-.13.08-.23,0,0,.15,0,.27,0,.4a.39.39,0,0,1-.05.14l-.16-.09,0,0a.44.44,0,0,0,.05-.15,4,4,0,0,0,0-.49C27.82,80.85,27.8,80.73,27.79,80.59Zm.33.3a.58.58,0,0,0,0-.14s0,0-.06-.08a.45.45,0,0,0-.07.07c0,.11,0,.22,0,.33s0,.05.06.05a.12.12,0,0,0,.06-.06A1.22,1.22,0,0,0,28.12,80.89Z" transform="translate(-16.63)"/><path d="M27.62,81.35h-.14v-.22c0-.09-.07-.07-.12-.07s-.12,0-.11.07v.07c0,.06,0,.14-.07.14s-.1,0-.15-.07l0,0a.75.75,0,0,0,0-.16c0-.12,0-.24,0-.36s0-.09.06-.1a.11.11,0,0,1,.1,0s0,.07,0,.1,0,.15,0,.17.12,0,.18,0,0,0,0-.07a.61.61,0,0,1,0-.19s.05,0,.09-.08.08.08.08.12a2,2,0,0,1,0,.26Z" transform="translate(-16.63)"/><path d="M27.94,71.35a.14.14,0,0,1-.19,0,.25.25,0,0,0-.14-.06s-.1.07-.1.11a1.55,1.55,0,0,0,0,.43.14.14,0,0,0,.1.11.2.2,0,0,0,.14,0c.08-.06.09-.07.18,0a.35.35,0,0,1-.41.13.4.4,0,0,1,0-.75A.36.36,0,0,1,27.94,71.35Z" transform="translate(-16.63)"/><path d="M37.82,72a.35.35,0,0,1-.42.13.38.38,0,0,1-.26-.36.4.4,0,0,1,.24-.38.37.37,0,0,1,.44.13.12.12,0,0,1-.18,0,.22.22,0,0,0-.14-.06.24.24,0,0,0-.11.15.92.92,0,0,0,0,.33.21.21,0,0,0,.1.15s.11,0,.16-.06A.12.12,0,0,1,37.82,72Z" transform="translate(-16.63)"/><path d="M36.84,71h-.79a.32.32,0,0,1-.09,0s.06,0,.09,0h1.56l.1,0a.26.26,0,0,1-.1,0Z" transform="translate(-16.63)"/><path d="M27.07,70.74c-.25,0-.49,0-.73,0a.19.19,0,0,1-.08,0s0,0,.08,0H27.8s.05,0,.07,0a.13.13,0,0,1-.07,0h-.73Z" transform="translate(-16.63)"/><path d="M28.5,80.56s.07.1.07.15a1.66,1.66,0,0,1,0,.22c0,.11,0,.22,0,.33a.15.15,0,0,1-.05.09.2.2,0,0,1-.12-.06s0-.06,0-.09a.29.29,0,0,0,0-.09v-.45s0-.07,0-.1Z" transform="translate(-16.63)"/><path d="M25.69,80.11l-.29,0c-.06,0-.11-.07-.07-.12a.12.12,0,0,1,.14,0,1.58,1.58,0,0,1,.24.15Z" transform="translate(-16.63)"/><path d="M34.88,80.11a1.74,1.74,0,0,1-.29-.07s0-.07-.06-.1.09-.07.12,0a1.4,1.4,0,0,1,.26.16Z" transform="translate(-16.63)"/><path d="M36.09,80.11l-.29-.06s0-.07-.07-.11.1-.06.13,0,.17.11.26.16Z" transform="translate(-16.63)"/><path class="cls-5" d="M40.06,76l-.61.34-1.31.75a.22.22,0,0,0-.11.22v1.48A.76.76,0,0,1,38,79l-.35-.29-1.1-.94a.22.22,0,0,0-.13,0h-3c-.09,0-.11,0-.11.12v3a.31.31,0,0,0,.06.16l1.17,1.37,0,.07H33a.17.17,0,0,0-.17.09c-.22.38-.45.76-.67,1.15-.14.23-.27.48-.41.72l0,.07c-.11-.21-.22-.4-.33-.59-.25-.44-.51-.87-.75-1.31a.25.25,0,0,0-.25-.13H28.73l.26-.32,1-1.14a.2.2,0,0,0,0-.13c0-1,0-2,0-3,0-.08,0-.1-.11-.1h-3a.19.19,0,0,0-.13,0l-1.34,1.13-.12.09V77.31a.17.17,0,0,0-.08-.16l-1.18-.69-.68-.38L23.3,76l.58-.32,1.35-.79a.17.17,0,0,0,.1-.18V73.09l.1.07,1.37,1.16a.25.25,0,0,0,.12,0h3c.08,0,.11,0,.11-.11,0-1,0-2,0-3a.25.25,0,0,0-.06-.16l-1.16-1.38,0-.07h1.63a.19.19,0,0,0,.18-.09c.21-.37.44-.74.65-1.12s.3-.53.46-.82l.15.24.78,1.4,0,0c.08.11.14.27.25.32a.89.89,0,0,0,.4,0h1.34l-.24.29c-.32.39-.66.77-1,1.16a.31.31,0,0,0-.06.16v2.93c0,.15,0,.15.15.15H36.4a.36.36,0,0,0,.2-.08L38,73.13l.07,0V74.7a.23.23,0,0,0,.12.22l1,.58L40,76ZM34.29,75s0-.08,0-.12a.26.26,0,0,0-.22-.24.42.42,0,0,0-.4.33.23.23,0,0,0,0,.12s.11.1.17.1.1-.07.14-.12,0-.12-.05-.16a.11.11,0,0,1,0-.09s.09-.07.14-.06.08.07.1.11a.19.19,0,0,1,0,.13,1.53,1.53,0,0,1-.32.68l-.14.16a2,2,0,0,0-1.79-1.75v0a1.57,1.57,0,0,1,.92-.47.12.12,0,0,1,.16.1s0,.1-.05.15l-.11,0a.15.15,0,0,0-.23,0,.16.16,0,0,0,0,.23A.26.26,0,0,0,33,74a.62.62,0,0,0,.11-.17.25.25,0,0,0-.23-.37h-.11a.55.55,0,0,0-.11-.73l.12-.13a3,3,0,0,0,.28-.44,1.09,1.09,0,0,0,0-.95.12.12,0,0,1,0-.1.8.8,0,0,0,.32-.8l.2,0,.2,0A.33.33,0,0,0,34,70a.26.26,0,0,0-.25-.19.31.31,0,0,0-.23.23l.18,0s.09,0,.11,0a.11.11,0,0,1,0,.11s-.11.09-.16.08a.59.59,0,0,1-.4-.15,1,1,0,0,0-1-.14l-.09,0c0-.12-.09-.23,0-.34s.25,0,.37.05c0-.2-.1-.32-.24-.33a.35.35,0,0,0-.35.35c0,.1,0,.21.06.31s0,.07,0,.09l-.3.38a3.85,3.85,0,0,0-.26-.34.15.15,0,0,1,0-.16,1.47,1.47,0,0,0,0-.36.33.33,0,0,0-.36-.26.27.27,0,0,0-.21.32c.11-.09.22-.18.35-.05s.05.22,0,.34l-.08,0a1,1,0,0,0-1.05.14.63.63,0,0,1-.39.15.27.27,0,0,1-.15-.09.11.11,0,0,1,0-.11s.07,0,.11,0l.18,0v0l-.11-.13a.19.19,0,0,0-.26,0,.2.2,0,0,0-.12.24.32.32,0,0,0,.33.27,2,2,0,0,0,.35,0,1.13,1.13,0,0,0,0,.26.89.89,0,0,0,.29.49.13.13,0,0,1,0,.18,1.06,1.06,0,0,0,0,1c.1.17.23.31.35.49a.54.54,0,0,0-.11.7,1.44,1.44,0,0,0-.24,0c-.15.08-.16.23,0,.45a.25.25,0,0,0,.36.1.19.19,0,0,0,.08-.16.22.22,0,0,0-.12-.13s-.1,0-.15,0,0,0,0,0-.15-.1-.12-.19a.13.13,0,0,1,.18-.09,1.57,1.57,0,0,1,.86.43l0,.07a2,2,0,0,0-1.82,1.72,1.55,1.55,0,0,1-.45-.9s0-.05,0-.06.08-.09.13-.09.09,0,.12.07,0,.06-.05.1,0,.12,0,.16a.25.25,0,0,0,.17.1c.09,0,.14-.09.15-.18s-.05-.24-.25-.34a.24.24,0,0,0-.35.15,1,1,0,0,0,0,.18l-.12,0a.45.45,0,0,0-.5.08c-.1.09-.15.06-.22,0a1.17,1.17,0,0,0-1.4-.27c-.06,0-.09,0-.13,0a1.24,1.24,0,0,0-.21-.18A.61.61,0,0,0,26,74.4c0-.09,0-.16,0-.23a.43.43,0,0,0,0-.33.28.28,0,0,0-.44,0c-.12.15,0,.33.17.4,0-.07,0-.13,0-.19s0-.09,0-.11a.13.13,0,0,1,.12,0,.25.25,0,0,1,.08.15.58.58,0,0,1-.18.43.7.7,0,0,0-.18.4,1.28,1.28,0,0,0,.11.69c-.13,0-.25.09-.36,0s0-.25.06-.36c-.2,0-.32.09-.33.24a.34.34,0,0,0,.38.34l.28,0a.11.11,0,0,1,.08,0l.38.3-.33.26a.13.13,0,0,1-.15,0,1.33,1.33,0,0,0-.34,0,.34.34,0,0,0-.3.36.29.29,0,0,0,.32.22c-.13-.21-.13-.27,0-.36a.25.25,0,0,1,.33,0v0a1,1,0,0,0,.15,1.13.57.57,0,0,1,.12.42.14.14,0,0,1-.17.1c-.07,0-.06-.08,0-.14a.88.88,0,0,0,0-.17h0L25.5,78a.21.21,0,0,0,0,.26.2.2,0,0,0,.23.09.35.35,0,0,0,.27-.45c0-.08,0-.16-.05-.25a.51.51,0,0,0,.47,0l.39-.29a1.15,1.15,0,0,0,.82.12,1.43,1.43,0,0,0,.73-.46.57.57,0,0,0,.74.12c0,.22,0,.31.17.35a.39.39,0,0,0,.45-.29s0-.12,0-.15-.11-.1-.15-.09a.24.24,0,0,0-.15.13.18.18,0,0,0,.06.14c.05.06,0,.1,0,.13s-.11,0-.14,0a.18.18,0,0,1-.08-.13,1.21,1.21,0,0,1,.07-.33,1.39,1.39,0,0,1,.37-.59,2,2,0,0,0,.61,1.18,2.08,2.08,0,0,0,1.2.55s0,0,0,.05a1.49,1.49,0,0,1-.63.39,1.26,1.26,0,0,1-.33,0s-.1-.07-.1-.11a.31.31,0,0,1,.07-.14s.06,0,.08,0,.16.09.23,0a.16.16,0,0,0,0-.24.24.24,0,0,0-.32,0,.94.94,0,0,0-.16.23.24.24,0,0,0,.22.33h.1a2,2,0,0,0,0,.4,1.31,1.31,0,0,0,.17.36.71.71,0,0,1-.12.13,1.18,1.18,0,0,0-.23,1.34c0,.07,0,.11,0,.17a.75.75,0,0,0-.29.75l-.28,0a.32.32,0,0,0-.39.23.21.21,0,0,0,.17.31c.12,0,.24-.06.29-.22l-.19,0a.15.15,0,0,1-.1,0,.1.1,0,0,1,0-.09s.09-.1.14-.1a.55.55,0,0,1,.42.14.77.77,0,0,0,.61.22c.17,0,.34,0,.53-.08,0,.1.08.22,0,.32s-.24,0-.35,0c0,.17.07.29.2.31a.33.33,0,0,0,.38-.34c0-.1,0-.21-.06-.31a.13.13,0,0,1,0-.09c.09-.13.19-.25.29-.37.09.12.2.25.29.38s0,.06,0,.09a3.43,3.43,0,0,0-.06.34.33.33,0,0,0,.34.31c.16,0,.25-.12.25-.33-.12.09-.23.18-.36.06s-.05-.22,0-.34h.05A1,1,0,0,0,33.32,82a.55.55,0,0,1,.39-.12.14.14,0,0,1,.13.16c0,.09-.08.07-.15.05a.6.6,0,0,0-.2,0c.08.08.12.14.18.19a.17.17,0,0,0,.23,0c.05,0,.12-.13.11-.19a.33.33,0,0,0-.41-.32l-.25,0a3.48,3.48,0,0,0-.05-.36A.78.78,0,0,0,33,81c-.06,0-.07-.08,0-.16a1.14,1.14,0,0,0-.12-1.2,3.23,3.23,0,0,0-.23-.27,1.53,1.53,0,0,0,.17-.37,1.36,1.36,0,0,0,0-.39h.11a.26.26,0,0,0,.23-.25.48.48,0,0,0-.26-.36.23.23,0,0,0-.26.07.14.14,0,0,0,0,.21.14.14,0,0,0,.22,0s.07,0,.07,0,.08.09.08.14-.05.09-.09.11a.22.22,0,0,1-.14,0,1.51,1.51,0,0,1-.68-.31L31.9,78v0a2,2,0,0,0,1.78-1.76c.06.08.11.12.15.17a1.4,1.4,0,0,1,.32.76.21.21,0,0,1-.08.16s-.11,0-.16,0,0-.07,0-.11A.1.1,0,0,0,34,77a.25.25,0,0,0-.17-.1.17.17,0,0,0-.15.17c0,.15.06.26.27.35a.24.24,0,0,0,.34-.17s0-.1,0-.14a1.26,1.26,0,0,0,.38,0A1.53,1.53,0,0,0,35,77l0,0a1.21,1.21,0,0,0,1.48.3.08.08,0,0,1,.08,0,.8.8,0,0,0,.79.32c0,.13,0,.25-.05.38a.35.35,0,0,0,.35.32.23.23,0,0,0,.2-.21c0-.11-.05-.21-.22-.28a1.37,1.37,0,0,1,0,.19s0,.09,0,.1-.1,0-.12,0a.25.25,0,0,1-.08-.14.56.56,0,0,1,.15-.41.75.75,0,0,0,.22-.56c0-.19-.05-.37-.08-.57a.27.27,0,0,1,.31,0c.13.14,0,.25,0,.37.2,0,.33-.11.31-.27a.32.32,0,0,0-.39-.31l-.26,0s-.06,0-.08,0l-.38-.3c.13-.1.24-.2.37-.29a.12.12,0,0,1,.08,0l.31.06a.29.29,0,0,0,.3-.15.27.27,0,0,0-.27-.43c.09.11.18.23.06.36a.28.28,0,0,1-.34,0,2.83,2.83,0,0,0,.09-.37.91.91,0,0,0-.12-.64,1.58,1.58,0,0,0-.12-.15.6.6,0,0,1-.12-.41c0-.07.09-.14.15-.12s.09.07.06.14a.66.66,0,0,0,0,.2l.13-.11a.22.22,0,0,0,0-.29.21.21,0,0,0-.29-.09.33.33,0,0,0-.22.41,1.77,1.77,0,0,0,.06.28.62.62,0,0,0-.59.11.9.9,0,0,0-.18.16c-.05.06-.09.06-.17,0A1.57,1.57,0,0,0,36,74.6a1.18,1.18,0,0,0-.93.4c-.06.07-.11.08-.18,0a.51.51,0,0,0-.54-.09Zm-10,1.19c.25.3.57.25.84-.14-.29-.39-.59-.43-.86-.11-.14-.14-.21-.15-.37-.05l-.13.12s0,.06,0,.07a1.49,1.49,0,0,0,.31.2C24.09,76.26,24.17,76.18,24.26,76.15Zm7.55-7.59c.18-.16.13-.37-.11-.52a.43.43,0,0,0-.23.32c0,.07.06.14.1.22-.31.23-.26.55.13.85a.58.58,0,0,0,.12-.1C32.11,69,32.1,68.79,31.81,68.56ZM31.69,84c.25-.15.29-.36.11-.53.24-.17.3-.34.16-.56a2.51,2.51,0,0,0-.25-.32.82.82,0,0,0-.34.5.38.38,0,0,0,.22.38C31.41,83.63,31.44,83.81,31.69,84Zm7.46-8.08a.37.37,0,0,0-.41-.23.71.71,0,0,0-.43.29.09.09,0,0,0,0,.07,2.22,2.22,0,0,0,.38.27.33.33,0,0,0,.41-.13l0-.07c.17.18.38.14.52-.11C39.52,75.77,39.31,75.73,39.15,75.92Z" transform="translate(-16.63)"/><path class="cls-5" d="M36.49,81.07c0-.08-.05-.18.09-.17s0,0,0-.05a.07.07,0,0,0,0,0s-.08,0-.08-.08a1.13,1.13,0,0,1,0-.18.53.53,0,0,1,.17,0,.17.17,0,0,1,.05.25A.4.4,0,0,1,36.49,81.07Z" transform="translate(-16.63)"/><path class="cls-5" d="M28.12,80.89a1.22,1.22,0,0,1,0,.17.12.12,0,0,1-.06.06s-.06,0-.06-.05,0-.22,0-.33a.45.45,0,0,1,.07-.07s0,0,.06.08A.58.58,0,0,1,28.12,80.89Z" transform="translate(-16.63)"/><path d="M34.29,75l.1,0a.51.51,0,0,1,.54.09c.07.07.12.06.18,0a1.18,1.18,0,0,1,.93-.4,1.57,1.57,0,0,1,.46.12c.08,0,.12,0,.17,0a.9.9,0,0,1,.18-.16.62.62,0,0,1,.59-.11,1.77,1.77,0,0,1-.06-.28.33.33,0,0,1,.22-.41.21.21,0,0,1,.29.09.22.22,0,0,1,0,.29l-.13.11a.66.66,0,0,1,0-.2c0-.07,0-.12-.06-.14s-.14,0-.15.12a.6.6,0,0,0,.12.41,1.58,1.58,0,0,1,.12.15.91.91,0,0,1,.12.64,2.83,2.83,0,0,1-.09.37.28.28,0,0,0,.34,0c.12-.13,0-.25-.06-.36a.27.27,0,0,1,.27.43.29.29,0,0,1-.3.15l-.31-.06a.12.12,0,0,0-.08,0c-.13.09-.24.19-.37.29l.38.3s.06,0,.08,0l.26,0a.32.32,0,0,1,.39.31c0,.16-.11.28-.31.27.08-.12.17-.23,0-.37a.27.27,0,0,0-.31,0c0,.2.06.38.08.57a.75.75,0,0,1-.22.56.56.56,0,0,0-.15.41.25.25,0,0,0,.08.14s.09,0,.12,0,0-.06,0-.1a1.37,1.37,0,0,0,0-.19c.17.07.24.17.22.28a.23.23,0,0,1-.2.21.35.35,0,0,1-.35-.32c0-.13,0-.25.05-.38a.8.8,0,0,1-.79-.32.08.08,0,0,0-.08,0,1.21,1.21,0,0,1-1.48-.3l0,0a1.53,1.53,0,0,1-.37.17,1.26,1.26,0,0,1-.38,0s0,.09,0,.14a.24.24,0,0,1-.34.17c-.21-.09-.29-.2-.27-.35a.17.17,0,0,1,.15-.17A.25.25,0,0,1,34,77a.1.1,0,0,1,0,.16s-.08.07,0,.11.13.07.16,0a.21.21,0,0,0,.08-.16,1.4,1.4,0,0,0-.32-.76s-.09-.09-.15-.17A2,2,0,0,1,31.91,78v0l.18.16a1.51,1.51,0,0,0,.68.31.22.22,0,0,0,.14,0s.09-.07.09-.11-.05-.1-.08-.14,0,0-.07,0a.14.14,0,0,1-.22,0,.14.14,0,0,1,0-.21.23.23,0,0,1,.26-.07.48.48,0,0,1,.26.36.26.26,0,0,1-.23.25h-.11a1.36,1.36,0,0,1,0,.39,1.53,1.53,0,0,1-.17.37,3.23,3.23,0,0,1,.23.27,1.14,1.14,0,0,1,.12,1.2c0,.08,0,.12,0,.16a.78.78,0,0,1,.27.4,3.48,3.48,0,0,1,.05.36l.25,0A.33.33,0,0,1,34,82c0,.06-.06.14-.11.19a.17.17,0,0,1-.23,0c-.06,0-.1-.11-.18-.19a.6.6,0,0,1,.2,0c.07,0,.13,0,.15-.05a.14.14,0,0,0-.13-.16.55.55,0,0,0-.39.12,1,1,0,0,1-1.12.15h-.05c0,.12-.09.23,0,.34s.24,0,.36-.06c0,.21-.09.32-.25.33a.33.33,0,0,1-.34-.31,3.43,3.43,0,0,1,.06-.34S32,82,32,82s-.2-.26-.29-.38c-.1.12-.2.24-.29.37a.13.13,0,0,0,0,.09c0,.1.05.21.06.31a.33.33,0,0,1-.38.34c-.13,0-.21-.14-.2-.31.11.08.22.17.35,0s.06-.22,0-.32c-.19,0-.36.07-.53.08a.77.77,0,0,1-.61-.22.55.55,0,0,0-.42-.14c-.05,0-.1.06-.14.1a.1.1,0,0,0,0,.09.15.15,0,0,0,.1,0l.19,0c-.05.16-.17.25-.29.22a.21.21,0,0,1-.17-.31.32.32,0,0,1,.39-.23l.28,0a.75.75,0,0,1,.29-.75c.05-.06.07-.1,0-.17a1.18,1.18,0,0,1,.23-1.34.71.71,0,0,0,.12-.13,1.31,1.31,0,0,1-.17-.36,2,2,0,0,1,0-.4h-.1a.24.24,0,0,1-.22-.33.94.94,0,0,1,.16-.23.24.24,0,0,1,.32,0,.16.16,0,0,1,0,.24c-.07.08-.15.07-.23,0s-.07,0-.08,0a.31.31,0,0,0-.07.14s.06.11.1.11a1.26,1.26,0,0,0,.33,0,1.49,1.49,0,0,0,.63-.39s0,0,0-.05a2.08,2.08,0,0,1-1.2-.55,2,2,0,0,1-.61-1.18,1.39,1.39,0,0,0-.37.59,1.21,1.21,0,0,0-.07.33.18.18,0,0,0,.08.13s.1,0,.14,0,.06-.07,0-.13A.18.18,0,0,1,29.4,77a.24.24,0,0,1,.15-.13s.11,0,.15.09,0,.1,0,.15a.39.39,0,0,1-.45.29c-.13,0-.17-.13-.17-.35a.57.57,0,0,1-.74-.12,1.43,1.43,0,0,1-.73.46,1.15,1.15,0,0,1-.82-.12l-.39.29a.51.51,0,0,1-.47,0c0,.09,0,.17.05.25a.35.35,0,0,1-.27.45.2.2,0,0,1-.23-.09.21.21,0,0,1,0-.26l.16-.14h0a.88.88,0,0,1,0,.17c0,.06,0,.11,0,.14a.14.14,0,0,0,.17-.1.57.57,0,0,0-.12-.42,1,1,0,0,1-.15-1.13v0a.25.25,0,0,0-.33,0c-.09.09-.09.15,0,.36a.29.29,0,0,1-.32-.22.34.34,0,0,1,.3-.36,1.33,1.33,0,0,1,.34,0,.13.13,0,0,0,.15,0l.33-.26-.38-.3a.11.11,0,0,0-.08,0l-.28,0a.34.34,0,0,1-.38-.34c0-.15.13-.24.33-.24-.08.11-.19.23-.06.36s.23,0,.36,0a1.28,1.28,0,0,1-.11-.69.7.7,0,0,1,.18-.4.58.58,0,0,0,.18-.43.25.25,0,0,0-.08-.15.13.13,0,0,0-.12,0s0,.07,0,.11,0,.12,0,.19c-.21-.07-.29-.25-.17-.4a.28.28,0,0,1,.44,0,.43.43,0,0,1,0,.33c0,.07,0,.14,0,.23a.61.61,0,0,1,.56.11,1.24,1.24,0,0,1,.21.18s.07.06.13,0a1.17,1.17,0,0,1,1.4.27c.07.07.12.1.22,0a.45.45,0,0,1,.5-.08l.12,0a1,1,0,0,1,0-.18.24.24,0,0,1,.35-.15c.2.1.27.19.25.34s-.06.18-.15.18a.25.25,0,0,1-.17-.1s0-.11,0-.16.06-.09.05-.1-.09-.08-.12-.07-.09,0-.13.09,0,0,0,.06a1.55,1.55,0,0,0,.45.9,2,2,0,0,1,1.82-1.72l0-.07a1.57,1.57,0,0,0-.86-.43.13.13,0,0,0-.18.09c0,.09,0,.14.12.19s0,0,0,0,.11-.07.15,0a.22.22,0,0,1,.12.13.19.19,0,0,1-.08.16.25.25,0,0,1-.36-.1c-.14-.22-.13-.37,0-.45a1.44,1.44,0,0,1,.24,0,.54.54,0,0,1,.11-.7c-.12-.18-.25-.32-.35-.49a1.06,1.06,0,0,1,0-1,.13.13,0,0,0,0-.18.89.89,0,0,1-.29-.49,1.13,1.13,0,0,1,0-.26,2,2,0,0,1-.35,0,.32.32,0,0,1-.33-.27.2.2,0,0,1,.12-.24.19.19,0,0,1,.26,0l.11.13v0l-.18,0s-.09,0-.11,0a.11.11,0,0,0,0,.11.27.27,0,0,0,.15.09.63.63,0,0,0,.39-.15,1,1,0,0,1,1.05-.14l.08,0c0-.12.09-.24,0-.34s-.24,0-.35.05a.27.27,0,0,1,.21-.32.33.33,0,0,1,.36.26,1.47,1.47,0,0,1,0,.36.15.15,0,0,0,0,.16,3.85,3.85,0,0,1,.26.34l.3-.38S32,70,32,70s-.05-.21-.06-.31a.35.35,0,0,1,.35-.35c.14,0,.24.13.24.33-.12-.08-.23-.18-.37-.05s0,.22,0,.34l.09,0a1,1,0,0,1,1,.14.59.59,0,0,0,.4.15s.12,0,.16-.08a.11.11,0,0,0,0-.11s-.07,0-.11,0l-.18,0a.31.31,0,0,1,.23-.23A.26.26,0,0,1,34,70a.33.33,0,0,1-.29.37l-.2,0-.2,0a.8.8,0,0,1-.32.8.12.12,0,0,0,0,.1,1.09,1.09,0,0,1,0,.95,3,3,0,0,1-.28.44l-.12.13a.55.55,0,0,1,.11.73h.11a.25.25,0,0,1,.23.37A.62.62,0,0,1,33,74a.26.26,0,0,1-.35,0,.16.16,0,0,1,0-.23.15.15,0,0,1,.23,0l.11,0s.06-.11.05-.15a.12.12,0,0,0-.16-.1,1.57,1.57,0,0,0-.92.47v0A2,2,0,0,1,33.7,75.8l.14-.16a1.53,1.53,0,0,0,.32-.68.19.19,0,0,0,0-.13s-.06-.1-.1-.11-.1,0-.14.06a.11.11,0,0,0,0,.09c.05,0,.09.09.05.16s-.09.12-.14.12-.12-.06-.17-.1a.23.23,0,0,1,0-.12.42.42,0,0,1,.4-.33.26.26,0,0,1,.22.24S34.29,74.91,34.29,75Zm-8.4.71h0l0,0c.19.16.38.34.67.19a.45.45,0,0,1,.55.15.56.56,0,0,1-.64.1.27.27,0,0,0-.15,0,.9.9,0,0,0-.46.27l.84.66a1.72,1.72,0,0,1,.93-1,1.83,1.83,0,0,1-.94-1ZM32.7,71c-.11-.13-.23-.25-.33-.39s-.21-.28-.32-.44c-.07.1-.14.18-.2.28a.35.35,0,0,0,0,.38.54.54,0,0,1-.13.62.56.56,0,0,1-.1-.66.24.24,0,0,0,0-.14,1.06,1.06,0,0,0-.27-.46l-.67.84a1.77,1.77,0,0,1,1,1,1.17,1.17,0,0,1,.4-.57A5.71,5.71,0,0,1,32.7,71Zm4,4a1.76,1.76,0,0,1-.92,1,1.8,1.8,0,0,1,.92,1l.85-.67c-.11-.07-.22-.16-.34-.23a.28.28,0,0,0-.28,0,.33.33,0,1,1,0-.23.28.28,0,0,0,.15,0,.86.86,0,0,0,.46-.27Zm-5,5.56a.55.55,0,0,1,.12.64.28.28,0,0,0,0,.15.82.82,0,0,0,.28.46l.66-.83a1.83,1.83,0,0,1-1-.93,1.79,1.79,0,0,1-1,.93l.67.85a3.07,3.07,0,0,0,.23-.39.3.3,0,0,0,0-.21A.59.59,0,0,1,31.69,80.57Zm0-1a.6.6,0,0,1,.28-.34l.23-.1a.48.48,0,0,0,.32-.47c0-.1,0-.18-.14-.21a.4.4,0,0,1-.17-.09c-.18-.12-.35-.25-.53-.39a2.24,2.24,0,0,1-.75.52.13.13,0,0,0-.05.09.49.49,0,0,0,.36.57A.6.6,0,0,1,31.69,79.58Zm-2-3.58a2,2,0,0,1-.52-.75s0,0-.08,0a.48.48,0,0,0-.56.31.67.67,0,0,1-.45.5l0,0a.62.62,0,0,1,.39.43.49.49,0,0,0,.48.38c.11,0,.19,0,.23-.14a.65.65,0,0,1,.11-.22Zm3.92,0a2.21,2.21,0,0,1,.51.76.1.1,0,0,0,.08,0,.49.49,0,0,0,.57-.32l0-.12a.57.57,0,0,1,.42-.37.64.64,0,0,1-.46-.47.49.49,0,0,0-.5-.36.17.17,0,0,0-.19.13.75.75,0,0,1-.1.2Zm-1.95-2h0a2.12,2.12,0,0,1,.72-.5.11.11,0,0,0,.06-.09.48.48,0,0,0-.33-.56l-.12,0a.65.65,0,0,1-.37-.43.61.61,0,0,1-.47.47.48.48,0,0,0-.35.5c0,.1,0,.16.13.18a.56.56,0,0,1,.17.09Zm.09,3.75a1.77,1.77,0,0,0,1.7-1.68c-.13,0-.27.1-.39.16s0,.07,0,.1-.07.25-.12.37-.08.07-.14,0a4.61,4.61,0,0,0-.4-.37,1,1,0,0,0-.54-.19.9.9,0,0,0,.18.52,2.93,2.93,0,0,0,.38.41c.06.06.06.11,0,.14s-.25.08-.37.12-.09,0-.1,0S31.85,77.68,31.8,77.8Zm-.25-3.56a1.75,1.75,0,0,0-1.69,1.68l.4-.17s0,0,0-.08a2.64,2.64,0,0,1,.07-.3c.07-.18.12-.18.24,0a1.36,1.36,0,0,0,.75.49h.13a.89.89,0,0,0-.2-.55,3,3,0,0,0-.35-.37c-.06-.06-.07-.12,0-.15a2.38,2.38,0,0,1,.38-.11s.07,0,.08,0S31.5,74.36,31.55,74.24Zm1.95,1.68c.09-.76-1-1.85-1.7-1.67a1.88,1.88,0,0,1,.12.3.14.14,0,0,0,.13.1,2,2,0,0,1,.35.1c.08,0,.09.09,0,.16a1.72,1.72,0,0,0-.27.27,1.1,1.1,0,0,0-.28.66.94.94,0,0,0,.5-.17,3.79,3.79,0,0,0,.42-.38c.09-.08.11-.09.16,0a2.15,2.15,0,0,1,.11.36s0,.09.05.1Zm-3.65.2a1.77,1.77,0,0,0,1.7,1.68c0-.11-.09-.21-.12-.31s-.05-.08-.12-.09a1.4,1.4,0,0,1-.35-.1c-.1,0-.09-.09,0-.17a4,4,0,0,0,.42-.5.63.63,0,0,0,.11-.43,1.19,1.19,0,0,0-.66.28,2.44,2.44,0,0,0-.27.29c-.06,0-.1,0-.13,0s-.08-.26-.13-.38,0-.09-.05-.1A3.52,3.52,0,0,0,29.85,76.12Zm5.73.8,0,0a.56.56,0,0,0,.91.23c-.15-.2-.27-.4-.42-.58a.78.78,0,0,0-.59-.3.15.15,0,0,0-.18.13.14.14,0,0,0,.12.18.74.74,0,0,0,.21,0l.1,0a.52.52,0,0,1-.61.36.9.9,0,0,0,.46.34Zm-3.37,3.15a1.6,1.6,0,0,0,0-.31.14.14,0,0,0-.18-.09.15.15,0,0,0-.13.16.82.82,0,0,0,.15.42,2.29,2.29,0,0,0,.75.59l.08-.15a.51.51,0,0,0-.21-.67l-.09-.08,0,0,.28,0a1,1,0,0,0-.35-.46A.49.49,0,0,1,32.21,80.07Zm-4-4.89a.9.9,0,0,0-.46-.34l0,.28,0,0c-.11-.14-.2-.29-.38-.34a.68.68,0,0,0-.53.12c.14.2.27.4.41.58a.83.83,0,0,0,.6.31.17.17,0,0,0,.18-.12.15.15,0,0,0-.1-.19.67.67,0,0,0-.2,0s-.07,0-.12,0A.5.5,0,0,1,28.23,75.18Zm2.37,5.67c.2-.14.4-.27.58-.42a.72.72,0,0,0,.3-.61.17.17,0,0,0-.09-.14.19.19,0,0,0-.16,0,.21.21,0,0,0-.07.24s0,.09.05.15a.51.51,0,0,1-.35-.61,1,1,0,0,0-.35.46l.28,0,0,0A.57.57,0,0,0,30.6,80.85Zm-.07-8.75a.68.68,0,0,0,.32.43.47.47,0,0,1,.36-.56c-.05.1-.1.2,0,.31a.15.15,0,0,0,.2.08.12.12,0,0,0,.1-.16,1.34,1.34,0,0,0-.13-.4,1.87,1.87,0,0,0-.71-.57.11.11,0,0,0-.08,0,.52.52,0,0,0,.14.76.52.52,0,0,1,.11.1v0Zm5.22,3.41a1.32,1.32,0,0,0-.28,0,.16.16,0,0,0-.13.18.15.15,0,0,0,.18.14.73.73,0,0,0,.41-.15,2.14,2.14,0,0,0,.58-.75l-.2-.1a.48.48,0,0,0-.6.23l-.09.09h0l0-.27a.7.7,0,0,0-.43.33A.48.48,0,0,1,35.75,75.51Zm-8.11,1a1,1,0,0,0,.24,0,.18.18,0,0,0,.17-.18.15.15,0,0,0-.2-.15,1,1,0,0,0-.36.13,1.86,1.86,0,0,0-.61.77,1.28,1.28,0,0,0,.24.11.5.5,0,0,0,.56-.24l.09-.1,0,0,0,.28a1,1,0,0,0,.46-.34A.5.5,0,0,1,27.64,76.52ZM32.8,71.2a2.4,2.4,0,0,0-.75.58.83.83,0,0,0-.15.43.16.16,0,0,0,.3.08.63.63,0,0,0,0-.24s0-.06,0-.1a.51.51,0,0,1,.36.58.67.67,0,0,0,.32-.43l-.27,0,0,0C32.94,71.87,33.05,71.59,32.8,71.2Zm-.43,3.63a.43.43,0,0,0-.35-.1c-.12,0-.15,0-.17-.13a.6.6,0,0,0-.2-.37,3.73,3.73,0,0,0-.15.38c0,.1-.06.12-.15.11a.48.48,0,0,0-.35.1s0,0,0,0a1.46,1.46,0,0,1,.56.94c0,.07.07,0,.12.06s.08,0,.09-.08a1.39,1.39,0,0,1,.5-.87Zm-1.88.5a.46.46,0,0,0-.1.35c0,.11,0,.14-.13.16a.78.78,0,0,0-.38.2,2.61,2.61,0,0,0,.37.15c.1,0,.14,0,.13.16a.45.45,0,0,0,.1.35l0,0a1.39,1.39,0,0,1,.92-.55c.08,0,.06-.07.06-.12s0-.09-.08-.09a1.27,1.27,0,0,1-.71-.36Zm2.38,0,0,0a1.38,1.38,0,0,1-.91.55c-.08,0-.07.07-.08.13a.08.08,0,0,0,.08.09,1.22,1.22,0,0,1,.8.43l.14.15h0a1.59,1.59,0,0,0,.06-.3c0-.17,0-.16.17-.21s.21-.1.33-.15a.73.73,0,0,0-.39-.2c-.09,0-.12-.06-.11-.15A.46.46,0,0,0,32.87,75.34Zm-.49,1.86-.11-.08a1.39,1.39,0,0,1-.48-.83c0-.08-.05-.1-.12-.1s-.1,0-.11.1a1.27,1.27,0,0,1-.39.75l-.18.18a.5.5,0,0,0,.39.09c.07,0,.1,0,.11.09a.7.7,0,0,0,.06.19,2,2,0,0,0,.11.2h.05a2.15,2.15,0,0,0,.13-.32c0-.13.07-.18.2-.16A.43.43,0,0,0,32.38,77.2Zm.48,3.89-.23.27c-.13.16-.25.32-.37.49a.14.14,0,0,0,0,.11c.14.07.27.15.43.07a.4.4,0,0,0,.22-.39s0-.1,0-.16l.24.08A.52.52,0,0,0,32.86,81.09ZM30.53,70.94l.27-.3c.11-.15.23-.3.34-.46a.12.12,0,0,0,0-.1c-.13-.07-.26-.16-.42-.08a.39.39,0,0,0-.23.38c0,.05,0,.11,0,.17l-.24-.07A.49.49,0,0,0,30.53,70.94Zm6.24,3.91c.1.09.19.18.28.25s.27.23.41.32.16.1.23-.07a.35.35,0,0,0-.31-.53h-.22l.08-.23A.49.49,0,0,0,36.77,74.85Zm-3.88-4.29c0-.24,0-.45-.23-.56s-.3,0-.45.1a5.56,5.56,0,0,0,.64.85.48.48,0,0,0,.27-.47Zm-2.63,11,.25-.08a.28.28,0,0,0,0,.08.42.42,0,0,0,.19.46.41.41,0,0,0,.4,0c.07,0,.11-.07.05-.14l-.58-.73s0,0-.06,0A.52.52,0,0,0,30.26,81.56Zm-3.63-4.37L26.36,77l-.5-.38h-.1a.45.45,0,0,0-.08.42.37.37,0,0,0,.35.23h.2l-.08.26A.61.61,0,0,0,26.63,77.19Zm10.53,0h.13a.37.37,0,0,0,.38-.59c0-.09-.09-.1-.16,0l-.75.58a.51.51,0,0,0,.48.28ZM26.62,74.86a.46.46,0,0,0-.47-.27l.08.24c-.23,0-.44,0-.55.22s0,.31.1.45A4.78,4.78,0,0,0,26.62,74.86Zm5.05,1.07c-.08,0-.09,0-.09.1s0,.08.09.09.1-.05.1-.11S31.73,75.92,31.67,75.93Z" transform="translate(-16.63)"/><path d="M24.26,76.15c-.09,0-.17.11-.22.09a1.49,1.49,0,0,1-.31-.2s0-.05,0-.07l.13-.12c.16-.1.23-.09.37.05.27-.32.57-.28.86.11C24.83,76.4,24.51,76.45,24.26,76.15ZM24.8,76c-.11-.12-.23-.14-.33-.06s0,.07,0,.11S24.65,76.14,24.8,76Z" transform="translate(-16.63)"/><path d="M31.81,68.56c.29.23.3.46,0,.77a.58.58,0,0,1-.12.1c-.39-.3-.44-.62-.13-.85,0-.08-.1-.15-.1-.22A.43.43,0,0,1,31.7,68C31.94,68.19,32,68.4,31.81,68.56Zm-.12.19c-.13.11-.13.22,0,.37C31.82,69,31.82,68.86,31.69,68.75Z" transform="translate(-16.63)"/><path d="M31.69,84c-.25-.19-.28-.37-.1-.53a.38.38,0,0,1-.22-.38.82.82,0,0,1,.34-.5,2.51,2.51,0,0,1,.25.32c.14.22.08.39-.16.56C32,83.64,31.94,83.85,31.69,84Zm0-1.09c-.13.16-.13.28,0,.37C31.82,83.17,31.82,83.07,31.69,82.91Z" transform="translate(-16.63)"/><path d="M39.15,75.92c.16-.19.37-.15.52.09-.14.25-.35.29-.52.11l0,.07a.33.33,0,0,1-.41.13,2.22,2.22,0,0,1-.38-.27.09.09,0,0,1,0-.07.71.71,0,0,1,.43-.29A.37.37,0,0,1,39.15,75.92Zm-.55.1q.19.21.36,0C38.85,75.89,38.74,75.89,38.6,76Z" transform="translate(-16.63)"/><path class="cls-5" d="M25.89,75.67l.83-.66a1.83,1.83,0,0,0,.94,1,1.72,1.72,0,0,0-.93,1l-.84-.66a.9.9,0,0,1,.46-.27.27.27,0,0,1,.15,0,.56.56,0,0,0,.64-.1.45.45,0,0,0-.55-.15c-.29.15-.48,0-.67-.19l0,0Z" transform="translate(-16.63)"/><path class="cls-5" d="M32.7,71a5.71,5.71,0,0,0-.6.41,1.17,1.17,0,0,0-.4.57,1.77,1.77,0,0,0-1-1l.67-.84a1.06,1.06,0,0,1,.27.46.24.24,0,0,1,0,.14.56.56,0,0,0,.1.66.54.54,0,0,0,.13-.62.35.35,0,0,1,0-.38c.06-.1.13-.18.2-.28.11.16.21.3.32.44S32.59,70.89,32.7,71Z" transform="translate(-16.63)"/><path class="cls-5" d="M36.66,75l.84.66a.86.86,0,0,1-.46.27.28.28,0,0,1-.15,0,.33.33,0,1,0,0,.23.28.28,0,0,1,.28,0c.12.07.23.16.34.23l-.85.67a1.8,1.8,0,0,0-.92-1A1.76,1.76,0,0,0,36.66,75Z" transform="translate(-16.63)"/><path class="cls-5" d="M31.69,80.57a.59.59,0,0,0-.1.67.3.3,0,0,1,0,.21,3.07,3.07,0,0,1-.23.39L30.69,81a1.79,1.79,0,0,0,1-.93,1.83,1.83,0,0,0,1,.93l-.66.83a.82.82,0,0,1-.28-.46.28.28,0,0,1,0-.15A.55.55,0,0,0,31.69,80.57Z" transform="translate(-16.63)"/><path class="cls-5" d="M31.69,79.58a.6.6,0,0,0-.45-.42.49.49,0,0,1-.36-.57.13.13,0,0,1,.05-.09,2.24,2.24,0,0,0,.75-.52c.18.14.35.27.53.39a.4.4,0,0,0,.17.09c.12,0,.14.11.14.21a.48.48,0,0,1-.32.47l-.23.1A.6.6,0,0,0,31.69,79.58Zm0-1.3c-.05.1-.1.17-.13.24a.23.23,0,0,0,.05.31c.09.09.08.17,0,.26a.1.1,0,0,0,0,.17.13.13,0,0,0,.2,0,.11.11,0,0,0,0-.17c-.11-.1-.11-.15,0-.27a.23.23,0,0,0,0-.28A2.36,2.36,0,0,0,31.69,78.28Z" transform="translate(-16.63)"/><path class="cls-5" d="M29.74,76l-.37.48a.65.65,0,0,0-.11.22c0,.13-.12.15-.23.14a.49.49,0,0,1-.48-.38.62.62,0,0,0-.39-.43l0,0a.67.67,0,0,0,.45-.5.48.48,0,0,1,.56-.31s.07,0,.08,0A2,2,0,0,0,29.74,76Zm-.31,0a1.38,1.38,0,0,0-.22-.13.22.22,0,0,0-.33,0c-.1.08-.17.08-.25,0a.11.11,0,0,0-.18,0,.13.13,0,0,0,0,.2.11.11,0,0,0,.18,0c.1-.1.15-.11.25,0a.25.25,0,0,0,.29.06Z" transform="translate(-16.63)"/><path class="cls-5" d="M33.66,76l.38-.51a.75.75,0,0,0,.1-.2.17.17,0,0,1,.19-.13.49.49,0,0,1,.5.36.64.64,0,0,0,.46.47.57.57,0,0,0-.42.37l0,.12a.49.49,0,0,1-.57.32.1.1,0,0,1-.08,0A2.21,2.21,0,0,0,33.66,76ZM34,76l.26.14a.25.25,0,0,0,.3,0c.1-.1.16-.09.26,0a.1.1,0,0,0,.17,0,.13.13,0,0,0,0-.2c-.06,0-.11-.06-.17,0s-.16.1-.27,0-.14-.09-.2-.07A2.05,2.05,0,0,0,34,76Z" transform="translate(-16.63)"/><path class="cls-5" d="M31.71,74.05l-.54-.39a.56.56,0,0,0-.17-.09c-.1,0-.13-.08-.13-.18a.48.48,0,0,1,.35-.5.61.61,0,0,0,.47-.47.65.65,0,0,0,.37.43l.12,0a.48.48,0,0,1,.33.56.11.11,0,0,1-.06.09,2.12,2.12,0,0,0-.72.5Zm0-.29a2.74,2.74,0,0,0,.15-.29.2.2,0,0,0-.05-.25c-.11-.11-.11-.17,0-.28a.1.1,0,0,0,0-.16.12.12,0,0,0-.19,0c-.06.06-.07.12,0,.18s.11.16,0,.26a.21.21,0,0,0-.06.26C31.58,73.56,31.63,73.65,31.69,73.76Z" transform="translate(-16.63)"/><path class="cls-5" d="M31.8,77.8c.05-.12.09-.25.14-.36s.06,0,.1,0,.25-.07.37-.12.07-.08,0-.14a2.93,2.93,0,0,1-.38-.41.9.9,0,0,1-.18-.52,1,1,0,0,1,.54.19,4.61,4.61,0,0,1,.4.37c.06.06.11.07.14,0s.08-.24.12-.37,0-.08,0-.1.26-.11.39-.16A1.77,1.77,0,0,1,31.8,77.8Zm.33-1.34s0,.05,0,.06a1.05,1.05,0,0,0,.51.53.08.08,0,0,0,.07,0,.11.11,0,0,0,0-.08,1,1,0,0,0-.47-.48S32.17,76.47,32.13,76.46Z" transform="translate(-16.63)"/><path class="cls-5" d="M31.55,74.24c-.05.12-.09.24-.14.35s-.05,0-.08,0a2.38,2.38,0,0,0-.38.11c-.08,0-.07.09,0,.15a3,3,0,0,1,.35.37.89.89,0,0,1,.2.55h-.13a1.36,1.36,0,0,1-.75-.49c-.12-.14-.17-.14-.24,0a2.64,2.64,0,0,0-.07.3s0,.07,0,.08l-.4.17A1.75,1.75,0,0,1,31.55,74.24Zm-.91.72V75a1.05,1.05,0,0,0,.5.52s.06,0,.08,0a.17.17,0,0,0,0-.1,1.08,1.08,0,0,0-.45-.45Z" transform="translate(-16.63)"/><path class="cls-5" d="M33.5,75.92l-.4-.16s0-.07-.05-.1a2.15,2.15,0,0,0-.11-.36c0-.1-.07-.09-.16,0a3.79,3.79,0,0,1-.42.38.94.94,0,0,1-.5.17,1.1,1.1,0,0,1,.28-.66,1.72,1.72,0,0,1,.27-.27c.08-.07.07-.12,0-.16a2,2,0,0,0-.35-.1.14.14,0,0,1-.13-.1,1.88,1.88,0,0,0-.12-.3C32.49,74.07,33.59,75.16,33.5,75.92Zm-1.37-.35c.21,0,.59-.38.57-.58C32.51,75,32.13,75.36,32.13,75.57Z" transform="translate(-16.63)"/><path class="cls-5" d="M29.85,76.12a3.52,3.52,0,0,1,.39.16s0,.06.05.1.08.25.13.38.07.06.13,0a2.44,2.44,0,0,1,.27-.29,1.19,1.19,0,0,1,.66-.28.63.63,0,0,1-.11.43,4,4,0,0,1-.42.5c-.08.08-.09.12,0,.17a1.4,1.4,0,0,0,.35.1c.07,0,.1,0,.12.09s.08.2.12.31A1.77,1.77,0,0,1,29.85,76.12Zm1.37.35c-.2,0-.6.39-.56.57A.79.79,0,0,0,31.22,76.47Z" transform="translate(-16.63)"/><path class="cls-5" d="M35.58,76.92l0,.28a.9.9,0,0,1-.46-.34.52.52,0,0,0,.61-.36l-.1,0a.74.74,0,0,1-.21,0,.14.14,0,0,1-.12-.18.15.15,0,0,1,.18-.13.78.78,0,0,1,.59.3c.15.18.27.38.42.58a.56.56,0,0,1-.91-.23Z" transform="translate(-16.63)"/><path class="cls-5" d="M32.21,80.07a.49.49,0,0,0,.32-.59,1,1,0,0,1,.35.46l-.28,0,0,0,.09.08a.51.51,0,0,1,.21.67l-.08.15a2.29,2.29,0,0,1-.75-.59.82.82,0,0,1-.15-.42.15.15,0,0,1,.13-.16.14.14,0,0,1,.18.09A1.6,1.6,0,0,1,32.21,80.07Z" transform="translate(-16.63)"/><path class="cls-5" d="M28.23,75.18a.5.5,0,0,0-.6.35c.05,0,.08,0,.12,0a.67.67,0,0,1,.2,0,.15.15,0,0,1,.1.19.17.17,0,0,1-.18.12.83.83,0,0,1-.6-.31c-.14-.18-.27-.38-.41-.58a.68.68,0,0,1,.53-.12c.18,0,.27.2.38.34l0,0,0-.28A.9.9,0,0,1,28.23,75.18Z" transform="translate(-16.63)"/><path class="cls-5" d="M30.6,80.85a.57.57,0,0,1,.23-.91l0,0-.28,0a1,1,0,0,1,.35-.46.51.51,0,0,0,.35.61c0-.06,0-.11-.05-.15a.21.21,0,0,1,.07-.24.19.19,0,0,1,.16,0,.17.17,0,0,1,.09.14.72.72,0,0,1-.3.61C31,80.58,30.8,80.71,30.6,80.85Z" transform="translate(-16.63)"/><path class="cls-5" d="M30.53,72.1l.27,0v0a.52.52,0,0,0-.11-.1.52.52,0,0,1-.14-.76.11.11,0,0,1,.08,0,1.87,1.87,0,0,1,.71.57,1.34,1.34,0,0,1,.13.4.12.12,0,0,1-.1.16.15.15,0,0,1-.2-.08c-.07-.11,0-.21,0-.31a.47.47,0,0,0-.36.56A.68.68,0,0,1,30.53,72.1Z" transform="translate(-16.63)"/><path class="cls-5" d="M35.75,75.51a.48.48,0,0,0-.57-.33.7.7,0,0,1,.43-.33l0,.27h0l.09-.09a.48.48,0,0,1,.6-.23l.2.1a2.14,2.14,0,0,1-.58.75.73.73,0,0,1-.41.15.15.15,0,0,1-.18-.14.16.16,0,0,1,.13-.18A1.32,1.32,0,0,1,35.75,75.51Z" transform="translate(-16.63)"/><path class="cls-5" d="M27.64,76.52a.5.5,0,0,0,.59.34,1,1,0,0,1-.46.34l0-.28,0,0-.09.1a.5.5,0,0,1-.56.24,1.28,1.28,0,0,1-.24-.11,1.86,1.86,0,0,1,.61-.77,1,1,0,0,1,.36-.13.15.15,0,0,1,.2.15.18.18,0,0,1-.17.18A1,1,0,0,1,27.64,76.52Z" transform="translate(-16.63)"/><path class="cls-5" d="M32.8,71.2c.25.39.14.67-.24.9l0,0,.27,0a.67.67,0,0,1-.32.43.51.51,0,0,0-.36-.58s0,.07,0,.1a.63.63,0,0,1,0,.24.16.16,0,0,1-.3-.08.83.83,0,0,1,.15-.43A2.4,2.4,0,0,1,32.8,71.2Z" transform="translate(-16.63)"/><path class="cls-5" d="M32.37,74.83l-.08.07a1.39,1.39,0,0,0-.5.87c0,.06,0,.09-.09.08s-.12,0-.12-.06a1.46,1.46,0,0,0-.56-.94s0,0,0,0a.48.48,0,0,1,.35-.1c.09,0,.13,0,.15-.11a3.73,3.73,0,0,1,.15-.38.6.6,0,0,1,.2.37c0,.1,0,.14.17.13A.43.43,0,0,1,32.37,74.83Zm-.72.34h0c-.11-.11-.18-.28-.33-.35l.4.72.41-.71c-.16.06-.22.23-.34.34h0v-.53h-.05Z" transform="translate(-16.63)"/><path class="cls-5" d="M30.49,75.33l.22.22a1.27,1.27,0,0,0,.71.36c.06,0,.09,0,.08.09s0,.11-.06.12a1.39,1.39,0,0,0-.92.55l0,0a.45.45,0,0,1-.1-.35c0-.11,0-.14-.13-.16a2.61,2.61,0,0,1-.37-.15.78.78,0,0,1,.38-.2c.1,0,.14,0,.13-.16A.46.46,0,0,1,30.49,75.33Zm0,1.08h0l.72-.4-.72-.41,0,0,.36.33v0h-.53v.06h.54v0Z" transform="translate(-16.63)"/><path class="cls-5" d="M32.87,75.34a.46.46,0,0,1,.1.35c0,.09,0,.14.11.15a.73.73,0,0,1,.39.2c-.12,0-.22.11-.33.15s-.15,0-.17.21a1.59,1.59,0,0,1-.06.3h0l-.14-.15a1.22,1.22,0,0,0-.8-.43.08.08,0,0,1-.08-.09c0-.06,0-.12.08-.13a1.38,1.38,0,0,0,.91-.55Zm0,.27-.76.43a2.37,2.37,0,0,1,.75.4c-.07-.17-.24-.24-.36-.37a5,5,0,0,0,.56,0V76h-.54v0C32.63,75.84,32.79,75.77,32.87,75.61Z" transform="translate(-16.63)"/><path class="cls-5" d="M32.38,77.2a.43.43,0,0,1-.34.11c-.13,0-.17,0-.2.16a2.15,2.15,0,0,1-.13.32h-.05a2,2,0,0,1-.11-.2.7.7,0,0,1-.06-.19c0-.07,0-.09-.11-.09a.5.5,0,0,1-.39-.09l.18-.18a1.27,1.27,0,0,0,.39-.75c0-.06,0-.11.11-.1s.11,0,.12.1a1.39,1.39,0,0,0,.48.83Zm-1.12,0c.17-.06.23-.23.37-.36v.3c0,.09,0,.18,0,.27h.06v-.54h0c.12.11.18.29.34.35l-.42-.75A2.24,2.24,0,0,1,31.26,77.2Z" transform="translate(-16.63)"/><path class="cls-5" d="M32.86,81.09a.52.52,0,0,1,.27.47l-.24-.08c0,.06,0,.11,0,.16a.4.4,0,0,1-.22.39c-.16.08-.29,0-.43-.07a.14.14,0,0,1,0-.11c.12-.17.24-.33.37-.49Z" transform="translate(-16.63)"/><path class="cls-5" d="M30.53,70.94a.49.49,0,0,1-.27-.46l.24.07c0-.06,0-.12,0-.17a.39.39,0,0,1,.23-.38c.16-.08.29,0,.42.08a.12.12,0,0,1,0,.1c-.11.16-.23.31-.34.46Z" transform="translate(-16.63)"/><path class="cls-5" d="M36.77,74.85a.49.49,0,0,1,.47-.26l-.08.23h.22a.35.35,0,0,1,.31.53c-.07.17-.08.17-.23.07s-.27-.21-.41-.32S36.87,74.94,36.77,74.85Z" transform="translate(-16.63)"/><path class="cls-5" d="M32.89,70.56l.23-.08a.48.48,0,0,1-.27.47,5.56,5.56,0,0,1-.64-.85c.15-.07.27-.18.45-.1S32.92,70.32,32.89,70.56Z" transform="translate(-16.63)"/><path class="cls-5" d="M30.26,81.56a.52.52,0,0,1,.24-.45s.05,0,.06,0l.58.73c.06.07,0,.11-.05.14a.41.41,0,0,1-.4,0,.42.42,0,0,1-.19-.46.28.28,0,0,1,0-.08Z" transform="translate(-16.63)"/><path class="cls-5" d="M26.63,77.19a.61.61,0,0,1-.48.28l.08-.26H26a.37.37,0,0,1-.35-.23.45.45,0,0,1,.08-.42h.1l.5.38Z" transform="translate(-16.63)"/><path class="cls-5" d="M37.16,77.21l.08.24a.51.51,0,0,1-.48-.28l.75-.58c.07-.06.12,0,.16,0a.37.37,0,0,1-.38.59Z" transform="translate(-16.63)"/><path class="cls-5" d="M26.62,74.86a4.78,4.78,0,0,1-.84.64c-.08-.14-.18-.28-.1-.45s.32-.25.55-.22l-.08-.24A.46.46,0,0,1,26.62,74.86Z" transform="translate(-16.63)"/><path class="cls-5" d="M31.67,75.93c.06,0,.1,0,.1.08s0,.11-.1.11-.09,0-.09-.09S31.59,75.92,31.67,75.93Z" transform="translate(-16.63)"/><path class="cls-5" d="M31.69,82.91c.13.16.13.26,0,.37C31.56,83.19,31.56,83.07,31.69,82.91Z" transform="translate(-16.63)"/><path class="cls-5" d="M38.6,76c.14-.13.25-.13.36,0Q38.8,76.23,38.6,76Z" transform="translate(-16.63)"/><path d="M31.69,78.28a2.36,2.36,0,0,1,.14.26.23.23,0,0,1,0,.28c-.11.12-.11.17,0,.27a.11.11,0,0,1,0,.17.13.13,0,0,1-.2,0,.1.1,0,0,1,0-.17c.09-.09.1-.17,0-.26a.23.23,0,0,1-.05-.31C31.59,78.45,31.64,78.38,31.69,78.28Z" transform="translate(-16.63)"/><path d="M29.43,76l-.26.14a.25.25,0,0,1-.29-.06c-.1-.1-.15-.09-.25,0a.11.11,0,0,1-.18,0,.13.13,0,0,1,0-.2.11.11,0,0,1,.18,0c.08.1.15.1.25,0a.22.22,0,0,1,.33,0A1.38,1.38,0,0,1,29.43,76Z" transform="translate(-16.63)"/><path d="M34,76a2.05,2.05,0,0,1,.35-.16c.06,0,.14,0,.2.07s.17.1.27,0,.11,0,.17,0a.13.13,0,0,1,0,.2.1.1,0,0,1-.17,0c-.1-.1-.16-.11-.26,0a.25.25,0,0,1-.3,0Z" transform="translate(-16.63)"/><path d="M31.69,73.76c-.06-.11-.11-.2-.15-.29a.21.21,0,0,1,.06-.26c.1-.1.09-.16,0-.26s-.05-.12,0-.18a.12.12,0,0,1,.19,0,.1.1,0,0,1,0,.16c-.11.11-.11.17,0,.28a.2.2,0,0,1,.05.25A2.74,2.74,0,0,1,31.69,73.76Z" transform="translate(-16.63)"/><path d="M32.13,76.46s.08,0,.1,0a1,1,0,0,1,.47.48.11.11,0,0,1,0,.08.08.08,0,0,1-.07,0,1.05,1.05,0,0,1-.51-.53S32.13,76.49,32.13,76.46Z" transform="translate(-16.63)"/><path d="M30.64,75l.12,0a1.08,1.08,0,0,1,.45.45.17.17,0,0,1,0,.1s-.06,0-.08,0a1.05,1.05,0,0,1-.5-.52Z" transform="translate(-16.63)"/><path d="M32.13,75.57c0-.21.38-.59.57-.58C32.72,75.19,32.34,75.57,32.13,75.57Z" transform="translate(-16.63)"/><path d="M31.22,76.47a.79.79,0,0,1-.56.57C30.62,76.86,31,76.46,31.22,76.47Z" transform="translate(-16.63)"/><path d="M31.65,75.17v-.54h.05v.53h0c.12-.11.18-.28.34-.34l-.41.71-.4-.72c.15.07.22.24.33.35Z" transform="translate(-16.63)"/><path d="M30.47,76.41l.36-.32v0h-.54V76h.53v0l-.36-.33,0,0,.72.41-.72.4Z" transform="translate(-16.63)"/><path d="M32.87,75.61c-.08.16-.24.23-.36.34v0h.54V76a5,5,0,0,1-.56,0c.12.13.29.2.36.37a2.37,2.37,0,0,0-.75-.4Z" transform="translate(-16.63)"/><path d="M31.26,77.2a2.24,2.24,0,0,0,.4-.74l.42.75c-.16-.06-.22-.24-.34-.35h0v.54h-.06c0-.09,0-.18,0-.27v-.3C31.49,77,31.43,77.14,31.26,77.2Z" transform="translate(-16.63)"/><text class="cls-6" transform="translate(165 68)">COFTA <tspan x="0" y="72">MILANO</tspan></text></svg>