<?xml version="1.0" encoding="utf-8"?>
<!-- Generator: Adobe Illustrator 27.3.1, SVG Export Plug-In . SVG Version: 6.00 Build 0)  -->
<svg version="1.1" id="Livello_1" xmlns="http://www.w3.org/2000/svg" xmlns:xlink="http://www.w3.org/1999/xlink" x="0px" y="0px"
	 viewBox="0 0 412 160" style="enable-background:new 0 0 412 160;" xml:space="preserve">
<style type="text/css">
	.st0{fill:none;stroke:#F3E600;stroke-width:4;stroke-miterlimit:10;}
	.st1{fill:none;}
	.st2{fill:none;stroke:#F3E600;stroke-width:0.1892;stroke-linecap:round;stroke-linejoin:round;stroke-miterlimit:3.955;}
	.st3{fill:none;stroke:#F3E600;stroke-width:9.070000e-02;stroke-linecap:round;stroke-linejoin:round;}
	.st4{fill:#F3E600;}
	.st5{fill-rule:evenodd;clip-rule:evenodd;fill:#F3E600;}
	.st6{opacity:0.6;fill:#F3E600;}
</style>
<g>
	<circle class="st0" cx="90" cy="80" r="70.9"/>
	<circle class="st0" cx="90" cy="80" r="44.5"/>
	<g id="Croce_Diocesi_00000065066800036499824150000007345207414711738034_" transform="translate(-1.1096578,-1.1079318)">
		<g id="Gruppo_00000047039600738366319550000017319943552194903174_">
			<path class="st1" d="M155,79.9v-1.8l-1.5,1.3h-3.2v-3.2l1.3-1.5h-1.8c-0.3-0.4-0.8-1.3-1.2-2c-0.4,0.7-0.9,1.6-1.2,2h-1.8
				l1.3,1.5v3.2h-3.2l-1.5-1.3v1.8c-0.4,0.3-1.4,0.8-2,1.2c0.7,0.4,1.6,0.9,2,1.2v1.8l1.5-1.3h3.2V86l-1.3,1.5h1.8
				c0.3,0.4,0.8,1.3,1.2,2c0.4-0.7,0.9-1.6,1.2-2h1.8l-1.3-1.5v-3.2h3.2l1.5,1.3v-1.8c0.4-0.3,1.4-0.8,2-1.2
				C156.3,80.7,155.4,80.2,155,79.9z"/>
			<g>
				<path id="path5243_00000080916921124370223990000015161645927283035574_" class="st2" d="M150.5,81.1c0,1-0.9,1.9-1.9,1.9
					s-1.9-0.8-1.9-1.9c0-1,0.9-1.9,1.9-1.9S150.5,80.1,150.5,81.1z"/>
				<path id="path2167_00000136398900732327010120000001309212565391402923_" class="st3" d="M148.5,81.2h0.3
					c0.5,0.1,0.8,0.3,1.1,0.6c0.1-0.2,0.2-0.3,0.1-0.5c0.2,0,0.4-0.1,0.5-0.2c-0.2-0.2-0.3-0.2-0.5-0.2c0-0.2,0-0.4-0.1-0.5
					c-0.3,0.4-0.6,0.6-1.1,0.6c0,0-0.3,0-0.3,0c-0.5-0.1-0.8-0.3-1.1-0.6c-0.1,0.2-0.2,0.3-0.1,0.5c-0.2,0-0.4,0.1-0.5,0.2
					c0.2,0.2,0.3,0.2,0.5,0.2c0,0.2,0,0.4,0.1,0.5C147.7,81.5,148,81.3,148.5,81.2z M148.5,81v0.3c-0.1,0.5-0.3,0.8-0.6,1.1
					c0.2,0.1,0.4,0.2,0.5,0.1c0,0.2,0.1,0.3,0.2,0.5c0.1-0.2,0.2-0.3,0.2-0.5c0.2,0,0.4,0,0.5-0.1c-0.4-0.3-0.6-0.6-0.6-1.1
					c0,0,0-0.3,0-0.3c0.1-0.5,0.3-0.8,0.6-1.1c-0.2-0.1-0.4-0.2-0.5-0.1c0-0.2-0.1-0.3-0.2-0.5c-0.1,0.2-0.2,0.3-0.2,0.5
					c-0.2,0-0.4,0-0.5,0.1C148.2,80.2,148.4,80.5,148.5,81z"/>
			</g>
			<g>
				<path class="st4" d="M157.8,81.1c-0.8-0.5-2.4-1.3-2.4-1.4v-2.4l-2,1.7h-2.6v-2.6l1.7-2.1H150c-0.1,0-0.9-1.6-1.4-2.4
					c-0.5,0.8-1.3,2.3-1.4,2.4h-2.4l1.7,2V79h-2.6l-2.1-1.7v2.4c0,0.1-1.6,0.9-2.4,1.4c0.8,0.5,2.4,1.3,2.4,1.4v2.4l2-1.7h2.6v2.6
					l-1.7,2.1h2.4c0.1,0,0.9,1.6,1.4,2.4c0.5-0.8,1.3-2.3,1.4-2.4h2.4l-1.7-2v-2.6h2.6l2.1,1.7v-2.4C155.4,82.4,157,81.6,157.8,81.1
					z M155,82.3v1.8l-1.5-1.3h-3.2V86l1.3,1.5h-1.8c-0.3,0.4-0.8,1.3-1.2,2c-0.4-0.7-0.9-1.6-1.2-2h-1.8l1.3-1.5v-3.2h-3.2l-1.5,1.3
					v-1.8c-0.4-0.3-1.4-0.8-2-1.2c0.7-0.4,1.6-0.9,2-1.2v-1.8l1.5,1.3h3.2v-3.2l-1.3-1.5h1.8c0.3-0.4,0.8-1.3,1.2-2
					c0.4,0.7,0.9,1.6,1.2,2h1.8l-1.3,1.5v3.2h3.2l1.5-1.3v1.8c0.4,0.3,1.4,0.8,2,1.2C156.3,81.5,155.4,82,155,82.3z"/>
				<path id="path4214_00000114778589762677146230000015503574424103722929_" class="st4" d="M151.9,81.1c0-0.1-0.1-0.2-0.2-0.2
					c-0.1,0-0.1,0-0.1,0.1c0,0,0,0.1-0.1,0.1c-0.1,0-0.1-0.1-0.1-0.1s0-0.1-0.2-0.1s-0.4,0.2-0.4,0.2s0.2,0.2,0.4,0.2
					c0.1,0,0.1-0.1,0.2-0.1c0,0,0.1-0.1,0.1-0.1c0.1,0,0.1,0.1,0.1,0.1c0,0,0,0.1,0.1,0.1C151.9,81.3,151.9,81.2,151.9,81.1z"/>
				<path id="path4136_00000086689340651256536640000013947437591446128300_" class="st4" d="M145.3,81.1c0-0.1,0.1-0.2,0.2-0.2
					c0.1,0,0.1,0,0.1,0.1c0,0,0,0.1,0.1,0.1c0.1,0,0.1-0.1,0.1-0.1s0-0.1,0.2-0.1s0.4,0.2,0.4,0.2s-0.2,0.2-0.4,0.2
					c-0.1,0-0.1-0.1-0.2-0.1c0,0-0.1-0.1-0.1-0.1c-0.1,0-0.1,0.1-0.1,0.1c0,0,0,0.1-0.1,0.1C145.4,81.3,145.4,81.2,145.3,81.1z"/>
				<path id="path4270_00000094579081511470385400000008550934670008570798_" class="st4" d="M148.6,84.4c0.1,0,0.2-0.1,0.1-0.2
					c0-0.1,0-0.1-0.1-0.1c0,0-0.1,0-0.1-0.1c0-0.1,0.1-0.1,0.1-0.1s0.1,0,0.1-0.2s-0.2-0.4-0.2-0.4s-0.2,0.2-0.2,0.4
					c0,0.1,0.1,0.2,0.1,0.2c0,0,0.1,0.1,0.1,0.1c0,0.1-0.1,0.1-0.1,0.1c0,0-0.1,0-0.1,0.1C148.5,84.3,148.6,84.4,148.6,84.4z"/>
				<path id="path4260_00000164488149102774063600000007726621756098710407_" class="st4" d="M148.6,77.8c0.1,0,0.2,0.1,0.1,0.2
					c0,0.1,0,0.1-0.1,0.1c0,0-0.1,0-0.1,0.1c0,0.1,0.1,0.1,0.1,0.1s0.1,0,0.1,0.2s-0.2,0.4-0.2,0.4s-0.2-0.2-0.2-0.4
					c0-0.1,0.1-0.2,0.1-0.2c0,0,0.1-0.1,0.1-0.1c0-0.1-0.1-0.1-0.1-0.1c0,0-0.1,0-0.1-0.1C148.5,77.9,148.6,77.8,148.6,77.8z"/>
				<path id="path4216_00000154395418916703452500000002004237451143000475_" class="st4" d="M156.6,81.1c-0.1,0.1-0.2,0.2-0.4,0.2
					c-0.1,0-0.1-0.1-0.2-0.2c0,0-0.1,0.2-0.4,0.2c-0.3,0-0.5-0.3-0.5-0.3s0.3-0.3,0.5-0.3s0.4,0.2,0.4,0.2c0-0.1,0.1-0.2,0.2-0.2
					C156.4,80.9,156.6,81,156.6,81.1z M155.9,81.1c-0.1-0.2-0.3-0.1-0.4,0C155.6,81.2,155.8,81.3,155.9,81.1z"/>
				<path id="path4145_00000078730407335495349120000000540800121518989187_" class="st4" d="M140.6,81.1c0.1,0.1,0.2,0.2,0.4,0.2
					c0.1,0,0.1-0.1,0.2-0.2c0,0,0.1,0.2,0.4,0.2c0.3,0,0.5-0.3,0.5-0.3s-0.3-0.3-0.5-0.3s-0.4,0.2-0.4,0.2c0-0.1-0.1-0.2-0.2-0.2
					C140.8,80.9,140.7,81,140.6,81.1z M141.4,81.1c0.1-0.2,0.3-0.1,0.4,0C141.6,81.2,141.5,81.3,141.4,81.1z"/>
				<path id="path4272_00000092453170315498420160000006927360513484298167_" class="st4" d="M148.6,89.1c-0.1-0.1-0.2-0.2-0.2-0.3
					c0-0.1,0.1-0.1,0.1-0.2c0,0-0.2-0.1-0.2-0.4c0-0.3,0.3-0.5,0.3-0.5s0.3,0.3,0.3,0.5s-0.2,0.4-0.2,0.4c0.1,0,0.2,0.1,0.1,0.2
					C148.8,88.9,148.8,89,148.6,89.1z M148.6,88.4c0.2-0.2,0.1-0.3,0-0.4C148.6,88.1,148.4,88.2,148.6,88.4z"/>
				<path id="path4262_00000080184805294439956380000004849436038788243866_" class="st4" d="M148.6,73.1c-0.1,0.1-0.2,0.2-0.2,0.3
					c0,0.1,0.1,0.1,0.1,0.2c0,0-0.2,0.1-0.2,0.4c0,0.3,0.3,0.5,0.3,0.5s0.3-0.3,0.3-0.5s-0.2-0.4-0.2-0.4c0.1,0,0.2-0.1,0.1-0.2
					C148.8,73.3,148.8,73.2,148.6,73.1z M148.6,73.8c0.2,0.2,0.1,0.3,0,0.4C148.6,74.1,148.4,74,148.6,73.8z"/>
				<path id="path4266_00000086653576726294052430000006706107917783915679_" class="st4" d="M149.4,84.6c0.1,0.2,0,0.4-0.1,0.5
					c-0.1,0.1-0.3,0.2-0.3,0.2s0.1-0.2,0.1-0.3c0-0.2-0.2-0.2-0.2-0.2s-0.2,0-0.2,0.2c0,0.3,0.1,0.4,0.3,0.6
					c0.2,0.2,0.5,0.3,0.6,0.4c0.1,0.1,0.1,0.1,0.2,0.1c0.2,0.2,0.3,0.3,0.4,0.5c0.1,0.2,0,0.4,0,0.4s0.2-0.1,0.4-0.1
					c0.2,0,0.3,0.2,0.3,0.3c0,0.1-0.1,0.2-0.3,0.2c-0.1,0-0.3-0.2-0.3-0.2h0.2c0,0,0,0,0.1,0c0,0,0.1,0,0.1-0.1c0,0,0-0.2-0.2-0.1
					c-0.1,0-0.3,0.1-0.4,0.2c-0.2,0.2-0.3,0.2-0.6,0.2c-0.1,0-0.3,0-0.4-0.1c0,0-0.2-0.1-0.2-0.1c-0.1-0.1-0.3-0.4-0.3-0.4v-1
					c0,0,0.2,0.2,0.2,0.4c0,0.2-0.1,0.4-0.1,0.4s0,0.2,0.1,0.3s0.1,0.2,0.4,0.3s0.3,0.2,0.4,0.1c0.3-0.2,0.2-0.6,0.2-0.6l0.3,0.1
					c0,0,0-0.3-0.3-0.5c-0.2-0.1-0.4-0.2-0.7-0.4c-0.3-0.3-0.4-0.4-0.4-0.8c0-0.3,0.1-0.5,0.5-0.7c0.5-0.2,0.3-0.6,0.3-0.6
					c-0.3-0.1-0.6-0.3-0.9-0.6c0,0,0-0.1,0-0.1c0,0,0.1,0,0.1,0c0.2,0.2,0.5,0.5,0.9,0.6c0.1,0,0.2,0,0.2,0.1c0.1,0,0.1,0,0.1-0.1
					c0-0.1,0-0.1,0-0.1c0,0,0,0,0,0c0,0,0,0,0,0c0,0,0,0-0.1,0c0,0,0,0,0,0c0,0,0,0,0,0.1c0,0,0,0-0.1,0s-0.1,0-0.1,0c0,0,0,0-0.1,0
					s0,0-0.1,0s0-0.1,0-0.1c0,0,0-0.1,0.1-0.1c0,0,0.1-0.1,0.1-0.1c0.1,0,0.1,0,0.1,0s0.1,0.1,0.1,0.1c0,0,0.1,0.1,0.1,0.2
					c0,0,0,0.1,0,0.1c0,0,0,0.1-0.1,0.1c-0.1,0.1-0.2,0.1-0.2,0.1c0,0,0,0-0.1,0c0,0,0.1,0.2,0.1,0.3c0,0.2-0.2,0.4-0.2,0.4
					c0.3,0.2,0.5,0.5,0.5,1c0,0.5-0.5,1.1-0.5,1.1c-0.2,0.2-0.4,0.4-0.5,0.9c0,0.1,0.1,0.2,0.2,0.2c0.1,0,0.2-0.1,0.2-0.1
					c0,0,0,0.3-0.2,0.3c-0.1,0-0.4-0.1-0.4-0.4c0.1-0.4,0.2-0.7,0.4-1c0,0,0.5-0.6,0.6-0.9c0-0.1-0.1-0.3-0.2-0.4
					c-0.1,0-0.1,0-0.2-0.2h0.2c0,0.1,0,0.1,0.1,0C149.7,84.8,149.6,84.7,149.4,84.6z"/>
				<path id="path4268_00000102539911413021332290000010021756167700020868_" class="st4" d="M147.8,84.6c-0.1,0.2,0,0.4,0.1,0.5
					c0.1,0.1,0.3,0.2,0.3,0.2s-0.1-0.2-0.1-0.3c0-0.2,0.2-0.2,0.2-0.2s0.2,0,0.2,0.2c0,0.3-0.1,0.4-0.3,0.6
					c-0.2,0.2-0.5,0.3-0.6,0.4c-0.1,0.1-0.1,0.1-0.2,0.1c-0.2,0.2-0.3,0.3-0.4,0.5s0,0.4,0,0.4s-0.2-0.1-0.4-0.1
					c-0.2,0-0.3,0.2-0.3,0.3c0,0.1,0.1,0.2,0.3,0.2c0.1,0,0.3-0.2,0.3-0.2h-0.2c0,0,0,0-0.1,0c0,0-0.1,0-0.1-0.1c0,0,0-0.2,0.2-0.1
					c0.1,0,0.3,0.1,0.4,0.2c0.2,0.2,0.3,0.2,0.6,0.2c0.1,0,0.3,0,0.4-0.1c0,0,0.2-0.1,0.2-0.1c0.1-0.1,0.3-0.4,0.3-0.4v-1
					c0,0-0.2,0.2-0.2,0.4c0,0.2,0.1,0.4,0.1,0.4s0,0.2-0.1,0.3s-0.1,0.2-0.4,0.3s-0.3,0.2-0.4,0.1c-0.3-0.2-0.2-0.6-0.2-0.6
					l-0.3,0.1c0,0,0-0.3,0.3-0.5c0.2-0.1,0.4-0.2,0.7-0.4c0.3-0.3,0.4-0.4,0.4-0.8c0-0.3-0.1-0.5-0.5-0.7c-0.5-0.2-0.3-0.6-0.3-0.6
					c0.3-0.1,0.6-0.3,0.9-0.6c0,0,0-0.1,0-0.1c0,0-0.1,0-0.1,0c-0.2,0.2-0.5,0.5-0.9,0.6c-0.1,0-0.2,0-0.2,0.1c-0.1,0-0.1,0-0.1-0.1
					c0-0.1,0-0.1,0-0.1c0,0,0,0,0,0c0,0,0,0,0,0c0,0,0,0,0.1,0c0,0,0,0,0,0c0,0,0,0,0,0.1c0,0,0,0,0.1,0s0.1,0,0.1,0c0,0,0,0,0.1,0
					s0,0,0.1,0s0-0.1,0-0.1c0,0,0-0.1-0.1-0.1c0,0-0.1-0.1-0.1-0.1c-0.1,0-0.1,0-0.1,0s-0.1,0.1-0.1,0.1c0,0-0.1,0.1-0.1,0.2
					c0,0,0,0.1,0,0.1c0,0,0,0.1,0.1,0.1c0.1,0.1,0.2,0.1,0.2,0.1c0,0,0,0,0.1,0c0,0-0.1,0.2-0.1,0.3c0,0.2,0.2,0.4,0.2,0.4
					c-0.3,0.2-0.5,0.5-0.5,1c0,0.5,0.5,1.1,0.5,1.1c0.2,0.2,0.4,0.4,0.5,0.9c0,0.1-0.1,0.2-0.2,0.2c-0.1,0-0.2-0.1-0.2-0.1
					c0,0,0,0.3,0.2,0.3c0.1,0,0.4-0.1,0.4-0.4c-0.1-0.4-0.2-0.7-0.4-1c0,0-0.5-0.6-0.6-0.9c0-0.1,0.1-0.3,0.2-0.4
					c0.1,0,0.1,0,0.2-0.2h-0.2c0,0.1,0,0.1-0.1,0C147.5,84.8,147.6,84.7,147.8,84.6z"/>
				<path id="path4212_00000168800443378558078800000015821392082107518094_" class="st4" d="M152.1,81.9c0.2,0.1,0.4,0,0.5-0.1
					c0.1-0.1,0.2-0.3,0.2-0.3s-0.2,0.1-0.3,0.1c-0.2,0-0.2-0.2-0.2-0.2c0,0,0-0.2,0.2-0.2c0.3,0,0.4,0.1,0.6,0.3
					c0.2,0.2,0.3,0.5,0.4,0.6c0.1,0.1,0.1,0.2,0.1,0.2c0.1,0.2,0.3,0.3,0.5,0.3s0.4,0,0.4,0s-0.1,0.2-0.1,0.4c0,0.2,0.2,0.3,0.3,0.3
					c0.1,0,0.2-0.1,0.2-0.3c0-0.1-0.2-0.3-0.2-0.3v0.2c0,0,0,0,0,0.1s0,0.1-0.1,0.1c0,0-0.1,0-0.1-0.2c0-0.2,0.1-0.3,0.2-0.4
					c0.2-0.2,0.2-0.3,0.2-0.6c0-0.1,0-0.3-0.1-0.4c0,0-0.1-0.2-0.1-0.2c-0.1-0.1-0.4-0.3-0.4-0.3h-1c0,0,0.2,0.2,0.4,0.2
					c0.2,0,0.4-0.1,0.4-0.1s0.2,0,0.3,0.1c0.2,0.1,0.2,0.2,0.3,0.3s0.1,0.3,0.1,0.4c-0.1,0.3-0.6,0.2-0.6,0.2l0.1,0.3
					c0,0-0.3,0-0.5-0.3c-0.1-0.2-0.1-0.4-0.4-0.7c-0.3-0.3-0.4-0.4-0.8-0.4c-0.3,0-0.5,0.1-0.7,0.5c-0.1,0.5-0.6,0.3-0.6,0.3
					c-0.1-0.3-0.4-0.6-0.6-0.8c0,0-0.1,0-0.1,0s0,0.1,0,0.1c0.2,0.2,0.5,0.5,0.6,0.9c0,0.1,0,0.2,0.1,0.2s0,0.1-0.1,0.1
					c-0.1,0-0.1,0-0.1,0c0,0,0,0,0,0c0,0,0,0,0,0c0,0,0,0,0-0.1c0,0,0,0,0,0c0,0,0,0,0.1,0c0,0,0,0,0-0.1s0-0.1,0-0.1c0,0,0,0,0-0.1
					s0,0,0-0.1c0,0-0.1,0-0.1,0c0,0-0.1,0-0.1,0.1s-0.1,0.1-0.1,0.1c0,0.1,0,0.1,0,0.2s0.1,0.1,0.1,0.1c0,0,0.1,0.1,0.1,0.1
					c0,0,0.1,0,0.1,0s0.1,0,0.1-0.1c0.1-0.1,0.1-0.2,0.1-0.2c0,0,0,0,0-0.1c0,0,0.2,0.1,0.4,0.1c0.2,0,0.4-0.2,0.4-0.2
					c0.2,0.3,0.5,0.5,1,0.5c0.5,0,1.1-0.5,1.1-0.5c0.2-0.2,0.4-0.4,0.9-0.5c0.1,0,0.2,0.1,0.2,0.2c0,0.1-0.1,0.2-0.1,0.2
					c0,0,0.3,0,0.3-0.2c0-0.2-0.1-0.4-0.4-0.4c-0.4,0.1-0.7,0.2-1,0.4c0,0-0.6,0.5-0.9,0.6c-0.1,0-0.3-0.1-0.4-0.2
					c0-0.1,0-0.1-0.2-0.2v0.2c0.1,0,0.1,0,0,0.1C152.4,82.2,152.2,82.1,152.1,81.9z"/>
				<path id="path4210_00000033357610734654841130000009844800712318774151_" class="st4" d="M152.1,80.3c0.2-0.1,0.4,0,0.5,0.1
					c0.1,0.1,0.2,0.3,0.2,0.3s-0.2-0.1-0.3-0.1c-0.2,0-0.2,0.2-0.2,0.2c0,0,0,0.2,0.2,0.2c0.3,0,0.4-0.1,0.6-0.3
					c0.2-0.2,0.3-0.5,0.4-0.6c0.1-0.1,0.1-0.2,0.1-0.2c0.1-0.2,0.3-0.3,0.5-0.3s0.4,0,0.4,0s-0.1-0.2-0.1-0.4c0-0.2,0.2-0.3,0.3-0.3
					c0.1,0,0.2,0.1,0.2,0.3c0,0.1-0.2,0.3-0.2,0.3v-0.2c0,0,0,0,0-0.1s0-0.1-0.1-0.1c0,0-0.1,0-0.1,0.2c0,0.2,0.1,0.3,0.2,0.4
					c0.2,0.2,0.2,0.3,0.2,0.6c0,0.1,0,0.3-0.1,0.4c0,0-0.1,0.2-0.1,0.2c-0.1,0.1-0.4,0.3-0.4,0.3h-1c0,0,0.2-0.2,0.4-0.2
					c0.2,0,0.4,0.1,0.4,0.1s0.2,0,0.3-0.1c0.2-0.1,0.2-0.2,0.3-0.3s0.1-0.3,0.1-0.4c-0.1-0.3-0.6-0.2-0.6-0.2l0.1-0.3
					c0,0-0.3,0-0.5,0.3c-0.1,0.2-0.1,0.4-0.4,0.7c-0.3,0.3-0.4,0.4-0.8,0.4c-0.3,0-0.5-0.1-0.7-0.5c-0.1-0.5-0.6-0.3-0.6-0.3
					c-0.1,0.3-0.4,0.6-0.6,0.8c0,0-0.1,0-0.1,0s0-0.1,0-0.1c0.2-0.2,0.5-0.5,0.6-0.9c0-0.1,0-0.2,0.1-0.2s0-0.1-0.1-0.1
					c-0.1,0-0.1,0-0.1,0c0,0,0,0,0,0c0,0,0,0,0,0c0,0,0,0,0,0.1c0,0,0,0,0,0s0,0,0.1,0c0,0,0,0,0,0.1s0,0.1,0,0.1c0,0,0,0,0,0.1
					s0,0,0,0.1c0,0-0.1,0-0.1,0c0,0-0.1,0-0.1-0.1s-0.1-0.1-0.1-0.1c0-0.1,0-0.1,0-0.2s0.1-0.1,0.1-0.1c0,0,0.1-0.1,0.1-0.1
					c0,0,0.1,0,0.1,0c0,0,0.1,0,0.1,0.1c0.1,0.1,0.1,0.2,0.1,0.2c0,0,0,0,0,0.1c0,0,0.2-0.1,0.4-0.1c0.2,0,0.4,0.2,0.4,0.2
					c0.2-0.3,0.5-0.5,1-0.5c0.5,0,1.1,0.5,1.1,0.5c0.2,0.2,0.4,0.4,0.9,0.5c0.1,0,0.2-0.1,0.2-0.2c0-0.1-0.1-0.2-0.1-0.2
					c0,0,0.3,0,0.3,0.2c0,0.2-0.1,0.4-0.4,0.4c-0.4-0.1-0.7-0.2-1-0.4c0,0-0.6-0.5-0.9-0.6c-0.1,0-0.3,0.1-0.4,0.2
					c0,0.1,0,0.1-0.2,0.2V80c0.1,0,0.1,0,0-0.1C152.4,80,152.2,80.1,152.1,80.3z"/>
				<path id="path4134_00000002380080468359272320000005894589899458283144_" class="st4" d="M145.2,81.9c-0.2,0.1-0.4,0-0.5-0.1
					c-0.1-0.1-0.2-0.3-0.2-0.3s0.2,0.1,0.3,0.1c0.2,0,0.2-0.2,0.2-0.2c0,0,0-0.2-0.2-0.2c-0.3,0-0.4,0.1-0.6,0.3
					c-0.2,0.2-0.3,0.5-0.4,0.6c-0.1,0.1-0.1,0.2-0.1,0.2c-0.1,0.2-0.3,0.3-0.5,0.3s-0.4,0-0.4,0s0.1,0.2,0.1,0.4
					c0,0.2-0.2,0.3-0.3,0.3c-0.1,0-0.2-0.1-0.2-0.3c0-0.1,0.2-0.3,0.2-0.3v0.2c0,0,0,0,0,0.1s0,0.1,0.1,0.1c0,0,0.1,0,0.1-0.2
					c0-0.2-0.1-0.3-0.2-0.4c-0.2-0.2-0.2-0.3-0.2-0.6c0-0.1,0-0.3,0.1-0.4c0,0,0.1-0.2,0.1-0.2c0.1-0.1,0.4-0.3,0.4-0.3h1
					c0,0-0.2,0.2-0.4,0.2c-0.2,0-0.4-0.1-0.4-0.1s-0.2,0-0.3,0.1s-0.2,0.2-0.3,0.3s-0.1,0.3-0.1,0.4c0.1,0.3,0.6,0.2,0.6,0.2
					l-0.1,0.3c0,0,0.3,0,0.5-0.3c0.1-0.2,0.1-0.4,0.4-0.7c0.3-0.3,0.4-0.4,0.8-0.4c0.3,0,0.5,0.1,0.7,0.5c0.1,0.5,0.6,0.3,0.6,0.3
					c0.1-0.3,0.4-0.6,0.6-0.8c0,0,0.1,0,0.1,0s0,0.1,0,0.1c-0.2,0.2-0.5,0.5-0.6,0.9c0,0.1,0,0.2-0.1,0.2s0,0.1,0.1,0.1
					c0.1,0,0.1,0,0.1,0c0,0,0,0,0,0c0,0,0,0,0,0c0,0,0,0,0-0.1c0,0,0,0,0,0c0,0,0,0-0.1,0c0,0,0,0,0-0.1s0-0.1,0-0.1c0,0,0,0,0-0.1
					s0,0,0-0.1s0.1,0,0.1,0c0,0,0.1,0,0.1,0.1s0.1,0.1,0.1,0.1c0,0.1,0,0.1,0,0.2s-0.1,0.1-0.1,0.1c0,0-0.1,0.1-0.1,0.1
					c0,0-0.1,0-0.1,0c0,0-0.1,0-0.1-0.1c-0.1-0.1-0.1-0.2-0.1-0.2c0,0,0,0,0-0.1c0,0-0.2,0.1-0.4,0.1c-0.2,0-0.4-0.2-0.4-0.2
					c-0.2,0.3-0.5,0.5-1,0.5c-0.5,0-1.1-0.5-1.1-0.5c-0.2-0.2-0.4-0.4-0.9-0.5c-0.1,0-0.2,0.1-0.2,0.2c0,0.1,0.1,0.2,0.1,0.2
					c0,0-0.3,0-0.3-0.2c0-0.2,0.1-0.4,0.4-0.4c0.4,0.1,0.7,0.2,1,0.4c0,0,0.6,0.5,0.9,0.6c0.1,0,0.3-0.1,0.4-0.2
					c0-0.1,0-0.1,0.2-0.2v0.2c-0.1,0-0.1,0,0,0.1C144.9,82.2,145.1,82.1,145.2,81.9z"/>
				<path id="path4174_00000116953261294391749490000000700239960174196883_" class="st4" d="M145.2,80.3c-0.2-0.1-0.4,0-0.5,0.1
					c-0.1,0.1-0.2,0.3-0.2,0.3s0.2-0.1,0.3-0.1c0.2,0,0.2,0.2,0.2,0.2c0,0,0,0.2-0.2,0.2c-0.3,0-0.4-0.1-0.6-0.3
					c-0.2-0.2-0.3-0.5-0.4-0.6c-0.1-0.1-0.1-0.2-0.1-0.2c-0.1-0.2-0.3-0.3-0.5-0.3s-0.4,0-0.4,0s0.1-0.2,0.1-0.4
					c0-0.2-0.2-0.3-0.3-0.3c-0.1,0-0.2,0.1-0.2,0.3c0,0.1,0.2,0.3,0.2,0.3v-0.2c0,0,0,0,0-0.1s0-0.1,0.1-0.1c0,0,0.1,0,0.1,0.2
					c0,0.2-0.1,0.3-0.2,0.4c-0.2,0.2-0.2,0.3-0.2,0.6c0,0.1,0,0.3,0.1,0.4c0,0,0.1,0.2,0.1,0.2c0.1,0.1,0.4,0.3,0.4,0.3h1
					c0,0-0.2-0.2-0.4-0.2c-0.2,0-0.4,0.1-0.4,0.1s-0.2,0-0.3-0.1s-0.2-0.2-0.3-0.3s-0.1-0.3-0.1-0.4c0.1-0.3,0.6-0.2,0.6-0.2
					l-0.1-0.3c0,0,0.3,0,0.5,0.3c0.1,0.2,0.1,0.4,0.4,0.7c0.3,0.3,0.4,0.4,0.8,0.4c0.3,0,0.5-0.1,0.7-0.5c0.1-0.5,0.6-0.3,0.6-0.3
					c0.1,0.3,0.4,0.6,0.6,0.8c0,0,0.1,0,0.1,0s0-0.1,0-0.1c-0.2-0.2-0.5-0.5-0.6-0.9c0-0.1,0-0.2-0.1-0.2s0-0.1,0.1-0.1
					c0.1,0,0.1,0,0.1,0c0,0,0,0,0,0c0,0,0,0,0,0c0,0,0,0,0,0.1c0,0,0,0,0,0s0,0-0.1,0c0,0,0,0,0,0.1s0,0.1,0,0.1c0,0,0,0,0,0.1
					s0,0,0,0.1s0.1,0,0.1,0c0,0,0.1,0,0.1-0.1s0.1-0.1,0.1-0.1c0-0.1,0-0.1,0-0.2s-0.1-0.1-0.1-0.1c0,0-0.1-0.1-0.1-0.1
					c0,0-0.1,0-0.1,0c0,0-0.1,0-0.1,0.1c-0.1,0.1-0.1,0.2-0.1,0.2c0,0,0,0,0,0.1c0,0-0.2-0.1-0.4-0.1c-0.2,0-0.4,0.2-0.4,0.2
					c-0.2-0.3-0.5-0.5-1-0.5c-0.5,0-1.1,0.5-1.1,0.5c-0.2,0.2-0.4,0.4-0.9,0.5c-0.1,0-0.2-0.1-0.2-0.2c0-0.1,0.1-0.2,0.1-0.2
					c0,0-0.3,0-0.3,0.2c0,0.2,0.1,0.4,0.4,0.4c0.4-0.1,0.7-0.2,1-0.4c0,0,0.6-0.5,0.9-0.6c0.1,0,0.3,0.1,0.4,0.2
					c0,0.1,0,0.1,0.2,0.2V80c-0.1,0-0.1,0,0-0.1C144.9,80,145.1,80.1,145.2,80.3z"/>
				<path id="path4256_00000071531628878815440310000007479414230988735136_" class="st4" d="M149.4,77.7c0.1-0.2,0-0.4-0.1-0.5
					c-0.1-0.1-0.3-0.2-0.3-0.2s0.1,0.2,0.1,0.3c0,0.2-0.2,0.2-0.2,0.2s-0.2,0-0.2-0.2c0-0.3,0.1-0.4,0.3-0.6
					c0.2-0.2,0.5-0.3,0.6-0.4c0.1-0.1,0.1-0.1,0.2-0.1c0.2-0.2,0.3-0.3,0.4-0.5c0.1-0.2,0-0.4,0-0.4s0.2,0.1,0.4,0.1
					c0.2,0,0.3-0.2,0.3-0.3c0-0.1-0.1-0.2-0.3-0.2c-0.1,0-0.3,0.2-0.3,0.2h0.2c0,0,0,0,0.1,0c0,0,0.1,0,0.1,0.1c0,0,0,0.2-0.2,0.1
					c-0.1,0-0.3-0.1-0.4-0.2c-0.2-0.2-0.3-0.2-0.6-0.2c-0.1,0-0.3,0-0.4,0.1c0,0-0.2,0.1-0.2,0.1c-0.1,0.1-0.3,0.4-0.3,0.4v1
					c0,0,0.2-0.2,0.2-0.4c0-0.2-0.1-0.4-0.1-0.4s0-0.2,0.1-0.3c0.1-0.2,0.1-0.2,0.4-0.3c0.2-0.1,0.3-0.2,0.4-0.1
					c0.3,0.2,0.2,0.6,0.2,0.6l0.3-0.1c0,0,0,0.3-0.3,0.5c-0.2,0.1-0.4,0.2-0.7,0.4c-0.3,0.3-0.4,0.4-0.4,0.8c0,0.3,0.1,0.5,0.5,0.7
					c0.5,0.2,0.3,0.6,0.3,0.6c-0.3,0.1-0.6,0.3-0.9,0.6c0,0,0,0.1,0,0.1c0,0,0.1,0,0.1,0c0.2-0.2,0.5-0.5,0.9-0.6
					c0.1,0,0.2,0,0.2-0.1c0.1,0,0.1,0,0.1,0.1c0,0.1,0,0.1,0,0.1c0,0,0,0,0,0c0,0,0,0,0,0c0,0,0,0-0.1,0c0,0,0,0,0,0c0,0,0,0,0-0.1
					c0,0,0,0-0.1,0s-0.1,0-0.1,0c0,0,0,0-0.1,0s0,0-0.1,0c0,0,0,0.1,0,0.1c0,0,0,0.1,0.1,0.1s0.1,0.1,0.1,0.1c0.1,0,0.1,0,0.1,0
					c0.1,0,0.1-0.1,0.1-0.1c0,0,0.1-0.1,0.1-0.2c0,0,0-0.1,0-0.1c0,0,0-0.1-0.1-0.1c-0.1-0.1-0.2-0.1-0.2-0.1c0,0,0,0-0.1,0
					c0,0,0.1-0.2,0.1-0.3c0-0.2-0.2-0.4-0.2-0.4c0.3-0.2,0.5-0.5,0.5-1c0-0.5-0.5-1.1-0.5-1.1c-0.2-0.2-0.4-0.4-0.5-0.9
					c0-0.1,0.1-0.2,0.2-0.2c0.1,0,0.2,0.1,0.2,0.1c0,0,0-0.3-0.2-0.3c-0.1,0-0.4,0.1-0.4,0.4c0.1,0.4,0.2,0.7,0.4,1
					c0,0,0.5,0.6,0.6,0.9c0,0.1-0.1,0.3-0.2,0.4c-0.1,0-0.1,0-0.2,0.2h0.2c0-0.1,0-0.1,0.1,0C149.7,77.4,149.6,77.6,149.4,77.7z"/>
				<path id="path4258_00000179629767401202040270000004766469852344728450_" class="st4" d="M147.8,77.7c-0.1-0.2,0-0.4,0.1-0.5
					c0.1-0.1,0.3-0.2,0.3-0.2s-0.1,0.2-0.1,0.3c0,0.2,0.2,0.2,0.2,0.2s0.2,0,0.2-0.2c0-0.3-0.1-0.4-0.3-0.6
					c-0.2-0.2-0.5-0.3-0.6-0.4c-0.1-0.1-0.1-0.1-0.2-0.1c-0.2-0.2-0.3-0.3-0.4-0.5c-0.1-0.2,0-0.4,0-0.4s-0.2,0.1-0.4,0.1
					c-0.2,0-0.3-0.2-0.3-0.3c0-0.1,0.1-0.2,0.3-0.2c0.1,0,0.3,0.2,0.3,0.2h-0.2c0,0,0,0-0.1,0c0,0-0.1,0-0.1,0.1c0,0,0,0.2,0.2,0.1
					c0.1,0,0.3-0.1,0.4-0.2c0.2-0.2,0.3-0.2,0.6-0.2c0.1,0,0.3,0,0.4,0.1c0,0,0.2,0.1,0.2,0.1c0.1,0.1,0.3,0.4,0.3,0.4v1
					c0,0-0.2-0.2-0.2-0.4c0-0.2,0.1-0.4,0.1-0.4s0-0.2-0.1-0.3c-0.1-0.2-0.1-0.2-0.4-0.3c-0.2-0.1-0.3-0.2-0.4-0.1
					c-0.3,0.2-0.2,0.6-0.2,0.6l-0.3-0.1c0,0,0,0.3,0.3,0.5c0.2,0.1,0.4,0.2,0.7,0.4c0.3,0.3,0.4,0.4,0.4,0.8c0,0.3-0.1,0.5-0.5,0.7
					c-0.5,0.2-0.3,0.6-0.3,0.6c0.3,0.1,0.6,0.3,0.9,0.6c0,0,0,0.1,0,0.1c0,0-0.1,0-0.1,0c-0.2-0.2-0.5-0.5-0.9-0.6
					c-0.1,0-0.2,0-0.2-0.1c-0.1,0-0.1,0-0.1,0.1c0,0.1,0,0.1,0,0.1c0,0,0,0,0,0c0,0,0,0,0,0c0,0,0,0,0.1,0c0,0,0,0,0,0
					c0,0,0,0,0-0.1c0,0,0,0,0.1,0s0.1,0,0.1,0c0,0,0,0,0.1,0s0,0,0.1,0c0,0,0,0.1,0,0.1c0,0,0,0.1-0.1,0.1s-0.1,0.1-0.1,0.1
					c-0.1,0-0.1,0-0.1,0c-0.1,0-0.1-0.1-0.1-0.1c0,0-0.1-0.1-0.1-0.2c0,0,0-0.1,0-0.1c0,0,0-0.1,0.1-0.1c0.1-0.1,0.2-0.1,0.2-0.1
					c0,0,0,0,0.1,0c0,0-0.1-0.2-0.1-0.3c0-0.2,0.2-0.4,0.2-0.4c-0.3-0.2-0.5-0.5-0.5-1c0-0.5,0.5-1.1,0.5-1.1
					c0.2-0.2,0.4-0.4,0.5-0.9c0-0.1-0.1-0.2-0.2-0.2c-0.1,0-0.2,0.1-0.2,0.1c0,0,0-0.3,0.2-0.3c0.1,0,0.4,0.1,0.4,0.4
					c-0.1,0.4-0.2,0.7-0.4,1c0,0-0.5,0.6-0.6,0.9c0,0.1,0.1,0.3,0.2,0.4c0.1,0,0.1,0,0.2,0.2h-0.2c0-0.1,0-0.1-0.1,0
					C147.5,77.4,147.6,77.6,147.8,77.7z"/>
				<path id="path4150_00000093859343360760746560000005731483650359415484_" class="st4" d="M147.6,81.9c0.1-0.2,0.3-0.3,0.4-0.4
					c0.1-0.1,0.1,0,0.1,0.2s-0.3,0.3-0.4,0.4C147.6,82.2,147.5,82.1,147.6,81.9"/>
				<path id="path4123_00000172411913922316825590000018331448757155710366_" class="st4" d="M147.2,81.1c0.1,0.1,0.4,0,0.6,0.1
					c-0.2,0.2-0.4,0.3-0.4,0.4c0,0.1,0.1,0,0.2-0.1c0.2-0.1,0.4-0.3,0.7-0.3c-0.3,0-0.5-0.2-0.7-0.3c-0.1-0.1-0.1-0.2-0.2-0.1
					c0,0.1,0.1,0.2,0.4,0.4C147.6,81.1,147.2,81,147.2,81.1z"/>
				<path id="path4130_00000067949668394038341400000001304722218847195062_" class="st4" d="M150,81.1c-0.1,0.1-0.4,0-0.6,0.1
					c0.2,0.2,0.4,0.3,0.4,0.4c0,0.1-0.1,0-0.2-0.1c-0.2-0.1-0.4-0.3-0.7-0.3c0.3,0,0.5-0.2,0.7-0.3c0.1-0.1,0.1-0.2,0.2-0.1
					c0,0.1-0.1,0.2-0.4,0.4C149.6,81.1,150,81,150,81.1z"/>
				<path id="path4138_00000090264983411432869650000011912347529353951888_" class="st4" d="M148.6,79.7c-0.1,0.1,0,0.4-0.1,0.6
					c-0.2-0.2-0.3-0.4-0.4-0.4c-0.1,0,0,0.1,0.1,0.2c0.1,0.2,0.3,0.4,0.3,0.7c0-0.3,0.2-0.5,0.3-0.7c0.1-0.1,0.1-0.1,0.1-0.2
					c-0.1,0-0.2,0.2-0.4,0.4C148.6,80.1,148.7,79.7,148.6,79.7z"/>
				<path id="path4140_00000128453878058050467800000001433048988333180814_" class="st4" d="M148.6,82.5c-0.1-0.1,0-0.4-0.1-0.6
					c-0.2,0.2-0.3,0.4-0.4,0.4c-0.1,0,0-0.1,0.1-0.2c0.1-0.2,0.3-0.4,0.3-0.7c0,0.3,0.2,0.5,0.3,0.7c0.1,0.1,0.1,0.1,0.1,0.2
					c-0.1,0-0.2-0.2-0.4-0.4C148.6,82.1,148.7,82.5,148.6,82.5z"/>
				<path id="path4144_00000107578554958396170680000006658898392164537235_" class="st4" d="M148,80.6c-0.2-0.1-0.3-0.3-0.4-0.4
					c-0.1-0.1,0-0.2,0.2-0.1c0.2,0.1,0.3,0.3,0.4,0.4S148.1,80.7,148,80.6"/>
				<path id="path4146_00000079478249067427656680000017034776062763004056_" class="st4" d="M149.5,82.1c-0.2-0.1-0.3-0.3-0.4-0.4
					c-0.1-0.1,0-0.2,0.2-0.1c0.2,0.1,0.3,0.3,0.4,0.4S149.6,82.2,149.5,82.1"/>
				<path id="path4148_00000078026233148009115150000013325224341323548841_" class="st4" d="M149.1,80.5c0.1-0.2,0.3-0.3,0.4-0.4
					c0.1-0.1,0.1,0,0.1,0.2c-0.1,0.2-0.3,0.3-0.4,0.4C149,80.7,149,80.6,149.1,80.5"/>
			</g>
			<g id="Lettere_00000152944485733796949210000001047148519897654155_">
				<path id="path24889_00000000216962630435175030000012304386521430684592_" class="st5" d="M143,75.7h-0.3v0.1h0.1V77h-0.1v0.1
					h0.5V77H143L143,75.7z"/>
				<path id="path3186_00000109740226425665474620000014741053637516858255_" class="st5" d="M143.3,76.3c0-0.1,0.3-0.1,0.3,0.1
					h-0.1v0.2h0.3v-0.3c0-0.1,0.3-0.1,0.3,0.1H144v0.7h-0.2v-0.3h-0.2h-0.1V77c0,0.1-0.3,0.1-0.3-0.1h0.1V76.3z"/>
				<path id="path24887_00000039839830017095525710000014474988761842354342_" class="st5" d="M144.4,76.9c0,0.1,0.1,0.1,0.1,0.1
					c0.1,0,0.1,0,0.1-0.1c0.1,0,0.1,0,0.2,0c-0.1,0.1-0.2,0.2-0.3,0.2c-0.2,0-0.4-0.2-0.4-0.4v0c0-0.2,0.2-0.4,0.4-0.4
					c0.1,0,0.2,0.1,0.3,0.2c0,0.1-0.1,0.1-0.2,0c0-0.1-0.1-0.1-0.1-0.1c-0.1,0-0.1,0-0.1,0.1V76.9z"/>
				
					<rect id="rect5544_00000167376763198208709000000006944295393490285477_" x="143.2" y="75.7" class="st4" width="1.6" height="0.1"/>
				<path id="path6238_00000067214318363199439700000005968582463819427519_" class="st5" d="M152,76h0.2v1.1h-0.1v0.1h0.5v-0.1
					h-0.1V76h0.1v-0.1H152h-0.6V76h0.1v1.1h-0.1v0.1h0.5v-0.1h-0.1V76L152,76L152,76z"/>
				<path id="path5556_00000043418617580532858650000006357944941235769746_" class="st5" d="M154.3,77.1c0,0.1,0.1,0.1,0.1,0.1
					c0.1,0,0.1,0,0.1-0.1c0.1,0,0.1,0,0.2,0c-0.1,0.1-0.2,0.2-0.3,0.2c-0.2,0-0.4-0.2-0.4-0.4v0c0-0.2,0.2-0.4,0.4-0.4
					c0.1,0,0.2,0.1,0.3,0.2c0,0.1-0.1,0.1-0.2,0c0-0.1-0.1-0.1-0.1-0.1c-0.1,0-0.1,0-0.1,0.1V77.1z"/>
				<path id="path6126_00000058591130074011602210000015174585945595442602_" class="st5" d="M153.4,77c0.1,0.1,0.1,0.3,0.3,0.3
					c0.1,0,0.2-0.1,0.2-0.2c0-0.1-0.1-0.1-0.1-0.2c-0.1,0-0.1,0-0.1,0.1c0,0.1-0.1,0-0.1-0.1c-0.1-0.1-0.1-0.1-0.1-0.2
					c0,0,0.2-0.3,0.2-0.3c0.1,0,0.1,0.1,0.1,0.1c0-0.1,0.1-0.1,0.1-0.1c0-0.1-0.1-0.1-0.1-0.1c-0.1,0-0.2,0-0.3,0.1
					c-0.1,0.1-0.1,0.2-0.1,0.2c-0.1-0.1-0.1-0.3-0.3-0.3c-0.1,0-0.2,0.1-0.2,0.2c0,0.1,0.1,0.1,0.1,0.2c0.1,0,0.1,0,0.1-0.1
					c0-0.1,0.1,0,0.1,0.1c0.1,0.1,0.1,0.1,0.1,0.2c0,0-0.2,0.3-0.2,0.3c-0.1,0-0.1-0.1-0.1-0.1c0,0.1-0.1,0.1-0.1,0.2
					c0,0.1,0.1,0.1,0.1,0.1c0.1,0,0.2,0,0.3-0.1C153.3,77.1,153.4,77,153.4,77"/>
				
					<rect id="rect5561_00000183956833300173089540000013486358963637176472_" x="152.9" y="76" class="st4" width="1.8" height="0.1"/>
				<path id="path8133_00000178906451078859553710000009520294607455824057_" class="st5" d="M153.1,85.3h0.3v0.6h0.1V86h-0.1v0.6
					h-0.2V86h-0.1v-0.1h0.1v-0.5L153.1,85.3L153.1,85.3z"/>
				<path id="path9106_00000005227266063164005570000011163271325336071592_" class="st5" d="M153.4,85.5c0.1,0,0.2,0,0.3,0
					c0.7,0.5-0.9,1.5-0.9,0.1c0.1-0.2,0.3-0.1,0.3,0.1c0,0.1-0.1,0.1-0.1,0.1c0,0-0.1-0.1-0.1-0.1s-0.1-0.1-0.1,0.1
					c0,0.5,0.5,0.7,0.8,0.2c0.1-0.2-0.1-0.4-0.2-0.3C153.3,85.7,153.4,85.5,153.4,85.5z"/>
				<path id="path18940_00000080168886576681426010000007324673166517183617_" class="st5" d="M151.9,86.2c0-0.1,0.1-0.2,0.1-0.4
					c0-0.2-0.1-0.2-0.2-0.2s-0.2,0.1-0.2,0.2c0,0.1,0.1,0.2,0.1,0.4H151.9z"/>
				<path id="path18952_00000109732697874178910910000007002447518378508688_" class="st5" d="M152.5,86.2c0-0.1,0.1-0.2,0.1-0.4
					c0-0.2-0.1-0.2-0.2-0.2s-0.2,0.1-0.2,0.2c0,0.1,0.1,0.2,0.1,0.4H152.5z"/>
				<path id="path18956_00000145739731997705670080000005787813463348711604_" class="st5" d="M152.4,86L152.4,86
					c-0.1,0.2-0.2,0.2-0.3,0.2s-0.2,0-0.2-0.2l0,0l0,0.1c-0.1,0.1-0.1,0.1-0.2,0.2c0,0,0,0,0,0c0,0,0,0,0,0c0,0,0,0,0.1,0
					c0.1,0,0.1-0.1,0.2-0.2c0.1,0.1,0.2,0.1,0.3,0.1s0.2-0.1,0.3-0.1c0.1,0.1,0.1,0.1,0.2,0.2c0,0,0.1,0,0.1,0s0-0.1,0-0.1
					C152.6,86.2,152.5,86.1,152.4,86L152.4,86z"/>
				<path id="path848_00000100371695461643239560000001766135665807067048_" class="st4" d="M154.5,85.1c0.1,0,0.1,0,0.2,0
					c0,0.1,0,0.2,0,0.2c0,0.1,0,0.1,0,0.2c0.1,0,0.1,0,0.2,0h0.1c0,0,0,0.1,0,0.1c-0.1,0-0.2,0-0.4,0c0,0.3,0,0.6,0,0.8
					c0,0.1-0.1,0.1-0.2,0.1c-0.1,0-0.1-0.1-0.1-0.1c0,0,0-0.1,0-0.1c0,0,0.1,0,0.1,0.1c0-0.3,0-0.5,0-0.8l-0.2,0l0.1,0.2l-0.3-0.3
					c0.2,0,0.3,0,0.5,0C154.5,85.3,154.5,85.2,154.5,85.1z"/>
				<path id="path5587_00000087377783459209975010000016242106259775905973_" class="st4" d="M151.9,85.2c-0.2,0-0.4,0-0.4-0.2
					C151.5,84.9,151.7,84.9,151.9,85.2z"/>
				<path id="path5590_00000179629481033220053690000017971077841283481222_" class="st4" d="M153.1,85.2c-0.2,0-0.4,0-0.4-0.2
					C152.7,84.9,152.9,84.9,153.1,85.2z"/>
				<path id="path5633_00000047761293625425160360000007870310982670495641_" class="st5" d="M142.5,85.4h0.1v0.9h-0.1v0.1h0.4v-0.1
					h-0.1v-0.9h0.1v-0.1L142.5,85.4l-0.4-0.1v0.1h0.1v0.9h-0.1v0.1h0.4v-0.1h-0.1L142.5,85.4L142.5,85.4z"/>
				<path id="path24954_00000020390662888969403240000017472904548196464514_" class="st5" d="M143.5,86.3c0.2,0.3,0.6-0.1,0.4-0.6
					c0-0.1-0.2,0-0.1,0.1C143.9,86.1,143.7,86.5,143.5,86.3c0.1-0.1,0-0.1,0.1-0.1c0.1-0.2,0.1-0.4-0.1-0.5
					c-0.2,0.2-0.1,0.3-0.1,0.5C143.4,86.3,143.4,86.3,143.5,86.3c-0.2,0.2-0.4-0.2-0.3-0.5c0.1-0.1-0.1-0.2-0.1-0.1
					C142.8,86.3,143.3,86.6,143.5,86.3z"/>
				<path id="path24961_00000040560529773429237210000008827443062486773657_" class="st5" d="M143.9,86.1c0.1,0.4-0.1,0.9-0.5,0.6
					c-0.1-0.1-0.2,0-0.2,0.1c0.1,0,0.1,0,0.1,0.1c0,0.2-0.3,0.2-0.2-0.1c0.1-0.2,0.2-0.3,0.4-0.2c0.1,0.1,0.2,0.1,0.3,0
					c0-0.1,0.1-0.1,0-0.3L143.9,86.1z"/>
				<path id="path5606_00000029746759504738310060000008838525734968412326_" class="st4" d="M142.6,85.2c-0.2,0-0.4,0-0.4-0.2
					C142.3,84.9,142.5,84.9,142.6,85.2z"/>
				<path id="path5642_00000147210854257074553330000013380095772716287146_" class="st5" d="M144,85.8c0-0.1,0.2-0.1,0.2,0.1h-0.1
					v0.2h0.2v-0.3c0-0.1,0.2-0.1,0.2,0.1h-0.1v0.6h-0.1v-0.3h-0.2h-0.1v0.2c0,0.1-0.2,0.1-0.2-0.1h0.1L144,85.8L144,85.8z"/>
				<path id="path24940_00000133527358589015555970000013358262063267306430_" class="st5" d="M145,85.6c0,0-0.1,0-0.1,0.1
					c-0.1,0-0.1-0.1-0.2,0l0.1,0.1v0.8h-0.1c0,0.1,0.2,0.2,0.2,0.1v-0.5c0.1,0.1,0.2,0.1,0.3-0.1c0-0.2,0-0.3-0.1-0.5
					C145.1,85.7,145,85.6,145,85.6z M145,85.8c0.1,0,0.1,0.1,0.1,0.2s0,0.2-0.1,0.2s-0.1-0.1-0.1-0.2S144.9,85.8,145,85.8z"/>
				<path id="path24891_00000052785532606443063750000007043365977705669821_" class="st5" d="M145.3,85.7c0-0.1,0.2-0.1,0.2,0.1
					h-0.1v0.6c0,0.1-0.2,0.1-0.2-0.1h0.1V85.7z"/>
				<path id="path7696_00000033333690873870986100000018328210304245575819_" class="st5" d="M142.5,85.4h0.1v0.9h-0.1v0.1h0.4v-0.1
					h-0.1v-0.9h0.1v-0.1L142.5,85.4l-0.4-0.1v0.1h0.1v0.9h-0.1v0.1h0.4v-0.1h-0.1L142.5,85.4L142.5,85.4z"/>
				<path id="path7700_00000068640923897937020250000006153033947712284051_" class="st5" d="M143.5,86.3c0.2,0.3,0.6-0.1,0.4-0.6
					c0-0.1-0.2,0-0.1,0.1C143.9,86.1,143.7,86.5,143.5,86.3c0.1-0.1,0-0.1,0.1-0.1c0.1-0.2,0.1-0.4-0.1-0.5
					c-0.2,0.2-0.1,0.3-0.1,0.5C143.4,86.3,143.4,86.3,143.5,86.3c-0.2,0.2-0.4-0.2-0.3-0.5c0.1-0.1-0.1-0.2-0.1-0.1
					C142.8,86.3,143.3,86.6,143.5,86.3z"/>
				<path id="path7702_00000055703544474034887410000010663122374790300330_" class="st5" d="M143.9,86.1c0.1,0.4-0.1,0.9-0.5,0.6
					c-0.1-0.1-0.2,0-0.2,0.1c0.1,0,0.1,0,0.1,0.1c0,0.2-0.3,0.2-0.2-0.1c0.1-0.2,0.2-0.3,0.4-0.2c0.1,0.1,0.2,0.1,0.3,0
					c0-0.1,0.1-0.1,0-0.3L143.9,86.1z"/>
				<path id="path7704_00000127042647699975288620000007615395790293079471_" class="st4" d="M142.6,85.2c-0.2,0-0.4,0-0.4-0.2
					C142.3,84.9,142.5,84.9,142.6,85.2z"/>
				<path id="path7706_00000091703671660641716770000003769868460495739015_" class="st5" d="M144,85.8c0-0.1,0.2-0.1,0.2,0.1h-0.1
					v0.2h0.2v-0.3c0-0.1,0.2-0.1,0.2,0.1h-0.1v0.6h-0.1v-0.3h-0.2h-0.1v0.2c0,0.1-0.2,0.1-0.2-0.1h0.1L144,85.8L144,85.8z"/>
				<path id="path7708_00000070079244997160416150000012659266940619664542_" class="st5" d="M145,85.6c0,0-0.1,0-0.1,0.1
					c-0.1,0-0.1-0.1-0.2,0l0.1,0.1v0.8h-0.1c0,0.1,0.2,0.2,0.2,0.1v-0.5c0.1,0.1,0.2,0.1,0.3-0.1c0-0.2,0-0.3-0.1-0.5
					C145.1,85.7,145,85.6,145,85.6z M145,85.8c0.1,0,0.1,0.1,0.1,0.2s0,0.2-0.1,0.2s-0.1-0.1-0.1-0.2S144.9,85.8,145,85.8z"/>
				<path id="path7710_00000021808831965376067790000004300921938364871065_" class="st5" d="M145.3,85.7c0-0.1,0.2-0.1,0.2,0.1
					h-0.1v0.6c0,0.1-0.2,0.1-0.2-0.1h0.1V85.7z"/>
				<path id="path7716_00000121272577389815843590000017910914339709875351_" class="st5" d="M153.1,85.3h0.3v0.6h0.1V86h-0.1v0.6
					h-0.2V86h-0.1v-0.1h0.1v-0.5L153.1,85.3L153.1,85.3z"/>
				<path id="path7718_00000086693443354562142270000001217002824506215870_" class="st5" d="M153.4,85.5c0.1,0,0.2,0,0.3,0
					c0.7,0.5-0.9,1.5-0.9,0.1c0.1-0.2,0.3-0.1,0.3,0.1c0,0.1-0.1,0.1-0.1,0.1c0,0-0.1-0.1-0.1-0.1s-0.1-0.1-0.1,0.1
					c0,0.5,0.5,0.7,0.8,0.2c0.1-0.2-0.1-0.4-0.2-0.3C153.3,85.7,153.4,85.5,153.4,85.5z"/>
				<path id="path7722_00000001622684065237507240000015382633930602868147_" class="st5" d="M151.9,86.2c0-0.1,0.1-0.2,0.1-0.4
					c0-0.2-0.1-0.2-0.2-0.2s-0.2,0.1-0.2,0.2c0,0.1,0.1,0.2,0.1,0.4H151.9z"/>
				<path id="path7724_00000018929159367200071920000017770102104260629376_" class="st5" d="M152.5,86.2c0-0.1,0.1-0.2,0.1-0.4
					c0-0.2-0.1-0.2-0.2-0.2s-0.2,0.1-0.2,0.2c0,0.1,0.1,0.2,0.1,0.4H152.5z"/>
				<path id="path7726_00000040575320734330380370000006765795428654263473_" class="st5" d="M152.4,86L152.4,86
					c-0.1,0.2-0.2,0.2-0.3,0.2s-0.2,0-0.2-0.2l0,0l0,0.1c-0.1,0.1-0.1,0.1-0.2,0.2c0,0,0,0,0,0c0,0,0,0,0,0c0,0,0,0,0.1,0
					c0.1,0,0.1-0.1,0.2-0.2c0.1,0.1,0.2,0.1,0.3,0.1s0.2-0.1,0.3-0.1c0.1,0.1,0.1,0.1,0.2,0.2c0,0,0.1,0,0.1,0s0-0.1,0-0.1
					C152.6,86.2,152.5,86.1,152.4,86L152.4,86z"/>
				<path id="path7728_00000098918765749822141530000001964770121426233492_" class="st4" d="M154.5,85.1c0.1,0,0.1,0,0.2,0
					c0,0.1,0,0.2,0,0.2c0,0.1,0,0.1,0,0.2c0.1,0,0.1,0,0.2,0h0.1c0,0,0,0.1,0,0.1c-0.1,0-0.2,0-0.4,0c0,0.3,0,0.6,0,0.8
					c0,0.1-0.1,0.1-0.2,0.1c-0.1,0-0.1-0.1-0.1-0.1c0,0,0-0.1,0-0.1c0,0,0.1,0,0.1,0.1c0-0.3,0-0.5,0-0.8l-0.2,0l0.1,0.2l-0.3-0.3
					c0.2,0,0.3,0,0.5,0C154.5,85.3,154.5,85.2,154.5,85.1z"/>
				<path id="path7730_00000095309205596526833770000009501804528471268230_" class="st4" d="M151.9,85.2c-0.2,0-0.4,0-0.4-0.2
					C151.5,84.9,151.7,84.9,151.9,85.2z"/>
				<path id="path7732_00000003089059050014778940000000740447399081556873_" class="st4" d="M153.1,85.2c-0.2,0-0.4,0-0.4-0.2
					C152.7,84.9,152.9,84.9,153.1,85.2z"/>
			</g>
		</g>
	</g>
	<g id="Croce_Diocesi" transform="translate(-1.1096578,-1.1079318)">
		<g id="Gruppo">
			<path class="st1" d="M40,79.9v-1.8l-1.5,1.3h-3.2v-3.2l1.3-1.5h-1.8c-0.3-0.4-0.8-1.3-1.2-2c-0.4,0.7-0.9,1.6-1.2,2h-1.8l1.3,1.5
				v3.2h-3.2l-1.5-1.3v1.8c-0.4,0.3-1.4,0.8-2,1.2c0.7,0.4,1.6,0.9,2,1.2v1.8l1.5-1.3h3.2V86l-1.3,1.5h1.8c0.3,0.4,0.8,1.3,1.2,2
				c0.4-0.7,0.9-1.6,1.2-2h1.8L35.3,86v-3.2h3.2l1.5,1.3v-1.8c0.4-0.3,1.3-0.8,2-1.2C41.3,80.7,40.4,80.2,40,79.9z"/>
			<g>
				<path id="path5243_00000051346232912869295460000005997668942468790412_" class="st2" d="M35.5,81.1c0,1-0.9,1.9-1.9,1.9
					s-1.9-0.8-1.9-1.9c0-1,0.9-1.9,1.9-1.9C34.7,79.2,35.5,80.1,35.5,81.1z"/>
				<path id="path2167_00000113311313166239083570000006059479143120320160_" class="st3" d="M33.5,81.2h0.3c0.5,0.1,0.8,0.3,1,0.6
					c0.1-0.2,0.2-0.3,0.1-0.5c0.2,0,0.3-0.1,0.5-0.2c-0.2-0.2-0.3-0.2-0.5-0.2c0-0.2,0-0.4-0.1-0.5c-0.3,0.4-0.6,0.6-1,0.6
					c0,0-0.3,0-0.3,0c-0.5-0.1-0.8-0.3-1-0.6c-0.1,0.2-0.2,0.3-0.1,0.5c-0.2,0-0.4,0.1-0.5,0.2c0.2,0.2,0.3,0.2,0.5,0.2
					c0,0.2,0,0.4,0.1,0.5C32.7,81.5,33,81.3,33.5,81.2z M33.5,81v0.3c0,0.5-0.3,0.8-0.6,1.1c0.2,0.1,0.3,0.2,0.5,0.1
					c0,0.2,0.1,0.3,0.2,0.5c0.2-0.2,0.2-0.3,0.2-0.5c0.2,0,0.4,0,0.5-0.1c-0.4-0.3-0.6-0.6-0.6-1.1c0,0,0-0.3,0-0.3
					c0-0.5,0.3-0.8,0.6-1.1c-0.2-0.1-0.3-0.2-0.5-0.1c0-0.2-0.1-0.3-0.2-0.5c-0.2,0.2-0.2,0.3-0.2,0.5c-0.2,0-0.4,0-0.5,0.1
					C33.2,80.2,33.4,80.5,33.5,81z"/>
			</g>
			<g>
				<path class="st4" d="M42.8,81.1c-0.8-0.5-2.3-1.3-2.4-1.4v-2.4l-2,1.7h-2.6v-2.6l1.7-2.1H35c-0.1,0-0.9-1.6-1.4-2.4
					c-0.5,0.8-1.3,2.3-1.4,2.4h-2.4l1.7,2V79h-2.6l-2-1.7v2.4c0,0.1-1.6,0.9-2.4,1.4c0.8,0.5,2.4,1.3,2.4,1.4v2.4l2-1.7h2.6v2.6
					l-1.7,2.1h2.4c0.1,0,0.9,1.6,1.4,2.4c0.5-0.8,1.3-2.3,1.4-2.4h2.4l-1.7-2v-2.6h2.6l2,1.7v-2.4C40.4,82.4,42,81.6,42.8,81.1z
					 M40,82.3v1.8l-1.5-1.3h-3.2V86l1.3,1.5h-1.8c-0.3,0.4-0.8,1.3-1.2,2c-0.4-0.7-0.9-1.6-1.2-2h-1.8l1.3-1.5v-3.2h-3.2l-1.5,1.3
					v-1.8c-0.4-0.3-1.4-0.8-2-1.2c0.7-0.4,1.6-0.9,2-1.2v-1.8l1.5,1.3h3.2v-3.2l-1.3-1.5h1.8c0.3-0.4,0.8-1.3,1.2-2
					c0.4,0.7,0.9,1.6,1.2,2h1.8l-1.3,1.5v3.2h3.2l1.5-1.3v1.8c0.4,0.3,1.3,0.8,2,1.2C41.3,81.5,40.4,82,40,82.3z"/>
				<path id="path4214_00000124841969825724313440000011827507411928309153_" class="st4" d="M36.9,81.1c0-0.1-0.1-0.2-0.2-0.2
					c-0.1,0-0.1,0-0.1,0.1c0,0,0,0.1-0.1,0.1c-0.1,0-0.1-0.1-0.1-0.1s0-0.1-0.2-0.1s-0.4,0.2-0.4,0.2s0.2,0.2,0.4,0.2
					c0.1,0,0.2-0.1,0.2-0.1c0,0,0.1-0.1,0.1-0.1c0.1,0,0.1,0.1,0.1,0.1s0,0.1,0.1,0.1C36.9,81.3,36.9,81.2,36.9,81.1z"/>
				<path id="path4136_00000083795449678230371600000008609943445218646146_" class="st4" d="M30.3,81.1c0-0.1,0.1-0.2,0.2-0.2
					c0.1,0,0.1,0,0.1,0.1c0,0,0,0.1,0.1,0.1c0.1,0,0.1-0.1,0.1-0.1c0,0,0-0.1,0.2-0.1s0.4,0.2,0.4,0.2s-0.2,0.2-0.4,0.2
					c-0.1,0-0.1-0.1-0.2-0.1c0,0-0.1-0.1-0.1-0.1c-0.1,0-0.1,0.1-0.1,0.1s0,0.1-0.1,0.1C30.4,81.3,30.4,81.2,30.3,81.1z"/>
				<path id="path4270_00000003826205051312967980000003533762151927772341_" class="st4" d="M33.6,84.4c0.1,0,0.2-0.1,0.2-0.2
					c0-0.1,0-0.1-0.1-0.1c0,0-0.1,0-0.1-0.1c0-0.1,0-0.1,0.1-0.1s0.1,0,0.1-0.2c0-0.1-0.2-0.4-0.2-0.4s-0.2,0.2-0.2,0.4
					c0,0.1,0.1,0.2,0.1,0.2c0,0,0.1,0.1,0.1,0.1c0,0.1,0,0.1-0.1,0.1c0,0-0.1,0-0.1,0.1C33.5,84.3,33.5,84.4,33.6,84.4z"/>
				<path id="path4260_00000096781292268850484700000001926938168883803805_" class="st4" d="M33.6,77.8c0.1,0,0.2,0.1,0.2,0.2
					c0,0.1,0,0.1-0.1,0.1c0,0-0.1,0-0.1,0.1c0,0.1,0,0.1,0.1,0.1s0.1,0,0.1,0.2c0,0.1-0.2,0.4-0.2,0.4s-0.2-0.2-0.2-0.4
					c0-0.1,0.1-0.2,0.1-0.2c0,0,0.1-0.1,0.1-0.1c0-0.1,0-0.1-0.1-0.1c0,0-0.1,0-0.1-0.1C33.5,77.9,33.5,77.8,33.6,77.8z"/>
				<path id="path4216_00000045595628234914463580000005785050024468033970_" class="st4" d="M41.6,81.1c-0.1,0.1-0.2,0.2-0.3,0.2
					c-0.1,0-0.1-0.1-0.2-0.2c0,0-0.1,0.2-0.4,0.2c-0.3,0-0.5-0.3-0.5-0.3s0.3-0.3,0.5-0.3s0.4,0.2,0.4,0.2c0-0.1,0.1-0.2,0.2-0.2
					C41.4,80.9,41.5,81,41.6,81.1z M40.9,81.1c-0.2-0.2-0.3-0.1-0.4,0C40.6,81.2,40.8,81.3,40.9,81.1z"/>
				<path id="path4145_00000133491700226319765620000008249576346911178129_" class="st4" d="M25.6,81.1c0.1,0.1,0.2,0.2,0.4,0.2
					c0.1,0,0.1-0.1,0.2-0.2c0,0,0.1,0.2,0.4,0.2c0.3,0,0.5-0.3,0.5-0.3s-0.3-0.3-0.5-0.3S26.2,81,26.2,81c0-0.1-0.1-0.2-0.2-0.2
					C25.8,80.9,25.7,81,25.6,81.1z M26.4,81.1c0.1-0.2,0.3-0.1,0.4,0C26.6,81.2,26.5,81.3,26.4,81.1z"/>
				<path id="path4272_00000152976497674395658440000015902835043650335166_" class="st4" d="M33.6,89.1c-0.1-0.1-0.2-0.2-0.2-0.3
					c0-0.1,0.1-0.1,0.2-0.2c0,0-0.2-0.1-0.2-0.4c0-0.3,0.3-0.5,0.3-0.5s0.3,0.3,0.3,0.5s-0.2,0.4-0.2,0.4c0.1,0,0.2,0.1,0.2,0.2
					C33.8,88.9,33.8,89,33.6,89.1z M33.6,88.4c0.2-0.2,0.1-0.3,0-0.4C33.5,88.1,33.5,88.2,33.6,88.4z"/>
				<path id="path4262_00000118372482038433654210000001200152236950545031_" class="st4" d="M33.6,73.1c-0.1,0.1-0.2,0.2-0.2,0.3
					c0,0.1,0.1,0.1,0.2,0.2c0,0-0.2,0.1-0.2,0.4c0,0.3,0.3,0.5,0.3,0.5S34,74.3,34,74s-0.2-0.4-0.2-0.4c0.1,0,0.2-0.1,0.2-0.2
					C33.8,73.3,33.8,73.2,33.6,73.1z M33.6,73.8c0.2,0.2,0.1,0.3,0,0.4C33.5,74.1,33.5,74,33.6,73.8z"/>
				<path id="path4266_00000038375508681581047290000000688612142087414955_" class="st4" d="M34.4,84.6c0.1,0.2,0,0.4-0.1,0.5
					c-0.1,0.1-0.3,0.2-0.3,0.2s0.1-0.2,0.1-0.3c0-0.2-0.2-0.2-0.2-0.2c0,0-0.2,0-0.2,0.2c0,0.3,0.1,0.4,0.3,0.6
					c0.2,0.2,0.5,0.3,0.6,0.4c0.1,0.1,0.2,0.1,0.2,0.1c0.2,0.2,0.3,0.3,0.3,0.5s0,0.4,0,0.4s0.2-0.1,0.4-0.1c0.2,0,0.3,0.2,0.3,0.3
					c0,0.1-0.1,0.2-0.3,0.2c-0.1,0-0.3-0.2-0.3-0.2h0.2c0,0,0,0,0.1,0s0.1,0,0.1-0.1c0,0,0-0.2-0.2-0.1c-0.2,0-0.3,0.1-0.4,0.2
					c-0.2,0.2-0.3,0.2-0.6,0.2c-0.1,0-0.3,0-0.4-0.1c0,0-0.2-0.1-0.2-0.1c-0.1-0.1-0.3-0.4-0.3-0.4v-1c0,0,0.2,0.2,0.2,0.4
					c0,0.2-0.1,0.4-0.1,0.4s0,0.2,0.1,0.3c0.1,0.2,0.2,0.2,0.3,0.3c0.2,0.1,0.3,0.2,0.4,0.1c0.3-0.2,0.2-0.6,0.2-0.6l0.3,0.1
					c0,0,0-0.3-0.3-0.5C34.5,86,34.3,86,34,85.7c-0.3-0.3-0.4-0.4-0.4-0.8c0-0.3,0.1-0.5,0.5-0.7c0.5-0.2,0.3-0.6,0.3-0.6
					c-0.3-0.1-0.6-0.3-0.8-0.6c0,0,0-0.1,0-0.1c0,0,0.1,0,0.1,0c0.2,0.2,0.5,0.5,0.9,0.6c0.1,0,0.2,0,0.2,0.1c0.1,0,0.1,0,0.1-0.1
					c0-0.1,0-0.1,0-0.1c0,0,0,0,0,0c0,0,0,0,0,0c0,0,0,0-0.1,0c0,0,0,0,0,0c0,0,0,0,0,0.1c0,0,0,0-0.1,0s-0.1,0-0.1,0c0,0,0,0-0.1,0
					s0,0,0,0s0-0.1,0-0.1c0,0,0-0.1,0.1-0.1c0,0,0.1-0.1,0.1-0.1c0,0,0.1,0,0.2,0s0.1,0.1,0.1,0.1c0,0,0.1,0.1,0.1,0.2
					c0,0,0,0.1,0,0.1c0,0,0,0.1,0,0.1c-0.1,0.1-0.2,0.1-0.2,0.1c0,0,0,0-0.1,0c0,0,0.1,0.2,0.1,0.3c0,0.2-0.2,0.4-0.2,0.4
					c0.3,0.2,0.5,0.5,0.5,1c0,0.5-0.5,1.1-0.5,1.1c-0.2,0.2-0.4,0.4-0.5,0.9c0,0.1,0.1,0.2,0.2,0.2c0.1,0,0.2-0.1,0.2-0.1
					c0,0,0,0.3-0.2,0.3c-0.2,0-0.4-0.1-0.4-0.4c0-0.4,0.2-0.7,0.5-1c0,0,0.5-0.6,0.5-0.9c0-0.1-0.1-0.3-0.2-0.4
					c-0.1,0-0.1,0-0.2-0.2h0.2c0,0.1,0,0.1,0.1,0C34.7,84.8,34.6,84.7,34.4,84.6z"/>
				<path id="path4268_00000025423830869254133130000003519977972219951024_" class="st4" d="M32.8,84.6c-0.1,0.2,0,0.4,0.1,0.5
					c0.1,0.1,0.3,0.2,0.3,0.2s-0.1-0.2-0.1-0.3c0-0.2,0.2-0.2,0.2-0.2s0.2,0,0.2,0.2c0,0.3-0.1,0.4-0.3,0.6
					c-0.2,0.2-0.5,0.3-0.6,0.4C32.5,86,32.4,86,32.4,86c-0.2,0.2-0.3,0.3-0.3,0.5s0,0.4,0,0.4s-0.2-0.1-0.4-0.1
					c-0.2,0-0.3,0.2-0.3,0.3c0,0.1,0.1,0.2,0.3,0.2c0.1,0,0.3-0.2,0.3-0.2h-0.2c0,0,0,0-0.1,0c0,0-0.1,0-0.1-0.1c0,0,0-0.2,0.2-0.1
					c0.1,0,0.3,0.1,0.4,0.2c0.2,0.2,0.3,0.2,0.6,0.2c0.1,0,0.3,0,0.4-0.1c0,0,0.2-0.1,0.2-0.1c0.1-0.1,0.3-0.4,0.3-0.4v-1
					c0,0-0.2,0.2-0.2,0.4c0,0.2,0.1,0.4,0.1,0.4s0,0.2-0.1,0.3c-0.1,0.2-0.2,0.2-0.3,0.3c-0.2,0.1-0.3,0.2-0.4,0.1
					c-0.3-0.2-0.2-0.6-0.2-0.6l-0.3,0.1c0,0,0-0.3,0.3-0.5c0.2-0.1,0.4-0.2,0.7-0.4c0.3-0.3,0.4-0.4,0.4-0.8c0-0.3-0.1-0.5-0.5-0.7
					c-0.5-0.2-0.3-0.6-0.3-0.6c0.3-0.1,0.6-0.3,0.8-0.6c0,0,0-0.1,0-0.1s-0.1,0-0.1,0c-0.2,0.2-0.5,0.5-0.9,0.6
					c-0.1,0-0.2,0-0.2,0.1s-0.1,0-0.1-0.1c0-0.1,0-0.1,0-0.1c0,0,0,0,0,0c0,0,0,0,0,0c0,0,0,0,0.1,0c0,0,0,0,0,0c0,0,0,0,0,0.1
					c0,0,0,0,0.1,0s0.1,0,0.1,0c0,0,0,0,0.1,0s0,0,0,0c0,0,0-0.1,0-0.1c0,0,0-0.1-0.1-0.1c0,0-0.1-0.1-0.1-0.1c0,0-0.1,0-0.2,0
					s-0.1,0.1-0.1,0.1c0,0-0.1,0.1-0.1,0.2c0,0,0,0.1,0,0.1c0,0,0,0.1,0,0.1c0.1,0.1,0.2,0.1,0.2,0.1c0,0,0,0,0.1,0
					c0,0-0.1,0.2-0.1,0.3c0,0.2,0.2,0.4,0.2,0.4c-0.3,0.2-0.5,0.5-0.5,1c0,0.5,0.5,1.1,0.5,1.1c0.2,0.2,0.4,0.4,0.5,0.9
					c0,0.1-0.1,0.2-0.2,0.2c-0.1,0-0.2-0.1-0.2-0.1c0,0,0,0.3,0.2,0.3c0.2,0,0.4-0.1,0.4-0.4c0-0.4-0.2-0.7-0.5-1
					c0,0-0.5-0.6-0.5-0.9c0-0.1,0.1-0.3,0.2-0.4c0.1,0,0.1,0,0.2-0.2h-0.2c0,0.1,0,0.1-0.1,0C32.5,84.8,32.6,84.7,32.8,84.6z"/>
				<path id="path4212_00000170969908574482362460000004352723583583410592_" class="st4" d="M37.1,81.9c0.2,0.1,0.4,0,0.5-0.1
					c0.1-0.1,0.2-0.3,0.2-0.3s-0.2,0.1-0.3,0.1c-0.2,0-0.2-0.2-0.2-0.2c0,0,0-0.2,0.2-0.2c0.3,0,0.4,0.1,0.6,0.3
					c0.2,0.2,0.3,0.5,0.4,0.6c0.1,0.1,0.1,0.2,0.1,0.2c0.2,0.2,0.3,0.3,0.5,0.3c0.2,0.1,0.4,0,0.4,0s-0.1,0.2-0.1,0.4
					c0,0.2,0.2,0.3,0.3,0.3c0.1,0,0.2-0.1,0.2-0.3c0-0.1-0.2-0.3-0.2-0.3v0.2c0,0,0,0,0,0.1c0,0,0,0.1-0.1,0.1c0,0-0.2,0-0.1-0.2
					c0-0.2,0-0.3,0.2-0.4c0.2-0.2,0.2-0.3,0.2-0.6c0-0.1,0-0.3-0.1-0.4c0,0-0.1-0.2-0.1-0.2c-0.1-0.1-0.4-0.3-0.4-0.3h-1
					c0,0,0.2,0.2,0.4,0.2c0.2,0,0.4-0.1,0.4-0.1s0.2,0,0.3,0.1c0.2,0.1,0.2,0.2,0.3,0.3s0.2,0.3,0.1,0.4c-0.2,0.3-0.6,0.2-0.6,0.2
					l0.1,0.3c0,0-0.3,0-0.5-0.3c-0.1-0.2-0.2-0.4-0.4-0.7c-0.3-0.3-0.5-0.4-0.8-0.4c-0.3,0-0.5,0.1-0.7,0.5
					c-0.2,0.5-0.6,0.3-0.6,0.3c-0.1-0.3-0.3-0.6-0.6-0.8c0,0-0.1,0-0.1,0s0,0.1,0,0.1c0.2,0.2,0.5,0.5,0.6,0.9c0,0.1,0,0.2,0,0.2
					s0,0.1,0,0.1c0,0-0.1,0-0.1,0c0,0,0,0,0,0c0,0,0,0,0,0c0,0,0,0,0-0.1c0,0,0,0,0,0c0,0,0,0,0,0c0,0,0,0,0-0.1c0,0,0-0.1,0-0.1
					c0,0,0,0,0-0.1s0,0,0-0.1s0,0-0.1,0c0,0-0.1,0-0.1,0.1s-0.1,0.1-0.1,0.1c0,0.1,0,0.1,0,0.2s0.1,0.1,0.1,0.1c0,0,0.1,0.1,0.2,0.1
					c0,0,0.1,0,0.1,0c0,0,0.1,0,0.1-0.1c0.1-0.1,0.1-0.2,0.1-0.2c0,0,0,0,0-0.1c0,0,0.2,0.1,0.3,0.1c0.2,0,0.4-0.2,0.4-0.2
					c0.2,0.3,0.5,0.5,1,0.5c0.5,0,1.1-0.5,1.1-0.5c0.2-0.2,0.4-0.4,0.9-0.5c0.1,0,0.2,0.1,0.2,0.2c0,0.1-0.1,0.2-0.1,0.2
					c0,0,0.3,0,0.3-0.2c0-0.2-0.1-0.4-0.4-0.4c-0.4,0.1-0.7,0.2-1,0.4c0,0-0.6,0.5-0.9,0.6c-0.1,0-0.3-0.1-0.4-0.2
					c0-0.1,0-0.1-0.2-0.2v0.2c0,0,0,0,0,0.1C37.4,82.2,37.2,82.1,37.1,81.9z"/>
				<path id="path4210_00000031907986966322499970000002577018923212828555_" class="st4" d="M37.1,80.3c0.2-0.1,0.4,0,0.5,0.1
					c0.1,0.1,0.2,0.3,0.2,0.3s-0.2-0.1-0.3-0.1c-0.2,0-0.2,0.2-0.2,0.2c0,0,0,0.2,0.2,0.2c0.3,0,0.4-0.1,0.6-0.3
					c0.2-0.2,0.3-0.5,0.4-0.6c0.1-0.1,0.1-0.2,0.1-0.2c0.2-0.2,0.3-0.3,0.5-0.3s0.4,0,0.4,0s-0.1-0.2-0.1-0.4c0-0.2,0.2-0.3,0.3-0.3
					c0.1,0,0.2,0.1,0.2,0.3c0,0.1-0.2,0.3-0.2,0.3v-0.2c0,0,0,0,0-0.1c0,0,0-0.1-0.1-0.1c0,0-0.2,0-0.1,0.2c0,0.2,0,0.3,0.2,0.4
					c0.2,0.2,0.2,0.3,0.2,0.6c0,0.1,0,0.3-0.1,0.4c0,0-0.1,0.2-0.1,0.2c-0.1,0.1-0.4,0.3-0.4,0.3h-1c0,0,0.2-0.2,0.4-0.2
					c0.2,0,0.4,0.1,0.4,0.1s0.2,0,0.3-0.1c0.2-0.1,0.2-0.2,0.3-0.3s0.2-0.3,0.1-0.4c-0.2-0.3-0.6-0.2-0.6-0.2l0.1-0.3
					c0,0-0.3,0-0.5,0.3c-0.1,0.2-0.2,0.4-0.4,0.7c-0.3,0.3-0.5,0.4-0.8,0.4c-0.3,0-0.5-0.1-0.7-0.5c-0.2-0.5-0.6-0.3-0.6-0.3
					c-0.1,0.3-0.3,0.6-0.6,0.8c0,0-0.1,0-0.1,0s0-0.1,0-0.1c0.2-0.2,0.5-0.5,0.6-0.9c0-0.1,0-0.2,0-0.2s0-0.1,0-0.1c0,0-0.1,0-0.1,0
					c0,0,0,0,0,0c0,0,0,0,0,0c0,0,0,0,0,0.1c0,0,0,0,0,0s0,0,0,0c0,0,0,0,0,0.1c0,0,0,0.1,0,0.1c0,0,0,0,0,0.1s0,0,0,0.1s0,0-0.1,0
					c0,0-0.1,0-0.1-0.1s-0.1-0.1-0.1-0.1c0-0.1,0-0.1,0-0.2s0.1-0.1,0.1-0.1c0,0,0.1-0.1,0.2-0.1c0,0,0.1,0,0.1,0c0,0,0.1,0,0.1,0.1
					c0.1,0.1,0.1,0.2,0.1,0.2c0,0,0,0,0,0.1c0,0,0.2-0.1,0.3-0.1c0.2,0,0.4,0.2,0.4,0.2c0.2-0.3,0.5-0.5,1-0.5
					c0.5,0,1.1,0.5,1.1,0.5c0.2,0.2,0.4,0.4,0.9,0.5c0.1,0,0.2-0.1,0.2-0.2c0-0.1-0.1-0.2-0.1-0.2c0,0,0.3,0,0.3,0.2
					c0,0.2-0.1,0.4-0.4,0.4c-0.4-0.1-0.7-0.2-1-0.4c0,0-0.6-0.5-0.9-0.6c-0.1,0-0.3,0.1-0.4,0.2c0,0.1,0,0.1-0.2,0.2V80
					c0,0,0,0,0-0.1C37.4,80,37.2,80.1,37.1,80.3z"/>
				<path id="path4134_00000169559405445350675470000006304061160939636368_" class="st4" d="M30.2,81.9c-0.2,0.1-0.4,0-0.5-0.1
					c-0.1-0.1-0.2-0.3-0.2-0.3s0.2,0.1,0.3,0.1c0.2,0,0.2-0.2,0.2-0.2c0,0,0-0.2-0.2-0.2c-0.3,0-0.4,0.1-0.6,0.3
					c-0.2,0.2-0.3,0.5-0.4,0.6c-0.1,0.1-0.1,0.2-0.1,0.2c-0.1,0.2-0.3,0.3-0.5,0.3s-0.4,0-0.4,0s0.1,0.2,0.1,0.4
					c0,0.2-0.2,0.3-0.3,0.3c-0.1,0-0.2-0.1-0.2-0.3c0-0.1,0.2-0.3,0.2-0.3v0.2c0,0,0,0,0,0.1s0,0.1,0.1,0.1c0,0,0.1,0,0.1-0.2
					c0-0.2,0-0.3-0.2-0.4c-0.2-0.2-0.2-0.3-0.2-0.6c0-0.1,0-0.3,0.1-0.4c0,0,0.1-0.2,0.1-0.2c0.1-0.1,0.4-0.3,0.4-0.3h1
					c0,0-0.2,0.2-0.4,0.2c-0.2,0-0.4-0.1-0.4-0.1s-0.2,0-0.3,0.1c-0.2,0.1-0.2,0.2-0.3,0.3s-0.1,0.3-0.1,0.4
					c0.1,0.3,0.6,0.2,0.6,0.2l-0.1,0.3c0,0,0.3,0,0.5-0.3c0.1-0.2,0.1-0.4,0.4-0.7c0.3-0.3,0.5-0.4,0.8-0.4c0.3,0,0.5,0.1,0.7,0.5
					c0.1,0.5,0.6,0.3,0.6,0.3c0.1-0.3,0.4-0.6,0.6-0.8c0,0,0.1,0,0.1,0s0,0.1,0,0.1c-0.2,0.2-0.5,0.5-0.6,0.9c0,0.1,0,0.2,0,0.2
					s0,0.1,0,0.1c0,0,0.1,0,0.1,0c0,0,0,0,0,0c0,0,0,0,0,0c0,0,0,0,0-0.1c0,0,0,0,0,0c0,0,0,0,0,0c0,0,0,0,0-0.1s0-0.1,0-0.1
					c0,0,0,0,0-0.1s0,0,0-0.1c0,0,0,0,0.1,0c0,0,0.1,0,0.1,0.1s0.1,0.1,0.1,0.1c0,0.1,0,0.1,0,0.2s-0.1,0.1-0.1,0.1
					c0,0-0.1,0.1-0.1,0.1c0,0-0.1,0-0.1,0s-0.1,0-0.1-0.1c-0.1-0.1-0.1-0.2-0.1-0.2c0,0,0,0,0-0.1c0,0-0.2,0.1-0.4,0.1
					c-0.2,0-0.4-0.2-0.4-0.2c-0.2,0.3-0.5,0.5-1,0.5c-0.5,0-1.1-0.5-1.1-0.5c-0.2-0.2-0.4-0.4-0.9-0.5c-0.1,0-0.2,0.1-0.2,0.2
					c0,0.1,0.1,0.2,0.1,0.2c0,0-0.3,0-0.3-0.2c0-0.2,0.1-0.4,0.4-0.4c0.4,0.1,0.7,0.2,1,0.4c0,0,0.6,0.5,0.9,0.6
					c0.1,0,0.3-0.1,0.4-0.2c0-0.1,0-0.1,0.2-0.2v0.2c0,0,0,0,0,0.1C29.9,82.2,30.1,82.1,30.2,81.9z"/>
				<path id="path4174_00000129928723312393903270000015384880948928124594_" class="st4" d="M30.2,80.3c-0.2-0.1-0.4,0-0.5,0.1
					c-0.1,0.1-0.2,0.3-0.2,0.3s0.2-0.1,0.3-0.1c0.2,0,0.2,0.2,0.2,0.2c0,0,0,0.2-0.2,0.2c-0.3,0-0.4-0.1-0.6-0.3
					c-0.2-0.2-0.3-0.5-0.4-0.6c-0.1-0.1-0.1-0.2-0.1-0.2c-0.1-0.2-0.3-0.3-0.5-0.3s-0.4,0-0.4,0s0.1-0.2,0.1-0.4
					c0-0.2-0.2-0.3-0.3-0.3c-0.1,0-0.2,0.1-0.2,0.3c0,0.1,0.2,0.3,0.2,0.3v-0.2c0,0,0,0,0-0.1s0-0.1,0.1-0.1c0,0,0.1,0,0.1,0.2
					c0,0.2,0,0.3-0.2,0.4c-0.2,0.2-0.2,0.3-0.2,0.6c0,0.1,0,0.3,0.1,0.4c0,0,0.1,0.2,0.1,0.2c0.1,0.1,0.4,0.3,0.4,0.3h1
					c0,0-0.2-0.2-0.4-0.2c-0.2,0-0.4,0.1-0.4,0.1s-0.2,0-0.3-0.1c-0.2-0.1-0.2-0.2-0.3-0.3s-0.1-0.3-0.1-0.4
					c0.1-0.3,0.6-0.2,0.6-0.2l-0.1-0.3c0,0,0.3,0,0.5,0.3c0.1,0.2,0.1,0.4,0.4,0.7c0.3,0.3,0.5,0.4,0.8,0.4c0.3,0,0.5-0.1,0.7-0.5
					c0.1-0.5,0.6-0.3,0.6-0.3c0.1,0.3,0.4,0.6,0.6,0.8c0,0,0.1,0,0.1,0s0-0.1,0-0.1c-0.2-0.2-0.5-0.5-0.6-0.9c0-0.1,0-0.2,0-0.2
					s0-0.1,0-0.1c0,0,0.1,0,0.1,0c0,0,0,0,0,0c0,0,0,0,0,0c0,0,0,0,0,0.1c0,0,0,0,0,0s0,0,0,0c0,0,0,0,0,0.1s0,0.1,0,0.1
					c0,0,0,0,0,0.1s0,0,0,0.1c0,0,0,0,0.1,0c0,0,0.1,0,0.1-0.1s0.1-0.1,0.1-0.1c0-0.1,0-0.1,0-0.2s-0.1-0.1-0.1-0.1
					c0,0-0.1-0.1-0.1-0.1c0,0-0.1,0-0.1,0c0,0-0.1,0-0.1,0.1c-0.1,0.1-0.1,0.2-0.1,0.2c0,0,0,0,0,0.1c0,0-0.2-0.1-0.4-0.1
					c-0.2,0-0.4,0.2-0.4,0.2c-0.2-0.3-0.5-0.5-1-0.5c-0.5,0-1.1,0.5-1.1,0.5c-0.2,0.2-0.4,0.4-0.9,0.5c-0.1,0-0.2-0.1-0.2-0.2
					c0-0.1,0.1-0.2,0.1-0.2c0,0-0.3,0-0.3,0.2c0,0.2,0.1,0.4,0.4,0.4c0.4-0.1,0.7-0.2,1-0.4c0,0,0.6-0.5,0.9-0.6
					c0.1,0,0.3,0.1,0.4,0.2c0,0.1,0,0.1,0.2,0.2V80c0,0,0,0,0-0.1C29.9,80,30.1,80.1,30.2,80.3z"/>
				<path id="path4256_00000176734044771541454690000016028217759597295764_" class="st4" d="M34.4,77.7c0.1-0.2,0-0.4-0.1-0.5
					c-0.1-0.1-0.3-0.2-0.3-0.2s0.1,0.2,0.1,0.3c0,0.2-0.2,0.2-0.2,0.2c0,0-0.2,0-0.2-0.2c0-0.3,0.1-0.4,0.3-0.6
					c0.2-0.2,0.5-0.3,0.6-0.4c0.1-0.1,0.2-0.1,0.2-0.1c0.2-0.2,0.3-0.3,0.3-0.5s0-0.4,0-0.4s0.2,0.1,0.4,0.1c0.2,0,0.3-0.2,0.3-0.3
					c0-0.1-0.1-0.2-0.3-0.2c-0.1,0-0.3,0.2-0.3,0.2h0.2c0,0,0,0,0.1,0s0.1,0,0.1,0.1c0,0,0,0.2-0.2,0.1c-0.2,0-0.3-0.1-0.4-0.2
					c-0.2-0.2-0.3-0.2-0.6-0.2c-0.1,0-0.3,0-0.4,0.1c0,0-0.2,0.1-0.2,0.1c-0.1,0.1-0.3,0.4-0.3,0.4v1c0,0,0.2-0.2,0.2-0.4
					c0-0.2-0.1-0.4-0.1-0.4s0-0.2,0.1-0.3c0.1-0.2,0.2-0.2,0.3-0.3c0.2-0.1,0.3-0.2,0.4-0.1c0.3,0.2,0.2,0.6,0.2,0.6l0.3-0.1
					c0,0,0,0.3-0.3,0.5c-0.2,0.1-0.4,0.2-0.7,0.4c-0.3,0.3-0.4,0.4-0.4,0.8c0,0.3,0.1,0.5,0.5,0.7c0.5,0.2,0.3,0.6,0.3,0.6
					c-0.3,0.1-0.6,0.3-0.8,0.6c0,0,0,0.1,0,0.1c0,0,0.1,0,0.1,0c0.2-0.2,0.5-0.5,0.9-0.6c0.1,0,0.2,0,0.2-0.1c0.1,0,0.1,0,0.1,0.1
					c0,0.1,0,0.1,0,0.1c0,0,0,0,0,0c0,0,0,0,0,0c0,0,0,0-0.1,0c0,0,0,0,0,0c0,0,0,0,0-0.1s0,0-0.1,0s-0.1,0-0.1,0c0,0,0,0-0.1,0
					s0,0,0,0c0,0,0,0.1,0,0.1c0,0,0,0.1,0.1,0.1c0,0,0.1,0.1,0.1,0.1c0,0,0.1,0,0.2,0c0,0,0.1-0.1,0.1-0.1c0,0,0.1-0.1,0.1-0.2
					c0,0,0-0.1,0-0.1c0,0,0-0.1,0-0.1c-0.1-0.1-0.2-0.1-0.2-0.1c0,0,0,0-0.1,0c0,0,0.1-0.2,0.1-0.3c0-0.2-0.2-0.4-0.2-0.4
					c0.3-0.2,0.5-0.5,0.5-1c0-0.5-0.5-1.1-0.5-1.1c-0.2-0.2-0.4-0.4-0.5-0.9c0-0.1,0.1-0.2,0.2-0.2c0.1,0,0.2,0.1,0.2,0.1
					c0,0,0-0.3-0.2-0.3c-0.2,0-0.4,0.1-0.4,0.4c0,0.4,0.2,0.7,0.5,1c0,0,0.5,0.6,0.5,0.9c0,0.1-0.1,0.3-0.2,0.4
					c-0.1,0-0.1,0-0.2,0.2h0.2c0-0.1,0-0.1,0.1,0C34.7,77.4,34.6,77.6,34.4,77.7z"/>
				<path id="path4258_00000020357813499017516430000008493629089876849811_" class="st4" d="M32.8,77.7c-0.1-0.2,0-0.4,0.1-0.5
					c0.1-0.1,0.3-0.2,0.3-0.2s-0.1,0.2-0.1,0.3c0,0.2,0.2,0.2,0.2,0.2s0.2,0,0.2-0.2c0-0.3-0.1-0.4-0.3-0.6
					c-0.2-0.2-0.5-0.3-0.6-0.4c-0.1-0.1-0.2-0.1-0.2-0.1c-0.2-0.2-0.3-0.3-0.3-0.5s0-0.4,0-0.4s-0.2,0.1-0.4,0.1
					c-0.2,0-0.3-0.2-0.3-0.3c0-0.1,0.1-0.2,0.3-0.2c0.1,0,0.3,0.2,0.3,0.2h-0.2c0,0,0,0-0.1,0c0,0-0.1,0-0.1,0.1c0,0,0,0.2,0.2,0.1
					c0.1,0,0.3-0.1,0.4-0.2c0.2-0.2,0.3-0.2,0.6-0.2c0.1,0,0.3,0,0.4,0.1c0,0,0.2,0.1,0.2,0.1c0.1,0.1,0.3,0.4,0.3,0.4v1
					c0,0-0.2-0.2-0.2-0.4c0-0.2,0.1-0.4,0.1-0.4s0-0.2-0.1-0.3c-0.1-0.2-0.2-0.2-0.3-0.3c-0.2-0.1-0.3-0.2-0.4-0.1
					c-0.3,0.2-0.2,0.6-0.2,0.6l-0.3-0.1c0,0,0,0.3,0.3,0.5c0.2,0.1,0.4,0.2,0.7,0.4c0.3,0.3,0.4,0.4,0.4,0.8c0,0.3-0.1,0.5-0.5,0.7
					c-0.5,0.2-0.3,0.6-0.3,0.6c0.3,0.1,0.6,0.3,0.8,0.6c0,0,0,0.1,0,0.1s-0.1,0-0.1,0c-0.2-0.2-0.5-0.5-0.9-0.6
					c-0.1,0-0.2,0-0.2-0.1s-0.1,0-0.1,0.1c0,0.1,0,0.1,0,0.1c0,0,0,0,0,0c0,0,0,0,0,0c0,0,0,0,0.1,0c0,0,0,0,0,0c0,0,0,0,0-0.1
					s0,0,0.1,0s0.1,0,0.1,0c0,0,0,0,0.1,0s0,0,0,0c0,0,0,0.1,0,0.1c0,0,0,0.1-0.1,0.1c0,0-0.1,0.1-0.1,0.1c0,0-0.1,0-0.2,0
					c0,0-0.1-0.1-0.1-0.1c0,0-0.1-0.1-0.1-0.2c0,0,0-0.1,0-0.1c0,0,0-0.1,0-0.1c0.1-0.1,0.2-0.1,0.2-0.1c0,0,0,0,0.1,0
					c0,0-0.1-0.2-0.1-0.3c0-0.2,0.2-0.4,0.2-0.4c-0.3-0.2-0.5-0.5-0.5-1c0-0.5,0.5-1.1,0.5-1.1c0.2-0.2,0.4-0.4,0.5-0.9
					c0-0.1-0.1-0.2-0.2-0.2c-0.1,0-0.2,0.1-0.2,0.1c0,0,0-0.3,0.2-0.3c0.2,0,0.4,0.1,0.4,0.4c0,0.4-0.2,0.7-0.5,1
					c0,0-0.5,0.6-0.5,0.9c0,0.1,0.1,0.3,0.2,0.4c0.1,0,0.1,0,0.2,0.2h-0.2c0-0.1,0-0.1-0.1,0C32.5,77.4,32.6,77.6,32.8,77.7z"/>
				<path id="path4150_00000014625808681888115830000015699023962962293381_" class="st4" d="M32.6,81.9c0.1-0.2,0.3-0.3,0.4-0.4
					c0.1-0.1,0.2,0,0,0.2c-0.1,0.2-0.3,0.3-0.4,0.4C32.5,82.2,32.5,82.1,32.6,81.9"/>
				<path id="path4123_00000105416769475668571890000011839041880410462385_" class="st4" d="M32.2,81.1c0,0.1,0.4,0,0.6,0.1
					c-0.2,0.2-0.4,0.3-0.4,0.4c0,0.1,0.1,0,0.2-0.1c0.2-0.1,0.4-0.3,0.7-0.3c-0.3,0-0.5-0.2-0.7-0.3c-0.1-0.1-0.1-0.2-0.2-0.1
					c0,0.1,0.2,0.2,0.4,0.4C32.6,81.1,32.2,81,32.2,81.1z"/>
				<path id="path4130_00000005267512885504233430000009203483526187211907_" class="st4" d="M35,81.1c0,0.1-0.4,0-0.6,0.1
					c0.2,0.2,0.4,0.3,0.4,0.4c0,0.1-0.1,0-0.2-0.1c-0.2-0.1-0.4-0.3-0.7-0.3c0.3,0,0.5-0.2,0.7-0.3c0.1-0.1,0.1-0.2,0.2-0.1
					c0,0.1-0.2,0.2-0.4,0.4C34.6,81.1,35,81,35,81.1z"/>
				<path id="path4138_00000078006623835533503960000017389136154911200128_" class="st4" d="M33.6,79.7c-0.1,0.1,0,0.4,0,0.6
					c-0.2-0.2-0.3-0.4-0.4-0.4c0,0,0,0.1,0.1,0.2c0.1,0.2,0.3,0.4,0.3,0.7c0-0.3,0.2-0.5,0.3-0.7c0.1-0.1,0.2-0.1,0.1-0.2
					c-0.1,0-0.2,0.2-0.4,0.4C33.6,80.1,33.7,79.7,33.6,79.7z"/>
				<path id="path4140_00000070806716684378218020000002139137725743182988_" class="st4" d="M33.6,82.5c-0.1-0.1,0-0.4,0-0.6
					c-0.2,0.2-0.3,0.4-0.4,0.4c0,0,0-0.1,0.1-0.2c0.1-0.2,0.3-0.4,0.3-0.7c0,0.3,0.2,0.5,0.3,0.7c0.1,0.1,0.2,0.1,0.1,0.2
					c-0.1,0-0.2-0.2-0.4-0.4C33.6,82.1,33.7,82.5,33.6,82.5z"/>
				<path id="path4144_00000031916349063171645730000016240692566417621674_" class="st4" d="M33,80.6c-0.2-0.1-0.3-0.3-0.4-0.4
					c-0.1-0.1,0-0.2,0.2-0.1c0.2,0.1,0.3,0.3,0.4,0.4S33.1,80.7,33,80.6"/>
				<path id="path4146_00000177480773720519909640000002999679140471947700_" class="st4" d="M34.5,82.1c-0.2-0.1-0.3-0.3-0.4-0.4
					c-0.1-0.1,0-0.2,0.2-0.1c0.2,0.1,0.3,0.3,0.4,0.4S34.6,82.2,34.5,82.1"/>
				<path id="path4148_00000155139684794086143660000011787613419069413260_" class="st4" d="M34.1,80.5c0.1-0.2,0.3-0.3,0.4-0.4
					c0.1-0.1,0.2,0,0,0.2c-0.1,0.2-0.3,0.3-0.4,0.4C34,80.7,34,80.6,34.1,80.5"/>
			</g>
			<g id="Lettere">
				<path id="path24889_00000155847738160985049360000002398647086185592482_" class="st5" d="M28,75.7h-0.3v0.1h0.1V77h-0.1v0.1
					h0.5V77H28L28,75.7z"/>
				<path id="path3186_00000021079168418846114490000005138232185224279688_" class="st5" d="M28.3,76.3c0-0.1,0.3-0.1,0.3,0.1h-0.1
					v0.2h0.3v-0.3c0-0.1,0.3-0.1,0.3,0.1H29v0.7h-0.2v-0.3h-0.2h-0.1V77c0,0.1-0.3,0.1-0.3-0.1h0.1V76.3z"/>
				<path id="path24887_00000028321330651419231940000005101448417977194125_" class="st5" d="M29.4,76.9c0,0.1,0.1,0.1,0.1,0.1
					s0.1,0,0.1-0.1c0.1,0,0.1,0,0.2,0c-0.1,0.1-0.2,0.2-0.3,0.2c-0.2,0-0.4-0.2-0.4-0.4v0c0-0.2,0.2-0.4,0.4-0.4
					c0.1,0,0.2,0.1,0.3,0.2c0,0.1-0.1,0.1-0.2,0c0-0.1-0.1-0.1-0.1-0.1s-0.1,0-0.1,0.1V76.9z"/>
				
					<rect id="rect5544_00000083051187683055314710000015917158087283566269_" x="28.2" y="75.7" class="st4" width="1.6" height="0.1"/>
				<path id="path6238_00000024715282082208877110000000243114002117306526_" class="st5" d="M37,76h0.2v1.1h-0.1v0.1h0.5v-0.1h-0.1
					V76h0.1v-0.1H37h-0.6V76h0.1v1.1h-0.1v0.1h0.5v-0.1h-0.1V76L37,76L37,76z"/>
				<path id="path5556_00000075859293972013035860000004860188786700333976_" class="st5" d="M39.3,77.1c0,0.1,0.1,0.1,0.1,0.1
					s0.1,0,0.1-0.1c0.1,0,0.1,0,0.2,0c-0.1,0.1-0.2,0.2-0.3,0.2c-0.2,0-0.4-0.2-0.4-0.4v0c0-0.2,0.2-0.4,0.4-0.4
					c0.1,0,0.2,0.1,0.3,0.2c0,0.1-0.1,0.1-0.2,0c0-0.1-0.1-0.1-0.1-0.1s-0.1,0-0.1,0.1V77.1z"/>
				<path id="path6126_00000086662725031765473260000010940716657581991840_" class="st5" d="M38.4,77c0.1,0.1,0.1,0.3,0.3,0.3
					c0.1,0,0.2-0.1,0.2-0.2c0-0.1,0-0.1-0.1-0.2c-0.1,0-0.2,0-0.1,0.1c0,0.1,0,0-0.1-0.1c-0.1-0.1-0.1-0.1-0.1-0.2
					c0,0,0.2-0.3,0.2-0.3c0.1,0,0.1,0.1,0.1,0.1c0-0.1,0.1-0.1,0.1-0.1c0-0.1-0.1-0.1-0.1-0.1c-0.1,0-0.2,0-0.3,0.1
					c-0.1,0.1-0.1,0.2-0.1,0.2c-0.1-0.1-0.1-0.3-0.3-0.3c-0.1,0-0.2,0.1-0.2,0.2c0,0.1,0,0.1,0.1,0.2c0.1,0,0.2,0,0.1-0.1
					c0-0.1,0,0,0.1,0.1c0.1,0.1,0.1,0.1,0.1,0.2c0,0-0.2,0.3-0.2,0.3c-0.1,0-0.1-0.1-0.1-0.1c0,0.1-0.2,0.1-0.1,0.2
					c0,0.1,0.1,0.1,0.1,0.1c0.1,0,0.2,0,0.3-0.1C38.3,77.1,38.3,77,38.4,77"/>
				
					<rect id="rect5561_00000072253811150401614580000004544694165623965315_" x="37.9" y="76" class="st4" width="1.8" height="0.1"/>
				<path id="path8133_00000116215424750367190810000014082164192940606636_" class="st5" d="M38.1,85.3h0.3v0.6h0.1V86h-0.1v0.6
					h-0.2V86h-0.1v-0.1h0.1v-0.5L38.1,85.3L38.1,85.3z"/>
				<path id="path9106_00000025426118097274194110000010739419694391724963_" class="st5" d="M38.4,85.5c0.1,0,0.2,0,0.3,0
					c0.7,0.5-0.9,1.5-0.9,0.1c0.1-0.2,0.3-0.1,0.3,0.1c0,0.1-0.1,0.1-0.1,0.1c0,0,0-0.1-0.1-0.1c0,0-0.1-0.1-0.1,0.1
					c0,0.5,0.5,0.7,0.8,0.2c0.1-0.2-0.1-0.4-0.2-0.3C38.3,85.7,38.3,85.5,38.4,85.5z"/>
				<path id="path18940_00000104705204511345143950000017584950211218765699_" class="st5" d="M36.9,86.2c0-0.1,0.1-0.2,0.1-0.4
					c0-0.2-0.1-0.2-0.2-0.2s-0.2,0.1-0.2,0.2c0,0.1,0.1,0.2,0,0.4H36.9z"/>
				<path id="path18952_00000038410981251065643990000018411661571823137949_" class="st5" d="M37.5,86.2c0-0.1,0.1-0.2,0.1-0.4
					c0-0.2-0.1-0.2-0.2-0.2s-0.2,0.1-0.2,0.2c0,0.1,0.1,0.2,0,0.4H37.5z"/>
				<path id="path18956_00000168105063359639173460000007356113308025054850_" class="st5" d="M37.4,86L37.4,86
					c-0.1,0.2-0.2,0.2-0.3,0.2s-0.2,0-0.2-0.2l0,0l0,0.1c0,0.1-0.1,0.1-0.2,0.2c0,0,0,0,0,0c0,0,0,0,0,0c0,0,0,0,0,0
					c0.1,0,0.1-0.1,0.2-0.2c0.1,0.1,0.2,0.1,0.3,0.1s0.2-0.1,0.3-0.1c0,0.1,0.1,0.1,0.2,0.2c0,0,0,0,0.1,0c0,0,0-0.1,0-0.1
					C37.6,86.2,37.5,86.1,37.4,86L37.4,86z"/>
				<path id="path848_00000099660647119238860590000011233490588977323450_" class="st4" d="M39.5,85.1c0.1,0,0.1,0,0.2,0
					c0,0.1,0,0.2,0,0.2c0,0.1,0,0.1,0,0.2c0.1,0,0.2,0,0.2,0H40c0,0,0,0.1,0,0.1c-0.1,0-0.2,0-0.4,0c0,0.3,0,0.6,0,0.8
					c0,0.1-0.1,0.1-0.2,0.1c0,0-0.1-0.1-0.1-0.1c0,0,0-0.1,0-0.1s0.1,0,0.1,0.1c0-0.3,0-0.5,0-0.8l-0.2,0l0,0.2L39,85.5
					c0.2,0,0.3,0,0.5,0C39.5,85.3,39.5,85.2,39.5,85.1z"/>
				<path id="path5587_00000155114531809775605040000015395423265838627477_" class="st4" d="M36.8,85.2c-0.2,0-0.4,0-0.4-0.2
					C36.5,84.9,36.7,84.9,36.8,85.2z"/>
				<path id="path5590_00000142174437346716294870000006395516265436688520_" class="st4" d="M38.1,85.2c-0.2,0-0.4,0-0.4-0.2
					C37.7,84.9,37.9,84.9,38.1,85.2z"/>
				<path id="path5633_00000034780188980098432140000004392798337483871678_" class="st5" d="M27.5,85.4h0.1v0.9h-0.1v0.1h0.4v-0.1
					h-0.1v-0.9h0.1v-0.1L27.5,85.4l-0.4-0.1v0.1h0.1v0.9h-0.1v0.1h0.4v-0.1h-0.1L27.5,85.4L27.5,85.4z"/>
				<path id="path24954_00000088109652222507695110000016236751908923654030_" class="st5" d="M28.5,86.3c0.2,0.3,0.6-0.1,0.4-0.6
					c0-0.1-0.2,0-0.1,0.1C28.9,86.1,28.7,86.5,28.5,86.3c0.1-0.1,0-0.1,0-0.1c0.1-0.2,0.1-0.4,0-0.5c-0.2,0.2-0.1,0.3,0,0.5
					C28.4,86.3,28.4,86.3,28.5,86.3c-0.2,0.2-0.4-0.2-0.3-0.5c0.1-0.1,0-0.2-0.1-0.1C27.8,86.3,28.3,86.6,28.5,86.3z"/>
				<path id="path24961_00000053529085218035938360000005957845317551047816_" class="st5" d="M28.9,86.1c0.1,0.4-0.1,0.9-0.5,0.6
					c-0.1-0.1-0.2,0-0.2,0.1c0.1,0,0.1,0,0.1,0.1c0,0.2-0.3,0.2-0.2-0.1c0-0.2,0.2-0.3,0.4-0.2c0.1,0.1,0.2,0.1,0.3,0
					c0-0.1,0.1-0.1,0-0.3L28.9,86.1z"/>
				<path id="path5606_00000010289781980908028480000003481619721306276743_" class="st4" d="M27.6,85.2c-0.2,0-0.4,0-0.4-0.2
					C27.3,84.9,27.5,84.9,27.6,85.2z"/>
				<path id="path5642_00000052089680955826212930000003932793509863285677_" class="st5" d="M29,85.8c0-0.1,0.2-0.1,0.2,0.1h-0.1
					v0.2h0.2v-0.3c0-0.1,0.2-0.1,0.2,0.1h-0.1v0.6h-0.1v-0.3h-0.2h-0.1v0.2c0,0.1-0.2,0.1-0.2-0.1H29C29,86.3,29,85.8,29,85.8z"/>
				<path id="path24940_00000037683186661822703400000005210251669003912605_" class="st5" d="M30,85.6c0,0-0.1,0-0.1,0.1
					c0,0-0.1-0.1-0.2,0l0.1,0.1v0.8h-0.1c0,0.1,0.2,0.2,0.2,0.1v-0.5c0.1,0.1,0.2,0.1,0.3-0.1c0-0.2,0-0.3,0-0.5
					C30.1,85.7,30,85.6,30,85.6z M30,85.8c0.1,0,0.1,0.1,0.1,0.2s0,0.2-0.1,0.2s-0.1-0.1-0.1-0.2S29.9,85.8,30,85.8z"/>
				<path id="path24891_00000124125132884861908760000005463749951994199729_" class="st5" d="M30.3,85.7c0-0.1,0.2-0.1,0.2,0.1
					h-0.1v0.6c0,0.1-0.2,0.1-0.2-0.1h0.1V85.7z"/>
				<path id="path7696_00000034081235753232533770000015087432046079160744_" class="st5" d="M27.5,85.4h0.1v0.9h-0.1v0.1h0.4v-0.1
					h-0.1v-0.9h0.1v-0.1L27.5,85.4l-0.4-0.1v0.1h0.1v0.9h-0.1v0.1h0.4v-0.1h-0.1L27.5,85.4L27.5,85.4z"/>
				<path id="path7700_00000008869803658672761530000018193178844822963391_" class="st5" d="M28.5,86.3c0.2,0.3,0.6-0.1,0.4-0.6
					c0-0.1-0.2,0-0.1,0.1C28.9,86.1,28.7,86.5,28.5,86.3c0.1-0.1,0-0.1,0-0.1c0.1-0.2,0.1-0.4,0-0.5c-0.2,0.2-0.1,0.3,0,0.5
					C28.4,86.3,28.4,86.3,28.5,86.3c-0.2,0.2-0.4-0.2-0.3-0.5c0.1-0.1,0-0.2-0.1-0.1C27.8,86.3,28.3,86.6,28.5,86.3z"/>
				<path id="path7702_00000137811003582485874060000006072575890449909671_" class="st5" d="M28.9,86.1c0.1,0.4-0.1,0.9-0.5,0.6
					c-0.1-0.1-0.2,0-0.2,0.1c0.1,0,0.1,0,0.1,0.1c0,0.2-0.3,0.2-0.2-0.1c0-0.2,0.2-0.3,0.4-0.2c0.1,0.1,0.2,0.1,0.3,0
					c0-0.1,0.1-0.1,0-0.3L28.9,86.1z"/>
				<path id="path7704_00000109746680815976326090000002790379046840700042_" class="st4" d="M27.6,85.2c-0.2,0-0.4,0-0.4-0.2
					C27.3,84.9,27.5,84.9,27.6,85.2z"/>
				<path id="path7706_00000052076802580049393540000011649886361496084665_" class="st5" d="M29,85.8c0-0.1,0.2-0.1,0.2,0.1h-0.1
					v0.2h0.2v-0.3c0-0.1,0.2-0.1,0.2,0.1h-0.1v0.6h-0.1v-0.3h-0.2h-0.1v0.2c0,0.1-0.2,0.1-0.2-0.1H29C29,86.3,29,85.8,29,85.8z"/>
				<path id="path7708_00000175305049631437294240000006458017791650865592_" class="st5" d="M30,85.6c0,0-0.1,0-0.1,0.1
					c0,0-0.1-0.1-0.2,0l0.1,0.1v0.8h-0.1c0,0.1,0.2,0.2,0.2,0.1v-0.5c0.1,0.1,0.2,0.1,0.3-0.1c0-0.2,0-0.3,0-0.5
					C30.1,85.7,30,85.6,30,85.6z M30,85.8c0.1,0,0.1,0.1,0.1,0.2s0,0.2-0.1,0.2s-0.1-0.1-0.1-0.2S29.9,85.8,30,85.8z"/>
				<path id="path7710_00000021805275995649738980000014504446831315093396_" class="st5" d="M30.3,85.7c0-0.1,0.2-0.1,0.2,0.1h-0.1
					v0.6c0,0.1-0.2,0.1-0.2-0.1h0.1V85.7z"/>
				<path id="path7716_00000127755629610699699340000005244350592492110493_" class="st5" d="M38.1,85.3h0.3v0.6h0.1V86h-0.1v0.6
					h-0.2V86h-0.1v-0.1h0.1v-0.5L38.1,85.3L38.1,85.3z"/>
				<path id="path7718_00000134953157071163189040000004156425193114633354_" class="st5" d="M38.4,85.5c0.1,0,0.2,0,0.3,0
					c0.7,0.5-0.9,1.5-0.9,0.1c0.1-0.2,0.3-0.1,0.3,0.1c0,0.1-0.1,0.1-0.1,0.1c0,0,0-0.1-0.1-0.1c0,0-0.1-0.1-0.1,0.1
					c0,0.5,0.5,0.7,0.8,0.2c0.1-0.2-0.1-0.4-0.2-0.3C38.3,85.7,38.3,85.5,38.4,85.5z"/>
				<path id="path7722_00000128448944085393994590000017172789247022652054_" class="st5" d="M36.9,86.2c0-0.1,0.1-0.2,0.1-0.4
					c0-0.2-0.1-0.2-0.2-0.2s-0.2,0.1-0.2,0.2c0,0.1,0.1,0.2,0,0.4H36.9z"/>
				<path id="path7724_00000092417425020278883140000017292845640928036283_" class="st5" d="M37.5,86.2c0-0.1,0.1-0.2,0.1-0.4
					c0-0.2-0.1-0.2-0.2-0.2s-0.2,0.1-0.2,0.2c0,0.1,0.1,0.2,0,0.4H37.5z"/>
				<path id="path7726_00000114032192574302724860000008983887781814973867_" class="st5" d="M37.4,86L37.4,86
					c-0.1,0.2-0.2,0.2-0.3,0.2s-0.2,0-0.2-0.2l0,0l0,0.1c0,0.1-0.1,0.1-0.2,0.2c0,0,0,0,0,0c0,0,0,0,0,0c0,0,0,0,0,0
					c0.1,0,0.1-0.1,0.2-0.2c0.1,0.1,0.2,0.1,0.3,0.1s0.2-0.1,0.3-0.1c0,0.1,0.1,0.1,0.2,0.2c0,0,0,0,0.1,0c0,0,0-0.1,0-0.1
					C37.6,86.2,37.5,86.1,37.4,86L37.4,86z"/>
				<path id="path7728_00000031895189279168469760000013789937166322626699_" class="st4" d="M39.5,85.1c0.1,0,0.1,0,0.2,0
					c0,0.1,0,0.2,0,0.2c0,0.1,0,0.1,0,0.2c0.1,0,0.2,0,0.2,0H40c0,0,0,0.1,0,0.1c-0.1,0-0.2,0-0.4,0c0,0.3,0,0.6,0,0.8
					c0,0.1-0.1,0.1-0.2,0.1c0,0-0.1-0.1-0.1-0.1c0,0,0-0.1,0-0.1s0.1,0,0.1,0.1c0-0.3,0-0.5,0-0.8l-0.2,0l0,0.2L39,85.5
					c0.2,0,0.3,0,0.5,0C39.5,85.3,39.5,85.2,39.5,85.1z"/>
				<path id="path7730_00000072241236325867039870000015372668233358437775_" class="st4" d="M36.8,85.2c-0.2,0-0.4,0-0.4-0.2
					C36.5,84.9,36.7,84.9,36.8,85.2z"/>
				<path id="path7732_00000089558622921063849960000007533552857492625322_" class="st4" d="M38.1,85.2c-0.2,0-0.4,0-0.4-0.2
					C37.7,84.9,37.9,84.9,38.1,85.2z"/>
			</g>
		</g>
	</g>
	<path class="st6" d="M129.1,80c0,21.5-17.6,39.1-39.2,39c-21.5,0-39.2-18-39-39.5C51.1,59,68,41.2,89.5,41
		C112.4,40.8,129.3,59.5,129.1,80z M78.2,95.2c0.6-0.1,1-0.2,1.4-0.7c3.1-4,6.1-8,9.2-11.9c0.4-0.6,0.6-1.1,0.4-1.7
		c-1.3-4.3-2.6-8.7-3.8-13c-0.1-0.5-0.4-0.8-0.9-0.8c-4.5-0.7-9.1-1.5-13.6-2.2c-0.3-0.1-0.7,0.2-1,0.4c-0.6,0.6-1,1.2-1.5,1.8
		c-2.1,2.6-4.2,5.3-5.7,8.3c-0.2,0.4-0.3,1-0.2,1.4c0.4,2.1,0.7,4.2,1.3,6.3c0.7,2.4,1.6,4.7,2.5,7.1c0.4,1.1,1.2,1.9,2.3,2.2
		c1.8,0.6,3.7,1.2,5.5,1.7C75.3,94.4,76.8,94.8,78.2,95.2z M99.2,107.3C99.2,107.3,99.2,107.3,99.2,107.3c1.2-0.2,2.5-0.3,3.7-0.3
		c0.6,0,1-0.2,1.3-0.6c1-1.2,2.1-2.3,3.1-3.6c1.4-1.7,2.7-3.5,4.1-5.3c0.4-0.6,0.4-1.1,0.1-1.8c-1.7-3.8-3.4-7.6-5.1-11.4
		c-0.2-0.6-0.6-0.8-1.2-0.8c-1.2,0-2.3,0-3.5,0c-3.2-0.1-6.4-0.3-9.7-0.4c-0.6,0-0.9,0.2-1.2,0.7c-2.6,4.5-5.7,8.6-9.6,12
		c-0.2,0.2-0.3,0.6-0.2,0.8c1.6,3.1,3.3,6.2,4.9,9.3c0.2,0.4,0.6,0.7,1.1,0.7C91.1,106.8,95.1,107.1,99.2,107.3z M86.1,65.2
		c0.3-0.1,0.7-0.2,0.9-0.4c3.2-1.9,6.5-3.9,9.7-5.8c0.6-0.4,0.8-0.8,0.6-1.5c-0.6-2.8-1.2-5.6-1.8-8.5c-0.2-0.8-0.5-1.3-1.3-1.5
		c-2-0.5-4-1-6-1.3c-1.9-0.3-3.8-0.3-5.7,0.5c-4.2,1.7-8.3,3.7-11.7,6.8c-0.7,0.7-1.1,1.2-0.9,2.3c0.3,2,0.5,4.1,0.7,6.2
		c0.1,0.5,0.3,0.7,0.8,0.7c0.4,0,0.9,0,1.3,0.1c4.2,0.1,8.3,0.8,12.3,2.1C85.3,65,85.7,65.1,86.1,65.2z M125.2,77.8
		c-0.1-0.4-0.1-0.8-0.2-1.1c-0.7-2.8-1.9-5.3-3.2-7.8c-0.2-0.4-0.5-0.6-1-0.5c-2.6,0.4-5.2,0.8-7.8,1.1c-0.7,0.1-1,0.4-1.2,1
		c-1.1,3.7-2.3,7.4-3.5,11.1c-0.2,0.7-0.2,1.2,0.2,1.8c1,1.7,2.2,3.4,2.9,5.3c0.8,1.9,1.3,3.9,1.9,5.9c0.1,0.4,0.2,0.9,0.8,0.8
		c2.5-0.3,4.9-0.8,7.2-1.6c0.7-0.2,1.1-0.6,1.3-1.3C124.7,87.7,125.4,82.8,125.2,77.8z M101.8,47.3c-1.2,0.2-2.4,0.3-3.6,0.5
		c-0.8,0.1-0.8,0.3-0.6,1c1.1,2.8,1.8,5.7,2,8.7c0.1,0.9,0.4,1.5,1.2,2c3.6,2.2,7,4.5,9.9,7.6c0.2,0.2,0.6,0.3,0.9,0.2
		c2.6-1,5.4-1.6,8.2-1.4c0.4,0,0.7-0.1,0.6-0.6c-0.3-2.3-0.8-4.6-2.3-6.5c-3.2-4.3-7.2-7.6-11.8-10.1
		C104.9,47.9,103.5,47.2,101.8,47.3z M55.3,73.7c0,0,0,0.1-0.1,0.2c-0.2,1.8-0.4,3.6-0.5,5.4c-0.1,5.5,1.2,10.8,3.5,15.8
		c0.2,0.4,0.4,0.8,0.7,1.1c1.3,1.3,2.7,2.5,4.1,3.8c0.1,0.1,0.4,0.2,0.5,0.2c0.1-0.1,0.2-0.3,0.2-0.5c0.4-2.1,0.7-4.2,1.1-6.3
		c0.1-0.5,0.1-1-0.2-1.5c-2.9-4.3-4.3-9.1-4.4-14.3c0-0.9-0.4-1.4-1.2-1.8C57.9,75.2,56.6,74.5,55.3,73.7z M105.4,111.6
		c-0.7-0.8-1.2-1.3-1.7-2c-0.3-0.3-0.6-0.4-1.1-0.4c-1.8,0.3-3.7,0.7-5.5,0.8c-3.7,0.2-7.3-0.2-10.8-1.3c-0.4-0.1-1,0-1.4,0.1
		c-1.1,0.4-2.2,0.9-3.4,1.3c-0.8,0.3-1.7,0.5-2.6,0.7c-0.5,0.1-0.6,0.4-0.3,0.8c0.4,0.5,0.7,1,1.2,1.4c0.4,0.4,0.9,0.7,1.4,0.8
		c2.7,0.7,5.4,1.1,8.2,1.1c3.9,0.1,7.7-0.5,11.4-1.7C102.4,112.8,103.9,112.2,105.4,111.6z M63.2,102.6c3.5,4.1,7.6,7.2,12.4,9.2
		c-0.1-0.4-0.3-0.7-0.6-0.9c-0.5-0.3-1-0.5-1.5-0.8c-3-1.6-5.6-3.8-7.7-6.4C65.1,102.9,64.3,102.5,63.2,102.6z M65,55.3
		c0.8-0.4,1.7-0.8,2.6-1.1c0.2-0.1,0.4-0.2,0.6-0.4c0.8-1,1.5-2.1,2.3-3.2C68.3,52,66.5,53.5,65,55.3z"/>
	<g>
		<path class="st4" d="M60.3,124l2.4,1.2l-0.6,8.9l7-5.6l2.4,1.3l-4.8,9.2l-1.9-1l3.4-6.5l-6.2,5.1l-1.8-0.9l0.7-8l-3.4,6.5l-1.9-1
			L60.3,124z"/>
		<path class="st4" d="M72.7,129.9l2.1,0.7l-3.3,9.9l-2.1-0.7L72.7,129.9z"/>
		<path class="st4" d="M76.1,131.1l2.2,0.4l-1.6,8.5l6.4,1.2l-0.3,1.8l-8.6-1.6L76.1,131.1z"/>
		<path class="st4" d="M84.6,143.4l5.2-10.5l2.3,0l5.6,10.3l-2.5,0l-1.2-2.5l-5.7,0.1l-1.2,2.5L84.6,143.4z M93.1,139l-2.1-4.2
			l-2,4.3L93.1,139z"/>
		<path class="st4" d="M97.5,132.6l2.2-0.6l8.5,5.6l-1.9-7.3l2.2-0.6l2.6,10.1l-2.2,0.6l-8.5-5.6l1.9,7.3l-2.2,0.6L97.5,132.6z"/>
		<path class="st4" d="M111.4,134.2c-1.6-2.9-0.4-5.9,2.9-7.7c3.3-1.8,6.5-1,8,1.9c1.6,2.9,0.5,5.9-2.9,7.7
			C116.1,137.9,113,137.2,111.4,134.2z M120.3,129.5c-1-1.9-3.1-2.5-5.2-1.3c-2.1,1.1-2.8,3.1-1.8,5.1s3.1,2.5,5.2,1.3
			C120.7,133.4,121.4,131.4,120.3,129.5z"/>
	</g>
	<g>
		<path class="st4" d="M60.6,26.1c-2.6,1.5-3.2,3.2-2,5.1c1.1,1.9,2.9,2.1,5.5,0.5c1.2-0.7,2.2-1.6,3.2-2.9l1.4,2.8
			c-0.9,1.1-2.1,2.2-3.8,3.2c-4.3,2.6-8,2.1-10.1-1.4s-0.8-7,3.6-9.5c1.6-1,3.1-1.5,4.4-1.8l1.6,2.5C63.3,24.9,62.1,25.3,60.6,26.1z
			"/>
		<path class="st4" d="M68,25.9c-1-3.8,1.1-6.8,5.8-8.1s8,0.5,9,4.2c1,3.8-1.1,6.9-5.8,8.1C72.3,31.3,69,29.6,68,25.9z M78.8,23.1
			c-0.5-2-2.1-2.9-4.2-2.4c-2.2,0.5-3.1,2-2.5,4.1c0.5,2,2.1,2.9,4.2,2.4C78.4,26.6,79.3,25.1,78.8,23.1z"/>
		<path class="st4" d="M85.4,16L97,16.2L96.9,19l-7.6-0.1l0,2.1l6.9,0.1l0,2.7l-6.9-0.1l-0.1,4.4L85.2,28L85.4,16z"/>
		<path class="st4" d="M100.4,16.6l12.6,3.4l-0.8,3l-4.4-1.2l-2.3,8.6l-3.8-1l2.3-8.6l-4.4-1.2L100.4,16.6z"/>
		<path class="st4" d="M107.9,30.5L119,23l4.2,2.3l-0.6,13.4l-4-2.2l0.2-2.7l-5-2.8l-2.2,1.6L107.9,30.5z M119.1,31.3l0.4-4.5
			l-3.7,2.7L119.1,31.3z"/>
	</g>
</g>
<g>
	<g>
		<path class="st4" d="M202.8,58.9v-5.8h10.1v8.3l-6.6,6.7h-21.7V26.6l7.1-6.6h21.1v18.1h-10.1v-9h-8.1v29.8
			C194.7,58.9,202.8,58.9,202.8,58.9z"/>
		<path class="st4" d="M246.9,20v48h-28V20H246.9z M237.1,59.1V28.9h-8.5v30.2C228.6,59.1,237.1,59.1,237.1,59.1z"/>
		<path class="st4" d="M262.9,47.4V68h-10.1V26.7l6.7-6.7h16.3v9.1h-12.9v9.2h11.9v9H262.9z"/>
		<path class="st4" d="M310,29.1h-8.9V68h-10V29.1h-9.2V20H310L310,29.1L310,29.1z"/>
		<path class="st4" d="M316,68V27.6l7.7-7.6h21v48h-10.1V52.2h-8.5V68H316z M334.6,29.1h-8.5v14h8.5V29.1z"/>
		<path class="st4" d="M209.5,92h11.6v48h-9.3v-29.9l-7.4,29.9h-3l-7.5-29.9V140h-9.2V92h11.6l6.7,23.9L209.5,92z"/>
		<path class="st4" d="M243.9,130.9v9.1h-16.7v-9.1h3.4v-29.8h-3.4V92h16.7v9.1h-3.4v29.8H243.9z"/>
		<path class="st4" d="M249.9,140V92h10.1v38.9h14v9.1H249.9z"/>
		<path class="st4" d="M280,140V99.6l7.7-7.6h21v48h-10.1v-15.8h-8.5V140H280z M298.6,101.1h-8.5v14h8.5V101.1z"/>
		<path class="st4" d="M333.7,93.1h9.1V140h-9.6l-9.5-26.9V140h-9.1V93.1h9.6l9.4,26.9V93.1z"/>
		<path class="st4" d="M376.8,92v48h-28V92H376.8z M367.1,131.1v-30.2h-8.5v30.2H367.1z"/>
	</g>
</g>
</svg>
