<?xml version="1.0" encoding="utf-8"?>
<!-- Generator: Adobe Illustrator 26.0.1, SVG Export Plug-In . SVG Version: 6.00 Build 0)  -->
<svg version="1.1" id="Livello_1" xmlns="http://www.w3.org/2000/svg" xmlns:xlink="http://www.w3.org/1999/xlink" x="0px" y="0px"
	 viewBox="0 0 412 160" style="enable-background:new 0 0 412 160;" xml:space="preserve">
<style type="text/css">
	.st0{fill:none;stroke:#EE7216;stroke-width:4;stroke-miterlimit:10;}
	.st1{fill:none;}
	.st2{fill:none;stroke:#010202;stroke-width:0.1892;stroke-linecap:round;stroke-linejoin:round;stroke-miterlimit:3.955;}
	.st3{fill:none;stroke:#010202;stroke-width:0.0907;stroke-linecap:round;stroke-linejoin:round;}
	.st4{fill:#010202;}
	.st5{fill-rule:evenodd;clip-rule:evenodd;fill:#010202;}
</style>
<g>
	<circle class="st0" cx="90" cy="80" r="70.94"/>
	<circle class="st0" cx="90" cy="80" r="44.51"/>
	<g id="Croce_Diocesi_00000065066800036499824150000007345207414711738034_" transform="translate(-1.1096578,-1.1079318)">
		<g id="Gruppo_00000047039600738366319550000017319943552194903174_">
			<path class="st1" d="M154.96,79.92l0-1.76l-1.51,1.28l-3.18,0l0-3.18l1.28-1.51l-1.76,0c-0.33-0.42-0.79-1.35-1.19-2.03
				c-0.4,0.68-0.86,1.61-1.19,2.03l-1.76,0l1.28,1.51l0,3.18l-3.18,0l-1.51-1.28l0,1.76c-0.42,0.33-1.35,0.79-2.03,1.19
				c0.68,0.4,1.61,0.86,2.03,1.19l0,1.76l1.51-1.28l3.18,0l0,3.18l-1.28,1.51l1.76,0c0.33,0.42,0.79,1.35,1.19,2.03
				c0.4-0.68,0.86-1.61,1.19-2.03l1.76,0l-1.28-1.51l0-3.18l3.18,0l1.51,1.28l0-1.76c0.42-0.33,1.35-0.79,2.03-1.19
				C156.31,80.71,155.38,80.25,154.96,79.92z"/>
			<g>
				<path id="path5243_00000080916921124370223990000015161645927283035574_" class="st2" d="M150.54,81.1
					c0,1.04-0.86,1.89-1.93,1.89s-1.93-0.84-1.93-1.89c0-1.04,0.86-1.89,1.93-1.89S150.54,80.06,150.54,81.1z"/>
				<path id="path2167_00000136398900732327010120000001309212565391402923_" class="st3" d="M148.47,81.23c0,0,0.29,0,0.29,0
					c0.5,0.05,0.75,0.27,1.05,0.63c0.14-0.16,0.16-0.35,0.14-0.52c0.18-0.03,0.35-0.09,0.51-0.24c-0.17-0.15-0.34-0.21-0.52-0.24
					c0.03-0.17,0.01-0.36-0.14-0.52c-0.3,0.36-0.56,0.58-1.05,0.63c0,0.01-0.27,0-0.27,0c-0.5-0.05-0.75-0.27-1.05-0.63
					c-0.14,0.16-0.16,0.35-0.14,0.52c-0.18,0.03-0.35,0.09-0.52,0.24c0.16,0.15,0.33,0.21,0.51,0.24c-0.03,0.17-0.01,0.36,0.14,0.52
					C147.72,81.5,147.97,81.28,148.47,81.23z M148.48,80.96c0,0,0,0.29,0,0.29c-0.05,0.5-0.27,0.75-0.63,1.05
					c0.16,0.14,0.35,0.16,0.52,0.14c0.03,0.18,0.09,0.35,0.24,0.51c0.15-0.17,0.21-0.34,0.24-0.52c0.17,0.03,0.36,0.01,0.52-0.14
					c-0.36-0.3-0.58-0.56-0.63-1.05c-0.01,0,0-0.27,0-0.27c0.05-0.5,0.27-0.75,0.63-1.05c-0.16-0.14-0.35-0.16-0.52-0.14
					c-0.03-0.18-0.09-0.35-0.24-0.52c-0.15,0.16-0.21,0.33-0.24,0.51c-0.17-0.03-0.36-0.01-0.52,0.14
					C148.21,80.21,148.43,80.46,148.48,80.96z"/>
			</g>
			<g>
				<path class="st4" d="M157.77,81.11c-0.8-0.47-2.35-1.31-2.39-1.39l0-2.44l-2.04,1.71l-2.61,0l0-2.61l1.72-2.05l-2.44,0
					c-0.09-0.04-0.93-1.59-1.4-2.39c-0.47,0.8-1.31,2.35-1.39,2.39l-2.44,0l1.71,2.04l0,2.62l-2.61,0l-2.05-1.72l0,2.44
					c-0.04,0.09-1.59,0.93-2.39,1.4c0.8,0.47,2.35,1.31,2.39,1.39l0,2.44l2.04-1.71l2.61,0l0,2.61l-1.72,2.05l2.44,0
					c0.09,0.04,0.93,1.59,1.4,2.39c0.47-0.8,1.31-2.35,1.39-2.39l2.44,0l-1.71-2.04l0-2.62l2.61,0l2.05,1.72l0-2.44
					C155.42,82.42,156.97,81.57,157.77,81.11z M154.96,82.29l0,1.76l-1.51-1.28l-3.18,0l0,3.18l1.28,1.51l-1.76,0
					c-0.33,0.42-0.79,1.35-1.19,2.03c-0.4-0.68-0.86-1.61-1.19-2.03l-1.76,0l1.28-1.51l0-3.18l-3.18,0l-1.51,1.28l0-1.76
					c-0.42-0.33-1.35-0.79-2.03-1.19c0.68-0.4,1.61-0.86,2.03-1.19l0-1.76l1.51,1.28l3.18,0l0-3.18l-1.28-1.51l1.76,0
					c0.33-0.42,0.79-1.35,1.19-2.03c0.4,0.68,0.86,1.61,1.19,2.03l1.76,0l-1.28,1.51l0,3.18l3.18,0l1.51-1.28l0,1.76
					c0.42,0.33,1.35,0.79,2.03,1.19C156.31,81.5,155.38,81.97,154.96,82.29z"/>
				<path id="path4214_00000114778589762677146230000015503574424103722929_" class="st4" d="M151.94,81.11
					c-0.03-0.07-0.08-0.16-0.17-0.15c-0.07,0.01-0.06,0.04-0.09,0.06c-0.02,0.02-0.03,0.07-0.12,0.07c-0.07,0-0.11-0.05-0.13-0.07
					c-0.02-0.02-0.03-0.07-0.17-0.08c-0.14-0.01-0.37,0.17-0.37,0.18s0.23,0.18,0.37,0.18c0.13-0.01,0.15-0.06,0.17-0.08
					c0.03-0.02,0.07-0.07,0.13-0.07c0.08,0,0.1,0.05,0.12,0.07c0.02,0.02,0.02,0.06,0.09,0.06
					C151.86,81.27,151.91,81.18,151.94,81.11z"/>
				<path id="path4136_00000086689340651256536640000013947437591446128300_" class="st4" d="M145.32,81.11
					c0.03-0.07,0.08-0.16,0.17-0.15c0.07,0.01,0.06,0.04,0.09,0.06c0.02,0.02,0.03,0.07,0.12,0.07c0.07,0,0.11-0.05,0.13-0.07
					c0.02-0.02,0.03-0.07,0.17-0.08c0.14-0.01,0.37,0.17,0.37,0.18s-0.23,0.18-0.37,0.18c-0.13-0.01-0.15-0.06-0.17-0.08
					c-0.03-0.02-0.07-0.07-0.13-0.07c-0.08,0-0.1,0.05-0.12,0.07c-0.02,0.02-0.02,0.06-0.09,0.06
					C145.39,81.27,145.35,81.18,145.32,81.11z"/>
				<path id="path4270_00000094579081511470385400000008550934670008570798_" class="st4" d="M148.62,84.41
					c0.07-0.03,0.16-0.08,0.15-0.17c-0.01-0.07-0.04-0.06-0.06-0.09c-0.02-0.02-0.07-0.03-0.07-0.12c0-0.07,0.05-0.11,0.07-0.13
					c0.02-0.02,0.07-0.03,0.08-0.17c0.01-0.14-0.17-0.37-0.18-0.37s-0.18,0.23-0.18,0.37c0.01,0.13,0.06,0.15,0.08,0.17
					c0.02,0.03,0.07,0.07,0.07,0.13c0,0.08-0.05,0.1-0.07,0.12c-0.02,0.02-0.06,0.02-0.06,0.09
					C148.47,84.34,148.55,84.38,148.62,84.41z"/>
				<path id="path4260_00000164488149102774063600000007726621756098710407_" class="st4" d="M148.62,77.79
					c0.07,0.03,0.16,0.08,0.15,0.17c-0.01,0.07-0.04,0.06-0.06,0.09c-0.02,0.02-0.07,0.03-0.07,0.12c0,0.07,0.05,0.11,0.07,0.13
					c0.02,0.02,0.07,0.03,0.08,0.17c0.01,0.14-0.17,0.37-0.18,0.37s-0.18-0.23-0.18-0.37c0.01-0.13,0.06-0.15,0.08-0.17
					c0.02-0.03,0.07-0.07,0.07-0.13c0-0.08-0.05-0.1-0.07-0.12c-0.02-0.02-0.06-0.02-0.06-0.09
					C148.47,77.87,148.55,77.83,148.62,77.79z"/>
				<path id="path4216_00000154395418916703452500000002004237451143000475_" class="st4" d="M156.62,81.1
					c-0.07,0.12-0.2,0.21-0.35,0.24c-0.09,0.02-0.14-0.07-0.18-0.15c0,0-0.08,0.25-0.36,0.25c-0.27,0-0.53-0.34-0.53-0.34
					c0,0,0.26-0.34,0.53-0.34c0.27,0,0.36,0.25,0.36,0.25c0.04-0.08,0.08-0.17,0.18-0.15C156.42,80.89,156.55,80.98,156.62,81.1z
					 M155.9,81.11c-0.15-0.17-0.28-0.07-0.39,0C155.62,81.18,155.75,81.28,155.9,81.11z"/>
				<path id="path4145_00000078730407335495349120000000540800121518989187_" class="st4" d="M140.64,81.1
					c0.07,0.12,0.2,0.21,0.35,0.24c0.09,0.02,0.14-0.07,0.18-0.15c0,0,0.08,0.25,0.36,0.25c0.27,0,0.53-0.34,0.53-0.34
					c0,0-0.26-0.34-0.53-0.34c-0.27,0-0.36,0.25-0.36,0.25c-0.04-0.08-0.08-0.17-0.18-0.15C140.83,80.89,140.71,80.98,140.64,81.1z
					 M141.35,81.11c0.15-0.17,0.28-0.07,0.39,0C141.63,81.18,141.5,81.28,141.35,81.11z"/>
				<path id="path4272_00000092453170315498420160000006927360513484298167_" class="st4" d="M148.63,89.09
					c-0.12-0.07-0.21-0.2-0.24-0.35c-0.02-0.09,0.07-0.14,0.15-0.18c0,0-0.25-0.08-0.25-0.36c0-0.27,0.34-0.53,0.34-0.53
					s0.34,0.26,0.34,0.53c0,0.27-0.25,0.36-0.25,0.36c0.08,0.04,0.17,0.08,0.15,0.18C148.84,88.9,148.75,89.02,148.63,89.09z
					 M148.62,88.38c0.17-0.15,0.07-0.28,0-0.39C148.55,88.1,148.45,88.23,148.62,88.38z"/>
				<path id="path4262_00000080184805294439956380000004849436038788243866_" class="st4" d="M148.63,73.11
					c-0.12,0.07-0.21,0.2-0.24,0.35c-0.02,0.09,0.07,0.14,0.15,0.18c0,0-0.25,0.08-0.25,0.36c0,0.27,0.34,0.53,0.34,0.53
					s0.34-0.26,0.34-0.53c0-0.27-0.25-0.36-0.25-0.36c0.08-0.04,0.17-0.08,0.15-0.18C148.84,73.31,148.75,73.19,148.63,73.11z
					 M148.62,73.83c0.17,0.15,0.07,0.28,0,0.39C148.55,74.11,148.45,73.98,148.62,73.83z"/>
				<path id="path4266_00000086653576726294052430000006706107917783915679_" class="st4" d="M149.44,84.55
					c0.12,0.18,0,0.38-0.08,0.47c-0.08,0.08-0.28,0.18-0.28,0.18s0.12-0.16,0.1-0.28c-0.03-0.17-0.16-0.18-0.18-0.18
					s-0.17,0.02-0.16,0.16c0.02,0.28,0.14,0.43,0.3,0.6c0.2,0.21,0.48,0.32,0.59,0.41c0.07,0.06,0.15,0.07,0.17,0.09
					c0.18,0.15,0.26,0.26,0.35,0.47c0.09,0.21-0.01,0.37-0.01,0.37s0.21-0.08,0.41-0.08c0.19,0.01,0.3,0.2,0.32,0.34
					c0.01,0.1-0.13,0.23-0.27,0.23c-0.13,0-0.26-0.23-0.26-0.23h0.2c0,0,0.03,0.04,0.07,0.03c0.04-0.01,0.09-0.03,0.08-0.1
					c-0.01-0.04-0.04-0.15-0.17-0.13c-0.15,0.02-0.29,0.05-0.43,0.18c-0.19,0.18-0.33,0.18-0.59,0.19c-0.09,0-0.32-0.02-0.44-0.09
					c-0.02-0.01-0.16-0.1-0.2-0.13c-0.14-0.11-0.32-0.41-0.32-0.43v-1.02c0,0,0.18,0.2,0.18,0.4c0,0.19-0.11,0.37-0.11,0.37
					s0.01,0.16,0.13,0.32s0.15,0.22,0.35,0.32s0.29,0.15,0.44,0.08c0.31-0.15,0.19-0.56,0.19-0.56l0.27,0.1c0,0,0.03-0.29-0.34-0.52
					c-0.22-0.13-0.41-0.15-0.7-0.42c-0.31-0.3-0.42-0.45-0.42-0.81c0-0.34,0.11-0.54,0.48-0.66c0.46-0.15,0.34-0.63,0.33-0.64
					c-0.34-0.12-0.62-0.35-0.85-0.59c-0.02-0.02-0.02-0.06,0-0.08c0.02-0.02,0.06-0.02,0.08,0c0.23,0.25,0.53,0.51,0.86,0.59
					c0.08,0.02,0.16,0.04,0.23,0.05c0.07,0,0.11,0,0.14-0.05c0.04-0.05,0.04-0.08,0.02-0.12c0-0.01-0.02-0.03-0.02-0.04
					c-0.01-0.01-0.02-0.03-0.03-0.03c-0.02-0.01-0.04-0.02-0.07-0.04c-0.01,0.01-0.01,0.01-0.02,0.03
					c-0.01,0.02-0.02,0.03-0.03,0.05c-0.01,0.01-0.02,0.03-0.06,0.04c-0.04,0.01-0.06,0-0.08,0c-0.02-0.01-0.04-0.02-0.06-0.03
					c-0.02-0.01-0.03-0.02-0.05-0.04s-0.04-0.05-0.03-0.08c0-0.04,0.03-0.09,0.06-0.12c0.03-0.03,0.08-0.06,0.14-0.07
					c0.05,0,0.1,0,0.15,0.02s0.09,0.07,0.13,0.13c0.02,0.04,0.06,0.09,0.09,0.15c0.01,0.03,0.01,0.07,0.01,0.11
					c-0.01,0.04-0.02,0.08-0.05,0.12c-0.06,0.08-0.16,0.1-0.25,0.1c-0.02,0-0.04,0-0.07-0.01c-0.01,0,0.09,0.16,0.09,0.35
					c0,0.2-0.2,0.39-0.21,0.4c0.27,0.25,0.47,0.51,0.49,0.96c0.03,0.54-0.49,1.07-0.5,1.06c-0.2,0.25-0.43,0.43-0.52,0.91
					c-0.02,0.11,0.08,0.22,0.19,0.22c0.1,0.01,0.23-0.13,0.23-0.13c0.03-0.01,0.01,0.34-0.23,0.34c-0.15,0-0.39-0.12-0.36-0.38
					c0.05-0.38,0.2-0.7,0.45-0.96c0.01,0,0.54-0.57,0.55-0.91c0-0.07-0.1-0.33-0.18-0.38c-0.06-0.04-0.14-0.03-0.19-0.17l0.24,0
					c-0.02,0.05,0.01,0.05,0.07,0.03C149.73,84.85,149.62,84.66,149.44,84.55z"/>
				<path id="path4268_00000102539911413021332290000010021756167700020868_" class="st4" d="M147.81,84.55
					c-0.12,0.18,0,0.38,0.08,0.47c0.08,0.08,0.28,0.18,0.28,0.18s-0.12-0.16-0.1-0.28c0.03-0.17,0.16-0.18,0.18-0.18
					s0.17,0.02,0.16,0.16c-0.02,0.28-0.14,0.43-0.3,0.6c-0.2,0.21-0.48,0.32-0.59,0.41c-0.07,0.06-0.15,0.07-0.17,0.09
					c-0.18,0.15-0.26,0.26-0.35,0.47s0.01,0.37,0.01,0.37s-0.21-0.08-0.41-0.08c-0.19,0.01-0.3,0.2-0.32,0.34
					c-0.01,0.1,0.13,0.23,0.27,0.23c0.13,0,0.26-0.23,0.26-0.23h-0.2c0,0-0.03,0.04-0.07,0.03c-0.04-0.01-0.09-0.03-0.08-0.1
					c0.01-0.04,0.04-0.15,0.17-0.13c0.15,0.02,0.29,0.05,0.43,0.18c0.19,0.18,0.33,0.18,0.59,0.19c0.09,0,0.32-0.02,0.44-0.09
					c0.02-0.01,0.16-0.1,0.2-0.13c0.14-0.11,0.32-0.41,0.32-0.43v-1.02c0,0-0.18,0.2-0.18,0.4c0,0.19,0.11,0.37,0.11,0.37
					s-0.01,0.16-0.13,0.32s-0.15,0.22-0.35,0.32s-0.29,0.15-0.44,0.08c-0.31-0.15-0.19-0.56-0.19-0.56l-0.27,0.1
					c0,0-0.03-0.29,0.34-0.52c0.22-0.13,0.41-0.15,0.7-0.42c0.31-0.3,0.42-0.45,0.42-0.81c0-0.34-0.11-0.54-0.48-0.66
					c-0.46-0.15-0.34-0.63-0.33-0.64c0.34-0.12,0.62-0.35,0.85-0.59c0.02-0.02,0.02-0.06,0-0.08c-0.02-0.02-0.06-0.02-0.08,0
					c-0.23,0.25-0.53,0.51-0.86,0.59c-0.08,0.02-0.16,0.04-0.23,0.05c-0.07,0-0.11,0-0.14-0.05c-0.04-0.05-0.04-0.08-0.02-0.12
					c0-0.01,0.02-0.03,0.02-0.04c0.01-0.01,0.02-0.03,0.03-0.03c0.02-0.01,0.04-0.02,0.07-0.04c0.01,0.01,0.01,0.01,0.02,0.03
					c0.01,0.02,0.02,0.03,0.03,0.05c0.01,0.01,0.02,0.03,0.06,0.04c0.04,0.01,0.06,0,0.08,0c0.02-0.01,0.04-0.02,0.06-0.03
					c0.02-0.01,0.03-0.02,0.05-0.04s0.04-0.05,0.03-0.08c0-0.04-0.03-0.09-0.06-0.12c-0.03-0.03-0.08-0.06-0.14-0.07
					c-0.05,0-0.1,0-0.15,0.02s-0.09,0.07-0.13,0.13c-0.02,0.04-0.06,0.09-0.09,0.15c-0.01,0.03-0.01,0.07-0.01,0.11
					c0.01,0.04,0.02,0.08,0.05,0.12c0.06,0.08,0.16,0.1,0.25,0.1c0.02,0,0.04,0,0.07-0.01c0.01,0-0.09,0.16-0.09,0.35
					c0,0.2,0.2,0.39,0.21,0.4c-0.27,0.25-0.47,0.51-0.49,0.96c-0.03,0.54,0.49,1.07,0.5,1.06c0.2,0.25,0.43,0.43,0.52,0.91
					c0.02,0.11-0.08,0.22-0.19,0.22c-0.1,0.01-0.23-0.13-0.23-0.13c-0.03-0.01-0.01,0.34,0.23,0.34c0.15,0,0.39-0.12,0.36-0.38
					c-0.05-0.38-0.2-0.7-0.45-0.96c-0.01,0-0.54-0.57-0.55-0.91c0-0.07,0.1-0.33,0.18-0.38c0.06-0.04,0.14-0.03,0.19-0.17l-0.24,0
					c0.02,0.05-0.01,0.05-0.07,0.03C147.53,84.85,147.63,84.66,147.81,84.55z"/>
				<path id="path4212_00000168800443378558078800000015821392082107518094_" class="st4" d="M152.08,81.92
					c0.18,0.12,0.38,0,0.47-0.08c0.08-0.08,0.18-0.28,0.18-0.28s-0.16,0.12-0.28,0.1c-0.17-0.03-0.18-0.16-0.18-0.18
					c0-0.01,0.02-0.17,0.16-0.16c0.28,0.02,0.43,0.14,0.6,0.3c0.21,0.2,0.32,0.48,0.41,0.59c0.06,0.07,0.07,0.15,0.09,0.17
					c0.15,0.18,0.26,0.26,0.47,0.35c0.21,0.09,0.37-0.01,0.37-0.01s-0.08,0.21-0.08,0.41c0.01,0.19,0.2,0.3,0.34,0.32
					c0.1,0.01,0.23-0.13,0.23-0.27c0-0.13-0.23-0.26-0.23-0.26v0.2c0,0,0.04,0.03,0.03,0.07c-0.01,0.04-0.03,0.09-0.1,0.08
					c-0.04-0.01-0.15-0.04-0.13-0.17c0.02-0.15,0.05-0.29,0.18-0.43c0.18-0.19,0.18-0.33,0.19-0.59c0-0.09-0.02-0.32-0.09-0.44
					c-0.01-0.02-0.1-0.16-0.13-0.2c-0.11-0.14-0.41-0.32-0.43-0.32h-1.02c0,0,0.2,0.18,0.4,0.18c0.19,0,0.37-0.11,0.37-0.11
					s0.16,0.01,0.32,0.13c0.16,0.12,0.22,0.15,0.32,0.35c0.1,0.2,0.15,0.29,0.08,0.44c-0.15,0.31-0.56,0.19-0.56,0.19l0.1,0.27
					c0,0-0.29,0.03-0.52-0.34c-0.13-0.22-0.15-0.41-0.42-0.7c-0.3-0.31-0.45-0.42-0.81-0.42c-0.34,0-0.54,0.11-0.66,0.48
					c-0.15,0.46-0.63,0.34-0.64,0.33c-0.12-0.34-0.35-0.62-0.59-0.85c-0.02-0.02-0.06-0.02-0.08,0c-0.02,0.02-0.02,0.06,0,0.08
					c0.25,0.23,0.51,0.53,0.59,0.86c0.02,0.08,0.04,0.16,0.05,0.23s0,0.11-0.05,0.14c-0.05,0.04-0.08,0.04-0.12,0.02
					c-0.01,0-0.03-0.02-0.04-0.02c-0.01-0.01-0.03-0.02-0.03-0.03c-0.01-0.02-0.02-0.04-0.04-0.07c0.01-0.01,0.01-0.01,0.03-0.02
					c0.02-0.01,0.03-0.02,0.05-0.03c0.01-0.01,0.03-0.02,0.04-0.06c0.01-0.04,0-0.06,0-0.08c-0.01-0.02-0.02-0.04-0.03-0.06
					c-0.01-0.02-0.02-0.03-0.04-0.05c-0.02-0.02-0.05-0.04-0.08-0.03c-0.04,0-0.09,0.03-0.12,0.06c-0.03,0.03-0.06,0.08-0.07,0.14
					c0,0.05,0,0.1,0.02,0.15c0.02,0.05,0.07,0.09,0.13,0.13c0.04,0.02,0.09,0.06,0.15,0.09c0.03,0.01,0.07,0.01,0.11,0.01
					s0.08-0.02,0.12-0.05c0.08-0.06,0.1-0.16,0.1-0.25c0-0.02,0-0.04-0.01-0.07c0-0.01,0.16,0.09,0.35,0.09c0.2,0,0.39-0.2,0.4-0.21
					c0.25,0.27,0.51,0.47,0.96,0.49c0.54,0.03,1.07-0.49,1.06-0.5c0.25-0.2,0.43-0.43,0.91-0.52c0.11-0.02,0.22,0.08,0.22,0.19
					c0.01,0.1-0.13,0.23-0.13,0.23c-0.01,0.03,0.34,0.01,0.34-0.23c0-0.15-0.12-0.39-0.38-0.36c-0.38,0.05-0.7,0.2-0.96,0.45
					c0,0.01-0.57,0.54-0.91,0.55c-0.07,0-0.33-0.1-0.38-0.18c-0.04-0.06-0.03-0.14-0.17-0.19l0,0.24c0.05-0.02,0.05,0.01,0.03,0.07
					C152.38,82.2,152.18,82.1,152.08,81.92z"/>
				<path id="path4210_00000033357610734654841130000009844800712318774151_" class="st4" d="M152.08,80.29
					c0.18-0.12,0.38,0,0.47,0.08c0.08,0.08,0.18,0.28,0.18,0.28s-0.16-0.12-0.28-0.1c-0.17,0.03-0.18,0.16-0.18,0.18
					c0,0.01,0.02,0.17,0.16,0.16c0.28-0.02,0.43-0.14,0.6-0.3c0.21-0.2,0.32-0.48,0.41-0.59c0.06-0.07,0.07-0.15,0.09-0.17
					c0.15-0.18,0.26-0.26,0.47-0.35s0.37,0.01,0.37,0.01s-0.08-0.21-0.08-0.41c0.01-0.19,0.2-0.3,0.34-0.32
					c0.1-0.01,0.23,0.13,0.23,0.27c0,0.13-0.23,0.26-0.23,0.26v-0.2c0,0,0.04-0.03,0.03-0.07c-0.01-0.04-0.03-0.09-0.1-0.08
					c-0.04,0.01-0.15,0.04-0.13,0.17c0.02,0.15,0.05,0.29,0.18,0.43c0.18,0.19,0.18,0.33,0.19,0.59c0,0.09-0.02,0.32-0.09,0.44
					c-0.01,0.02-0.1,0.16-0.13,0.2c-0.11,0.14-0.41,0.32-0.43,0.32h-1.02c0,0,0.2-0.18,0.4-0.18c0.19,0,0.37,0.11,0.37,0.11
					s0.16-0.01,0.32-0.13c0.16-0.12,0.22-0.15,0.32-0.35c0.1-0.2,0.15-0.29,0.08-0.44c-0.15-0.31-0.56-0.19-0.56-0.19l0.1-0.27
					c0,0-0.29-0.03-0.52,0.34c-0.13,0.22-0.15,0.41-0.42,0.7c-0.3,0.31-0.45,0.42-0.81,0.42c-0.34,0-0.54-0.11-0.66-0.48
					c-0.15-0.46-0.63-0.34-0.64-0.33c-0.12,0.34-0.35,0.62-0.59,0.85c-0.02,0.02-0.06,0.02-0.08,0c-0.02-0.02-0.02-0.06,0-0.08
					c0.25-0.23,0.51-0.53,0.59-0.86c0.02-0.08,0.04-0.16,0.05-0.23s0-0.11-0.05-0.14c-0.05-0.04-0.08-0.04-0.12-0.02
					c-0.01,0-0.03,0.02-0.04,0.02c-0.01,0.01-0.03,0.02-0.03,0.03c-0.01,0.02-0.02,0.04-0.04,0.07c0.01,0.01,0.01,0.01,0.03,0.02
					s0.03,0.02,0.05,0.03c0.01,0.01,0.03,0.02,0.04,0.06c0.01,0.04,0,0.06,0,0.08c-0.01,0.02-0.02,0.04-0.03,0.06
					c-0.01,0.02-0.02,0.03-0.04,0.05c-0.02,0.02-0.05,0.04-0.08,0.03c-0.04,0-0.09-0.03-0.12-0.06c-0.03-0.03-0.06-0.08-0.07-0.14
					c0-0.05,0-0.1,0.02-0.15c0.02-0.05,0.07-0.09,0.13-0.13c0.04-0.02,0.09-0.06,0.15-0.09c0.03-0.01,0.07-0.01,0.11-0.01
					c0.04,0.01,0.08,0.02,0.12,0.05c0.08,0.06,0.1,0.16,0.1,0.25c0,0.02,0,0.04-0.01,0.07c0,0.01,0.16-0.09,0.35-0.09
					c0.2,0,0.39,0.2,0.4,0.21c0.25-0.27,0.51-0.47,0.96-0.49c0.54-0.03,1.07,0.49,1.06,0.5c0.25,0.2,0.43,0.43,0.91,0.52
					c0.11,0.02,0.22-0.08,0.22-0.19c0.01-0.1-0.13-0.23-0.13-0.23c-0.01-0.03,0.34-0.01,0.34,0.23c0,0.15-0.12,0.39-0.38,0.36
					c-0.38-0.05-0.7-0.2-0.96-0.45c0-0.01-0.57-0.54-0.91-0.55c-0.07,0-0.33,0.1-0.38,0.18c-0.04,0.06-0.03,0.14-0.17,0.19l0-0.24
					c0.05,0.02,0.05-0.01,0.03-0.07C152.38,80,152.18,80.11,152.08,80.29z"/>
				<path id="path4134_00000002380080468359272320000005894589899458283144_" class="st4" d="M145.18,81.92
					c-0.18,0.12-0.38,0-0.47-0.08c-0.08-0.08-0.18-0.28-0.18-0.28s0.16,0.12,0.28,0.1c0.17-0.03,0.18-0.16,0.18-0.18
					c0-0.01-0.02-0.17-0.16-0.16c-0.28,0.02-0.43,0.14-0.6,0.3c-0.21,0.2-0.32,0.48-0.41,0.59c-0.06,0.07-0.07,0.15-0.09,0.17
					c-0.15,0.18-0.26,0.26-0.47,0.35c-0.21,0.09-0.37-0.01-0.37-0.01s0.08,0.21,0.08,0.41c-0.01,0.19-0.2,0.3-0.34,0.32
					c-0.1,0.01-0.23-0.13-0.23-0.27c0-0.13,0.23-0.26,0.23-0.26v0.2c0,0-0.04,0.03-0.03,0.07c0.01,0.04,0.03,0.09,0.1,0.08
					c0.04-0.01,0.15-0.04,0.13-0.17c-0.02-0.15-0.05-0.29-0.18-0.43c-0.18-0.19-0.18-0.33-0.19-0.59c0-0.09,0.02-0.32,0.09-0.44
					c0.01-0.02,0.1-0.16,0.13-0.2c0.11-0.14,0.41-0.32,0.43-0.32h1.02c0,0-0.2,0.18-0.4,0.18c-0.19,0-0.37-0.11-0.37-0.11
					s-0.16,0.01-0.32,0.13s-0.22,0.15-0.32,0.35c-0.1,0.2-0.15,0.29-0.08,0.44c0.15,0.31,0.56,0.19,0.56,0.19l-0.1,0.27
					c0,0,0.29,0.03,0.52-0.34c0.13-0.22,0.15-0.41,0.42-0.7c0.3-0.31,0.45-0.42,0.81-0.42c0.34,0,0.54,0.11,0.66,0.48
					c0.15,0.46,0.63,0.34,0.64,0.33c0.12-0.34,0.35-0.62,0.59-0.85c0.02-0.02,0.06-0.02,0.08,0c0.02,0.02,0.02,0.06,0,0.08
					c-0.25,0.23-0.51,0.53-0.59,0.86c-0.02,0.08-0.04,0.16-0.05,0.23s0,0.11,0.05,0.14c0.05,0.04,0.08,0.04,0.12,0.02
					c0.01,0,0.03-0.02,0.04-0.02c0.01-0.01,0.03-0.02,0.03-0.03c0.01-0.02,0.02-0.04,0.04-0.07c-0.01-0.01-0.01-0.01-0.03-0.02
					c-0.02-0.01-0.03-0.02-0.05-0.03c-0.01-0.01-0.03-0.02-0.04-0.06c-0.01-0.04,0-0.06,0-0.08c0.01-0.02,0.02-0.04,0.03-0.06
					c0.01-0.02,0.02-0.03,0.04-0.05s0.05-0.04,0.08-0.03c0.04,0,0.09,0.03,0.12,0.06c0.03,0.03,0.06,0.08,0.07,0.14
					c0,0.05,0,0.1-0.02,0.15c-0.02,0.05-0.07,0.09-0.13,0.13c-0.04,0.02-0.09,0.06-0.15,0.09c-0.03,0.01-0.07,0.01-0.11,0.01
					c-0.04-0.01-0.08-0.02-0.12-0.05c-0.08-0.06-0.1-0.16-0.1-0.25c0-0.02,0-0.04,0.01-0.07c0-0.01-0.16,0.09-0.35,0.09
					c-0.2,0-0.39-0.2-0.4-0.21c-0.25,0.27-0.51,0.47-0.96,0.49c-0.54,0.03-1.07-0.49-1.06-0.5c-0.25-0.2-0.43-0.43-0.91-0.52
					c-0.11-0.02-0.22,0.08-0.22,0.19c-0.01,0.1,0.13,0.23,0.13,0.23c0.01,0.03-0.34,0.01-0.34-0.23c0-0.15,0.12-0.39,0.38-0.36
					c0.38,0.05,0.7,0.2,0.96,0.45c0,0.01,0.57,0.54,0.91,0.55c0.07,0,0.33-0.1,0.38-0.18c0.04-0.06,0.03-0.14,0.17-0.19l0,0.24
					c-0.05-0.02-0.05,0.01-0.03,0.07C144.88,82.2,145.07,82.1,145.18,81.92z"/>
				<path id="path4174_00000116953261294391749490000000700239960174196883_" class="st4" d="M145.18,80.29
					c-0.18-0.12-0.38,0-0.47,0.08c-0.08,0.08-0.18,0.28-0.18,0.28s0.16-0.12,0.28-0.1c0.17,0.03,0.18,0.16,0.18,0.18
					c0,0.01-0.02,0.17-0.16,0.16c-0.28-0.02-0.43-0.14-0.6-0.3c-0.21-0.2-0.32-0.48-0.41-0.59c-0.06-0.07-0.07-0.15-0.09-0.17
					c-0.15-0.18-0.26-0.26-0.47-0.35c-0.21-0.09-0.37,0.01-0.37,0.01s0.08-0.21,0.08-0.41c-0.01-0.19-0.2-0.3-0.34-0.32
					c-0.1-0.01-0.23,0.13-0.23,0.27c0,0.13,0.23,0.26,0.23,0.26v-0.2c0,0-0.04-0.03-0.03-0.07c0.01-0.04,0.03-0.09,0.1-0.08
					c0.04,0.01,0.15,0.04,0.13,0.17c-0.02,0.15-0.05,0.29-0.18,0.43c-0.18,0.19-0.18,0.33-0.19,0.59c0,0.09,0.02,0.32,0.09,0.44
					c0.01,0.02,0.1,0.16,0.13,0.2c0.11,0.14,0.41,0.32,0.43,0.32h1.02c0,0-0.2-0.18-0.4-0.18c-0.19,0-0.37,0.11-0.37,0.11
					s-0.16-0.01-0.32-0.13s-0.22-0.15-0.32-0.35c-0.1-0.2-0.15-0.29-0.08-0.44c0.15-0.31,0.56-0.19,0.56-0.19l-0.1-0.27
					c0,0,0.29-0.03,0.52,0.34c0.13,0.22,0.15,0.41,0.42,0.7c0.3,0.31,0.45,0.42,0.81,0.42c0.34,0,0.54-0.11,0.66-0.48
					c0.15-0.46,0.63-0.34,0.64-0.33c0.12,0.34,0.35,0.62,0.59,0.85c0.02,0.02,0.06,0.02,0.08,0c0.02-0.02,0.02-0.06,0-0.08
					c-0.25-0.23-0.51-0.53-0.59-0.86c-0.02-0.08-0.04-0.16-0.05-0.23s0-0.11,0.05-0.14c0.05-0.04,0.08-0.04,0.12-0.02
					c0.01,0,0.03,0.02,0.04,0.02c0.01,0.01,0.03,0.02,0.03,0.03c0.01,0.02,0.02,0.04,0.04,0.07c-0.01,0.01-0.01,0.01-0.03,0.02
					s-0.03,0.02-0.05,0.03c-0.01,0.01-0.03,0.02-0.04,0.06c-0.01,0.04,0,0.06,0,0.08c0.01,0.02,0.02,0.04,0.03,0.06
					c0.01,0.02,0.02,0.03,0.04,0.05s0.05,0.04,0.08,0.03c0.04,0,0.09-0.03,0.12-0.06s0.06-0.08,0.07-0.14c0-0.05,0-0.1-0.02-0.15
					c-0.02-0.05-0.07-0.09-0.13-0.13c-0.04-0.02-0.09-0.06-0.15-0.09c-0.03-0.01-0.07-0.01-0.11-0.01
					c-0.04,0.01-0.08,0.02-0.12,0.05c-0.08,0.06-0.1,0.16-0.1,0.25c0,0.02,0,0.04,0.01,0.07c0,0.01-0.16-0.09-0.35-0.09
					c-0.2,0-0.39,0.2-0.4,0.21c-0.25-0.27-0.51-0.47-0.96-0.49c-0.54-0.03-1.07,0.49-1.06,0.5c-0.25,0.2-0.43,0.43-0.91,0.52
					c-0.11,0.02-0.22-0.08-0.22-0.19c-0.01-0.1,0.13-0.23,0.13-0.23c0.01-0.03-0.34-0.01-0.34,0.23c0,0.15,0.12,0.39,0.38,0.36
					c0.38-0.05,0.7-0.2,0.96-0.45c0-0.01,0.57-0.54,0.91-0.55c0.07,0,0.33,0.1,0.38,0.18c0.04,0.06,0.03,0.14,0.17,0.19l0-0.24
					c-0.05,0.02-0.05-0.01-0.03-0.07C144.88,80,145.07,80.11,145.18,80.29z"/>
				<path id="path4256_00000071531628878815440310000007479414230988735136_" class="st4" d="M149.44,77.66
					c0.12-0.18,0-0.38-0.08-0.47c-0.08-0.08-0.28-0.18-0.28-0.18s0.12,0.16,0.1,0.28c-0.03,0.17-0.16,0.18-0.18,0.18
					s-0.17-0.02-0.16-0.16c0.02-0.28,0.14-0.43,0.3-0.6c0.2-0.21,0.48-0.32,0.59-0.41c0.07-0.06,0.15-0.07,0.17-0.09
					c0.18-0.15,0.26-0.26,0.35-0.47c0.09-0.21-0.01-0.37-0.01-0.37s0.21,0.08,0.41,0.08c0.19-0.01,0.3-0.2,0.32-0.34
					c0.01-0.1-0.13-0.23-0.27-0.23c-0.13,0-0.26,0.23-0.26,0.23h0.2c0,0,0.03-0.04,0.07-0.03c0.04,0.01,0.09,0.03,0.08,0.1
					c-0.01,0.04-0.04,0.15-0.17,0.13c-0.15-0.02-0.29-0.05-0.43-0.18c-0.19-0.18-0.33-0.18-0.59-0.19c-0.09,0-0.32,0.02-0.44,0.09
					c-0.02,0.01-0.16,0.1-0.2,0.13c-0.14,0.11-0.32,0.41-0.32,0.43v1.02c0,0,0.18-0.2,0.18-0.4c0-0.19-0.11-0.37-0.11-0.37
					s0.01-0.16,0.13-0.32c0.12-0.16,0.15-0.22,0.35-0.32c0.2-0.1,0.29-0.15,0.44-0.08c0.31,0.15,0.19,0.56,0.19,0.56l0.27-0.1
					c0,0,0.03,0.29-0.34,0.52c-0.22,0.13-0.41,0.15-0.7,0.42c-0.31,0.3-0.42,0.45-0.42,0.81c0,0.34,0.11,0.54,0.48,0.66
					c0.46,0.15,0.34,0.63,0.33,0.64c-0.34,0.12-0.62,0.35-0.85,0.59c-0.02,0.02-0.02,0.06,0,0.08c0.02,0.02,0.06,0.02,0.08,0
					c0.23-0.25,0.53-0.51,0.86-0.59c0.08-0.02,0.16-0.04,0.23-0.05c0.07,0,0.11,0,0.14,0.05c0.04,0.05,0.04,0.08,0.02,0.12
					c0,0.01-0.02,0.03-0.02,0.04c-0.01,0.01-0.02,0.03-0.03,0.03c-0.02,0.01-0.04,0.02-0.07,0.04c-0.01-0.01-0.01-0.01-0.02-0.03
					c-0.01-0.02-0.02-0.03-0.03-0.05c-0.01-0.01-0.02-0.03-0.06-0.04c-0.04-0.01-0.06,0-0.08,0c-0.02,0.01-0.04,0.02-0.06,0.03
					s-0.03,0.02-0.05,0.04c-0.02,0.02-0.04,0.05-0.03,0.08c0,0.04,0.03,0.09,0.06,0.12s0.08,0.06,0.14,0.07c0.05,0,0.1,0,0.15-0.02
					c0.05-0.02,0.09-0.07,0.13-0.13c0.02-0.04,0.06-0.09,0.09-0.15c0.01-0.03,0.01-0.07,0.01-0.11c-0.01-0.04-0.02-0.08-0.05-0.12
					c-0.06-0.08-0.16-0.1-0.25-0.1c-0.02,0-0.04,0-0.07,0.01c-0.01,0,0.09-0.16,0.09-0.35c0-0.2-0.2-0.39-0.21-0.4
					c0.27-0.25,0.47-0.51,0.49-0.96c0.03-0.54-0.49-1.07-0.5-1.06c-0.2-0.25-0.43-0.43-0.52-0.91c-0.02-0.11,0.08-0.22,0.19-0.22
					c0.1-0.01,0.23,0.13,0.23,0.13c0.03,0.01,0.01-0.34-0.23-0.34c-0.15,0-0.39,0.12-0.36,0.38c0.05,0.38,0.2,0.7,0.45,0.96
					c0.01,0,0.54,0.57,0.55,0.91c0,0.07-0.1,0.33-0.18,0.38c-0.06,0.04-0.14,0.03-0.19,0.17l0.24,0c-0.02-0.05,0.01-0.05,0.07-0.03
					C149.73,77.36,149.62,77.55,149.44,77.66z"/>
				<path id="path4258_00000179629767401202040270000004766469852344728450_" class="st4" d="M147.81,77.66
					c-0.12-0.18,0-0.38,0.08-0.47c0.08-0.08,0.28-0.18,0.28-0.18s-0.12,0.16-0.1,0.28c0.03,0.17,0.16,0.18,0.18,0.18
					s0.17-0.02,0.16-0.16c-0.02-0.28-0.14-0.43-0.3-0.6c-0.2-0.21-0.48-0.32-0.59-0.41c-0.07-0.06-0.15-0.07-0.17-0.09
					c-0.18-0.15-0.26-0.26-0.35-0.47c-0.09-0.21,0.01-0.37,0.01-0.37s-0.21,0.08-0.41,0.08c-0.19-0.01-0.3-0.2-0.32-0.34
					c-0.01-0.1,0.13-0.23,0.27-0.23c0.13,0,0.26,0.23,0.26,0.23h-0.2c0,0-0.03-0.04-0.07-0.03c-0.04,0.01-0.09,0.03-0.08,0.1
					c0.01,0.04,0.04,0.15,0.17,0.13c0.15-0.02,0.29-0.05,0.43-0.18c0.19-0.18,0.33-0.18,0.59-0.19c0.09,0,0.32,0.02,0.44,0.09
					c0.02,0.01,0.16,0.1,0.2,0.13c0.14,0.11,0.32,0.41,0.32,0.43v1.02c0,0-0.18-0.2-0.18-0.4c0-0.19,0.11-0.37,0.11-0.37
					s-0.01-0.16-0.13-0.32c-0.12-0.16-0.15-0.22-0.35-0.32c-0.2-0.1-0.29-0.15-0.44-0.08c-0.31,0.15-0.19,0.56-0.19,0.56l-0.27-0.1
					c0,0-0.03,0.29,0.34,0.52c0.22,0.13,0.41,0.15,0.7,0.42c0.31,0.3,0.42,0.45,0.42,0.81c0,0.34-0.11,0.54-0.48,0.66
					c-0.46,0.15-0.34,0.63-0.33,0.64c0.34,0.12,0.62,0.35,0.85,0.59c0.02,0.02,0.02,0.06,0,0.08c-0.02,0.02-0.06,0.02-0.08,0
					c-0.23-0.25-0.53-0.51-0.86-0.59c-0.08-0.02-0.16-0.04-0.23-0.05c-0.07,0-0.11,0-0.14,0.05c-0.04,0.05-0.04,0.08-0.02,0.12
					c0,0.01,0.02,0.03,0.02,0.04c0.01,0.01,0.02,0.03,0.03,0.03c0.02,0.01,0.04,0.02,0.07,0.04c0.01-0.01,0.01-0.01,0.02-0.03
					c0.01-0.02,0.02-0.03,0.03-0.05c0.01-0.01,0.02-0.03,0.06-0.04c0.04-0.01,0.06,0,0.08,0c0.02,0.01,0.04,0.02,0.06,0.03
					s0.03,0.02,0.05,0.04c0.02,0.02,0.04,0.05,0.03,0.08c0,0.04-0.03,0.09-0.06,0.12s-0.08,0.06-0.14,0.07c-0.05,0-0.1,0-0.15-0.02
					c-0.05-0.02-0.09-0.07-0.13-0.13c-0.02-0.04-0.06-0.09-0.09-0.15c-0.01-0.03-0.01-0.07-0.01-0.11c0.01-0.04,0.02-0.08,0.05-0.12
					c0.06-0.08,0.16-0.1,0.25-0.1c0.02,0,0.04,0,0.07,0.01c0.01,0-0.09-0.16-0.09-0.35c0-0.2,0.2-0.39,0.21-0.4
					c-0.27-0.25-0.47-0.51-0.49-0.96c-0.03-0.54,0.49-1.07,0.5-1.06c0.2-0.25,0.43-0.43,0.52-0.91c0.02-0.11-0.08-0.22-0.19-0.22
					c-0.1-0.01-0.23,0.13-0.23,0.13c-0.03,0.01-0.01-0.34,0.23-0.34c0.15,0,0.39,0.12,0.36,0.38c-0.05,0.38-0.2,0.7-0.45,0.96
					c-0.01,0-0.54,0.57-0.55,0.91c0,0.07,0.1,0.33,0.18,0.38c0.06,0.04,0.14,0.03,0.19,0.17l-0.24,0c0.02-0.05-0.01-0.05-0.07-0.03
					C147.53,77.36,147.63,77.55,147.81,77.66z"/>
				<path id="path4150_00000093859343360760746560000005731483650359415484_" class="st4" d="M147.63,81.94
					c0.11-0.16,0.3-0.34,0.43-0.39c0.13-0.06,0.15,0.02,0.05,0.18s-0.3,0.34-0.43,0.4c-0.13,0.06-0.16-0.02-0.06-0.18"/>
				<path id="path4123_00000172411913922316825590000018331448757155710366_" class="st4" d="M147.19,81.11
					c0.05,0.09,0.4,0.03,0.6,0.05c-0.24,0.17-0.39,0.29-0.39,0.38c0.04,0.05,0.07-0.03,0.17-0.1c0.16-0.12,0.43-0.29,0.7-0.33
					c-0.27-0.04-0.54-0.21-0.7-0.33c-0.1-0.07-0.13-0.15-0.17-0.1c0,0.09,0.15,0.21,0.39,0.38
					C147.59,81.07,147.24,81.02,147.19,81.11z"/>
				<path id="path4130_00000067949668394038341400000001304722218847195062_" class="st4" d="M150.02,81.11
					c-0.05,0.09-0.4,0.03-0.6,0.05c0.24,0.17,0.39,0.29,0.39,0.38c-0.04,0.05-0.07-0.03-0.17-0.1c-0.16-0.12-0.43-0.29-0.7-0.33
					c0.27-0.04,0.54-0.21,0.7-0.33c0.1-0.07,0.13-0.15,0.17-0.1c0,0.09-0.15,0.21-0.39,0.38C149.62,81.07,149.97,81.02,150.02,81.11
					z"/>
				<path id="path4138_00000090264983411432869650000011912347529353951888_" class="st4" d="M148.61,79.69
					c-0.09,0.05-0.03,0.4-0.05,0.6c-0.17-0.24-0.29-0.39-0.38-0.39c-0.05,0.04,0.03,0.07,0.1,0.17c0.12,0.16,0.29,0.43,0.33,0.7
					c0.04-0.27,0.21-0.54,0.33-0.7c0.07-0.1,0.15-0.13,0.1-0.17c-0.09,0-0.21,0.15-0.38,0.39
					C148.64,80.09,148.69,79.74,148.61,79.69z"/>
				<path id="path4140_00000128453878058050467800000001433048988333180814_" class="st4" d="M148.61,82.52
					c-0.09-0.05-0.03-0.4-0.05-0.6c-0.17,0.24-0.29,0.39-0.38,0.39c-0.05-0.04,0.03-0.07,0.1-0.17c0.12-0.16,0.29-0.43,0.33-0.7
					c0.04,0.27,0.21,0.54,0.33,0.7c0.07,0.1,0.15,0.13,0.1,0.17c-0.09,0-0.21-0.15-0.38-0.39
					C148.64,82.12,148.69,82.47,148.61,82.52z"/>
				<path id="path4144_00000107578554958396170680000006658898392164537235_" class="st4" d="M147.97,80.59
					c-0.16-0.11-0.34-0.3-0.39-0.43c-0.06-0.13,0.02-0.15,0.18-0.05c0.16,0.11,0.34,0.3,0.4,0.43c0.06,0.13-0.02,0.16-0.18,0.06"/>
				<path id="path4146_00000079478249067427656680000017034776062763004056_" class="st4" d="M149.46,82.08
					c-0.16-0.11-0.34-0.3-0.39-0.43c-0.06-0.13,0.02-0.15,0.18-0.05c0.16,0.11,0.34,0.3,0.4,0.43c0.06,0.13-0.02,0.16-0.18,0.06"/>
				<path id="path4148_00000078026233148009115150000013325224341323548841_" class="st4" d="M149.11,80.47
					c0.11-0.16,0.3-0.34,0.43-0.39c0.13-0.06,0.15,0.02,0.05,0.18c-0.11,0.16-0.3,0.34-0.43,0.4c-0.13,0.06-0.16-0.02-0.06-0.18"/>
			</g>
			<g id="Lettere_00000152944485733796949210000001047148519897654155_">
				<path id="path24889_00000000216962630435175030000012304386521430684592_" class="st5" d="M142.96,75.72h-0.34v0.1h0.09v1.16
					h-0.13v0.1h0.51v-0.1h-0.13L142.96,75.72z"/>
				<path id="path3186_00000109740226425665474620000014741053637516858255_" class="st5" d="M143.29,76.35
					c0-0.13,0.26-0.09,0.26,0.08h-0.08v0.22h0.32v-0.3c0-0.12,0.27-0.08,0.27,0.09h-0.08v0.65h-0.19v-0.33h-0.24h-0.08v0.25
					c0,0.08-0.28,0.1-0.28-0.09h0.1V76.35z"/>
				<path id="path24887_00000039839830017095525710000014474988761842354342_" class="st5" d="M144.43,76.89
					c0.04,0.07,0.07,0.11,0.14,0.11c0.07,0,0.1-0.04,0.14-0.12c0.06-0.01,0.12-0.02,0.17,0.04c-0.07,0.09-0.18,0.15-0.31,0.15
					c-0.23,0-0.39-0.18-0.39-0.4c0,0,0-0.01,0-0.01c0-0.22,0.17-0.4,0.39-0.4c0.13,0,0.24,0.06,0.31,0.15
					c-0.04,0.06-0.1,0.05-0.17,0.04c-0.04-0.07-0.07-0.12-0.14-0.12c-0.07,0-0.1,0.04-0.14,0.11V76.89z"/>
				
					<rect id="rect5544_00000167376763198208709000000006944295393490285477_" x="143.18" y="75.74" class="st4" width="1.63" height="0.09"/>
				<path id="path6238_00000067214318363199439700000005968582463819427519_" class="st5" d="M152.03,76.01h0.18v1.14h-0.09v0.1
					h0.54v-0.1h-0.14v-1.14h0.14V75.9h-0.63h-0.63v0.12h0.14v1.14h-0.14v0.1h0.54v-0.1h-0.09v-1.14H152.03z"/>
				<path id="path5556_00000043418617580532858650000006357944941235769746_" class="st5" d="M154.32,77.08
					c0.04,0.07,0.07,0.11,0.14,0.11c0.07,0,0.1-0.04,0.14-0.11c0.06-0.01,0.12-0.02,0.17,0.04c-0.07,0.09-0.18,0.15-0.31,0.15
					c-0.23,0-0.39-0.17-0.39-0.39c0,0,0-0.01,0-0.01c0-0.22,0.17-0.39,0.39-0.39c0.13,0,0.24,0.06,0.31,0.15
					c-0.04,0.06-0.1,0.05-0.17,0.04c-0.04-0.07-0.07-0.11-0.14-0.11c-0.07,0-0.1,0.04-0.14,0.11V77.08z"/>
				<path id="path6126_00000058591130074011602210000015174585945595442602_" class="st5" d="M153.39,77.04
					c0.09,0.06,0.13,0.35,0.33,0.34c0.1-0.02,0.19-0.09,0.21-0.19c0.01-0.08-0.05-0.13-0.11-0.16c-0.08-0.04-0.15,0.04-0.14,0.12
					c0.02,0.06-0.05-0.01-0.11-0.07c-0.07-0.07-0.08-0.11-0.08-0.18c0-0.04,0.21-0.3,0.25-0.32c0.07-0.04,0.06,0.11,0.09,0.07
					c0.04-0.06,0.12-0.06,0.07-0.13c-0.03-0.05-0.08-0.06-0.13-0.06c-0.11-0.02-0.22,0-0.28,0.11c-0.07,0.13-0.07,0.2-0.11,0.2
					c-0.09-0.06-0.13-0.35-0.33-0.34c-0.1,0.02-0.19,0.09-0.21,0.19c-0.01,0.08,0.05,0.13,0.11,0.16c0.08,0.04,0.15-0.04,0.14-0.12
					c-0.02-0.06,0.05,0.01,0.11,0.07c0.07,0.07,0.08,0.11,0.08,0.18c0,0.04-0.18,0.27-0.22,0.29c-0.07,0.04-0.06-0.11-0.09-0.07
					c-0.04,0.06-0.15,0.1-0.1,0.17c0.03,0.05,0.08,0.06,0.13,0.06c0.11,0.02,0.22,0,0.28-0.11
					C153.34,77.12,153.35,77.04,153.39,77.04"/>
				
					<rect id="rect5561_00000183956833300173089540000013486358963637176472_" x="152.89" y="75.96" class="st4" width="1.75" height="0.09"/>
				<path id="path8133_00000178906451078859553710000009520294607455824057_" class="st5" d="M153.13,85.27h0.3v0.61h0.12v0.11
					h-0.12v0.55h-0.16v-0.55h-0.1v-0.11h0.1v-0.52h-0.14V85.27z"/>
				<path id="path9106_00000005227266063164005570000011163271325336071592_" class="st5" d="M153.43,85.51
					c0.08-0.02,0.17-0.04,0.29,0c0.73,0.46-0.91,1.53-0.93,0.14c0.1-0.19,0.3-0.14,0.33,0.05c-0.01,0.05-0.07,0.09-0.11,0.07
					c-0.03-0.02-0.05-0.07-0.06-0.09c-0.01-0.02-0.07-0.06-0.07,0.05c0,0.46,0.51,0.67,0.79,0.2c0.12-0.21-0.09-0.38-0.25-0.31
					C153.34,85.66,153.35,85.52,153.43,85.51z"/>
				<path id="path18940_00000080168886576681426010000007324673166517183617_" class="st5" d="M151.94,86.16
					c-0.04-0.12,0.06-0.24,0.08-0.36c0.03-0.17-0.09-0.25-0.16-0.25c-0.07,0-0.18,0.09-0.16,0.25c0.02,0.12,0.08,0.24,0.05,0.36
					H151.94z"/>
				<path id="path18952_00000109732697874178910910000007002447518378508688_" class="st5" d="M152.49,86.16
					c-0.04-0.12,0.06-0.24,0.08-0.36c0.03-0.17-0.09-0.25-0.16-0.25s-0.18,0.09-0.16,0.25c0.02,0.12,0.08,0.24,0.05,0.36H152.49z"/>
				<path id="path18956_00000145739731997705670080000005787813463348711604_" class="st5" d="M152.41,85.99l-0.04,0.05
					c-0.08,0.1-0.16,0.14-0.24,0.14c-0.08,0-0.16-0.04-0.25-0.15L151.84,86l-0.03,0.05c-0.05,0.08-0.12,0.12-0.2,0.16
					c-0.02,0.01-0.03,0.02-0.03,0.04c0,0.02,0.01,0.03,0.02,0.04c0.02,0.01,0.04,0.01,0.05,0c0.07-0.03,0.14-0.08,0.2-0.15
					c0.09,0.09,0.18,0.14,0.28,0.14c0.1,0,0.19-0.06,0.27-0.14c0.05,0.06,0.11,0.11,0.18,0.16c0.02,0.01,0.05,0.01,0.06-0.01
					s0.01-0.05-0.01-0.06c-0.08-0.05-0.15-0.1-0.19-0.17L152.41,85.99z"/>
				<path id="path848_00000100371695461643239560000001766135665807067048_" class="st4" d="M154.5,85.07c0.06,0,0.13,0,0.19,0
					c0,0.08,0,0.16,0,0.23c0,0.06,0,0.12,0,0.18c0.08,0,0.15,0,0.23-0.01l0.11,0c0.03,0,0.03,0.06,0.02,0.11c-0.12,0-0.24,0-0.36,0
					c0,0.27,0,0.55-0.01,0.82c0,0.1-0.13,0.14-0.19,0.14c-0.05,0-0.11-0.09-0.13-0.14c-0.01-0.02,0.02-0.08,0.04-0.08
					c0.02,0,0.08,0.04,0.1,0.05c0.01-0.26,0-0.52,0-0.78l-0.2-0.01l0.05,0.23l-0.33-0.33c0.16-0.02,0.32-0.01,0.48-0.01
					C154.5,85.34,154.5,85.2,154.5,85.07z"/>
				<path id="path5587_00000087377783459209975010000016242106259775905973_" class="st4" d="M151.85,85.17
					c-0.21,0.03-0.43-0.03-0.4-0.15C151.48,84.93,151.66,84.92,151.85,85.17z"/>
				<path id="path5590_00000179629481033220053690000017971077841283481222_" class="st4" d="M153.06,85.18
					c-0.21,0.03-0.43-0.03-0.4-0.15C152.69,84.93,152.87,84.93,153.06,85.18z"/>
				<path id="path5633_00000047761293625425160360000007870310982670495641_" class="st5" d="M142.52,85.43h0.12v0.94h-0.06v0.08
					h0.35v-0.08h-0.09v-0.94h0.09v-0.1h-0.4h-0.4v0.1h0.09v0.94h-0.09v0.08h0.35v-0.08h-0.06v-0.94H142.52z"/>
				<path id="path24954_00000020390662888969403240000017472904548196464514_" class="st5" d="M143.47,86.35
					c0.17,0.27,0.64-0.07,0.35-0.61c-0.04-0.07-0.16-0.01-0.09,0.1c0.17,0.26-0.02,0.68-0.19,0.47c-0.01-0.02-0.03-0.06-0.02-0.08
					c0.07-0.19,0.11-0.37-0.05-0.52c-0.16,0.15-0.13,0.33-0.05,0.52c0.01,0.03-0.01,0.07-0.02,0.08c-0.17,0.21-0.36-0.2-0.19-0.47
					c0.07-0.1-0.05-0.16-0.09-0.1C142.83,86.28,143.3,86.62,143.47,86.35z"/>
				<path id="path24961_00000040560529773429237210000008827443062486773657_" class="st5" d="M143.88,86.07
					c0.13,0.45-0.15,0.91-0.53,0.63c-0.06-0.07-0.17-0.04-0.18,0.05c0.06-0.01,0.1,0.01,0.12,0.05c0.01,0.24-0.28,0.19-0.21-0.07
					c0.05-0.19,0.23-0.3,0.42-0.21c0.11,0.05,0.19,0.1,0.28-0.01c0.04-0.05,0.08-0.13,0.03-0.28L143.88,86.07z"/>
				<path id="path5606_00000029746759504738310060000008838525734968412326_" class="st4" d="M142.65,85.18
					c-0.21,0.03-0.43-0.03-0.4-0.15C142.28,84.93,142.46,84.92,142.65,85.18z"/>
				<path id="path5642_00000147210854257074553330000013380095772716287146_" class="st5" d="M144.04,85.76
					c0-0.12,0.19-0.08,0.19,0.08h-0.06v0.21h0.24v-0.29c0-0.11,0.2-0.08,0.2,0.08h-0.06v0.61h-0.14v-0.31h-0.18h-0.06v0.24
					c0,0.07-0.2,0.09-0.2-0.08h0.07V85.76z"/>
				<path id="path24940_00000133527358589015555970000013358262063267306430_" class="st5" d="M144.99,85.63
					c-0.04,0-0.1,0.01-0.15,0.09c-0.05-0.04-0.1-0.08-0.16-0.04l0.07,0.14l0,0.84h-0.09c0,0.12,0.2,0.24,0.2,0.05v-0.46
					c0.14,0.14,0.22,0.05,0.29-0.09c0.04-0.16,0.04-0.32-0.05-0.47C145.07,85.66,145.03,85.63,144.99,85.63z M144.96,85.76
					c0.06,0,0.09,0.07,0.09,0.22c0,0.15-0.03,0.24-0.09,0.24c-0.06,0-0.08-0.09-0.08-0.24S144.9,85.76,144.96,85.76z"/>
				<path id="path24891_00000052785532606443063750000007043365977705669821_" class="st5" d="M145.34,85.73
					c0-0.13,0.18-0.09,0.18,0.08h-0.06v0.58c0,0.08-0.19,0.1-0.19-0.09h0.07V85.73z"/>
				<path id="path7696_00000033333690873870986100000018328210304245575819_" class="st5" d="M142.52,85.43h0.12v0.94h-0.06v0.08
					h0.35v-0.08h-0.09v-0.94h0.09v-0.1h-0.4h-0.4v0.1h0.09v0.94h-0.09v0.08h0.35v-0.08h-0.06v-0.94H142.52z"/>
				<path id="path7700_00000068640923897937020240000006153033947712284051_" class="st5" d="M143.47,86.35
					c0.17,0.27,0.64-0.07,0.35-0.61c-0.04-0.07-0.16-0.01-0.09,0.1c0.17,0.26-0.02,0.68-0.19,0.47c-0.01-0.02-0.03-0.06-0.02-0.08
					c0.07-0.19,0.11-0.37-0.05-0.52c-0.16,0.15-0.13,0.33-0.05,0.52c0.01,0.03-0.01,0.07-0.02,0.08c-0.17,0.21-0.36-0.2-0.19-0.47
					c0.07-0.1-0.05-0.16-0.09-0.1C142.83,86.28,143.3,86.62,143.47,86.35z"/>
				<path id="path7702_00000055703544474034887410000010663122374790300330_" class="st5" d="M143.88,86.07
					c0.13,0.45-0.15,0.91-0.53,0.63c-0.06-0.07-0.17-0.04-0.18,0.05c0.06-0.01,0.1,0.01,0.12,0.05c0.01,0.24-0.28,0.19-0.21-0.07
					c0.05-0.19,0.23-0.3,0.42-0.21c0.11,0.05,0.19,0.1,0.28-0.01c0.04-0.05,0.08-0.13,0.03-0.28L143.88,86.07z"/>
				<path id="path7704_00000127042647699975288620000007615395790293079471_" class="st4" d="M142.65,85.18
					c-0.21,0.03-0.43-0.03-0.4-0.15C142.28,84.93,142.46,84.92,142.65,85.18z"/>
				<path id="path7706_00000091703671660641716770000003769868460495739015_" class="st5" d="M144.04,85.76
					c0-0.12,0.19-0.08,0.19,0.08h-0.06v0.21h0.24v-0.29c0-0.11,0.2-0.08,0.2,0.08h-0.06v0.61h-0.14v-0.31h-0.18h-0.06v0.24
					c0,0.07-0.2,0.09-0.2-0.08h0.07V85.76z"/>
				<path id="path7708_00000070079244997160416150000012659266940619664542_" class="st5" d="M144.99,85.63
					c-0.04,0-0.1,0.01-0.15,0.09c-0.05-0.04-0.1-0.08-0.16-0.04l0.07,0.14l0,0.84h-0.09c0,0.12,0.2,0.24,0.2,0.05v-0.46
					c0.14,0.14,0.22,0.05,0.29-0.09c0.04-0.16,0.04-0.32-0.05-0.47C145.07,85.66,145.03,85.63,144.99,85.63z M144.96,85.76
					c0.06,0,0.09,0.07,0.09,0.22c0,0.15-0.03,0.24-0.09,0.24c-0.06,0-0.08-0.09-0.08-0.24S144.9,85.76,144.96,85.76z"/>
				<path id="path7710_00000021808831965376067790000004300921938364871065_" class="st5" d="M145.34,85.73
					c0-0.13,0.18-0.09,0.18,0.08h-0.06v0.58c0,0.08-0.19,0.1-0.19-0.09h0.07V85.73z"/>
				<path id="path7716_00000121272577389815843590000017910914339709875351_" class="st5" d="M153.13,85.27h0.3v0.61h0.12v0.11
					h-0.12v0.55h-0.16v-0.55h-0.1v-0.11h0.1v-0.52h-0.14V85.27z"/>
				<path id="path7718_00000086693443354562142270000001217002824506215870_" class="st5" d="M153.43,85.51
					c0.08-0.02,0.17-0.04,0.29,0c0.73,0.46-0.91,1.53-0.93,0.14c0.1-0.19,0.3-0.14,0.33,0.05c-0.01,0.05-0.07,0.09-0.11,0.07
					c-0.03-0.02-0.05-0.07-0.06-0.09c-0.01-0.02-0.07-0.06-0.07,0.05c0,0.46,0.51,0.67,0.79,0.2c0.12-0.21-0.09-0.38-0.25-0.31
					C153.34,85.66,153.35,85.52,153.43,85.51z"/>
				<path id="path7722_00000001622684065237507240000015382633930602868147_" class="st5" d="M151.94,86.16
					c-0.04-0.12,0.06-0.24,0.08-0.36c0.03-0.17-0.09-0.25-0.16-0.25c-0.07,0-0.18,0.09-0.16,0.25c0.02,0.12,0.08,0.24,0.05,0.36
					H151.94z"/>
				<path id="path7724_00000018929159367200071920000017770102104260629376_" class="st5" d="M152.49,86.16
					c-0.04-0.12,0.06-0.24,0.08-0.36c0.03-0.17-0.09-0.25-0.16-0.25s-0.18,0.09-0.16,0.25c0.02,0.12,0.08,0.24,0.05,0.36H152.49z"/>
				<path id="path7726_00000040575320734330380370000006765795428654263473_" class="st5" d="M152.41,85.99l-0.04,0.05
					c-0.08,0.1-0.16,0.14-0.24,0.14c-0.08,0-0.16-0.04-0.25-0.15L151.84,86l-0.03,0.05c-0.05,0.08-0.12,0.12-0.2,0.16
					c-0.02,0.01-0.03,0.02-0.03,0.04c0,0.02,0.01,0.03,0.02,0.04c0.02,0.01,0.04,0.01,0.05,0c0.07-0.03,0.14-0.08,0.2-0.15
					c0.09,0.09,0.18,0.14,0.28,0.14c0.1,0,0.19-0.06,0.27-0.14c0.05,0.06,0.11,0.11,0.18,0.16c0.02,0.01,0.05,0.01,0.06-0.01
					s0.01-0.05-0.01-0.06c-0.08-0.05-0.15-0.1-0.19-0.17L152.41,85.99z"/>
				<path id="path7728_00000098918765749822141530000001964770121426233492_" class="st4" d="M154.5,85.07c0.06,0,0.13,0,0.19,0
					c0,0.08,0,0.16,0,0.23c0,0.06,0,0.12,0,0.18c0.08,0,0.15,0,0.23-0.01l0.11,0c0.03,0,0.03,0.06,0.02,0.11c-0.12,0-0.24,0-0.36,0
					c0,0.27,0,0.55-0.01,0.82c0,0.1-0.13,0.14-0.19,0.14c-0.05,0-0.11-0.09-0.13-0.14c-0.01-0.02,0.02-0.08,0.04-0.08
					c0.02,0,0.08,0.04,0.1,0.05c0.01-0.26,0-0.52,0-0.78l-0.2-0.01l0.05,0.23l-0.33-0.33c0.16-0.02,0.32-0.01,0.48-0.01
					C154.5,85.34,154.5,85.2,154.5,85.07z"/>
				<path id="path7730_00000095309205596526833770000009501804528471268230_" class="st4" d="M151.85,85.17
					c-0.21,0.03-0.43-0.03-0.4-0.15C151.48,84.93,151.66,84.92,151.85,85.17z"/>
				<path id="path7732_00000003089059050014778940000000740447399081556873_" class="st4" d="M153.06,85.18
					c-0.21,0.03-0.43-0.03-0.4-0.15C152.69,84.93,152.87,84.93,153.06,85.18z"/>
			</g>
		</g>
	</g>
	<g id="Croce_Diocesi" transform="translate(-1.1096578,-1.1079318)">
		<g id="Gruppo">
			<path class="st1" d="M39.96,79.92l0-1.76l-1.51,1.28l-3.18,0l0-3.18l1.28-1.51l-1.76,0c-0.33-0.42-0.79-1.35-1.19-2.03
				c-0.4,0.68-0.86,1.61-1.19,2.03l-1.76,0l1.28,1.51l0,3.18l-3.18,0l-1.51-1.28l0,1.76c-0.42,0.33-1.35,0.79-2.03,1.19
				c0.68,0.4,1.61,0.86,2.03,1.19l0,1.76l1.51-1.28l3.18,0l0,3.18l-1.28,1.51l1.76,0c0.33,0.42,0.79,1.35,1.19,2.03
				c0.4-0.68,0.86-1.61,1.19-2.03l1.76,0l-1.28-1.51l0-3.18l3.18,0l1.51,1.28l0-1.76c0.42-0.33,1.35-0.79,2.03-1.19
				C41.31,80.71,40.38,80.25,39.96,79.92z"/>
			<g>
				<path id="path5243_00000051346232912869295460000005997668942468790412_" class="st2" d="M35.54,81.1
					c0,1.04-0.86,1.89-1.93,1.89c-1.07,0-1.93-0.84-1.93-1.89c0-1.04,0.86-1.89,1.93-1.89C34.68,79.22,35.54,80.06,35.54,81.1z"/>
				<path id="path2167_00000113311313166239083570000006059479143120320160_" class="st3" d="M33.47,81.23c0,0,0.29,0,0.29,0
					c0.5,0.05,0.75,0.27,1.05,0.63c0.14-0.16,0.16-0.35,0.14-0.52c0.18-0.03,0.35-0.09,0.51-0.24c-0.17-0.15-0.34-0.21-0.52-0.24
					c0.03-0.17,0.01-0.36-0.14-0.52c-0.3,0.36-0.56,0.58-1.05,0.63c0,0.01-0.27,0-0.27,0c-0.5-0.05-0.75-0.27-1.05-0.63
					c-0.14,0.16-0.16,0.35-0.14,0.52c-0.18,0.03-0.35,0.09-0.52,0.24c0.16,0.15,0.33,0.21,0.51,0.24c-0.03,0.17-0.01,0.36,0.14,0.52
					C32.72,81.5,32.97,81.28,33.47,81.23z M33.48,80.96c0,0,0,0.29,0,0.29c-0.05,0.5-0.27,0.75-0.63,1.05
					c0.16,0.14,0.35,0.16,0.52,0.14c0.03,0.18,0.09,0.35,0.24,0.51c0.15-0.17,0.21-0.34,0.24-0.52c0.17,0.03,0.36,0.01,0.52-0.14
					c-0.36-0.3-0.58-0.56-0.63-1.05c-0.01,0,0-0.27,0-0.27c0.05-0.5,0.27-0.75,0.63-1.05c-0.16-0.14-0.35-0.16-0.52-0.14
					c-0.03-0.18-0.09-0.35-0.24-0.52c-0.15,0.16-0.21,0.33-0.24,0.51c-0.17-0.03-0.36-0.01-0.52,0.14
					C33.21,80.21,33.43,80.46,33.48,80.96z"/>
			</g>
			<g>
				<path class="st4" d="M42.77,81.11c-0.8-0.47-2.35-1.31-2.39-1.39l0-2.44l-2.04,1.71l-2.61,0l0-2.61l1.72-2.05l-2.44,0
					c-0.09-0.04-0.93-1.59-1.4-2.39c-0.47,0.8-1.31,2.35-1.39,2.39l-2.44,0l1.71,2.04l0,2.62l-2.61,0l-2.05-1.72l0,2.44
					c-0.04,0.09-1.59,0.93-2.39,1.4c0.8,0.47,2.35,1.31,2.39,1.39l0,2.44l2.04-1.71l2.61,0l0,2.61l-1.72,2.05l2.44,0
					c0.09,0.04,0.93,1.59,1.4,2.39c0.47-0.8,1.31-2.35,1.39-2.39l2.44,0l-1.71-2.04l0-2.62l2.61,0l2.05,1.72l0-2.44
					C40.42,82.42,41.97,81.57,42.77,81.11z M39.96,82.29l0,1.76l-1.51-1.28l-3.18,0l0,3.18l1.28,1.51l-1.76,0
					c-0.33,0.42-0.79,1.35-1.19,2.03c-0.4-0.68-0.86-1.61-1.19-2.03l-1.76,0l1.28-1.51l0-3.18l-3.18,0l-1.51,1.28l0-1.76
					c-0.42-0.33-1.35-0.79-2.03-1.19c0.68-0.4,1.61-0.86,2.03-1.19l0-1.76l1.51,1.28l3.18,0l0-3.18l-1.28-1.51l1.76,0
					c0.33-0.42,0.79-1.35,1.19-2.03c0.4,0.68,0.86,1.61,1.19,2.03l1.76,0l-1.28,1.51l0,3.18l3.18,0l1.51-1.28l0,1.76
					c0.42,0.33,1.35,0.79,2.03,1.19C41.31,81.5,40.38,81.97,39.96,82.29z"/>
				<path id="path4214_00000124841969825724313440000011827507411928309153_" class="st4" d="M36.94,81.11
					c-0.03-0.07-0.08-0.16-0.17-0.15c-0.07,0.01-0.06,0.04-0.09,0.06c-0.02,0.02-0.03,0.07-0.12,0.07c-0.07,0-0.11-0.05-0.13-0.07
					c-0.02-0.02-0.03-0.07-0.17-0.08c-0.14-0.01-0.37,0.17-0.37,0.18s0.23,0.18,0.37,0.18c0.13-0.01,0.15-0.06,0.17-0.08
					c0.03-0.02,0.07-0.07,0.13-0.07c0.08,0,0.1,0.05,0.12,0.07c0.02,0.02,0.02,0.06,0.09,0.06C36.86,81.27,36.91,81.18,36.94,81.11z
					"/>
				<path id="path4136_00000083795449678230371600000008609943445218646146_" class="st4" d="M30.32,81.11
					c0.03-0.07,0.08-0.16,0.17-0.15c0.07,0.01,0.06,0.04,0.09,0.06c0.02,0.02,0.03,0.07,0.12,0.07c0.07,0,0.11-0.05,0.13-0.07
					c0.02-0.02,0.03-0.07,0.17-0.08c0.14-0.01,0.37,0.17,0.37,0.18s-0.23,0.18-0.37,0.18c-0.13-0.01-0.15-0.06-0.17-0.08
					c-0.03-0.02-0.07-0.07-0.13-0.07c-0.08,0-0.1,0.05-0.12,0.07c-0.02,0.02-0.02,0.06-0.09,0.06
					C30.39,81.27,30.35,81.18,30.32,81.11z"/>
				<path id="path4270_00000003826205051312967980000003533762151927772341_" class="st4" d="M33.62,84.41
					c0.07-0.03,0.16-0.08,0.15-0.17c-0.01-0.07-0.04-0.06-0.06-0.09c-0.02-0.02-0.07-0.03-0.07-0.12c0-0.07,0.05-0.11,0.07-0.13
					c0.02-0.02,0.07-0.03,0.08-0.17c0.01-0.14-0.17-0.37-0.18-0.37s-0.18,0.23-0.18,0.37c0.01,0.13,0.06,0.15,0.08,0.17
					c0.02,0.03,0.07,0.07,0.07,0.13c0,0.08-0.05,0.1-0.07,0.12c-0.02,0.02-0.06,0.02-0.06,0.09C33.47,84.34,33.55,84.38,33.62,84.41
					z"/>
				<path id="path4260_00000096781292268850484700000001926938168883803805_" class="st4" d="M33.62,77.79
					c0.07,0.03,0.16,0.08,0.15,0.17c-0.01,0.07-0.04,0.06-0.06,0.09c-0.02,0.02-0.07,0.03-0.07,0.12c0,0.07,0.05,0.11,0.07,0.13
					c0.02,0.02,0.07,0.03,0.08,0.17c0.01,0.14-0.17,0.37-0.18,0.37s-0.18-0.23-0.18-0.37c0.01-0.13,0.06-0.15,0.08-0.17
					c0.02-0.03,0.07-0.07,0.07-0.13c0-0.08-0.05-0.1-0.07-0.12c-0.02-0.02-0.06-0.02-0.06-0.09C33.47,77.87,33.55,77.83,33.62,77.79
					z"/>
				<path id="path4216_00000045595628234914463580000005785050024468033970_" class="st4" d="M41.62,81.1
					c-0.07,0.12-0.2,0.21-0.35,0.24c-0.09,0.02-0.14-0.07-0.18-0.15c0,0-0.08,0.25-0.36,0.25c-0.27,0-0.53-0.34-0.53-0.34
					c0,0,0.26-0.34,0.53-0.34c0.27,0,0.36,0.25,0.36,0.25c0.04-0.08,0.08-0.17,0.18-0.15C41.42,80.89,41.55,80.98,41.62,81.1z
					 M40.9,81.11c-0.15-0.17-0.28-0.07-0.39,0C40.62,81.18,40.75,81.28,40.9,81.11z"/>
				<path id="path4145_00000133491700226319765620000008249576346911178129_" class="st4" d="M25.64,81.1
					c0.07,0.12,0.2,0.21,0.35,0.24c0.09,0.02,0.14-0.07,0.18-0.15c0,0,0.08,0.25,0.36,0.25c0.27,0,0.53-0.34,0.53-0.34
					c0,0-0.26-0.34-0.53-0.34c-0.27,0-0.36,0.25-0.36,0.25c-0.04-0.08-0.08-0.17-0.18-0.15C25.83,80.89,25.71,80.98,25.64,81.1z
					 M26.35,81.11c0.15-0.17,0.28-0.07,0.39,0C26.63,81.18,26.5,81.28,26.35,81.11z"/>
				<path id="path4272_00000152976497674395658440000015902835043650335166_" class="st4" d="M33.63,89.09
					c-0.12-0.07-0.21-0.2-0.24-0.35c-0.02-0.09,0.07-0.14,0.15-0.18c0,0-0.25-0.08-0.25-0.36c0-0.27,0.34-0.53,0.34-0.53
					c0,0,0.34,0.26,0.34,0.53c0,0.27-0.25,0.36-0.25,0.36c0.08,0.04,0.17,0.08,0.15,0.18C33.84,88.9,33.75,89.02,33.63,89.09z
					 M33.62,88.38c0.17-0.15,0.07-0.28,0-0.39C33.55,88.1,33.45,88.23,33.62,88.38z"/>
				<path id="path4262_00000118372482038433654210000001200152236950545031_" class="st4" d="M33.63,73.11
					c-0.12,0.07-0.21,0.2-0.24,0.35c-0.02,0.09,0.07,0.14,0.15,0.18c0,0-0.25,0.08-0.25,0.36c0,0.27,0.34,0.53,0.34,0.53
					c0,0,0.34-0.26,0.34-0.53c0-0.27-0.25-0.36-0.25-0.36c0.08-0.04,0.17-0.08,0.15-0.18C33.84,73.31,33.75,73.19,33.63,73.11z
					 M33.62,73.83c0.17,0.15,0.07,0.28,0,0.39C33.55,74.11,33.45,73.98,33.62,73.83z"/>
				<path id="path4266_00000038375508681581047290000000688612142087414955_" class="st4" d="M34.44,84.55
					c0.12,0.18,0,0.38-0.08,0.47c-0.08,0.08-0.28,0.18-0.28,0.18s0.12-0.16,0.1-0.28c-0.03-0.17-0.16-0.18-0.18-0.18
					c-0.01,0-0.17,0.02-0.16,0.16c0.02,0.28,0.14,0.43,0.3,0.6c0.2,0.21,0.48,0.32,0.59,0.41c0.07,0.06,0.15,0.07,0.17,0.09
					c0.18,0.15,0.26,0.26,0.35,0.47c0.09,0.21-0.01,0.37-0.01,0.37s0.21-0.08,0.41-0.08c0.19,0.01,0.3,0.2,0.32,0.34
					c0.01,0.1-0.13,0.23-0.27,0.23c-0.13,0-0.26-0.23-0.26-0.23h0.2c0,0,0.03,0.04,0.07,0.03c0.04-0.01,0.09-0.03,0.08-0.1
					c-0.01-0.04-0.04-0.15-0.17-0.13c-0.15,0.02-0.29,0.05-0.43,0.18c-0.19,0.18-0.33,0.18-0.59,0.19c-0.09,0-0.32-0.02-0.44-0.09
					c-0.02-0.01-0.16-0.1-0.2-0.13c-0.14-0.11-0.32-0.41-0.32-0.43v-1.02c0,0,0.18,0.2,0.18,0.4c0,0.19-0.11,0.37-0.11,0.37
					s0.01,0.16,0.13,0.32c0.12,0.16,0.15,0.22,0.35,0.32c0.2,0.1,0.29,0.15,0.44,0.08c0.31-0.15,0.19-0.56,0.19-0.56l0.27,0.1
					c0,0,0.03-0.29-0.34-0.52c-0.22-0.13-0.41-0.15-0.7-0.42c-0.31-0.3-0.42-0.45-0.42-0.81c0-0.34,0.11-0.54,0.48-0.66
					c0.46-0.15,0.34-0.63,0.33-0.64c-0.34-0.12-0.62-0.35-0.85-0.59c-0.02-0.02-0.02-0.06,0-0.08c0.02-0.02,0.06-0.02,0.08,0
					c0.23,0.25,0.53,0.51,0.86,0.59c0.08,0.02,0.16,0.04,0.23,0.05c0.07,0,0.11,0,0.14-0.05c0.04-0.05,0.04-0.08,0.02-0.12
					c0-0.01-0.02-0.03-0.02-0.04c-0.01-0.01-0.02-0.03-0.03-0.03c-0.02-0.01-0.04-0.02-0.07-0.04c-0.01,0.01-0.01,0.01-0.02,0.03
					c-0.01,0.02-0.02,0.03-0.03,0.05c-0.01,0.01-0.02,0.03-0.06,0.04c-0.04,0.01-0.06,0-0.08,0c-0.02-0.01-0.04-0.02-0.06-0.03
					c-0.02-0.01-0.03-0.02-0.05-0.04s-0.04-0.05-0.03-0.08c0-0.04,0.03-0.09,0.06-0.12c0.03-0.03,0.08-0.06,0.14-0.07
					c0.05,0,0.1,0,0.15,0.02s0.09,0.07,0.13,0.13c0.02,0.04,0.06,0.09,0.09,0.15c0.01,0.03,0.01,0.07,0.01,0.11
					c-0.01,0.04-0.02,0.08-0.05,0.12c-0.06,0.08-0.16,0.1-0.25,0.1c-0.02,0-0.04,0-0.07-0.01c-0.01,0,0.09,0.16,0.09,0.35
					c0,0.2-0.2,0.39-0.21,0.4c0.27,0.25,0.47,0.51,0.49,0.96c0.03,0.54-0.49,1.07-0.5,1.06c-0.2,0.25-0.43,0.43-0.52,0.91
					c-0.02,0.11,0.08,0.22,0.19,0.22c0.1,0.01,0.23-0.13,0.23-0.13c0.03-0.01,0.01,0.34-0.23,0.34c-0.15,0-0.39-0.12-0.36-0.38
					c0.05-0.38,0.2-0.7,0.45-0.96c0.01,0,0.54-0.57,0.55-0.91c0-0.07-0.1-0.33-0.18-0.38c-0.06-0.04-0.14-0.03-0.19-0.17l0.24,0
					c-0.02,0.05,0.01,0.05,0.07,0.03C34.73,84.85,34.62,84.66,34.44,84.55z"/>
				<path id="path4268_00000025423830869254133130000003519977972219951024_" class="st4" d="M32.81,84.55
					c-0.12,0.18,0,0.38,0.08,0.47c0.08,0.08,0.28,0.18,0.28,0.18s-0.12-0.16-0.1-0.28c0.03-0.17,0.16-0.18,0.18-0.18
					s0.17,0.02,0.16,0.16c-0.02,0.28-0.14,0.43-0.3,0.6c-0.2,0.21-0.48,0.32-0.59,0.41c-0.07,0.06-0.15,0.07-0.17,0.09
					c-0.18,0.15-0.26,0.26-0.35,0.47c-0.09,0.21,0.01,0.37,0.01,0.37s-0.21-0.08-0.41-0.08c-0.19,0.01-0.3,0.2-0.32,0.34
					c-0.01,0.1,0.13,0.23,0.27,0.23c0.13,0,0.26-0.23,0.26-0.23h-0.2c0,0-0.03,0.04-0.07,0.03c-0.04-0.01-0.09-0.03-0.08-0.1
					c0.01-0.04,0.04-0.15,0.17-0.13c0.15,0.02,0.29,0.05,0.43,0.18c0.19,0.18,0.33,0.18,0.59,0.19c0.09,0,0.32-0.02,0.44-0.09
					c0.02-0.01,0.16-0.1,0.2-0.13c0.14-0.11,0.32-0.41,0.32-0.43v-1.02c0,0-0.18,0.2-0.18,0.4c0,0.19,0.11,0.37,0.11,0.37
					s-0.01,0.16-0.13,0.32c-0.12,0.16-0.15,0.22-0.35,0.32c-0.2,0.1-0.29,0.15-0.44,0.08c-0.31-0.15-0.19-0.56-0.19-0.56l-0.27,0.1
					c0,0-0.03-0.29,0.34-0.52c0.22-0.13,0.41-0.15,0.7-0.42c0.31-0.3,0.42-0.45,0.42-0.81c0-0.34-0.11-0.54-0.48-0.66
					c-0.46-0.15-0.34-0.63-0.33-0.64c0.34-0.12,0.62-0.35,0.85-0.59c0.02-0.02,0.02-0.06,0-0.08s-0.06-0.02-0.08,0
					c-0.23,0.25-0.53,0.51-0.86,0.59c-0.08,0.02-0.16,0.04-0.23,0.05s-0.11,0-0.14-0.05c-0.04-0.05-0.04-0.08-0.02-0.12
					c0-0.01,0.02-0.03,0.02-0.04c0.01-0.01,0.02-0.03,0.03-0.03c0.02-0.01,0.04-0.02,0.07-0.04c0.01,0.01,0.01,0.01,0.02,0.03
					c0.01,0.02,0.02,0.03,0.03,0.05c0.01,0.01,0.02,0.03,0.06,0.04c0.04,0.01,0.06,0,0.08,0c0.02-0.01,0.04-0.02,0.06-0.03
					c0.02-0.01,0.03-0.02,0.05-0.04c0.02-0.02,0.04-0.05,0.03-0.08c0-0.04-0.03-0.09-0.06-0.12c-0.03-0.03-0.08-0.06-0.14-0.07
					c-0.05,0-0.1,0-0.15,0.02s-0.09,0.07-0.13,0.13c-0.02,0.04-0.06,0.09-0.09,0.15c-0.01,0.03-0.01,0.07-0.01,0.11
					c0.01,0.04,0.02,0.08,0.05,0.12c0.06,0.08,0.16,0.1,0.25,0.1c0.02,0,0.04,0,0.07-0.01c0.01,0-0.09,0.16-0.09,0.35
					c0,0.2,0.2,0.39,0.21,0.4c-0.27,0.25-0.47,0.51-0.49,0.96c-0.03,0.54,0.49,1.07,0.5,1.06c0.2,0.25,0.43,0.43,0.52,0.91
					c0.02,0.11-0.08,0.22-0.19,0.22c-0.1,0.01-0.23-0.13-0.23-0.13c-0.03-0.01-0.01,0.34,0.23,0.34c0.15,0,0.39-0.12,0.36-0.38
					c-0.05-0.38-0.2-0.7-0.45-0.96c-0.01,0-0.54-0.57-0.55-0.91c0-0.07,0.1-0.33,0.18-0.38c0.06-0.04,0.14-0.03,0.19-0.17l-0.24,0
					c0.02,0.05-0.01,0.05-0.07,0.03C32.53,84.85,32.63,84.66,32.81,84.55z"/>
				<path id="path4212_00000170969908574482362460000004352723583583410592_" class="st4" d="M37.08,81.92
					c0.18,0.12,0.38,0,0.47-0.08c0.08-0.08,0.18-0.28,0.18-0.28s-0.16,0.12-0.28,0.1c-0.17-0.03-0.18-0.16-0.18-0.18
					c0-0.01,0.02-0.17,0.16-0.16c0.28,0.02,0.43,0.14,0.6,0.3c0.21,0.2,0.32,0.48,0.41,0.59c0.06,0.07,0.07,0.15,0.09,0.17
					c0.15,0.18,0.26,0.26,0.47,0.35c0.21,0.09,0.37-0.01,0.37-0.01s-0.08,0.21-0.08,0.41c0.01,0.19,0.2,0.3,0.34,0.32
					c0.1,0.01,0.23-0.13,0.23-0.27c0-0.13-0.23-0.26-0.23-0.26v0.2c0,0,0.04,0.03,0.03,0.07c-0.01,0.04-0.03,0.09-0.1,0.08
					c-0.04-0.01-0.15-0.04-0.13-0.17c0.02-0.15,0.05-0.29,0.18-0.43c0.18-0.19,0.18-0.33,0.19-0.59c0-0.09-0.02-0.32-0.09-0.44
					c-0.01-0.02-0.1-0.16-0.13-0.2c-0.11-0.14-0.41-0.32-0.43-0.32h-1.02c0,0,0.2,0.18,0.4,0.18c0.19,0,0.37-0.11,0.37-0.11
					s0.16,0.01,0.32,0.13c0.16,0.12,0.22,0.15,0.32,0.35c0.1,0.2,0.15,0.29,0.08,0.44c-0.15,0.31-0.56,0.19-0.56,0.19l0.1,0.27
					c0,0-0.29,0.03-0.52-0.34c-0.13-0.22-0.15-0.41-0.42-0.7c-0.3-0.31-0.45-0.42-0.81-0.42c-0.34,0-0.54,0.11-0.66,0.48
					c-0.15,0.46-0.63,0.34-0.64,0.33c-0.12-0.34-0.35-0.62-0.59-0.85c-0.02-0.02-0.06-0.02-0.08,0c-0.02,0.02-0.02,0.06,0,0.08
					c0.25,0.23,0.51,0.53,0.59,0.86c0.02,0.08,0.04,0.16,0.05,0.23s0,0.11-0.05,0.14c-0.05,0.04-0.08,0.04-0.12,0.02
					c-0.01,0-0.03-0.02-0.04-0.02c-0.01-0.01-0.03-0.02-0.03-0.03c-0.01-0.02-0.02-0.04-0.04-0.07c0.01-0.01,0.01-0.01,0.03-0.02
					c0.02-0.01,0.03-0.02,0.05-0.03c0.01-0.01,0.03-0.02,0.04-0.06c0.01-0.04,0-0.06,0-0.08c-0.01-0.02-0.02-0.04-0.03-0.06
					c-0.01-0.02-0.02-0.03-0.04-0.05s-0.05-0.04-0.08-0.03c-0.04,0-0.09,0.03-0.12,0.06c-0.03,0.03-0.06,0.08-0.07,0.14
					c0,0.05,0,0.1,0.02,0.15s0.07,0.09,0.13,0.13c0.04,0.02,0.09,0.06,0.15,0.09c0.03,0.01,0.07,0.01,0.11,0.01
					c0.04-0.01,0.08-0.02,0.12-0.05c0.08-0.06,0.1-0.16,0.1-0.25c0-0.02,0-0.04-0.01-0.07c0-0.01,0.16,0.09,0.35,0.09
					c0.2,0,0.39-0.2,0.4-0.21c0.25,0.27,0.51,0.47,0.96,0.49c0.54,0.03,1.07-0.49,1.06-0.5c0.25-0.2,0.43-0.43,0.91-0.52
					c0.11-0.02,0.22,0.08,0.22,0.19c0.01,0.1-0.13,0.23-0.13,0.23c-0.01,0.03,0.34,0.01,0.34-0.23c0-0.15-0.12-0.39-0.38-0.36
					c-0.38,0.05-0.7,0.2-0.96,0.45c0,0.01-0.57,0.54-0.91,0.55c-0.07,0-0.33-0.1-0.38-0.18c-0.04-0.06-0.03-0.14-0.17-0.19l0,0.24
					c0.05-0.02,0.05,0.01,0.03,0.07C37.38,82.2,37.18,82.1,37.08,81.92z"/>
				<path id="path4210_00000031907986966322499970000002577018923212828555_" class="st4" d="M37.08,80.29
					c0.18-0.12,0.38,0,0.47,0.08c0.08,0.08,0.18,0.28,0.18,0.28s-0.16-0.12-0.28-0.1c-0.17,0.03-0.18,0.16-0.18,0.18
					c0,0.01,0.02,0.17,0.16,0.16c0.28-0.02,0.43-0.14,0.6-0.3c0.21-0.2,0.32-0.48,0.41-0.59c0.06-0.07,0.07-0.15,0.09-0.17
					c0.15-0.18,0.26-0.26,0.47-0.35s0.37,0.01,0.37,0.01s-0.08-0.21-0.08-0.41c0.01-0.19,0.2-0.3,0.34-0.32
					c0.1-0.01,0.23,0.13,0.23,0.27c0,0.13-0.23,0.26-0.23,0.26v-0.2c0,0,0.04-0.03,0.03-0.07c-0.01-0.04-0.03-0.09-0.1-0.08
					c-0.04,0.01-0.15,0.04-0.13,0.17c0.02,0.15,0.05,0.29,0.18,0.43c0.18,0.19,0.18,0.33,0.19,0.59c0,0.09-0.02,0.32-0.09,0.44
					c-0.01,0.02-0.1,0.16-0.13,0.2c-0.11,0.14-0.41,0.32-0.43,0.32h-1.02c0,0,0.2-0.18,0.4-0.18c0.19,0,0.37,0.11,0.37,0.11
					s0.16-0.01,0.32-0.13c0.16-0.12,0.22-0.15,0.32-0.35c0.1-0.2,0.15-0.29,0.08-0.44c-0.15-0.31-0.56-0.19-0.56-0.19l0.1-0.27
					c0,0-0.29-0.03-0.52,0.34c-0.13,0.22-0.15,0.41-0.42,0.7c-0.3,0.31-0.45,0.42-0.81,0.42c-0.34,0-0.54-0.11-0.66-0.48
					c-0.15-0.46-0.63-0.34-0.64-0.33c-0.12,0.34-0.35,0.62-0.59,0.85c-0.02,0.02-0.06,0.02-0.08,0c-0.02-0.02-0.02-0.06,0-0.08
					c0.25-0.23,0.51-0.53,0.59-0.86c0.02-0.08,0.04-0.16,0.05-0.23s0-0.11-0.05-0.14c-0.05-0.04-0.08-0.04-0.12-0.02
					c-0.01,0-0.03,0.02-0.04,0.02c-0.01,0.01-0.03,0.02-0.03,0.03c-0.01,0.02-0.02,0.04-0.04,0.07c0.01,0.01,0.01,0.01,0.03,0.02
					s0.03,0.02,0.05,0.03c0.01,0.01,0.03,0.02,0.04,0.06c0.01,0.04,0,0.06,0,0.08c-0.01,0.02-0.02,0.04-0.03,0.06
					c-0.01,0.02-0.02,0.03-0.04,0.05s-0.05,0.04-0.08,0.03c-0.04,0-0.09-0.03-0.12-0.06s-0.06-0.08-0.07-0.14
					c0-0.05,0-0.1,0.02-0.15c0.02-0.05,0.07-0.09,0.13-0.13c0.04-0.02,0.09-0.06,0.15-0.09c0.03-0.01,0.07-0.01,0.11-0.01
					c0.04,0.01,0.08,0.02,0.12,0.05c0.08,0.06,0.1,0.16,0.1,0.25c0,0.02,0,0.04-0.01,0.07c0,0.01,0.16-0.09,0.35-0.09
					c0.2,0,0.39,0.2,0.4,0.21c0.25-0.27,0.51-0.47,0.96-0.49c0.54-0.03,1.07,0.49,1.06,0.5c0.25,0.2,0.43,0.43,0.91,0.52
					c0.11,0.02,0.22-0.08,0.22-0.19c0.01-0.1-0.13-0.23-0.13-0.23c-0.01-0.03,0.34-0.01,0.34,0.23c0,0.15-0.12,0.39-0.38,0.36
					c-0.38-0.05-0.7-0.2-0.96-0.45c0-0.01-0.57-0.54-0.91-0.55c-0.07,0-0.33,0.1-0.38,0.18c-0.04,0.06-0.03,0.14-0.17,0.19l0-0.24
					c0.05,0.02,0.05-0.01,0.03-0.07C37.38,80,37.18,80.11,37.08,80.29z"/>
				<path id="path4134_00000169559405445350675470000006304061160939636368_" class="st4" d="M30.18,81.92
					c-0.18,0.12-0.38,0-0.47-0.08c-0.08-0.08-0.18-0.28-0.18-0.28s0.16,0.12,0.28,0.1c0.17-0.03,0.18-0.16,0.18-0.18
					c0-0.01-0.02-0.17-0.16-0.16c-0.28,0.02-0.43,0.14-0.6,0.3c-0.21,0.2-0.32,0.48-0.41,0.59c-0.06,0.07-0.07,0.15-0.09,0.17
					c-0.15,0.18-0.26,0.26-0.47,0.35c-0.21,0.09-0.37-0.01-0.37-0.01s0.08,0.21,0.08,0.41c-0.01,0.19-0.2,0.3-0.34,0.32
					c-0.1,0.01-0.23-0.13-0.23-0.27c0-0.13,0.23-0.26,0.23-0.26v0.2c0,0-0.04,0.03-0.03,0.07c0.01,0.04,0.03,0.09,0.1,0.08
					c0.04-0.01,0.15-0.04,0.13-0.17c-0.02-0.15-0.05-0.29-0.18-0.43c-0.18-0.19-0.18-0.33-0.19-0.59c0-0.09,0.02-0.32,0.09-0.44
					c0.01-0.02,0.1-0.16,0.13-0.2c0.11-0.14,0.41-0.32,0.43-0.32h1.02c0,0-0.2,0.18-0.4,0.18c-0.19,0-0.37-0.11-0.37-0.11
					s-0.16,0.01-0.32,0.13c-0.16,0.12-0.22,0.15-0.32,0.35c-0.1,0.2-0.15,0.29-0.08,0.44c0.15,0.31,0.56,0.19,0.56,0.19l-0.1,0.27
					c0,0,0.29,0.03,0.52-0.34c0.13-0.22,0.15-0.41,0.42-0.7c0.3-0.31,0.45-0.42,0.81-0.42c0.34,0,0.54,0.11,0.66,0.48
					c0.15,0.46,0.63,0.34,0.64,0.33c0.12-0.34,0.35-0.62,0.59-0.85c0.02-0.02,0.06-0.02,0.08,0c0.02,0.02,0.02,0.06,0,0.08
					c-0.25,0.23-0.51,0.53-0.59,0.86c-0.02,0.08-0.04,0.16-0.05,0.23s0,0.11,0.05,0.14c0.05,0.04,0.08,0.04,0.12,0.02
					c0.01,0,0.03-0.02,0.04-0.02c0.01-0.01,0.03-0.02,0.03-0.03c0.01-0.02,0.02-0.04,0.04-0.07c-0.01-0.01-0.01-0.01-0.03-0.02
					c-0.02-0.01-0.03-0.02-0.05-0.03c-0.01-0.01-0.03-0.02-0.04-0.06c-0.01-0.04,0-0.06,0-0.08c0.01-0.02,0.02-0.04,0.03-0.06
					c0.01-0.02,0.02-0.03,0.04-0.05c0.02-0.02,0.05-0.04,0.08-0.03c0.04,0,0.09,0.03,0.12,0.06c0.03,0.03,0.06,0.08,0.07,0.14
					c0,0.05,0,0.1-0.02,0.15c-0.02,0.05-0.07,0.09-0.13,0.13c-0.04,0.02-0.09,0.06-0.15,0.09c-0.03,0.01-0.07,0.01-0.11,0.01
					s-0.08-0.02-0.12-0.05c-0.08-0.06-0.1-0.16-0.1-0.25c0-0.02,0-0.04,0.01-0.07c0-0.01-0.16,0.09-0.35,0.09
					c-0.2,0-0.39-0.2-0.4-0.21c-0.25,0.27-0.51,0.47-0.96,0.49c-0.54,0.03-1.07-0.49-1.06-0.5c-0.25-0.2-0.43-0.43-0.91-0.52
					c-0.11-0.02-0.22,0.08-0.22,0.19c-0.01,0.1,0.13,0.23,0.13,0.23c0.01,0.03-0.34,0.01-0.34-0.23c0-0.15,0.12-0.39,0.38-0.36
					c0.38,0.05,0.7,0.2,0.96,0.45c0,0.01,0.57,0.54,0.91,0.55c0.07,0,0.33-0.1,0.38-0.18c0.04-0.06,0.03-0.14,0.17-0.19l0,0.24
					c-0.05-0.02-0.05,0.01-0.03,0.07C29.88,82.2,30.07,82.1,30.18,81.92z"/>
				<path id="path4174_00000129928723312393903270000015384880948928124594_" class="st4" d="M30.18,80.29
					c-0.18-0.12-0.38,0-0.47,0.08c-0.08,0.08-0.18,0.28-0.18,0.28s0.16-0.12,0.28-0.1c0.17,0.03,0.18,0.16,0.18,0.18
					c0,0.01-0.02,0.17-0.16,0.16c-0.28-0.02-0.43-0.14-0.6-0.3c-0.21-0.2-0.32-0.48-0.41-0.59c-0.06-0.07-0.07-0.15-0.09-0.17
					c-0.15-0.18-0.26-0.26-0.47-0.35c-0.21-0.09-0.37,0.01-0.37,0.01s0.08-0.21,0.08-0.41c-0.01-0.19-0.2-0.3-0.34-0.32
					c-0.1-0.01-0.23,0.13-0.23,0.27c0,0.13,0.23,0.26,0.23,0.26v-0.2c0,0-0.04-0.03-0.03-0.07c0.01-0.04,0.03-0.09,0.1-0.08
					c0.04,0.01,0.15,0.04,0.13,0.17c-0.02,0.15-0.05,0.29-0.18,0.43c-0.18,0.19-0.18,0.33-0.19,0.59c0,0.09,0.02,0.32,0.09,0.44
					c0.01,0.02,0.1,0.16,0.13,0.2c0.11,0.14,0.41,0.32,0.43,0.32h1.02c0,0-0.2-0.18-0.4-0.18c-0.19,0-0.37,0.11-0.37,0.11
					s-0.16-0.01-0.32-0.13c-0.16-0.12-0.22-0.15-0.32-0.35c-0.1-0.2-0.15-0.29-0.08-0.44c0.15-0.31,0.56-0.19,0.56-0.19l-0.1-0.27
					c0,0,0.29-0.03,0.52,0.34c0.13,0.22,0.15,0.41,0.42,0.7c0.3,0.31,0.45,0.42,0.81,0.42c0.34,0,0.54-0.11,0.66-0.48
					c0.15-0.46,0.63-0.34,0.64-0.33c0.12,0.34,0.35,0.62,0.59,0.85c0.02,0.02,0.06,0.02,0.08,0c0.02-0.02,0.02-0.06,0-0.08
					c-0.25-0.23-0.51-0.53-0.59-0.86c-0.02-0.08-0.04-0.16-0.05-0.23s0-0.11,0.05-0.14c0.05-0.04,0.08-0.04,0.12-0.02
					c0.01,0,0.03,0.02,0.04,0.02c0.01,0.01,0.03,0.02,0.03,0.03c0.01,0.02,0.02,0.04,0.04,0.07c-0.01,0.01-0.01,0.01-0.03,0.02
					s-0.03,0.02-0.05,0.03c-0.01,0.01-0.03,0.02-0.04,0.06c-0.01,0.04,0,0.06,0,0.08c0.01,0.02,0.02,0.04,0.03,0.06
					c0.01,0.02,0.02,0.03,0.04,0.05c0.02,0.02,0.05,0.04,0.08,0.03c0.04,0,0.09-0.03,0.12-0.06s0.06-0.08,0.07-0.14
					c0-0.05,0-0.1-0.02-0.15c-0.02-0.05-0.07-0.09-0.13-0.13c-0.04-0.02-0.09-0.06-0.15-0.09c-0.03-0.01-0.07-0.01-0.11-0.01
					c-0.04,0.01-0.08,0.02-0.12,0.05c-0.08,0.06-0.1,0.16-0.1,0.25c0,0.02,0,0.04,0.01,0.07c0,0.01-0.16-0.09-0.35-0.09
					c-0.2,0-0.39,0.2-0.4,0.21c-0.25-0.27-0.51-0.47-0.96-0.49c-0.54-0.03-1.07,0.49-1.06,0.5c-0.25,0.2-0.43,0.43-0.91,0.52
					c-0.11,0.02-0.22-0.08-0.22-0.19c-0.01-0.1,0.13-0.23,0.13-0.23c0.01-0.03-0.34-0.01-0.34,0.23c0,0.15,0.12,0.39,0.38,0.36
					c0.38-0.05,0.7-0.2,0.96-0.45c0-0.01,0.57-0.54,0.91-0.55c0.07,0,0.33,0.1,0.38,0.18c0.04,0.06,0.03,0.14,0.17,0.19l0-0.24
					c-0.05,0.02-0.05-0.01-0.03-0.07C29.88,80,30.07,80.11,30.18,80.29z"/>
				<path id="path4256_00000176734044771541454690000016028217759597295764_" class="st4" d="M34.44,77.66
					c0.12-0.18,0-0.38-0.08-0.47C34.28,77.11,34.07,77,34.07,77s0.12,0.16,0.1,0.28c-0.03,0.17-0.16,0.18-0.18,0.18
					c-0.01,0-0.17-0.02-0.16-0.16c0.02-0.28,0.14-0.43,0.3-0.6c0.2-0.21,0.48-0.32,0.59-0.41c0.07-0.06,0.15-0.07,0.17-0.09
					c0.18-0.15,0.26-0.26,0.35-0.47c0.09-0.21-0.01-0.37-0.01-0.37s0.21,0.08,0.41,0.08c0.19-0.01,0.3-0.2,0.32-0.34
					c0.01-0.1-0.13-0.23-0.27-0.23c-0.13,0-0.26,0.23-0.26,0.23h0.2c0,0,0.03-0.04,0.07-0.03c0.04,0.01,0.09,0.03,0.08,0.1
					c-0.01,0.04-0.04,0.15-0.17,0.13c-0.15-0.02-0.29-0.05-0.43-0.18c-0.19-0.18-0.33-0.18-0.59-0.19c-0.09,0-0.32,0.02-0.44,0.09
					c-0.02,0.01-0.16,0.1-0.2,0.13c-0.14,0.11-0.32,0.41-0.32,0.43v1.02c0,0,0.18-0.2,0.18-0.4c0-0.19-0.11-0.37-0.11-0.37
					s0.01-0.16,0.13-0.32c0.12-0.16,0.15-0.22,0.35-0.32c0.2-0.1,0.29-0.15,0.44-0.08c0.31,0.15,0.19,0.56,0.19,0.56l0.27-0.1
					c0,0,0.03,0.29-0.34,0.52c-0.22,0.13-0.41,0.15-0.7,0.42c-0.31,0.3-0.42,0.45-0.42,0.81c0,0.34,0.11,0.54,0.48,0.66
					c0.46,0.15,0.34,0.63,0.33,0.64c-0.34,0.12-0.62,0.35-0.85,0.59c-0.02,0.02-0.02,0.06,0,0.08c0.02,0.02,0.06,0.02,0.08,0
					c0.23-0.25,0.53-0.51,0.86-0.59c0.08-0.02,0.16-0.04,0.23-0.05c0.07,0,0.11,0,0.14,0.05c0.04,0.05,0.04,0.08,0.02,0.12
					c0,0.01-0.02,0.03-0.02,0.04c-0.01,0.01-0.02,0.03-0.03,0.03c-0.02,0.01-0.04,0.02-0.07,0.04c-0.01-0.01-0.01-0.01-0.02-0.03
					c-0.01-0.02-0.02-0.03-0.03-0.05s-0.02-0.03-0.06-0.04c-0.04-0.01-0.06,0-0.08,0c-0.02,0.01-0.04,0.02-0.06,0.03
					s-0.03,0.02-0.05,0.04c-0.02,0.02-0.04,0.05-0.03,0.08c0,0.04,0.03,0.09,0.06,0.12c0.03,0.03,0.08,0.06,0.14,0.07
					c0.05,0,0.1,0,0.15-0.02c0.05-0.02,0.09-0.07,0.13-0.13c0.02-0.04,0.06-0.09,0.09-0.15c0.01-0.03,0.01-0.07,0.01-0.11
					c-0.01-0.04-0.02-0.08-0.05-0.12c-0.06-0.08-0.16-0.1-0.25-0.1c-0.02,0-0.04,0-0.07,0.01c-0.01,0,0.09-0.16,0.09-0.35
					c0-0.2-0.2-0.39-0.21-0.4c0.27-0.25,0.47-0.51,0.49-0.96c0.03-0.54-0.49-1.07-0.5-1.06c-0.2-0.25-0.43-0.43-0.52-0.91
					c-0.02-0.11,0.08-0.22,0.19-0.22c0.1-0.01,0.23,0.13,0.23,0.13c0.03,0.01,0.01-0.34-0.23-0.34c-0.15,0-0.39,0.12-0.36,0.38
					c0.05,0.38,0.2,0.7,0.45,0.96c0.01,0,0.54,0.57,0.55,0.91c0,0.07-0.1,0.33-0.18,0.38c-0.06,0.04-0.14,0.03-0.19,0.17l0.24,0
					c-0.02-0.05,0.01-0.05,0.07-0.03C34.73,77.36,34.62,77.55,34.44,77.66z"/>
				<path id="path4258_00000020357813499017516430000008493629089876849811_" class="st4" d="M32.81,77.66
					c-0.12-0.18,0-0.38,0.08-0.47c0.08-0.08,0.28-0.18,0.28-0.18s-0.12,0.16-0.1,0.28c0.03,0.17,0.16,0.18,0.18,0.18
					s0.17-0.02,0.16-0.16c-0.02-0.28-0.14-0.43-0.3-0.6c-0.2-0.21-0.48-0.32-0.59-0.41c-0.07-0.06-0.15-0.07-0.17-0.09
					c-0.18-0.15-0.26-0.26-0.35-0.47c-0.09-0.21,0.01-0.37,0.01-0.37s-0.21,0.08-0.41,0.08c-0.19-0.01-0.3-0.2-0.32-0.34
					c-0.01-0.1,0.13-0.23,0.27-0.23c0.13,0,0.26,0.23,0.26,0.23h-0.2c0,0-0.03-0.04-0.07-0.03c-0.04,0.01-0.09,0.03-0.08,0.1
					c0.01,0.04,0.04,0.15,0.17,0.13c0.15-0.02,0.29-0.05,0.43-0.18c0.19-0.18,0.33-0.18,0.59-0.19c0.09,0,0.32,0.02,0.44,0.09
					c0.02,0.01,0.16,0.1,0.2,0.13c0.14,0.11,0.32,0.41,0.32,0.43v1.02c0,0-0.18-0.2-0.18-0.4c0-0.19,0.11-0.37,0.11-0.37
					s-0.01-0.16-0.13-0.32c-0.12-0.16-0.15-0.22-0.35-0.32c-0.2-0.1-0.29-0.15-0.44-0.08c-0.31,0.15-0.19,0.56-0.19,0.56l-0.27-0.1
					c0,0-0.03,0.29,0.34,0.52c0.22,0.13,0.41,0.15,0.7,0.42c0.31,0.3,0.42,0.45,0.42,0.81c0,0.34-0.11,0.54-0.48,0.66
					c-0.46,0.15-0.34,0.63-0.33,0.64c0.34,0.12,0.62,0.35,0.85,0.59c0.02,0.02,0.02,0.06,0,0.08s-0.06,0.02-0.08,0
					c-0.23-0.25-0.53-0.51-0.86-0.59c-0.08-0.02-0.16-0.04-0.23-0.05s-0.11,0-0.14,0.05c-0.04,0.05-0.04,0.08-0.02,0.12
					c0,0.01,0.02,0.03,0.02,0.04c0.01,0.01,0.02,0.03,0.03,0.03c0.02,0.01,0.04,0.02,0.07,0.04c0.01-0.01,0.01-0.01,0.02-0.03
					c0.01-0.02,0.02-0.03,0.03-0.05s0.02-0.03,0.06-0.04c0.04-0.01,0.06,0,0.08,0c0.02,0.01,0.04,0.02,0.06,0.03
					s0.03,0.02,0.05,0.04c0.02,0.02,0.04,0.05,0.03,0.08c0,0.04-0.03,0.09-0.06,0.12c-0.03,0.03-0.08,0.06-0.14,0.07
					c-0.05,0-0.1,0-0.15-0.02c-0.05-0.02-0.09-0.07-0.13-0.13c-0.02-0.04-0.06-0.09-0.09-0.15c-0.01-0.03-0.01-0.07-0.01-0.11
					c0.01-0.04,0.02-0.08,0.05-0.12c0.06-0.08,0.16-0.1,0.25-0.1c0.02,0,0.04,0,0.07,0.01c0.01,0-0.09-0.16-0.09-0.35
					c0-0.2,0.2-0.39,0.21-0.4c-0.27-0.25-0.47-0.51-0.49-0.96c-0.03-0.54,0.49-1.07,0.5-1.06c0.2-0.25,0.43-0.43,0.52-0.91
					c0.02-0.11-0.08-0.22-0.19-0.22c-0.1-0.01-0.23,0.13-0.23,0.13c-0.03,0.01-0.01-0.34,0.23-0.34c0.15,0,0.39,0.12,0.36,0.38
					c-0.05,0.38-0.2,0.7-0.45,0.96c-0.01,0-0.54,0.57-0.55,0.91c0,0.07,0.1,0.33,0.18,0.38c0.06,0.04,0.14,0.03,0.19,0.17l-0.24,0
					c0.02-0.05-0.01-0.05-0.07-0.03C32.53,77.36,32.63,77.55,32.81,77.66z"/>
				<path id="path4150_00000014625808681888115830000015699023962962293381_" class="st4" d="M32.63,81.94
					c0.11-0.16,0.3-0.34,0.43-0.39c0.13-0.06,0.15,0.02,0.05,0.18c-0.11,0.16-0.3,0.34-0.43,0.4c-0.13,0.06-0.16-0.02-0.06-0.18"/>
				<path id="path4123_00000105416769475668571890000011839041880410462385_" class="st4" d="M32.19,81.11
					c0.05,0.09,0.4,0.03,0.6,0.05c-0.24,0.17-0.39,0.29-0.39,0.38c0.04,0.05,0.07-0.03,0.17-0.1c0.16-0.12,0.43-0.29,0.7-0.33
					c-0.27-0.04-0.54-0.21-0.7-0.33c-0.1-0.07-0.13-0.15-0.17-0.1c0,0.09,0.15,0.21,0.39,0.38C32.59,81.07,32.24,81.02,32.19,81.11z
					"/>
				<path id="path4130_00000005267512885504233430000009203483526187211907_" class="st4" d="M35.02,81.11
					c-0.05,0.09-0.4,0.03-0.6,0.05c0.24,0.17,0.39,0.29,0.39,0.38c-0.04,0.05-0.07-0.03-0.17-0.1c-0.16-0.12-0.43-0.29-0.7-0.33
					c0.27-0.04,0.54-0.21,0.7-0.33c0.1-0.07,0.13-0.15,0.17-0.1c0,0.09-0.15,0.21-0.39,0.38C34.62,81.07,34.97,81.02,35.02,81.11z"
					/>
				<path id="path4138_00000078006623835533503960000017389136154911200128_" class="st4" d="M33.61,79.69
					c-0.09,0.05-0.03,0.4-0.05,0.6c-0.17-0.24-0.29-0.39-0.38-0.39c-0.05,0.04,0.03,0.07,0.1,0.17c0.12,0.16,0.29,0.43,0.33,0.7
					c0.04-0.27,0.21-0.54,0.33-0.7c0.07-0.1,0.15-0.13,0.1-0.17c-0.09,0-0.21,0.15-0.38,0.39C33.64,80.09,33.69,79.74,33.61,79.69z"
					/>
				<path id="path4140_00000070806716684378218020000002139137725743182988_" class="st4" d="M33.61,82.52
					c-0.09-0.05-0.03-0.4-0.05-0.6c-0.17,0.24-0.29,0.39-0.38,0.39c-0.05-0.04,0.03-0.07,0.1-0.17c0.12-0.16,0.29-0.43,0.33-0.7
					c0.04,0.27,0.21,0.54,0.33,0.7c0.07,0.1,0.15,0.13,0.1,0.17c-0.09,0-0.21-0.15-0.38-0.39C33.64,82.12,33.69,82.47,33.61,82.52z"
					/>
				<path id="path4144_00000031916349063171645730000016240692566417621674_" class="st4" d="M32.97,80.59
					c-0.16-0.11-0.34-0.3-0.39-0.43c-0.06-0.13,0.02-0.15,0.18-0.05c0.16,0.11,0.34,0.3,0.4,0.43c0.06,0.13-0.02,0.16-0.18,0.06"/>
				<path id="path4146_00000177480773720519909640000002999679140471947700_" class="st4" d="M34.46,82.08
					c-0.16-0.11-0.34-0.3-0.39-0.43c-0.06-0.13,0.02-0.15,0.18-0.05c0.16,0.11,0.34,0.3,0.4,0.43c0.06,0.13-0.02,0.16-0.18,0.06"/>
				<path id="path4148_00000155139684794086143660000011787613419069413260_" class="st4" d="M34.11,80.47
					c0.11-0.16,0.3-0.34,0.43-0.39c0.13-0.06,0.15,0.02,0.05,0.18c-0.11,0.16-0.3,0.34-0.43,0.4c-0.13,0.06-0.16-0.02-0.06-0.18"/>
			</g>
			<g id="Lettere">
				<path id="path24889_00000155847738160985049360000002398647086185592482_" class="st5" d="M27.96,75.72h-0.34v0.1h0.09v1.16
					h-0.13v0.1h0.51v-0.1h-0.13L27.96,75.72z"/>
				<path id="path3186_00000021079168418846114490000005138232185224279688_" class="st5" d="M28.29,76.35
					c0-0.13,0.26-0.09,0.26,0.08h-0.08v0.22h0.32v-0.3c0-0.12,0.27-0.08,0.27,0.09h-0.08v0.65h-0.19v-0.33h-0.24h-0.08v0.25
					c0,0.08-0.28,0.1-0.28-0.09h0.1V76.35z"/>
				<path id="path24887_00000028321330651419231940000005101448417977194125_" class="st5" d="M29.43,76.89
					c0.04,0.07,0.07,0.11,0.14,0.11c0.07,0,0.1-0.04,0.14-0.12c0.06-0.01,0.12-0.02,0.17,0.04c-0.07,0.09-0.18,0.15-0.31,0.15
					c-0.23,0-0.39-0.18-0.39-0.4c0,0,0-0.01,0-0.01c0-0.22,0.17-0.4,0.39-0.4c0.13,0,0.24,0.06,0.31,0.15
					c-0.04,0.06-0.1,0.05-0.17,0.04c-0.04-0.07-0.07-0.12-0.14-0.12c-0.07,0-0.1,0.04-0.14,0.11V76.89z"/>
				
					<rect id="rect5544_00000083051187683055314710000015917158087283566269_" x="28.18" y="75.74" class="st4" width="1.63" height="0.09"/>
				<path id="path6238_00000024715282082208877110000000243114002117306526_" class="st5" d="M37.03,76.01h0.18v1.14h-0.09v0.1h0.54
					v-0.1h-0.14v-1.14h0.14V75.9h-0.63H36.4v0.12h0.14v1.14H36.4v0.1h0.54v-0.1h-0.09v-1.14H37.03z"/>
				<path id="path5556_00000075859293972013035860000004860188786700333976_" class="st5" d="M39.32,77.08
					c0.04,0.07,0.07,0.11,0.14,0.11c0.07,0,0.1-0.04,0.14-0.11c0.06-0.01,0.12-0.02,0.17,0.04c-0.07,0.09-0.18,0.15-0.31,0.15
					c-0.23,0-0.39-0.17-0.39-0.39c0,0,0-0.01,0-0.01c0-0.22,0.17-0.39,0.39-0.39c0.13,0,0.24,0.06,0.31,0.15
					c-0.04,0.06-0.1,0.05-0.17,0.04c-0.04-0.07-0.07-0.11-0.14-0.11c-0.07,0-0.1,0.04-0.14,0.11V77.08z"/>
				<path id="path6126_00000086662725031765473260000010940716657581991840_" class="st5" d="M38.39,77.04
					c0.09,0.06,0.13,0.35,0.33,0.34c0.1-0.02,0.19-0.09,0.21-0.19c0.01-0.08-0.05-0.13-0.11-0.16c-0.08-0.04-0.15,0.04-0.14,0.12
					c0.02,0.06-0.05-0.01-0.11-0.07c-0.07-0.07-0.08-0.11-0.08-0.18c0-0.04,0.21-0.3,0.25-0.32c0.07-0.04,0.06,0.11,0.09,0.07
					c0.04-0.06,0.12-0.06,0.07-0.13c-0.03-0.05-0.08-0.06-0.13-0.06c-0.11-0.02-0.22,0-0.28,0.11c-0.07,0.13-0.07,0.2-0.11,0.2
					c-0.09-0.06-0.13-0.35-0.33-0.34c-0.1,0.02-0.19,0.09-0.21,0.19c-0.01,0.08,0.05,0.13,0.11,0.16c0.08,0.04,0.15-0.04,0.14-0.12
					c-0.02-0.06,0.05,0.01,0.11,0.07c0.07,0.07,0.08,0.11,0.08,0.18c0,0.04-0.18,0.27-0.22,0.29c-0.07,0.04-0.06-0.11-0.09-0.07
					c-0.04,0.06-0.15,0.1-0.1,0.17c0.03,0.05,0.08,0.06,0.13,0.06c0.11,0.02,0.22,0,0.28-0.11C38.34,77.12,38.35,77.04,38.39,77.04"
					/>
				
					<rect id="rect5561_00000072253811150401614580000004544694165623965315_" x="37.89" y="75.96" class="st4" width="1.75" height="0.09"/>
				<path id="path8133_00000116215424750367190810000014082164192940606636_" class="st5" d="M38.13,85.27h0.3v0.61h0.12v0.11h-0.12
					v0.55h-0.16v-0.55h-0.1v-0.11h0.1v-0.52h-0.14V85.27z"/>
				<path id="path9106_00000025426118097274194110000010739419694391724963_" class="st5" d="M38.43,85.51
					c0.08-0.02,0.17-0.04,0.29,0c0.73,0.46-0.91,1.53-0.93,0.14c0.1-0.19,0.3-0.14,0.33,0.05c-0.01,0.05-0.07,0.09-0.11,0.07
					c-0.03-0.02-0.05-0.07-0.06-0.09c-0.01-0.02-0.07-0.06-0.07,0.05c0,0.46,0.51,0.67,0.79,0.2c0.12-0.21-0.09-0.38-0.25-0.31
					C38.34,85.66,38.35,85.52,38.43,85.51z"/>
				<path id="path18940_00000104705204511345143950000017584950211218765699_" class="st5" d="M36.94,86.16
					c-0.04-0.12,0.06-0.24,0.08-0.36c0.03-0.17-0.09-0.25-0.16-0.25s-0.18,0.09-0.16,0.25c0.02,0.12,0.08,0.24,0.05,0.36H36.94z"/>
				<path id="path18952_00000038410981251065643990000018411661571823137949_" class="st5" d="M37.49,86.16
					c-0.04-0.12,0.06-0.24,0.08-0.36c0.03-0.17-0.09-0.25-0.16-0.25s-0.18,0.09-0.16,0.25c0.02,0.12,0.08,0.24,0.05,0.36H37.49z"/>
				<path id="path18956_00000168105063359639173460000007356113308025054850_" class="st5" d="M37.41,85.99l-0.04,0.05
					c-0.08,0.1-0.16,0.14-0.24,0.14c-0.08,0-0.16-0.04-0.25-0.15L36.84,86l-0.03,0.05c-0.05,0.08-0.12,0.12-0.2,0.16
					c-0.02,0.01-0.03,0.02-0.03,0.04c0,0.02,0.01,0.03,0.02,0.04c0.02,0.01,0.04,0.01,0.05,0c0.07-0.03,0.14-0.08,0.2-0.15
					c0.09,0.09,0.18,0.14,0.28,0.14c0.1,0,0.19-0.06,0.27-0.14c0.05,0.06,0.11,0.11,0.18,0.16c0.02,0.01,0.05,0.01,0.06-0.01
					c0.01-0.02,0.01-0.05-0.01-0.06c-0.08-0.05-0.15-0.1-0.19-0.17L37.41,85.99z"/>
				<path id="path848_00000099660647119238860590000011233490588977323450_" class="st4" d="M39.5,85.07c0.06,0,0.13,0,0.19,0
					c0,0.08,0,0.16,0,0.23c0,0.06,0,0.12,0,0.18c0.08,0,0.15,0,0.23-0.01l0.11,0c0.03,0,0.03,0.06,0.02,0.11c-0.12,0-0.24,0-0.36,0
					c0,0.27,0,0.55-0.01,0.82c0,0.1-0.13,0.14-0.19,0.14c-0.05,0-0.11-0.09-0.13-0.14c-0.01-0.02,0.02-0.08,0.04-0.08
					c0.02,0,0.08,0.04,0.1,0.05c0.01-0.26,0-0.52,0-0.78l-0.2-0.01l0.05,0.23l-0.33-0.33c0.16-0.02,0.32-0.01,0.48-0.01
					C39.5,85.34,39.5,85.2,39.5,85.07z"/>
				<path id="path5587_00000155114531809775605040000015395423265838627477_" class="st4" d="M36.85,85.17
					c-0.21,0.03-0.43-0.03-0.4-0.15C36.48,84.93,36.66,84.92,36.85,85.17z"/>
				<path id="path5590_00000142174437346716294870000006395516265436688520_" class="st4" d="M38.06,85.18
					c-0.21,0.03-0.43-0.03-0.4-0.15C37.69,84.93,37.87,84.93,38.06,85.18z"/>
				<path id="path5633_00000034780188980098432140000004392798337483871678_" class="st5" d="M27.52,85.43h0.12v0.94h-0.06v0.08
					h0.35v-0.08h-0.09v-0.94h0.09v-0.1h-0.4h-0.4v0.1h0.09v0.94h-0.09v0.08h0.35v-0.08h-0.06v-0.94H27.52z"/>
				<path id="path24954_00000088109652222507695110000016236751908923654030_" class="st5" d="M28.47,86.35
					c0.17,0.27,0.64-0.07,0.35-0.61c-0.04-0.07-0.16-0.01-0.09,0.1c0.17,0.26-0.02,0.68-0.19,0.47c-0.01-0.02-0.03-0.06-0.02-0.08
					c0.07-0.19,0.11-0.37-0.05-0.52c-0.16,0.15-0.13,0.33-0.05,0.52c0.01,0.03-0.01,0.07-0.02,0.08c-0.17,0.21-0.36-0.2-0.19-0.47
					c0.07-0.1-0.05-0.16-0.09-0.1C27.83,86.28,28.3,86.62,28.47,86.35z"/>
				<path id="path24961_00000053529085218035938360000005957845317551047816_" class="st5" d="M28.88,86.07
					c0.13,0.45-0.15,0.91-0.53,0.63c-0.06-0.07-0.17-0.04-0.18,0.05c0.06-0.01,0.1,0.01,0.12,0.05c0.01,0.24-0.28,0.19-0.21-0.07
					c0.05-0.19,0.23-0.3,0.42-0.21c0.11,0.05,0.19,0.1,0.28-0.01c0.04-0.05,0.08-0.13,0.03-0.28L28.88,86.07z"/>
				<path id="path5606_00000010289781980908028480000003481619721306276743_" class="st4" d="M27.65,85.18
					c-0.21,0.03-0.43-0.03-0.4-0.15C27.28,84.93,27.46,84.92,27.65,85.18z"/>
				<path id="path5642_00000052089680955826212930000003932793509863285677_" class="st5" d="M29.04,85.76
					c0-0.12,0.19-0.08,0.19,0.08h-0.06v0.21h0.24v-0.29c0-0.11,0.2-0.08,0.2,0.08h-0.06v0.61h-0.14v-0.31h-0.18h-0.06v0.24
					c0,0.07-0.2,0.09-0.2-0.08h0.07V85.76z"/>
				<path id="path24940_00000037683186661822703400000005210251669003912605_" class="st5" d="M29.99,85.63
					c-0.04,0-0.1,0.01-0.15,0.09c-0.05-0.04-0.1-0.08-0.16-0.04l0.07,0.14l0,0.84h-0.09c0,0.12,0.2,0.24,0.2,0.05v-0.46
					c0.14,0.14,0.22,0.05,0.29-0.09c0.04-0.16,0.04-0.32-0.05-0.47C30.07,85.66,30.03,85.63,29.99,85.63z M29.96,85.76
					c0.06,0,0.09,0.07,0.09,0.22c0,0.15-0.03,0.24-0.09,0.24c-0.06,0-0.08-0.09-0.08-0.24S29.9,85.76,29.96,85.76z"/>
				<path id="path24891_00000124125132884861908760000005463749951994199729_" class="st5" d="M30.34,85.73
					c0-0.13,0.18-0.09,0.18,0.08h-0.06v0.58c0,0.08-0.19,0.1-0.19-0.09h0.07V85.73z"/>
				<path id="path7696_00000034081235753232533770000015087432046079160744_" class="st5" d="M27.52,85.43h0.12v0.94h-0.06v0.08
					h0.35v-0.08h-0.09v-0.94h0.09v-0.1h-0.4h-0.4v0.1h0.09v0.94h-0.09v0.08h0.35v-0.08h-0.06v-0.94H27.52z"/>
				<path id="path7700_00000008869803658672761530000018193178844822963391_" class="st5" d="M28.47,86.35
					c0.17,0.27,0.64-0.07,0.35-0.61c-0.04-0.07-0.16-0.01-0.09,0.1c0.17,0.26-0.02,0.68-0.19,0.47c-0.01-0.02-0.03-0.06-0.02-0.08
					c0.07-0.19,0.11-0.37-0.05-0.52c-0.16,0.15-0.13,0.33-0.05,0.52c0.01,0.03-0.01,0.07-0.02,0.08c-0.17,0.21-0.36-0.2-0.19-0.47
					c0.07-0.1-0.05-0.16-0.09-0.1C27.83,86.28,28.3,86.62,28.47,86.35z"/>
				<path id="path7702_00000137811003582485874060000006072575890449909671_" class="st5" d="M28.88,86.07
					c0.13,0.45-0.15,0.91-0.53,0.63c-0.06-0.07-0.17-0.04-0.18,0.05c0.06-0.01,0.1,0.01,0.12,0.05c0.01,0.24-0.28,0.19-0.21-0.07
					c0.05-0.19,0.23-0.3,0.42-0.21c0.11,0.05,0.19,0.1,0.28-0.01c0.04-0.05,0.08-0.13,0.03-0.28L28.88,86.07z"/>
				<path id="path7704_00000109746680815976326090000002790379046840700042_" class="st4" d="M27.65,85.18
					c-0.21,0.03-0.43-0.03-0.4-0.15C27.28,84.93,27.46,84.92,27.65,85.18z"/>
				<path id="path7706_00000052076802580049393540000011649886361496084665_" class="st5" d="M29.04,85.76
					c0-0.12,0.19-0.08,0.19,0.08h-0.06v0.21h0.24v-0.29c0-0.11,0.2-0.08,0.2,0.08h-0.06v0.61h-0.14v-0.31h-0.18h-0.06v0.24
					c0,0.07-0.2,0.09-0.2-0.08h0.07V85.76z"/>
				<path id="path7708_00000175305049631437294240000006458017791650865592_" class="st5" d="M29.99,85.63
					c-0.04,0-0.1,0.01-0.15,0.09c-0.05-0.04-0.1-0.08-0.16-0.04l0.07,0.14l0,0.84h-0.09c0,0.12,0.2,0.24,0.2,0.05v-0.46
					c0.14,0.14,0.22,0.05,0.29-0.09c0.04-0.16,0.04-0.32-0.05-0.47C30.07,85.66,30.03,85.63,29.99,85.63z M29.96,85.76
					c0.06,0,0.09,0.07,0.09,0.22c0,0.15-0.03,0.24-0.09,0.24c-0.06,0-0.08-0.09-0.08-0.24S29.9,85.76,29.96,85.76z"/>
				<path id="path7710_00000021805275995649738980000014504446831315093396_" class="st5" d="M30.34,85.73
					c0-0.13,0.18-0.09,0.18,0.08h-0.06v0.58c0,0.08-0.19,0.1-0.19-0.09h0.07V85.73z"/>
				<path id="path7716_00000127755629610699699340000005244350592492110493_" class="st5" d="M38.13,85.27h0.3v0.61h0.12v0.11h-0.12
					v0.55h-0.16v-0.55h-0.1v-0.11h0.1v-0.52h-0.14V85.27z"/>
				<path id="path7718_00000134953157071163189040000004156425193114633354_" class="st5" d="M38.43,85.51
					c0.08-0.02,0.17-0.04,0.29,0c0.73,0.46-0.91,1.53-0.93,0.14c0.1-0.19,0.3-0.14,0.33,0.05c-0.01,0.05-0.07,0.09-0.11,0.07
					c-0.03-0.02-0.05-0.07-0.06-0.09c-0.01-0.02-0.07-0.06-0.07,0.05c0,0.46,0.51,0.67,0.79,0.2c0.12-0.21-0.09-0.38-0.25-0.31
					C38.34,85.66,38.35,85.52,38.43,85.51z"/>
				<path id="path7722_00000128448944085393994590000017172789247022652054_" class="st5" d="M36.94,86.16
					c-0.04-0.12,0.06-0.24,0.08-0.36c0.03-0.17-0.09-0.25-0.16-0.25s-0.18,0.09-0.16,0.25c0.02,0.12,0.08,0.24,0.05,0.36H36.94z"/>
				<path id="path7724_00000092417425020278883140000017292845640928036283_" class="st5" d="M37.49,86.16
					c-0.04-0.12,0.06-0.24,0.08-0.36c0.03-0.17-0.09-0.25-0.16-0.25s-0.18,0.09-0.16,0.25c0.02,0.12,0.08,0.24,0.05,0.36H37.49z"/>
				<path id="path7726_00000114032192574302724860000008983887781814973867_" class="st5" d="M37.41,85.99l-0.04,0.05
					c-0.08,0.1-0.16,0.14-0.24,0.14c-0.08,0-0.16-0.04-0.25-0.15L36.84,86l-0.03,0.05c-0.05,0.08-0.12,0.12-0.2,0.16
					c-0.02,0.01-0.03,0.02-0.03,0.04c0,0.02,0.01,0.03,0.02,0.04c0.02,0.01,0.04,0.01,0.05,0c0.07-0.03,0.14-0.08,0.2-0.15
					c0.09,0.09,0.18,0.14,0.28,0.14c0.1,0,0.19-0.06,0.27-0.14c0.05,0.06,0.11,0.11,0.18,0.16c0.02,0.01,0.05,0.01,0.06-0.01
					c0.01-0.02,0.01-0.05-0.01-0.06c-0.08-0.05-0.15-0.1-0.19-0.17L37.41,85.99z"/>
				<path id="path7728_00000031895189279168469760000013789937166322626699_" class="st4" d="M39.5,85.07c0.06,0,0.13,0,0.19,0
					c0,0.08,0,0.16,0,0.23c0,0.06,0,0.12,0,0.18c0.08,0,0.15,0,0.23-0.01l0.11,0c0.03,0,0.03,0.06,0.02,0.11c-0.12,0-0.24,0-0.36,0
					c0,0.27,0,0.55-0.01,0.82c0,0.1-0.13,0.14-0.19,0.14c-0.05,0-0.11-0.09-0.13-0.14c-0.01-0.02,0.02-0.08,0.04-0.08
					c0.02,0,0.08,0.04,0.1,0.05c0.01-0.26,0-0.52,0-0.78l-0.2-0.01l0.05,0.23l-0.33-0.33c0.16-0.02,0.32-0.01,0.48-0.01
					C39.5,85.34,39.5,85.2,39.5,85.07z"/>
				<path id="path7730_00000072241236325867039870000015372668233358437775_" class="st4" d="M36.85,85.17
					c-0.21,0.03-0.43-0.03-0.4-0.15C36.48,84.93,36.66,84.92,36.85,85.17z"/>
				<path id="path7732_00000089558622921063849960000007533552857492625322_" class="st4" d="M38.06,85.18
					c-0.21,0.03-0.43-0.03-0.4-0.15C37.69,84.93,37.87,84.93,38.06,85.18z"/>
			</g>
		</g>
	</g>
	<path d="M129.1,79.99c0,21.53-17.6,39.07-39.23,39.03c-21.52-0.04-39.21-18.01-38.96-39.48C51.14,59.01,68,41.17,89.54,40.98
		C112.38,40.78,129.28,59.53,129.1,79.99z M78.15,95.16c0.59-0.06,1-0.24,1.36-0.71c3.05-3.99,6.11-7.97,9.2-11.93
		c0.43-0.56,0.56-1.05,0.36-1.72c-1.29-4.33-2.55-8.66-3.81-13c-0.14-0.46-0.37-0.76-0.9-0.85c-4.53-0.72-9.05-1.47-13.58-2.17
		c-0.3-0.05-0.74,0.17-0.98,0.41c-0.55,0.55-1.02,1.19-1.52,1.8c-2.13,2.61-4.18,5.27-5.67,8.31c-0.2,0.41-0.32,0.96-0.24,1.4
		c0.37,2.11,0.68,4.25,1.27,6.3c0.7,2.4,1.63,4.73,2.54,7.06c0.41,1.05,1.15,1.87,2.28,2.22c1.83,0.58,3.66,1.18,5.5,1.72
		C75.34,94.43,76.75,94.78,78.15,95.16z M99.16,107.33c0-0.03,0.01-0.06,0.01-0.09c1.23-0.07,2.46-0.18,3.69-0.2
		c0.57-0.01,0.99-0.21,1.34-0.62c1.02-1.19,2.08-2.35,3.06-3.58c1.38-1.73,2.71-3.51,4.05-5.28c0.42-0.55,0.42-1.12,0.13-1.76
		c-1.71-3.8-3.4-7.6-5.09-11.41c-0.25-0.56-0.61-0.82-1.24-0.8c-1.17,0.03-2.33,0.02-3.5-0.02c-3.23-0.12-6.45-0.27-9.68-0.42
		c-0.56-0.03-0.94,0.17-1.21,0.66c-2.55,4.51-5.65,8.56-9.59,11.96c-0.17,0.15-0.28,0.6-0.18,0.79c1.62,3.12,3.27,6.22,4.92,9.32
		c0.24,0.45,0.62,0.69,1.13,0.72C91.06,106.84,95.11,107.09,99.16,107.33z M86.09,65.18c0.31-0.13,0.66-0.23,0.95-0.41
		c3.24-1.92,6.46-3.87,9.7-5.78c0.61-0.36,0.76-0.81,0.62-1.45c-0.62-2.82-1.25-5.63-1.82-8.46c-0.16-0.81-0.53-1.32-1.31-1.5
		c-2-0.46-4-0.98-6.02-1.3c-1.92-0.3-3.8-0.3-5.72,0.49c-4.22,1.72-8.26,3.68-11.67,6.78c-0.71,0.65-1.12,1.24-0.95,2.3
		c0.32,2.03,0.47,4.09,0.67,6.15c0.05,0.5,0.3,0.71,0.78,0.72c0.45,0.01,0.89,0.05,1.34,0.07c4.21,0.14,8.33,0.81,12.34,2.09
		C85.35,64.97,85.69,65.06,86.09,65.18z M125.22,77.79c-0.06-0.37-0.09-0.76-0.18-1.12c-0.69-2.76-1.92-5.29-3.23-7.79
		c-0.21-0.41-0.5-0.55-0.98-0.48c-2.59,0.39-5.18,0.78-7.78,1.11c-0.69,0.09-0.99,0.37-1.19,1.02c-1.12,3.7-2.26,7.39-3.46,11.06
		c-0.23,0.7-0.17,1.2,0.2,1.81c1.03,1.73,2.15,3.43,2.95,5.26c0.82,1.89,1.29,3.94,1.9,5.92c0.14,0.45,0.23,0.91,0.85,0.82
		c2.46-0.35,4.9-0.77,7.25-1.64c0.65-0.24,1.09-0.64,1.35-1.3C124.7,87.74,125.45,82.85,125.22,77.79z M101.81,47.34
		c-1.2,0.16-2.4,0.28-3.58,0.49c-0.76,0.13-0.83,0.33-0.56,1.01c1.1,2.79,1.77,5.68,2.03,8.66c0.08,0.87,0.43,1.48,1.2,1.96
		c3.55,2.19,7.04,4.48,9.87,7.63c0.17,0.19,0.64,0.3,0.87,0.21c2.64-1.02,5.36-1.56,8.21-1.43c0.43,0.02,0.68-0.13,0.62-0.63
		c-0.29-2.34-0.83-4.57-2.28-6.51c-3.18-4.26-7.16-7.58-11.83-10.09C104.92,47.88,103.51,47.16,101.81,47.34z M55.29,73.72
		c-0.01,0.02-0.05,0.12-0.06,0.23c-0.17,1.81-0.44,3.61-0.48,5.42c-0.12,5.54,1.16,10.79,3.49,15.79c0.19,0.4,0.42,0.81,0.74,1.11
		c1.35,1.28,2.74,2.52,4.13,3.76c0.13,0.12,0.4,0.22,0.52,0.16c0.13-0.07,0.2-0.32,0.23-0.51c0.38-2.09,0.72-4.18,1.12-6.27
		c0.1-0.54,0.13-1-0.19-1.47c-2.93-4.31-4.29-9.12-4.41-14.29c-0.02-0.89-0.4-1.38-1.16-1.77C57.91,75.22,56.64,74.47,55.29,73.72z
		 M105.41,111.57c-0.66-0.76-1.19-1.35-1.71-1.96c-0.29-0.34-0.58-0.45-1.05-0.37c-1.83,0.31-3.66,0.69-5.5,0.81
		c-3.67,0.24-7.28-0.25-10.82-1.29c-0.42-0.12-0.96-0.04-1.39,0.12c-1.13,0.4-2.22,0.94-3.36,1.34c-0.84,0.3-1.72,0.48-2.59,0.69
		c-0.53,0.13-0.61,0.38-0.27,0.79c0.39,0.47,0.72,0.99,1.16,1.39c0.4,0.36,0.89,0.72,1.4,0.85c2.67,0.7,5.4,1.05,8.17,1.1
		c3.91,0.07,7.72-0.51,11.43-1.73C102.42,112.8,103.92,112.15,105.41,111.57z M63.15,102.58c3.5,4.05,7.56,7.15,12.45,9.19
		c-0.13-0.38-0.31-0.73-0.6-0.93c-0.48-0.33-1.03-0.54-1.54-0.82c-2.98-1.64-5.55-3.77-7.73-6.37
		C65.07,102.86,64.26,102.54,63.15,102.58z M65,55.35c0.85-0.38,1.71-0.75,2.55-1.14c0.2-0.09,0.43-0.19,0.55-0.36
		c0.76-1.03,1.49-2.07,2.29-3.21C68.35,52.02,66.48,53.45,65,55.35z"/>
	<g>
		<path d="M60.33,123.96l2.38,1.25l-0.63,8.91l6.98-5.57l2.4,1.26l-4.85,9.21l-1.9-1l3.44-6.53l-6.21,5.08l-1.79-0.94l0.67-7.97
			l-3.43,6.51l-1.9-1L60.33,123.96z"/>
		<path d="M72.69,129.89l2.11,0.7l-3.26,9.89l-2.11-0.7L72.69,129.89z"/>
		<path d="M76.06,131.11l2.18,0.42l-1.63,8.46l6.41,1.23l-0.34,1.77l-8.59-1.65L76.06,131.11z"/>
		<path d="M84.62,143.35l5.15-10.51l2.3-0.04l5.56,10.32l-2.47,0.04l-1.24-2.48l-5.72,0.1l-1.15,2.52L84.62,143.35z M93.06,138.97
			l-2.1-4.21L89,139.04L93.06,138.97z"/>
		<path d="M97.53,132.6l2.15-0.55l8.5,5.64l-1.89-7.34l2.15-0.55l2.6,10.08l-2.15,0.55l-8.5-5.64l1.89,7.34l-2.15,0.55L97.53,132.6z
			"/>
		<path d="M111.4,134.25c-1.55-2.9-0.45-5.93,2.87-7.72c3.33-1.78,6.46-1.02,8.02,1.88c1.56,2.91,0.46,5.94-2.87,7.73
			C116.1,137.92,112.96,137.16,111.4,134.25z M120.33,129.46c-1.04-1.95-3.09-2.47-5.21-1.34c-2.12,1.14-2.81,3.13-1.77,5.08
			c1.04,1.95,3.08,2.46,5.2,1.32C120.68,133.38,121.38,131.4,120.33,129.46z"/>
	</g>
	<g>
		<path d="M60.63,26.11c-2.56,1.52-3.2,3.16-2.05,5.11c1.12,1.89,2.93,2.06,5.54,0.51c1.2-0.71,2.18-1.62,3.22-2.88l1.45,2.8
			c-0.89,1.14-2.11,2.24-3.78,3.22c-4.35,2.57-8,2.13-10.08-1.39s-0.77-6.96,3.59-9.54c1.61-0.95,3.13-1.46,4.39-1.75l1.63,2.47
			C63.33,24.89,62.08,25.26,60.63,26.11z"/>
		<path d="M68.04,25.85c-0.97-3.75,1.09-6.84,5.83-8.07s8.04,0.48,9.01,4.23c0.97,3.76-1.08,6.86-5.82,8.09
			C72.32,31.32,69.02,29.62,68.04,25.85z M78.82,23.06c-0.53-2.03-2.06-2.92-4.19-2.4c-2.18,0.53-3.07,2.05-2.53,4.14
			c0.53,2.04,2.05,2.94,4.2,2.38C78.44,26.63,79.35,25.1,78.82,23.06z"/>
		<path d="M85.44,16l11.55,0.19l-0.05,2.8l-7.63-0.12l-0.03,2.13l6.86,0.11l-0.04,2.67l-6.86-0.11l-0.07,4.4L85.24,28L85.44,16z"/>
		<path d="M100.45,16.59l12.63,3.43l-0.81,2.96l-4.42-1.2l-2.34,8.62l-3.78-1.03l2.34-8.62l-4.43-1.2L100.45,16.59z"/>
		<path d="M107.92,30.54l11.06-7.57l4.17,2.32l-0.61,13.41l-3.96-2.21l0.25-2.72l-4.99-2.78l-2.18,1.64L107.92,30.54z M119.06,31.3
			l0.43-4.54l-3.66,2.74L119.06,31.3z"/>
	</g>
</g>
<g>
	<g>
		<path d="M202.81,58.88v-5.82h10.08v8.28l-6.6,6.66h-21.66V26.6l7.14-6.6h21.12v18.12h-10.08v-9h-8.1v29.76H202.81z"/>
		<path d="M246.85,20v48h-27.96V20H246.85z M237.13,59.12V28.94h-8.52v30.18H237.13z"/>
		<path d="M262.93,47.36V68h-10.08V26.66l6.66-6.66h16.32v9.12h-12.9v9.24h11.88v9H262.93z"/>
		<path d="M309.97,29.12h-8.88V68h-10.02V29.12h-9.24V20h28.14V29.12z"/>
		<path d="M315.96,68V27.62l7.74-7.62h21v48h-10.08V52.22h-8.52V68H315.96z M334.62,29.12h-8.52V43.1h8.52V29.12z"/>
		<path d="M209.47,92h11.64v48h-9.3v-29.88L204.37,140h-3l-7.5-29.88V140h-9.24V92h11.58l6.66,23.88L209.47,92z"/>
		<path d="M243.85,130.88V140h-16.74v-9.12h3.36v-29.76h-3.36V92h16.74v9.12h-3.36v29.76H243.85z"/>
		<path d="M249.85,140V92h10.08v38.88h14.04V140H249.85z"/>
		<path d="M279.97,140V99.62l7.74-7.62h21v48h-10.08v-15.78h-8.52V140H279.97z M298.63,101.12h-8.52v13.98h8.52V101.12z"/>
		<path d="M333.73,93.08h9.12V140h-9.6l-9.48-26.94V140h-9.06V93.08h9.6l9.42,26.94V93.08z"/>
		<path d="M376.8,92v48h-27.96V92H376.8z M367.08,131.12v-30.18h-8.52v30.18H367.08z"/>
	</g>
</g>
</svg>
